<svg width="135" height="112" viewBox="0 0 135 112" fill="none" xmlns="http://www.w3.org/2000/svg">
<path fill-rule="evenodd" clip-rule="evenodd" d="M75.1233 5.12598C75.4612 5.12598 75.7985 5.12598 76.1363 5.12598C77.8245 5.12598 79.5131 5.12598 81.2013 5.12598C82.3652 6.56025 83.3782 8.10825 84.2402 9.76998C82.6225 9.16058 81.2717 8.12858 80.1883 6.67398C78.4004 6.01375 76.7122 6.18574 75.1233 7.18998C74.7855 7.87796 74.4482 8.56599 74.1104 9.25398C74.1104 8.90996 74.1104 8.56599 74.1104 8.22198C74.1104 7.87796 74.1104 7.53399 74.1104 7.18998C74.4482 6.50199 74.7855 5.81396 75.1233 5.12598Z" fill="#10172E"/>
<path fill-rule="evenodd" clip-rule="evenodd" d="M85.2529 9.77002C86.1059 10.3001 86.9502 10.8161 87.7854 11.318C87.7854 11.662 87.7854 12.006 87.7854 12.35C87.7854 12.522 87.7854 12.694 87.7854 12.866C86.7537 11.9876 85.9099 10.9556 85.2529 9.77002Z" fill="#6A7E97"/>
<path fill-rule="evenodd" clip-rule="evenodd" d="M89.8115 14.9299C91.4997 15.9619 92.8505 17.3379 93.8635 19.0579C91.4997 18.7139 90.1494 17.3379 89.8115 14.9299Z" fill="#140C35"/>
<path fill-rule="evenodd" clip-rule="evenodd" d="M75.1233 7.18994C75.2079 14.416 75.1233 21.64 74.8701 28.8619C74.7293 29.3345 74.476 29.6785 74.1104 29.8939C74.1104 23.014 74.1104 16.1339 74.1104 9.25394C74.4482 8.56596 74.7855 7.87792 75.1233 7.18994Z" fill="#0C0534"/>
<path fill-rule="evenodd" clip-rule="evenodd" d="M86.2666 19.0581C88.2561 19.8802 89.7756 21.2562 90.825 23.1861C89.4611 22.6435 88.1102 22.1275 86.7731 21.6381C86.841 20.7137 86.6723 19.8537 86.2666 19.0581Z" fill="#DC8162"/>
<path fill-rule="evenodd" clip-rule="evenodd" d="M80.1885 12.866C80.8636 12.866 81.2015 13.21 81.2015 13.898C80.5263 19.918 79.8507 25.9379 79.1755 31.958C78.8483 25.3986 79.1856 19.0346 80.1885 12.866Z" fill="#FB9169"/>
<path fill-rule="evenodd" clip-rule="evenodd" d="M80.1888 12.866C79.1859 19.0346 78.8486 25.3986 79.1758 31.958C78.8379 31.958 78.5006 31.958 78.1628 31.958C77.9941 24.8976 78.1633 17.8456 78.6693 10.802C79.7076 11.0995 80.2141 11.7875 80.1888 12.866Z" fill="#AA6379"/>
<path fill-rule="evenodd" clip-rule="evenodd" d="M82.2138 13.898C81.876 13.898 81.5387 13.898 81.2008 13.898C81.2008 13.2101 80.863 12.866 80.1879 12.866C80.2132 11.7875 79.7067 11.0996 78.6684 10.802C78.1624 17.8456 77.9932 24.8977 78.1619 31.958C78.1619 32.646 77.824 32.99 77.1489 32.99C77.2335 26.2798 77.1489 19.5718 76.8956 12.866C76.2929 11.4757 76.2088 10.0997 76.6424 8.73804C77.0911 9.16374 77.2598 9.67974 77.1489 10.286C78.4997 10.286 79.85 10.286 81.2008 10.286C81.6815 11.4405 82.0193 12.6445 82.2138 13.898Z" fill="#1F0D3B"/>
<path fill-rule="evenodd" clip-rule="evenodd" d="M90.8251 23.186C92.3861 23.9159 93.3991 25.1199 93.864 26.798C93.0374 26.3101 92.1931 25.7941 91.3316 25.25C90.861 24.6366 90.6924 23.9486 90.8251 23.186Z" fill="#D78371"/>
<path fill-rule="evenodd" clip-rule="evenodd" d="M99.9414 24.7339C101.349 25.3062 102.193 26.3382 102.474 27.8299C101.399 27.03 100.555 25.998 99.9414 24.7339Z" fill="#59687F"/>
<path fill-rule="evenodd" clip-rule="evenodd" d="M81.2015 13.8979C81.5393 13.8979 81.8766 13.8979 82.2145 13.8979C83.0314 15.4183 84.2131 16.6223 85.7599 17.5099C86.0775 17.983 86.2467 18.499 86.2664 19.0579C86.6721 19.8535 86.8408 20.7135 86.7729 21.6379C88.1101 22.1274 89.4609 22.6434 90.8249 23.1859C90.6922 23.9485 90.8608 24.6365 91.3314 25.2499C92.1929 25.794 93.0372 26.31 93.8638 26.7979C96.57 29.0399 99.1025 31.4479 101.461 34.0219C101.379 35.068 101.464 36.1 101.714 37.1179C102.401 36.6638 103.161 36.4918 103.994 36.6019C103.918 37.1448 104.002 37.6608 104.247 38.1499C105.291 39.1336 106.388 39.9936 107.539 40.7299C109.227 42.106 110.916 43.4819 112.604 44.8579C112.604 45.2021 112.604 45.5458 112.604 45.8899C113.012 46.7739 113.518 47.6335 114.124 48.4699C115.501 49.875 117.021 51.0794 118.682 52.0819C119.131 52.5076 119.299 53.0236 119.189 53.6299C119.864 53.6299 120.539 53.6299 121.214 53.6299C121.041 54.6532 121.379 55.3415 122.227 55.6939C122.565 55.6939 122.903 55.6939 123.24 55.6939C123.24 56.7259 123.24 57.7579 123.24 58.7899C123.24 59.4778 122.903 59.8219 122.227 59.8219C121.552 59.8219 121.214 60.1661 121.214 60.8539C120.201 62.5738 118.851 63.9499 117.163 64.9819C116.134 65.5181 115.459 66.3777 115.137 67.5619C114.107 68.7838 112.925 69.8158 111.591 70.6579C110.916 70.6579 110.578 71.0021 110.578 71.6899C109.227 73.7539 107.539 75.4738 105.513 76.8499C104.168 76.932 102.987 77.448 101.968 78.3979C101.136 79.6761 100.207 80.8799 99.182 82.0099C98.9374 82.4991 98.8533 83.0151 98.9288 83.5579C97.2128 85.994 95.1868 88.058 92.8508 89.7499C92.1757 89.7499 91.8379 90.0941 91.8379 90.7819C91.1627 90.7819 90.487 90.7819 89.8119 90.7819C89.8119 91.4698 89.8119 92.1581 89.8119 92.8459C88.7989 93.1901 88.1237 93.8779 87.7859 94.9099C84.906 97.5013 82.0357 100.081 79.1755 102.65C79.1755 95.4259 79.1755 88.2019 79.1755 80.9779C78.6402 79.7184 77.965 78.514 77.1495 77.3659C54.6977 76.8499 32.2428 76.6781 9.7859 76.8499C9.61719 63.6016 9.78601 50.3575 10.2924 37.1179C10.6301 48.2981 10.9677 59.4778 11.3054 70.6579C11.6431 70.4861 11.9807 70.3138 12.3184 70.1419C13.0964 63.5222 12.9275 56.986 11.8119 50.5339C12.1337 47.9968 12.1337 45.4168 11.8119 42.7939C11.8633 41.143 12.2009 39.595 12.8249 38.1499C33.4265 37.9764 53.8549 37.4604 74.1106 36.6019C74.613 36.6905 74.9503 36.5185 75.1236 36.0859C77.4874 35.7419 78.8377 34.366 79.1755 31.9579C79.8507 25.9379 80.5263 19.918 81.2015 13.8979Z" fill="#FD7B47"/>
<path fill-rule="evenodd" clip-rule="evenodd" d="M7.75996 30.926C29.3705 30.926 50.9806 30.926 72.5911 30.926C50.816 31.7846 28.8676 32.3006 6.74697 32.474C6.12515 33.4137 5.28097 33.9297 4.2145 34.022C4.0467 48.7306 4.21551 63.3504 4.72099 77.882C4.82189 79.8774 5.83488 81.0812 7.75996 81.494C7.75996 81.6659 7.75996 81.8382 7.75996 82.01C29.2013 82.3542 50.6432 82.6978 72.0846 83.042C50.3029 83.2139 28.5237 83.042 6.74697 82.526C5.70709 81.9961 4.6941 81.4801 3.70801 80.978C3.70801 80.2902 3.70801 79.6019 3.70801 78.914C3.70801 63.95 3.70801 48.986 3.70801 34.022C4.48021 32.2032 5.83087 31.1712 7.75996 30.926Z" fill="#060122"/>
<path fill-rule="evenodd" clip-rule="evenodd" d="M84.2398 9.77002C84.5777 9.77002 84.915 9.77002 85.2528 9.77002C85.9098 10.9556 86.7536 11.9876 87.7853 12.866C88.7983 13.21 89.4734 13.898 89.8113 14.93C90.1491 17.338 91.4994 18.714 93.8632 19.058C95.8927 20.9596 97.9187 22.8517 99.9411 24.734C100.555 25.9981 101.399 27.0301 102.474 27.83C103.149 28.174 103.824 28.518 104.5 28.862C104.5 29.55 104.837 29.894 105.513 29.894C106.188 30.926 106.863 31.958 107.539 32.99C107.451 34.0178 107.789 34.8778 108.552 35.57C107.133 35.9932 105.782 36.5092 104.5 37.118C103.824 35.742 102.811 34.71 101.461 34.022C99.1019 31.448 96.5694 29.04 93.8632 26.798C93.3983 25.1199 92.3853 23.9159 90.8243 23.186C89.7748 21.2561 88.2553 19.8802 86.2658 19.058C86.2461 18.4991 86.0769 17.9831 85.7593 17.51C84.2125 16.6224 83.0308 15.4184 82.2139 13.898C82.889 13.898 83.5647 13.898 84.2398 13.898C84.2398 12.522 84.2398 11.146 84.2398 9.77002Z" fill="#231356"/>
<path fill-rule="evenodd" clip-rule="evenodd" d="M84.2401 9.77008C84.2401 11.1461 84.2401 12.5221 84.2401 13.8981C83.5649 13.8981 82.8892 13.8981 82.2141 13.8981C82.0196 12.6445 81.6818 11.4405 81.2011 10.2861C79.8503 10.2861 78.5 10.2861 77.1492 10.2861C77.2601 9.67978 77.0914 9.16378 76.6427 8.73808C76.2091 10.0998 76.2932 11.4758 76.8959 12.8661C77.1492 19.5719 77.2337 26.2799 77.1492 32.9901C77.1492 33.6781 76.8113 34.0221 76.1362 34.0221C53.5065 33.6807 31.0517 34.0248 8.77254 35.0541C8.77254 35.3981 8.77254 35.7421 8.77254 36.0861C8.43486 36.0861 8.09724 36.0861 7.75956 36.0861C7.42188 36.0861 7.08425 36.0861 6.74657 36.0861C6.07126 36.0861 5.3959 36.0861 4.7206 36.0861C4.7206 50.0181 4.7206 63.9501 4.7206 77.8821C4.21512 63.3505 4.0463 48.7307 4.2141 34.0221C5.28058 33.9297 6.12475 33.4137 6.74657 32.4741C28.8672 32.3007 50.8155 31.7847 72.5907 30.9261C72.5907 30.5821 72.5907 30.2381 72.5907 29.8941C72.7594 29.8941 72.9285 29.8941 73.0972 29.8941C73.435 29.8941 73.7724 29.8941 74.1102 29.8941C74.4759 29.6787 74.7291 29.3346 74.8699 28.8621C75.1232 21.6401 75.2078 14.4161 75.1232 7.19008C76.7121 6.18584 78.4002 6.01386 80.1881 6.67408C81.2715 8.12869 82.6223 9.16069 84.2401 9.77008Z" fill="#2C1960"/>
<path fill-rule="evenodd" clip-rule="evenodd" d="M76.1361 34.022C76.1361 34.71 75.7983 35.054 75.1231 35.054C53.0061 35.054 30.8895 35.054 8.77246 35.054C31.0516 34.0247 53.5065 33.6807 76.1361 34.022Z" fill="#15042F"/>
<path fill-rule="evenodd" clip-rule="evenodd" d="M78.162 31.958C78.4998 31.958 78.8372 31.958 79.175 31.958C78.8372 34.366 77.4869 35.742 75.123 36.086C75.123 35.742 75.123 35.398 75.123 35.054C75.7982 35.054 76.136 34.71 76.136 34.022C76.8112 34.022 77.149 33.678 77.149 32.99C77.8242 32.99 78.162 32.646 78.162 31.958Z" fill="#E08564"/>
<path fill-rule="evenodd" clip-rule="evenodd" d="M8.77246 35.054C30.8895 35.054 53.0061 35.054 75.1231 35.054C75.1231 35.398 75.1231 35.7419 75.1231 36.086C53.0061 36.086 30.8895 36.086 8.77246 36.086C8.77246 35.7419 8.77246 35.398 8.77246 35.054Z" fill="#614684"/>
<path fill-rule="evenodd" clip-rule="evenodd" d="M101.461 34.022C102.812 34.71 103.825 35.742 104.5 37.118C106.057 37.8448 107.07 39.0488 107.539 40.73C106.388 39.9936 105.291 39.1336 104.247 38.15C104.002 37.6608 103.918 37.1448 103.993 36.602C103.161 36.4918 102.401 36.6638 101.714 37.118C101.464 36.1001 101.379 35.0681 101.461 34.022Z" fill="#DB816B"/>
<path fill-rule="evenodd" clip-rule="evenodd" d="M110.578 36.0859C110.916 36.0859 111.253 36.0859 111.591 36.0859C111.76 36.0859 111.929 36.0859 112.098 36.0859C112.59 36.937 113.097 37.797 113.617 38.6659C112.453 37.9969 111.44 37.1369 110.578 36.0859Z" fill="#5E7388"/>
<path fill-rule="evenodd" clip-rule="evenodd" d="M107.539 32.99C108.89 33.678 109.903 34.71 110.578 36.086C111.44 37.137 112.453 37.9969 113.617 38.666C114.984 39.8863 116.166 41.2622 117.162 42.794C116.029 42.3043 114.847 41.9603 113.617 41.762C113.617 41.074 113.617 40.386 113.617 39.698C110.787 39.9457 110.281 40.9777 112.097 42.794C112.568 43.4074 112.737 44.0954 112.604 44.858C110.916 43.482 109.227 42.106 107.539 40.73C107.07 39.0488 106.057 37.8448 104.5 37.118C105.782 36.5092 107.133 35.9932 108.552 35.57C107.79 34.8778 107.452 34.0178 107.539 32.99Z" fill="#25174F"/>
<path fill-rule="evenodd" clip-rule="evenodd" d="M74.1101 36.6021C53.8544 37.4605 33.426 37.9765 12.8244 38.1501C12.2005 39.5951 11.8628 41.1431 11.8114 42.7941C12.1332 45.4169 12.1332 47.9969 11.8114 50.5341C12.9271 56.9861 13.0959 63.5223 12.3179 70.1421C11.9802 70.3139 11.6426 70.4862 11.3049 70.6581C10.9672 59.4779 10.6296 48.2982 10.2919 37.1181C9.78555 50.3576 9.61673 63.6018 9.78545 76.8501C9.44777 76.8501 9.11014 76.8501 8.77246 76.8501C8.77246 63.4341 8.77246 50.0181 8.77246 36.6021C30.5517 36.6021 52.3309 36.6021 74.1101 36.6021Z" fill="#FA824A"/>
<path fill-rule="evenodd" clip-rule="evenodd" d="M117.163 42.794C117.501 44.17 117.838 45.5458 118.176 46.922C116.604 47.195 115.422 46.679 114.63 45.374C114.028 44.8946 113.353 44.7228 112.604 44.858C112.737 44.0955 112.568 43.4074 112.098 42.794C110.281 40.9777 110.787 39.9457 113.617 39.698C113.617 40.386 113.617 41.074 113.617 41.762C114.848 41.9603 116.03 42.3043 117.163 42.794Z" fill="#201462"/>
<path fill-rule="evenodd" clip-rule="evenodd" d="M117.162 42.7939C119.863 44.8579 122.227 47.2661 124.253 50.0179C123.578 50.0179 122.902 50.0179 122.227 50.0179C122.227 49.5019 122.227 48.9859 122.227 48.4699C119.285 48.3322 118.778 49.1923 120.707 51.0499C121.178 51.6635 121.347 52.3513 121.214 53.1139C118.718 51.0902 116.355 48.8538 114.123 46.4059C113.705 45.9488 113.199 45.7769 112.604 45.8899C112.604 45.5458 112.604 45.2021 112.604 44.8579C113.352 44.7228 114.027 44.8946 114.629 45.3739C115.421 46.6789 116.603 47.1949 118.175 46.9219C117.837 45.5458 117.5 44.17 117.162 42.7939Z" fill="#1F1446"/>
<path fill-rule="evenodd" clip-rule="evenodd" d="M6.74707 36.0859C7.08475 36.0859 7.42238 36.0859 7.76006 36.0859C7.76006 49.6738 7.76006 63.2621 7.76006 76.8499C7.76006 77.1941 7.76006 77.5378 7.76006 77.8819C29.1153 78.3974 50.5572 78.5693 72.0847 78.3979C50.7294 78.9134 29.2875 79.0853 7.76006 78.9139C7.08475 78.9139 6.74707 78.5698 6.74707 77.8819C6.74707 63.9499 6.74707 50.0179 6.74707 36.0859Z" fill="#2C0F29"/>
<path fill-rule="evenodd" clip-rule="evenodd" d="M112.604 45.8901C113.199 45.7771 113.705 45.9489 114.123 46.4061C116.355 48.854 118.718 51.0903 121.214 53.1141C121.214 53.2859 121.214 53.4582 121.214 53.6301C120.539 53.6301 119.863 53.6301 119.188 53.6301C119.299 53.0238 119.13 52.5078 118.681 52.0821C117.02 51.0795 115.501 49.8751 114.123 48.4701C113.518 47.6336 113.011 46.774 112.604 45.8901Z" fill="#E0836B"/>
<path fill-rule="evenodd" clip-rule="evenodd" d="M121.214 53.6299C121.552 53.6299 121.889 53.6299 122.227 53.6299C122.227 54.3177 122.227 55.0061 122.227 55.6939C121.378 55.3415 121.04 54.6531 121.214 53.6299Z" fill="#D18782"/>
<path fill-rule="evenodd" clip-rule="evenodd" d="M122.228 53.6299C123.076 53.9823 123.414 54.6707 123.241 55.6939C122.903 55.6939 122.565 55.6939 122.228 55.6939C122.228 55.0061 122.228 54.3177 122.228 53.6299Z" fill="#6C3643"/>
<path fill-rule="evenodd" clip-rule="evenodd" d="M128.306 53.6299C128.635 53.9348 128.973 54.2785 129.319 54.6619C129.821 56.6975 129.989 58.7615 129.825 60.8539C129.487 60.8539 129.15 60.8539 128.812 60.8539C129.063 59.8467 129.232 58.8147 129.319 57.7579C129.276 56.8121 128.938 56.1242 128.306 55.6939C128.306 55.0061 128.306 54.3177 128.306 53.6299Z" fill="#515E76"/>
<path fill-rule="evenodd" clip-rule="evenodd" d="M123.24 55.6941C123.844 55.9366 124.182 56.4526 124.253 57.2421C124.182 58.0316 123.844 58.5476 123.24 58.7901C123.24 57.7581 123.24 56.7261 123.24 55.6941Z" fill="#CF8691"/>
<path fill-rule="evenodd" clip-rule="evenodd" d="M122.227 59.822C122.227 60.5098 121.889 60.854 121.214 60.854C121.214 60.1662 121.552 59.822 122.227 59.822Z" fill="#C894AD"/>
<path fill-rule="evenodd" clip-rule="evenodd" d="M128.305 55.6941C128.937 56.1244 129.275 56.8123 129.318 57.7581C129.231 58.8149 129.062 59.8469 128.812 60.8541C128.116 61.7349 127.273 62.4227 126.279 62.9181C126.513 61.7535 127.02 60.7215 127.799 59.8221C128.295 58.4877 128.464 57.1115 128.305 55.6941Z" fill="#0D0D31"/>
<path fill-rule="evenodd" clip-rule="evenodd" d="M3.20083 34.022C3.36964 34.022 3.53851 34.022 3.70732 34.022C3.70732 48.986 3.70732 63.95 3.70732 78.914C3.03232 71.7844 2.69469 64.4742 2.69434 56.984C2.70234 49.308 2.87115 41.6539 3.20083 34.022Z" fill="#30394B"/>
<path fill-rule="evenodd" clip-rule="evenodd" d="M6.74668 36.0859C6.74668 50.0179 6.74668 63.9499 6.74668 77.8819C6.07137 77.8819 5.39601 77.8819 4.7207 77.8819C4.7207 63.9499 4.7207 50.0179 4.7207 36.0859C5.39601 36.0859 6.07137 36.0859 6.74668 36.0859Z" fill="#1F2181"/>
<path fill-rule="evenodd" clip-rule="evenodd" d="M117.163 64.9819C117.042 66.3075 116.367 67.1672 115.137 67.5619C115.459 66.3777 116.134 65.5181 117.163 64.9819Z" fill="#A25A61"/>
<path fill-rule="evenodd" clip-rule="evenodd" d="M7.75977 36.0859C8.09744 36.0859 8.43507 36.0859 8.77275 36.0859C30.8898 36.0859 53.0063 36.0859 75.1234 36.0859C74.9502 36.5184 74.6128 36.6905 74.1104 36.6019C52.3312 36.6019 30.552 36.6019 8.77275 36.6019C8.77275 50.0179 8.77275 63.4339 8.77275 76.8499C8.43507 76.8499 8.09744 76.8499 7.75977 76.8499C7.75977 63.2621 7.75977 49.6738 7.75977 36.0859Z" fill="#D0715D"/>
<path fill-rule="evenodd" clip-rule="evenodd" d="M111.591 70.658C111.591 71.3458 111.253 71.69 110.578 71.69C110.578 71.0021 110.916 70.658 111.591 70.658Z" fill="#C88091"/>
<path fill-rule="evenodd" clip-rule="evenodd" d="M118.175 71.6899C116.709 73.8339 114.852 75.5542 112.604 76.8499C112.02 76.4304 112.02 75.9144 112.604 75.3019C113.94 74.4572 115.122 73.4252 116.149 72.2059C116.752 71.7265 117.427 71.5547 118.175 71.6899Z" fill="#121B39"/>
<path fill-rule="evenodd" clip-rule="evenodd" d="M7.75977 76.8501C8.09744 76.8501 8.43507 76.8501 8.77275 76.8501C9.11043 76.8501 9.44806 76.8501 9.78574 76.8501C32.2426 76.6782 54.6975 76.8501 77.1494 77.3661C77.9648 78.5142 78.64 79.7185 79.1754 80.9781C78.8375 80.9781 78.5002 80.9781 78.1624 80.9781C77.9891 80.5457 77.6518 80.3733 77.1494 80.4621C77.1494 80.2902 77.1494 80.1179 77.1494 79.9461C77.1494 79.2582 76.8115 78.9141 76.1364 78.9141C53.5194 77.8847 30.7272 77.5405 7.75977 77.8821C7.75977 77.5379 7.75977 77.1942 7.75977 76.8501Z" fill="#F79A7C"/>
<path fill-rule="evenodd" clip-rule="evenodd" d="M7.75977 77.882C30.7272 77.5404 53.5194 77.8846 76.1364 78.914C74.8215 78.5193 73.4707 78.3469 72.0844 78.398C50.5569 78.5693 29.1151 78.3975 7.75977 77.882Z" fill="#914B4D"/>
<path fill-rule="evenodd" clip-rule="evenodd" d="M105.513 76.8501C103.487 79.2583 101.292 81.4941 98.9281 83.5581C98.8527 83.0153 98.9367 82.4993 99.1814 82.0101C100.207 80.8801 101.135 79.6762 101.967 78.3981C102.986 77.4481 104.168 76.9321 105.513 76.8501Z" fill="#DE8063"/>
<path fill-rule="evenodd" clip-rule="evenodd" d="M72.0844 78.3979C73.4707 78.3468 74.8215 78.5192 76.1364 78.9139C76.8115 78.9139 77.1494 79.2581 77.1494 79.9459C54.4261 79.981 31.6338 79.8948 8.77275 79.6879C8.30891 79.5445 7.97123 79.2865 7.75977 78.9139C29.2873 79.0852 50.7292 78.9134 72.0844 78.3979Z" fill="#220C3B"/>
<path fill-rule="evenodd" clip-rule="evenodd" d="M4.7207 77.8821C5.39601 77.8821 6.07137 77.8821 6.74668 77.8821C6.74668 78.5699 7.08436 78.9141 7.75966 78.9141C7.97113 79.2866 8.3088 79.5446 8.77265 79.6881C31.6337 79.895 54.4259 79.9812 77.1493 79.9461C77.1493 80.1179 77.1493 80.2903 77.1493 80.4621C77.1493 88.5463 77.1493 96.6299 77.1493 104.714C78.1536 104.891 78.8293 104.547 79.1752 103.682C80.2987 103.741 81.3116 104.085 82.2142 104.714C82.1565 105.859 81.8191 106.891 81.2012 107.81C79.4401 108.717 77.5833 108.975 75.6298 108.584C75.2059 108.062 75.0372 107.46 75.1233 106.778C75.1233 98.6939 75.1233 90.6103 75.1233 82.5261C54.0294 82.0245 32.9253 81.8527 11.8116 82.0101C31.6505 81.6659 51.5724 81.3223 71.5778 80.9781C60.9415 80.8063 50.3051 80.6339 39.6688 80.4621C28.8582 80.4621 18.2217 80.8063 7.75966 81.4941C5.83458 81.0813 4.8216 79.8775 4.7207 77.8821Z" fill="#221563"/>
<path fill-rule="evenodd" clip-rule="evenodd" d="M11.8117 82.0099C10.461 82.0099 9.11043 82.0099 7.75977 82.0099C7.75977 81.8381 7.75977 81.6657 7.75977 81.4939C18.2218 80.8061 28.8583 80.4619 39.6689 80.4619C50.3052 80.6337 60.9416 80.8061 71.5779 80.9779C51.5725 81.3221 31.6506 81.6657 11.8117 82.0099Z" fill="#271678"/>
<path fill-rule="evenodd" clip-rule="evenodd" d="M109.565 80.4619C108.89 81.1497 108.215 81.8381 107.539 82.5259C107.539 83.2137 107.202 83.5579 106.526 83.5579C106.526 82.8701 106.526 82.1817 106.526 81.4939C107.429 80.8644 108.442 80.5207 109.565 80.4619Z" fill="#192942"/>
<path fill-rule="evenodd" clip-rule="evenodd" d="M7.75977 82.01C9.11043 82.01 10.461 82.01 11.8117 82.01C32.9254 81.8527 54.0295 82.0245 75.1234 82.526C75.1234 90.6102 75.1234 98.6939 75.1234 106.778C74.7856 106.778 74.4482 106.778 74.1104 106.778C74.4396 98.8466 74.1023 91.1066 73.0974 83.558C72.9288 83.558 72.7596 83.558 72.5909 83.558C72.5909 83.2139 72.4223 83.042 72.0844 83.042C50.643 82.6979 29.2012 82.3542 7.75977 82.01Z" fill="#100944"/>
<path fill-rule="evenodd" clip-rule="evenodd" d="M77.1494 80.4621C77.6519 80.3733 77.9892 80.5457 78.1624 80.9781C77.8332 88.7377 78.171 96.3059 79.1754 103.682C78.8295 104.547 78.1538 104.891 77.1494 104.714C77.1494 96.6299 77.1494 88.5463 77.1494 80.4621Z" fill="#260F26"/>
<path fill-rule="evenodd" clip-rule="evenodd" d="M3.70801 80.978C4.6941 81.4801 5.70709 81.9961 6.74697 82.526C28.5237 83.042 50.3029 83.2139 72.0846 83.042C72.4225 83.042 72.5911 83.2139 72.5911 83.558C50.3054 83.558 28.0197 83.558 5.73398 83.558C5.00899 82.7701 4.33363 81.9099 3.70801 80.978Z" fill="#3F404B"/>
<path fill-rule="evenodd" clip-rule="evenodd" d="M124.254 50.0181C125.907 50.8406 127.258 52.0444 128.306 53.6301C128.306 54.3179 128.306 55.0062 128.306 55.6941C128.464 57.1115 128.296 58.4877 127.799 59.8221C127.02 60.7215 126.514 61.7535 126.28 62.9181C125.058 64.3324 124.045 65.8804 123.241 67.5621C122.228 67.9062 121.553 68.5941 121.215 69.6261C120.202 70.3139 119.189 71.0022 118.176 71.6901C117.427 71.5549 116.752 71.7267 116.15 72.2061C115.122 73.4254 113.94 74.4574 112.604 75.3021C112.02 75.9146 112.02 76.4306 112.604 76.8501C111.778 78.2087 110.765 79.413 109.565 80.4621C108.442 80.5209 107.429 80.8646 106.526 81.4941C106.466 80.9337 106.128 80.5895 105.513 80.4621C103.737 81.154 103.231 82.3584 103.994 84.0741C103.211 84.5653 102.367 84.7371 101.461 84.5901C101.461 85.2779 101.461 85.9662 101.461 86.6541C100.556 86.507 99.7116 86.6788 98.929 87.1701C99.2669 87.5142 99.6042 87.8579 99.942 88.2021C98.8703 89.1825 98.1951 90.3863 97.916 91.8141C97.916 92.5019 97.5782 92.8461 96.9031 92.8461C96.2279 92.8461 95.5522 92.8461 94.8771 92.8461C94.7094 93.7862 94.3716 94.6464 93.8641 95.4261C91.3701 98.4849 88.669 101.409 85.7602 104.198C85.3423 104.655 84.8358 104.827 84.2407 104.714C83.6152 104.6 83.1087 104.256 82.7212 103.682C82.3171 103.918 82.1484 104.262 82.2147 104.714C81.3122 104.085 80.2992 103.741 79.1758 103.682C79.1758 103.338 79.1758 102.994 79.1758 102.65C82.0359 100.081 84.9062 97.5014 87.7862 94.9101C89.1431 94.8972 89.8182 94.2093 89.8121 92.8461C90.8251 92.5019 91.5003 91.8141 91.8381 90.7821C92.5133 90.7821 92.8511 90.4379 92.8511 89.7501C95.1871 88.0581 97.213 85.9941 98.929 83.5581C101.293 81.4941 103.487 79.2582 105.513 76.8501C107.539 75.4739 109.228 73.7541 110.578 71.6901C111.254 71.6901 111.591 71.3459 111.591 70.6581C112.925 69.816 114.107 68.784 115.137 67.5621C116.367 67.1673 117.042 66.3077 117.163 64.9821C118.851 63.9501 120.202 62.5739 121.215 60.8541C121.89 60.8541 122.228 60.5099 122.228 59.8221C122.903 59.8221 123.241 59.4779 123.241 58.7901C123.845 58.5476 124.183 58.0316 124.254 57.2421C124.183 56.4526 123.845 55.9366 123.241 55.6941C123.414 54.6708 123.077 53.9825 122.228 53.6301C121.89 53.6301 121.553 53.6301 121.215 53.6301C121.215 53.4582 121.215 53.2859 121.215 53.1141C121.347 52.3514 121.179 51.6636 120.708 51.0501C118.779 49.1925 119.286 48.3323 122.228 48.4701C122.228 48.9861 122.228 49.5021 122.228 50.0181C122.903 50.0181 123.579 50.0181 124.254 50.0181Z" fill="#221458"/>
<path fill-rule="evenodd" clip-rule="evenodd" d="M106.526 81.4939C106.526 82.1817 106.526 82.8701 106.526 83.5579C105.513 85.2777 104.163 86.6539 102.474 87.6859C100.955 89.0621 99.4355 90.4377 97.916 91.8139C98.1951 90.3861 98.8702 89.1823 99.942 88.2019C99.6042 87.8577 99.2668 87.5141 98.929 87.1699C99.7115 86.6787 100.556 86.5069 101.461 86.6539C101.461 85.9661 101.461 85.2777 101.461 84.5899C102.367 84.737 103.211 84.5651 103.994 84.0739C103.231 82.3582 103.737 81.1539 105.513 80.4619C106.128 80.5894 106.466 80.9335 106.526 81.4939Z" fill="#242051"/>
<path fill-rule="evenodd" clip-rule="evenodd" d="M78.1619 80.978C78.4997 80.978 78.8371 80.978 79.1749 80.978C79.1749 88.202 79.1749 95.426 79.1749 102.65C79.1749 102.994 79.1749 103.338 79.1749 103.682C78.1705 96.3058 77.8327 88.7376 78.1619 80.978Z" fill="#D18285"/>
<path fill-rule="evenodd" clip-rule="evenodd" d="M92.8509 89.75C92.8509 90.4378 92.513 90.782 91.8379 90.782C91.8379 90.0942 92.1757 89.75 92.8509 89.75Z" fill="#9E6372"/>
<path fill-rule="evenodd" clip-rule="evenodd" d="M91.8375 90.782C91.4997 91.814 90.8245 92.5018 89.8115 92.846C89.8115 92.1582 89.8115 91.4698 89.8115 90.782C90.4867 90.782 91.1623 90.782 91.8375 90.782Z" fill="#C67365"/>
<path fill-rule="evenodd" clip-rule="evenodd" d="M96.9022 92.8459C96.3588 94.2577 95.3458 95.1179 93.8633 95.4259C94.3708 94.6463 94.7086 93.7861 94.8763 92.8459C95.5514 92.8459 96.2271 92.8459 96.9022 92.8459Z" fill="#1E2642"/>
<path fill-rule="evenodd" clip-rule="evenodd" d="M89.8121 92.8459C89.8182 94.2092 89.143 94.897 87.7861 94.9099C88.124 93.8779 88.7991 93.1901 89.8121 92.8459Z" fill="#6E3E50"/>
<path fill-rule="evenodd" clip-rule="evenodd" d="M84.2401 104.714C84.2401 105.058 84.2401 105.402 84.2401 105.746C83.761 107.197 82.748 107.885 81.2012 107.81C81.8191 106.89 82.1564 105.858 82.2142 104.714C82.1478 104.262 82.3165 103.918 82.7207 103.682C83.1081 104.256 83.6146 104.6 84.2401 104.714Z" fill="#2E254D"/>
<path fill-rule="evenodd" clip-rule="evenodd" d="M74.1104 106.778C74.4482 106.778 74.7855 106.778 75.1233 106.778C75.0372 107.46 75.2059 108.062 75.6298 108.584C77.5834 108.975 79.4402 108.717 81.2013 107.81C81.0584 108.47 80.7206 108.986 80.1883 109.358C78.5351 109.783 76.8464 109.956 75.1233 109.874C74.4619 109.375 74.124 108.687 74.1104 107.81C74.1104 107.466 74.1104 107.122 74.1104 106.778Z" fill="#101329"/>
<path fill-rule="evenodd" clip-rule="evenodd" d="M80.188 109.358C79.5832 110.017 78.7394 110.361 77.6555 110.39C76.7089 110.386 75.8646 110.214 75.123 109.874C76.8461 109.955 78.5348 109.783 80.188 109.358Z" fill="#6A727E"/>
</svg>
