<svg width="320" height="300" viewBox="0 0 320 300" fill="none" xmlns="http://www.w3.org/2000/svg">
<path fill-rule="evenodd" clip-rule="evenodd" d="M282.758 30.0955C283.154 33.3077 282.234 36.0147 280 38.2166C272.714 42.1654 265.358 45.8279 257.931 49.2038C258.369 50.1378 258.982 50.934 259.77 51.5924C262.835 52.5478 265.9 53.5032 268.965 54.4586C271.874 56.7666 274.939 58.8366 278.161 60.6688C280.026 63.0852 281.712 65.633 283.218 68.3121C283.95 70.7374 283.796 72.9667 282.758 75C282.124 68.7708 279.365 63.8345 274.482 60.1911C267.543 55.391 259.879 52.684 251.494 52.0701C251.293 50.9475 251.599 49.992 252.413 49.2038C260.059 45.7617 267.721 42.4177 275.402 39.172C281.774 34.4816 282.694 28.7491 278.161 21.9745C274.742 19.7786 271.064 19.1416 267.126 20.0637C258.94 24.0676 250.665 27.8893 242.299 31.5287C239.914 33.5481 237.462 35.2997 234.942 36.7834C233.975 36.9263 233.055 36.767 232.184 36.3057C243.698 29.0283 255.652 22.6588 268.046 17.1975C270.191 16.5605 272.337 16.5605 274.482 17.1975C275.785 19.361 277.624 20.4757 280 20.5414C281.339 23.5527 282.259 26.7374 282.758 30.0955Z" fill="#E7C7B5"/>
<path fill-rule="evenodd" clip-rule="evenodd" d="M282.758 75C282.54 76.2334 282.846 77.1888 283.678 77.8662C286.013 87.0968 284.328 95.377 278.62 102.707C276.872 110.543 275.8 118.506 275.402 126.592C274.543 127.613 274.236 128.886 274.482 130.414C274.437 133.832 273.825 137.017 272.643 139.968C272.48 136.646 271.866 133.462 270.804 130.414C272.265 120.334 274.411 110.462 277.241 100.796C276.781 100.478 276.321 100.159 275.862 99.8407C274.487 101.43 272.801 102.385 270.804 102.707C272.643 100.478 274.482 98.2481 276.321 96.0191C276.935 95.7009 277.547 95.3821 278.16 95.0637C278.824 94.6648 279.284 94.0278 279.54 93.1528C279.999 89.0249 280.152 84.8848 280 80.7325C277.556 80.4095 275.411 81.0465 273.563 82.6433C272.82 82.3494 272.206 81.8717 271.724 81.2102C272.94 80.4306 273.553 79.316 273.563 77.8662C276.889 71.7762 275.663 66.9991 269.885 63.535C266.048 62.3132 262.37 60.7208 258.85 58.7579C255.55 57.6611 252.178 57.0242 248.735 56.8471C248.754 60.7522 248.6 64.5738 248.275 68.3121C252.509 69.3538 256.647 70.7869 260.689 72.6114C261.459 73.5777 261.765 74.6922 261.609 75.9554C257.381 75.5108 253.396 74.237 249.655 72.1337C248.249 72.1613 247.176 72.7982 246.436 74.0446C245.543 79.4317 242.479 81.9795 237.241 81.6879C232.71 81.6636 228.88 80.0713 225.747 76.9108C225.747 74.6815 225.747 72.4522 225.747 70.2229C226.246 70.1656 226.552 69.8471 226.666 69.2675C224.396 68.6292 222.251 67.9923 220.229 67.3567C208.61 66.3733 195.737 66.214 181.609 66.879C197.094 65.5092 212.42 65.0315 227.586 65.4458C228.981 63.5712 229.594 61.342 229.425 58.7579C229.321 56.7121 228.708 54.9605 227.586 53.5032C213.489 53.0256 199.39 52.8663 185.287 53.0255C178.305 51.5754 171.408 51.894 164.597 53.9809C163.65 53.6598 163.19 53.0228 163.218 52.07C168.307 51.847 173.212 50.7325 177.931 48.7261C181.915 48.4077 185.9 48.0891 189.885 47.7707C203.094 47.5419 216.275 47.3827 229.425 47.293C230.207 44.3525 231.127 41.4863 232.183 38.6942C233.588 38.764 234.507 38.127 234.942 36.7834C237.462 35.2997 239.914 33.5481 242.298 31.5286C250.664 27.8893 258.94 24.0676 267.126 20.0637C271.063 19.1416 274.742 19.7786 278.16 21.9745C282.694 28.7491 281.774 34.4815 275.402 39.172C267.721 42.4177 260.058 45.7616 252.413 49.2038C251.599 49.992 251.292 50.9474 251.494 52.07C259.879 52.684 267.543 55.391 274.482 60.1911C279.365 63.8344 282.124 68.7708 282.758 75Z" fill="#211858"/>
<path fill-rule="evenodd" clip-rule="evenodd" d="M269.885 24.363C274.362 25.3777 276.048 28.2439 274.942 32.9618C266.469 37.4917 257.733 41.4726 248.736 44.9044C247.356 46.656 245.977 48.4077 244.598 50.1592C244.36 58.6295 243.134 66.9098 240.919 75C238.19 77.3797 235.278 77.5389 232.184 75.4777C231.196 74.7719 230.583 73.8165 230.345 72.6114C231.581 69.4161 232.807 66.2313 234.023 63.0573C234.425 56.4404 235.191 49.9118 236.322 43.4713C238.725 40.3278 241.638 37.9393 245.057 36.3057C253.631 32.7637 261.907 28.7828 269.885 24.363Z" fill="#F56446"/>
<path fill-rule="evenodd" clip-rule="evenodd" d="M232.184 38.6942C231.128 41.4862 230.208 44.3525 229.426 47.2929C216.275 47.3826 203.095 47.5418 189.886 47.7706C185.901 48.0891 181.916 48.4076 177.932 48.7261C173.212 50.7324 168.308 51.847 163.219 52.07C155.827 53.458 149.084 56.3243 142.989 60.6687C141.817 60.0101 141.817 59.2138 142.989 58.2802C145.554 57.7443 147.7 56.4704 149.426 54.4585C174.682 45.5936 200.582 42.8866 227.127 46.3375C228.046 44.1082 228.966 41.8789 229.886 39.6496C230.656 38.2175 231.422 37.8989 232.184 38.6942Z" fill="#EBCBB5"/>
<path fill-rule="evenodd" clip-rule="evenodd" d="M185.287 53.0255C199.39 52.8663 213.49 53.0256 227.586 53.5032C228.708 54.9605 229.321 56.7121 229.425 58.758C229.595 61.342 228.981 63.5713 227.586 65.4459C208.984 62.8466 190.286 63.3243 171.494 66.879C167.051 68.9101 162.453 70.5024 157.701 71.6561C154.849 73.1981 154.542 74.9498 156.782 76.9108C160.806 74.4894 165.096 72.7379 169.655 71.6561C178.061 70.4747 186.337 69.3601 194.483 68.3121C205.096 68.0297 215.518 68.6667 225.747 70.2229C225.747 72.4522 225.747 74.6816 225.747 76.9108C224.831 76.9928 224.065 76.6743 223.448 75.9554C222.993 74.0707 222.84 72.1599 222.989 70.2229C208.863 69.9462 194.762 70.4239 180.69 71.6561C170.9 72.6996 162.318 75.8843 154.943 81.2102C155.696 82.4702 156.615 83.5849 157.701 84.5542C161.825 85.5022 165.657 87.0946 169.195 89.3312C169.502 89.0128 169.809 88.6943 170.115 88.3758C195.607 94.4716 221.201 94.6309 246.897 88.8535C251.808 86.383 257.019 84.9499 262.529 84.5542C261.22 85.4604 259.841 86.4158 258.391 87.4204C224.459 97.5965 190.589 97.4379 156.782 86.9427C151.505 84.4377 146.754 81.0937 142.529 76.9108C140.828 74.0798 140.828 71.2135 142.529 68.3121C145.693 66.6153 148.605 64.5453 151.264 62.1019C154.275 61.6434 157.034 60.5287 159.54 58.758C168.335 57.2413 176.917 55.3304 185.287 53.0255Z" fill="#F5EDE1"/>
<path fill-rule="evenodd" clip-rule="evenodd" d="M194.482 68.3121C202.898 67.3628 211.48 67.0444 220.23 67.3567C222.251 67.9923 224.396 68.6292 226.666 69.2675C226.552 69.8472 226.246 70.1656 225.747 70.2229C215.518 68.6667 205.096 68.0297 194.482 68.3121Z" fill="#938895"/>
<path fill-rule="evenodd" clip-rule="evenodd" d="M227.586 65.4459C212.42 65.0315 197.094 65.5092 181.609 66.879C195.737 66.214 208.61 66.3733 220.23 67.3567C211.48 67.0444 202.898 67.3628 194.482 68.3121C186.336 69.3601 178.06 70.4747 169.655 71.6561C165.096 72.7379 160.805 74.4895 156.781 76.9109C154.541 74.9498 154.848 73.1981 157.701 71.6561C162.453 70.5024 167.051 68.9101 171.494 66.879C190.286 63.3243 208.984 62.8466 227.586 65.4459Z" fill="#25204C"/>
<path fill-rule="evenodd" clip-rule="evenodd" d="M273.563 77.8663C270.121 80.6066 266.443 82.836 262.529 84.5542C257.019 84.9499 251.808 86.383 246.896 88.8535C221.201 94.6309 195.607 94.4717 170.115 88.3758C169.809 88.6943 169.501 89.0128 169.195 89.3312C165.657 87.0946 161.825 85.5022 157.701 84.5542C156.615 83.5849 155.695 82.4702 154.942 81.2102C162.318 75.8843 170.9 72.6996 180.69 71.6561C194.762 70.4239 208.862 69.9462 222.988 70.223C222.839 72.1599 222.993 74.0707 223.448 75.9554C224.065 76.6743 224.831 76.9928 225.747 76.9109C228.88 80.0714 232.711 81.6637 237.241 81.6879C242.479 81.9795 245.544 79.4317 246.437 74.0446C247.176 72.7983 248.249 72.1613 249.655 72.1338C253.397 74.237 257.381 75.5109 261.609 75.9554C261.765 74.6923 261.459 73.5777 260.69 72.6115C256.647 70.7869 252.509 69.3538 248.276 68.3121C248.6 64.5739 248.754 60.7522 248.735 56.8472C252.178 57.0242 255.55 57.6612 258.85 58.758C262.37 60.7209 266.049 62.3133 269.885 63.5351C275.663 66.9992 276.889 71.7763 273.563 77.8663Z" fill="#FCEEDC"/>
<path fill-rule="evenodd" clip-rule="evenodd" d="M197.242 99.8407C206.582 100.948 216.085 101.107 225.747 100.318C226.885 100.097 227.804 99.6191 228.506 98.8853C246.668 98.1487 263.219 92.4166 278.161 81.6879C279.219 86.1469 279.219 90.6055 278.161 95.0637C277.548 95.3821 276.935 95.7009 276.322 96.0191C277.651 92.3819 277.497 88.8788 275.862 85.5095C271.75 88.745 267.306 91.452 262.529 93.6305C253.26 96.8866 243.757 99.4337 234.023 101.274C216.215 102.651 198.438 103.128 180.69 102.707C179.59 102.376 179.59 101.899 180.69 101.274C178.067 100.402 176.075 101.197 174.713 103.662C173.059 101.43 171.067 100.793 168.736 101.752C167.733 102.603 167.733 103.558 168.736 104.618C170.751 105.916 172.284 107.667 173.333 109.873C179.031 111.627 184.855 112.582 190.805 112.739C202.453 113.376 214.099 113.376 225.747 112.739C234.427 112.094 242.855 110.343 251.035 107.484C251.652 108.203 252.418 108.522 253.333 108.439C253.066 109.537 252.3 110.174 251.035 110.35C243.835 111.76 236.632 113.033 229.425 114.172C214.105 115.234 198.779 115.234 183.448 114.172C170.093 112.662 157.526 108.363 145.747 101.274C143.275 98.6082 141.128 95.742 139.31 92.6751C138.488 89.0673 138.181 85.4049 138.391 81.6879C141.417 83.9939 144.636 86.2231 148.046 88.3758C163.529 96.2751 179.928 100.097 197.242 99.8407Z" fill="#F3EDE3"/>
<path fill-rule="evenodd" clip-rule="evenodd" d="M276.322 96.0191C274.483 98.2481 272.644 100.478 270.805 102.707C265.385 105.751 259.562 107.662 253.334 108.439C252.418 108.522 251.652 108.203 251.035 107.484C242.856 110.343 234.427 112.094 225.748 112.739C214.1 113.376 202.453 113.376 190.805 112.739C184.856 112.582 179.031 111.627 173.334 109.873C172.285 107.667 170.752 105.916 168.736 104.618C167.734 103.558 167.734 102.603 168.736 101.752C171.067 100.793 173.06 101.43 174.713 103.662C176.075 101.197 178.068 100.402 180.69 101.274C179.59 101.899 179.59 102.376 180.69 102.707C198.438 103.128 216.216 102.651 234.023 101.274C243.758 99.4337 253.26 96.8866 262.529 93.6305C267.306 91.452 271.75 88.745 275.863 85.5095C277.497 88.8788 277.651 92.3819 276.322 96.0191Z" fill="#FDF1DD"/>
<path fill-rule="evenodd" clip-rule="evenodd" d="M163.219 52.0701C163.191 53.0228 163.651 53.6598 164.598 53.9809C171.409 51.894 178.305 51.5755 185.287 53.0255C176.917 55.3304 168.335 57.2412 159.54 58.758C157.034 60.5287 154.275 61.6434 151.265 62.1019C148.605 64.5453 145.693 66.6153 142.529 68.3121C140.828 71.2135 140.828 74.0798 142.529 76.9108C146.754 81.0937 151.505 84.4377 156.782 86.9427C190.59 97.4379 224.459 97.5965 258.391 87.4204C259.841 86.4158 261.22 85.4604 262.529 84.5541C266.443 82.8359 270.122 80.6066 273.563 77.8662C273.553 79.316 272.941 80.4307 271.724 81.2102C272.207 81.8717 272.82 82.3494 273.563 82.6433C275.412 81.0465 277.557 80.4096 280 80.7325C280.153 84.8848 279.999 89.0249 279.54 93.1529C279.285 94.0278 278.825 94.6648 278.161 95.0637C279.219 90.6055 279.219 86.1469 278.161 81.6879C263.219 92.4166 246.668 98.1487 228.506 98.8854C218.113 99.7548 207.691 100.073 197.242 99.8408C179.928 100.097 163.529 96.2752 148.046 88.3758C144.636 86.2232 141.417 83.9939 138.391 81.6879C138.181 85.4049 138.488 89.0673 139.31 92.6752C141.128 95.742 143.275 98.6083 145.747 101.274C157.526 108.363 170.093 112.662 183.448 114.172C198.777 116.677 214.103 116.677 229.425 114.172C236.632 113.033 243.835 111.76 251.035 110.35C252.3 110.175 253.066 109.537 253.333 108.439C259.562 107.662 265.385 105.751 270.805 102.707C270.262 103.917 269.802 105.19 269.425 106.529C269.045 106.092 268.585 105.773 268.046 105.573C239.722 117.079 210.45 120.265 180.23 115.127C178.886 115.599 177.506 115.918 176.092 116.083C171.578 114.508 166.98 113.712 162.299 113.694C163.141 113.96 163.754 114.438 164.138 115.127C162.25 115.221 160.717 114.584 159.54 113.217C160.22 113.342 160.833 113.182 161.379 112.739C157.487 111.672 153.809 110.08 150.345 107.962C149.164 107.308 148.091 107.468 147.127 108.439C145.287 105.891 143.142 103.662 140.69 101.752C140.263 102.319 140.11 102.956 140.23 103.662C137.753 100.437 135.607 96.9334 133.793 93.1529C133.041 86.6214 133.348 80.0926 134.713 73.5669C136.244 68.2869 139.002 63.9875 142.989 60.6688C149.083 56.3243 155.826 53.4581 163.219 52.0701Z" fill="#1E1951"/>
<path fill-rule="evenodd" clip-rule="evenodd" d="M228.506 98.8854C227.804 99.6191 226.884 100.097 225.747 100.318C216.084 101.107 206.582 100.948 197.241 99.8408C207.691 100.073 218.113 99.7548 228.506 98.8854Z" fill="#857F94"/>
<path fill-rule="evenodd" clip-rule="evenodd" d="M275.402 126.592C275.8 118.506 276.872 110.543 278.62 102.707C284.328 95.3771 286.014 87.0968 283.678 77.8663C283.558 77.1603 283.711 76.5233 284.138 75.9554C286.413 81.7668 287.026 87.8178 285.977 94.1083C283.976 97.8316 281.984 101.494 280 105.096C279.303 113.35 277.923 121.471 275.862 129.459C275.418 128.553 275.265 127.597 275.402 126.592Z" fill="#EECAB6"/>
<path fill-rule="evenodd" clip-rule="evenodd" d="M133.794 93.1528C135.608 96.9334 137.753 100.437 140.23 103.662C141.417 104.196 142.182 105.151 142.529 106.529C142.901 113.081 143.974 119.451 145.748 125.637C141.6 125.27 137.616 124.633 133.794 123.726C136.975 123.702 140.041 123.065 142.989 121.815C142.337 116.676 141.417 111.581 140.23 106.529C137.759 103.802 135.46 100.936 133.334 97.9299C132.617 96.127 132.77 94.5347 133.794 93.1528Z" fill="#DCC1B3"/>
<path fill-rule="evenodd" clip-rule="evenodd" d="M195.402 237.42C196.161 233.458 196.621 229.317 196.782 225C201.895 222.423 204.5 218.283 204.598 212.58C204.059 203.197 200.994 194.917 195.402 187.739C198.916 174.94 196.923 163.157 189.425 152.389C185.287 148.089 181.15 143.79 177.012 139.49C169.289 133.731 160.706 129.75 151.264 127.548C150.841 122.04 149.921 116.625 148.506 111.306C148.812 110.988 149.119 110.668 149.425 110.35C152.688 111.755 156.06 112.71 159.54 113.217C160.717 114.584 162.25 115.221 164.138 115.127C192.598 122.35 221.257 122.668 250.115 116.083C257.369 113.449 264.572 110.901 271.724 108.439C266.998 143.076 261.787 177.631 256.092 212.102C254.713 218.634 253.333 225.163 251.954 231.688C248.915 234.701 245.543 237.248 241.839 239.331C228.078 244.559 213.825 246.948 199.081 246.497C196.517 244.086 195.291 241.06 195.402 237.42Z" fill="#FC5E45"/>
<path fill-rule="evenodd" clip-rule="evenodd" d="M133.793 122.771C112.971 120.398 92.4339 121.832 72.1838 127.07C65.8589 129.519 59.7286 132.226 53.793 135.191C56.816 132.341 60.1877 129.953 63.9079 128.026C87.9135 119.617 112.435 117.706 137.471 122.293C136.282 122.761 135.055 122.921 133.793 122.771Z" fill="#ECCCB7"/>
<path fill-rule="evenodd" clip-rule="evenodd" d="M274.483 130.414C275.525 132.77 275.679 135.318 274.942 138.057C272.122 151.626 269.976 165.32 268.506 179.14C268.175 181.154 267.561 183.065 266.667 184.873C266.222 183.967 266.07 183.012 266.207 182.006C268.356 167.959 270.501 153.947 272.644 139.968C273.825 137.017 274.438 133.833 274.483 130.414Z" fill="#EDCAB4"/>
<path fill-rule="evenodd" clip-rule="evenodd" d="M159.54 113.217C156.06 112.71 152.688 111.755 149.425 110.35C149.119 110.668 148.812 110.988 148.506 111.306C149.921 116.625 150.84 122.04 151.264 127.548C160.706 129.75 169.289 133.731 177.011 139.49C181.149 143.79 185.287 148.089 189.425 152.389C196.923 163.157 198.916 174.94 195.402 187.739C200.994 194.917 204.059 203.197 204.597 212.58C204.5 218.283 201.895 222.423 196.781 225C196.62 229.318 196.161 233.458 195.402 237.42C195.546 236.109 195.393 234.834 194.942 233.599C194.766 235.583 194.306 237.494 193.563 239.331C193.257 238.216 192.95 237.102 192.643 235.987C193.525 232.918 193.525 229.894 192.643 226.911C192.027 228.622 191.414 230.215 190.804 231.688C191.051 229.186 190.745 226.797 189.885 224.522C180.585 219.048 172.309 220.321 165.057 228.344C163.44 230.62 161.601 232.689 159.54 234.554C149.772 237.042 140.27 240.226 131.034 244.108C129.374 242.487 127.228 241.691 124.597 241.72C127.286 240.776 130.045 240.139 132.873 239.809C131.059 239.336 129.22 239.176 127.356 239.331C131.444 238 135.735 237.045 140.23 236.465C138.472 235.532 136.633 234.895 134.712 234.554C134.61 233.965 134.304 233.487 133.793 233.121C127.061 231.335 120.318 231.335 113.563 233.121C113.052 233.487 112.746 233.965 112.643 234.554C108.075 235.661 103.477 236.617 98.8503 237.42C93.9391 238.605 89.0351 238.605 84.1377 237.42C77.9776 233.583 71.5408 230.239 64.8273 227.389C59.6412 225.904 54.4305 225.744 49.1952 226.911C49.3088 227.491 49.6153 227.809 50.1147 227.866C55.719 237.926 62.0026 247.48 68.9653 256.529C71.7965 259.381 75.0148 260.018 78.6204 258.439C78.5 259.146 78.6533 259.783 79.0802 260.35C80.9331 259.068 82.9255 258.59 85.0572 258.917C81.71 261.192 78.0319 262.625 74.0228 263.217C67.2894 259.763 60.2396 256.896 52.8733 254.618C52.5668 254.936 52.2603 255.255 51.9538 255.573C52.6367 256.225 53.2498 256.862 53.7929 257.484C46.1816 255.5 38.8252 252.633 31.7239 248.885C27.8891 258.485 29.7281 266.606 37.2411 273.248C50.0921 280.81 63.8852 285.587 78.6204 287.58C79.4626 287.845 80.0756 288.323 80.4595 289.013C79.1966 288.863 77.9705 289.022 76.7814 289.49C97.585 292.229 118.428 292.547 139.31 290.446C137.496 289.973 135.657 289.813 133.793 289.968C146.259 288.324 158.52 285.458 170.574 281.369C170.454 282.075 170.608 282.713 171.034 283.28C173.783 281.211 176.694 280.893 179.77 282.325C174.151 285.231 168.327 287.778 162.299 289.968C156.059 291.144 149.774 292.1 143.448 292.834C141.622 292.9 140.243 293.537 139.31 294.745C124.3 295.675 109.282 295.834 94.2526 295.223C84.0171 294.431 73.9022 292.998 63.9078 290.924C63.5936 290.123 62.9805 289.804 62.0687 289.968C53.4561 287.646 45.1803 284.302 37.2411 279.936C32.1362 276.383 28.1516 271.765 25.2871 266.083C24.9806 263.694 24.6741 261.306 24.3676 258.917C25.9549 251.879 26.8744 244.713 27.1262 237.42C26.8197 234.236 26.5131 231.051 26.2067 227.866C21.11 225.434 18.658 221.293 18.8503 215.446C19.8722 206.314 23.3971 198.353 29.4251 191.561C29.8701 189.943 29.4103 188.668 28.0457 187.739C27.0444 181.417 26.8911 175.048 27.586 168.631C29.3552 165.27 30.8877 161.767 32.1837 158.121C38.3406 149.336 45.5437 141.693 53.7929 135.191C59.7285 132.225 65.8588 129.519 72.1837 127.07C92.4338 121.832 112.971 120.398 133.793 122.771C133.793 123.089 133.793 123.408 133.793 123.726C137.615 124.633 141.6 125.27 145.747 125.637C143.973 119.451 142.9 113.081 142.528 106.529C142.182 105.151 141.416 104.196 140.23 103.662C140.109 102.956 140.263 102.319 140.689 101.752C143.142 103.662 145.287 105.891 147.126 108.439C148.091 107.468 149.164 107.308 150.345 107.962C153.808 110.08 157.487 111.672 161.379 112.739C160.833 113.182 160.22 113.342 159.54 113.217Z" fill="#23195D"/>
<path fill-rule="evenodd" clip-rule="evenodd" d="M79.5405 131.369C80.3463 131.244 80.9594 131.562 81.3795 132.325C74.171 135.477 66.8147 138.343 59.3106 140.924C53.4163 145.672 47.7459 150.767 42.2991 156.21C34.4287 166.186 32.4364 177.332 36.3221 189.65C33.0206 186.706 31.488 182.884 31.7244 178.185C31.8866 174.953 32.3463 171.769 33.1037 168.631C36.4226 161.26 40.867 154.731 46.437 149.045C55.8244 139.868 66.8589 133.977 79.5405 131.369Z" fill="#E8C04C"/>
<path fill-rule="evenodd" clip-rule="evenodd" d="M154.023 134.236C154.935 134.071 155.548 134.39 155.862 135.191C155.459 135.129 155.152 135.288 154.943 135.669C162.838 139.135 170.194 143.593 177.012 149.045C187.339 159.13 191.17 171.391 188.506 185.828C186.276 189.3 183.364 192.008 179.77 193.949C168.562 199.018 156.915 202.52 144.828 204.459C134.405 205.231 123.983 206.026 113.563 206.847C92.333 207.222 71.4899 204.514 51.0346 198.726C45.7914 196.132 40.8872 193.107 36.322 189.65C32.4363 177.332 34.4287 166.186 42.299 156.21C47.7458 150.767 53.4162 145.672 59.3105 140.924C66.8146 138.343 74.1709 135.477 81.3795 132.325C80.9593 131.562 80.3463 131.244 79.5404 131.369C80.1923 130.506 81.1119 130.188 82.299 130.414C83.1713 131.037 84.2441 131.356 85.5174 131.369C108.008 127.919 130.231 129.193 152.184 135.191C153.026 135.15 153.64 134.832 154.023 134.236Z" fill="#FEAB46"/>
<path fill-rule="evenodd" clip-rule="evenodd" d="M115.403 146.656C116.935 146.656 118.467 146.656 120 146.656C120 148.885 120 151.115 120 153.344C117.242 153.344 114.483 153.344 111.724 153.344C111.587 152.339 111.74 151.383 112.184 150.478C113.68 149.492 114.752 148.217 115.403 146.656Z" fill="#FEC37B"/>
<path fill-rule="evenodd" clip-rule="evenodd" d="M129.195 128.503C137.611 129.528 145.887 131.439 154.023 134.236C153.64 134.832 153.026 135.15 152.184 135.191C130.231 129.193 108.008 127.919 85.5172 131.369C84.2439 131.356 83.1711 131.037 82.2988 130.414C83.2184 130.414 84.1379 130.414 85.0574 130.414C99.6919 128.672 114.405 128.035 129.195 128.503Z" fill="#F6C943"/>
<path fill-rule="evenodd" clip-rule="evenodd" d="M129.196 128.503C114.405 128.035 99.6921 128.672 85.0576 130.414C85.1594 129.824 85.4659 129.347 85.9772 128.981C100.507 126.26 114.913 126.1 129.196 128.503Z" fill="#B79352"/>
<path fill-rule="evenodd" clip-rule="evenodd" d="M155.862 135.191C170.822 139.534 182.01 148.769 189.425 162.898C196.01 179.824 191.259 191.608 175.172 198.248C143.321 208.773 110.83 211.639 77.7011 206.847C75.1515 205.742 72.3929 205.104 69.4252 204.936C58.1039 203.347 47.6824 199.367 38.1609 192.994C36.9445 192.214 36.3315 191.099 36.3218 189.65C40.887 193.107 45.7912 196.132 51.0344 198.726C71.4897 204.514 92.3328 207.222 113.563 206.847C123.982 206.026 134.405 205.231 144.828 204.459C156.915 202.52 168.562 199.018 179.77 193.949C183.364 192.008 186.276 189.3 188.506 185.828C191.17 171.391 187.339 159.13 177.011 149.045C170.194 143.593 162.838 139.135 154.942 135.669C155.152 135.288 155.459 135.129 155.862 135.191Z" fill="#EBBE47"/>
<path fill-rule="evenodd" clip-rule="evenodd" d="M27.1264 205.892C25.6435 210.198 25.0304 214.656 25.2873 219.268C24.236 215.947 24.0828 212.444 24.8275 208.758C25.174 207.38 25.9402 206.425 27.1264 205.892Z" fill="#539363"/>
<path fill-rule="evenodd" clip-rule="evenodd" d="M25.2873 219.268C25.0305 214.656 25.6436 210.198 27.1264 205.892C28.5472 201.741 30.8461 198.238 34.023 195.382C37.274 198.43 40.7989 201.137 44.5977 203.503C88.6423 218.028 132.78 218.028 177.011 203.503C181.998 200.562 186.902 197.537 191.724 194.427C193.13 194.454 194.203 195.092 194.943 196.338C197.27 201.664 198.955 207.237 200 213.057C199.354 216.992 197.056 219.062 193.103 219.268C185.44 215.248 177.624 214.77 169.655 217.834C165.057 221.974 160.46 226.115 155.862 230.255C153.23 231.496 150.472 232.292 147.586 232.643C142.552 231.43 137.648 229.838 132.874 227.866C129.666 227.426 126.448 227.108 123.218 226.911C115.007 228.122 106.884 229.875 98.8506 232.166C94.5591 232.803 90.2682 232.803 85.977 232.166C80.5099 228.768 74.8393 225.742 68.9655 223.089C56.8721 220.646 44.7648 220.646 32.6437 223.089C29.1016 223.778 26.6495 222.504 25.2873 219.268Z" fill="#62BE67"/>
<path fill-rule="evenodd" clip-rule="evenodd" d="M69.4253 204.936C72.3929 205.104 75.1515 205.742 77.7012 206.847C74.6399 207.119 71.8813 206.482 69.4253 204.936Z" fill="#846956"/>
<path fill-rule="evenodd" clip-rule="evenodd" d="M265.287 185.828C266.334 188.507 266.487 191.373 265.747 194.427C263.494 205.128 261.809 215.957 260.69 226.911C259.401 230.126 258.022 233.311 256.552 236.465C249.9 243.441 241.93 247.9 232.644 249.841C231.695 251.412 230.622 251.731 229.425 250.796C220.318 252.536 211.123 253.491 201.839 253.662C202.643 262.779 199.884 270.582 193.563 277.07C183.977 284.355 173.555 288.654 162.299 289.968C168.327 287.778 174.152 285.231 179.77 282.325C189.393 279.809 195.983 273.758 199.54 264.172C200.245 260.295 200.092 256.473 199.08 252.707C214.173 251.812 228.885 249.104 243.218 244.586C248.442 241.951 252.887 238.288 256.552 233.599C257.359 230.965 258.279 228.417 259.31 225.955C260.705 212.438 262.698 199.062 265.287 185.828Z" fill="#E3C0B1"/>
<path fill-rule="evenodd" clip-rule="evenodd" d="M190.805 231.688C191.76 236.798 190.534 241.098 187.127 244.586C179.474 248.643 171.505 251.828 163.219 254.14C138.6 258.958 113.772 260.551 88.7358 258.917C101.809 251.046 115.909 246.109 131.035 244.108C140.271 240.226 149.772 237.042 159.54 234.554C161.601 232.689 163.44 230.62 165.058 228.344C172.309 220.321 180.585 219.048 189.885 224.522C190.745 226.797 191.051 229.186 190.805 231.688Z" fill="#764122"/>
<path fill-rule="evenodd" clip-rule="evenodd" d="M134.713 234.554C127.377 232.274 120.021 232.274 112.644 234.554C112.746 233.965 113.052 233.487 113.563 233.121C120.318 231.335 127.061 231.335 133.793 233.121C134.304 233.487 134.61 233.965 134.713 234.554Z" fill="#A67D3D"/>
<path fill-rule="evenodd" clip-rule="evenodd" d="M50.1147 227.866C53.9432 227.937 57.9278 228.096 62.0688 228.344C69.6352 231.638 76.9915 235.46 84.1377 239.809C89.3485 240.446 94.5589 240.446 99.7699 239.809C105.515 237.941 111.34 236.348 117.241 235.032C122.557 234.169 127.767 234.487 132.873 235.987C116.312 238.453 100.68 243.708 85.9768 251.752C84.806 252.475 84.806 253.111 85.9768 253.662C84.019 256.003 81.567 257.596 78.6205 258.439C75.0149 260.018 71.7965 259.381 68.9653 256.529C62.0027 247.48 55.7191 237.926 50.1147 227.866Z" fill="#FCA82D"/>
<path fill-rule="evenodd" clip-rule="evenodd" d="M84.1378 237.42C84.5217 238.11 85.1348 238.588 85.9769 238.854C89.9616 239.491 93.9466 239.491 97.9309 238.854C98.4422 238.488 98.7484 238.01 98.8505 237.42C103.478 236.617 108.075 235.661 112.644 234.554C120.021 232.274 127.377 232.274 134.713 234.554C136.633 234.895 138.473 235.532 140.23 236.465C135.735 237.045 131.445 238 127.356 239.331C112.756 241.921 98.9627 246.698 85.9769 253.662C84.8061 253.111 84.8061 252.475 85.9769 251.752C100.68 243.708 116.313 238.453 132.873 235.987C127.767 234.487 122.557 234.169 117.241 235.032C111.34 236.348 105.515 237.941 99.77 239.809C94.559 240.446 89.3486 240.446 84.1378 239.809C76.9916 235.46 69.6353 231.638 62.0689 228.344C57.9279 228.097 53.9433 227.937 50.1149 227.866C49.6155 227.809 49.309 227.491 49.1953 226.911C54.4306 225.744 59.6414 225.904 64.8275 227.389C71.541 230.24 77.9777 233.583 84.1378 237.42Z" fill="#E9B82C"/>
<path fill-rule="evenodd" clip-rule="evenodd" d="M84.1377 237.42C89.0351 238.605 93.9391 238.605 98.8503 237.42C98.7483 238.01 98.4421 238.488 97.9308 238.854C93.9464 239.491 89.9614 239.491 85.9768 238.854C85.1347 238.588 84.5216 238.11 84.1377 237.42Z" fill="#97724C"/>
<path fill-rule="evenodd" clip-rule="evenodd" d="M34.4826 227.866C37.563 227.709 40.6281 227.868 43.678 228.344C48.3873 234.463 52.5252 240.992 56.0918 247.93C57.7776 250.319 59.77 252.389 62.0688 254.14C52.1605 252.192 42.6586 248.69 33.5631 243.631C32.1032 238.173 32.4098 232.918 34.4826 227.866Z" fill="#723F24"/>
<path fill-rule="evenodd" clip-rule="evenodd" d="M272.644 139.968C270.501 153.947 268.356 167.959 266.207 182.006C265.348 183.027 265.041 184.3 265.287 185.828C262.698 199.062 260.705 212.438 259.31 225.955C258.279 228.417 257.359 230.965 256.552 233.599C252.887 238.288 248.442 241.951 243.218 244.586C228.886 249.104 214.173 251.812 199.081 252.707C200.092 256.473 200.246 260.295 199.54 264.172C195.984 273.758 189.393 279.809 179.77 282.325C176.694 280.893 173.783 281.211 171.035 283.28C170.608 282.713 170.454 282.076 170.575 281.369C178.235 278.68 185.131 274.54 191.264 268.949C195.331 262.966 196.097 256.597 193.563 249.841C192.881 249.089 192.115 248.453 191.264 247.93C184.706 252.689 177.504 256.033 169.655 257.962C161.072 259.777 152.49 261.529 143.908 263.217C142.438 262.961 141.212 263.28 140.23 264.172C135.938 264.172 131.648 264.172 127.356 264.172C117.258 264.923 107.143 265.241 97.0116 265.127C89.2445 263.892 81.4284 263.892 73.5633 265.127C70.6911 264.237 68.0858 262.804 65.7472 260.828C61.5981 259.909 57.6135 258.794 53.7932 257.484C53.2501 256.862 52.637 256.225 51.9541 255.573C52.2606 255.255 52.5672 254.936 52.8736 254.618C60.2399 256.897 67.2897 259.763 74.0231 263.217C78.0322 262.625 81.7103 261.192 85.0575 258.917C82.9258 258.59 80.9334 259.068 79.0805 260.35C78.6536 259.783 78.5003 259.146 78.6208 258.44C81.5673 257.596 84.0193 256.003 85.9771 253.662C98.9628 246.698 112.756 241.921 127.356 239.331C129.22 239.176 131.059 239.336 132.874 239.809C130.045 240.14 127.287 240.776 124.598 241.72C127.229 241.691 129.375 242.487 131.035 244.108C115.909 246.109 101.809 251.046 88.7357 258.917C113.772 260.551 138.6 258.958 163.218 254.14C171.504 251.828 179.474 248.643 187.127 244.586C190.533 241.098 191.76 236.798 190.805 231.688C191.414 230.215 192.028 228.622 192.644 226.911C193.526 229.894 193.526 232.919 192.644 235.987C192.95 237.102 193.257 238.216 193.563 239.331C194.306 237.494 194.766 235.583 194.943 233.599C195.393 234.834 195.547 236.109 195.402 237.42C195.291 241.061 196.517 244.086 199.081 246.497C213.825 246.948 228.078 244.559 241.839 239.331C245.543 237.248 248.915 234.701 251.954 231.688C253.333 225.163 254.713 218.634 256.092 212.102C261.787 177.631 266.998 143.076 271.724 108.44C264.572 110.901 257.369 113.449 250.115 116.083C221.257 122.669 192.598 122.35 164.138 115.127C163.754 114.438 163.141 113.96 162.299 113.694C166.98 113.712 171.578 114.508 176.092 116.083C177.506 115.918 178.886 115.599 180.23 115.127C210.45 120.265 239.722 117.079 268.046 105.573C268.585 105.773 269.045 106.092 269.425 106.529C269.802 105.19 270.262 103.917 270.805 102.707C272.802 102.385 274.487 101.43 275.862 99.8408C276.322 100.159 276.782 100.478 277.241 100.796C274.411 110.462 272.266 120.334 270.805 130.414C271.867 133.462 272.48 136.646 272.644 139.968Z" fill="#251860"/>
<path fill-rule="evenodd" clip-rule="evenodd" d="M183.448 114.172C198.779 115.234 214.105 115.234 229.425 114.172C214.103 116.677 198.777 116.677 183.448 114.172Z" fill="#A59FAD"/>
<path fill-rule="evenodd" clip-rule="evenodd" d="M170.575 281.369C158.521 285.458 146.259 288.324 133.793 289.968C115.978 291.492 98.2005 291.174 80.4598 289.013C80.0759 288.323 79.4628 287.845 78.6207 287.58C63.8855 285.587 50.0924 280.81 37.2414 273.248C29.7284 266.606 27.8893 258.485 31.7242 248.885C38.8255 252.633 46.1818 255.5 53.7931 257.484C57.6135 258.794 61.5981 259.909 65.7472 260.828C68.0857 262.804 70.6911 264.237 73.5633 265.127C81.4284 263.892 89.2444 263.892 97.0115 265.127C100.83 265.764 104.816 266.082 108.966 266.083C115.309 266.23 121.438 265.593 127.356 264.172C131.648 264.172 135.938 264.172 140.23 264.172C141.035 264.047 141.649 264.365 142.069 265.127C139.048 265.915 135.983 266.392 132.874 266.561C113.086 266.781 93.3159 266.941 73.5633 267.038C72.1839 266.879 70.8046 266.72 69.4253 266.561C68.8123 265.287 67.8927 264.332 66.6667 263.694C54.7567 260.366 43.1093 256.384 31.7242 251.752C31.4922 256.419 31.7987 261.037 32.6437 265.605C34.1965 266.903 35.4226 268.495 36.3219 270.382C54.0913 280.976 73.4017 286.708 94.2529 287.58C118.89 289.726 143.104 287.497 166.897 280.892C171.863 278.852 176.768 276.622 181.609 274.204C188.492 270.746 192.17 265.173 192.644 257.484C192.836 254.662 192.223 252.114 190.805 249.841C185.418 253.728 179.595 256.753 173.333 258.917C174.522 259.385 175.749 259.545 177.012 259.395C177.012 260.35 177.012 261.306 177.012 262.261C173.451 262.494 169.773 262.176 165.977 261.306C159.874 262.439 153.744 263.394 147.586 264.172C146.166 264.161 144.94 263.843 143.908 263.217C152.49 261.529 161.072 259.777 169.655 257.962C177.503 256.033 184.706 252.689 191.264 247.93C192.115 248.453 192.881 249.089 193.563 249.841C196.097 256.596 195.331 262.966 191.264 268.949C185.131 274.54 178.235 278.68 170.575 281.369Z" fill="#E9B83C"/>
<path fill-rule="evenodd" clip-rule="evenodd" d="M140.23 264.172C141.212 263.28 142.438 262.961 143.908 263.217C144.94 263.843 146.166 264.162 147.586 264.172C153.745 263.394 159.874 262.439 165.977 261.306C169.773 262.176 173.451 262.494 177.012 262.261C177.012 261.306 177.012 260.35 177.012 259.395C175.749 259.545 174.523 259.385 173.334 258.917C179.595 256.753 185.418 253.728 190.805 249.841C192.223 252.114 192.836 254.662 192.644 257.484C192.17 265.173 188.492 270.746 181.609 274.204C176.768 276.622 171.863 278.852 166.897 280.892C143.105 287.498 118.89 289.726 94.2531 287.58C73.4019 286.708 54.0916 280.976 36.3221 270.382C35.4228 268.495 34.1967 266.903 32.6439 265.605C31.7989 261.037 31.4924 256.419 31.7244 251.752C43.1095 256.384 54.7569 260.366 66.6669 263.694C67.8929 264.332 68.8125 265.287 69.4255 266.561C70.8048 266.72 72.1841 266.879 73.5635 267.038C93.3161 266.941 113.086 266.781 132.874 266.561C135.984 266.392 139.049 265.915 142.069 265.127C141.649 264.365 141.036 264.047 140.23 264.172Z" fill="#FEA63B"/>
<path fill-rule="evenodd" clip-rule="evenodd" d="M127.357 264.172C121.438 265.593 115.309 266.23 108.966 266.083C104.816 266.082 100.831 265.764 97.0117 265.127C107.143 265.241 117.258 264.923 127.357 264.172Z" fill="#9D7A4C"/>
<path fill-rule="evenodd" clip-rule="evenodd" d="M28.0458 187.739C29.4104 188.669 29.8701 189.943 29.4251 191.561C23.3971 198.353 19.8722 206.314 18.8504 215.446C18.658 221.293 21.11 225.434 26.2067 227.866C26.5132 231.051 26.8197 234.236 27.1262 237.42C26.8745 244.713 25.9549 251.879 24.3676 258.917C24.6741 261.306 24.9807 263.694 25.2871 266.083C28.1516 271.765 32.1362 276.383 37.2412 279.936C45.1803 284.302 53.4562 287.646 62.0688 289.968C61.6854 290.564 61.0723 290.883 60.2297 290.924C51.8243 288.782 43.855 285.596 36.3216 281.369C31.5799 277.614 27.442 273.155 23.9078 267.994C23.0863 265.191 22.6265 262.325 22.5285 259.395C23.7716 250.355 24.6911 241.278 25.2871 232.166C23.1002 228.726 20.8013 225.382 18.3906 222.134C16.0576 210.774 18.8162 201.22 26.6665 193.471C27.8575 191.498 28.3173 189.588 28.0458 187.739Z" fill="#F0CDB8"/>
<path fill-rule="evenodd" clip-rule="evenodd" d="M80.4599 289.013C98.2006 291.174 115.978 291.492 133.793 289.968C135.657 289.813 137.496 289.973 139.31 290.446C118.429 292.547 97.5854 292.229 76.7817 289.49C77.9709 289.022 79.197 288.863 80.4599 289.013Z" fill="#150765"/>
<path fill-rule="evenodd" clip-rule="evenodd" d="M63.9082 290.924C73.9026 292.998 84.0175 294.431 94.253 295.223C109.282 295.834 124.301 295.675 139.311 294.745C140.873 294.592 142.406 294.751 143.908 295.223C118.674 298.813 93.5395 298.176 68.5059 293.312C66.8373 292.589 65.3048 291.793 63.9082 290.924Z" fill="#F7D2BF"/>
</svg>
