<svg width="320" height="300" viewBox="0 0 320 300" fill="none" xmlns="http://www.w3.org/2000/svg">
<path fill-rule="evenodd" clip-rule="evenodd" d="M107.04 122.208C105.775 127.274 104.408 132.35 102.937 137.437C102.689 140.229 102.44 143.02 102.191 145.812C97.7373 140.829 93.2618 135.754 88.7646 130.584C89.336 123.453 90.3311 116.347 91.7483 109.264C94.5836 100.556 96.9452 91.6729 98.8346 82.6142C99.1016 79.5617 99.4746 76.516 99.9535 73.4772C103.376 61.4377 106.236 49.2549 108.532 36.929C113.63 38.374 118.851 39.2623 124.196 39.5939C124.888 39.8893 125.386 40.3969 125.688 41.1168C124.003 46.775 122.388 52.4856 120.839 58.2488C116.203 79.5944 111.603 100.914 107.04 122.208Z" fill="#D89341"/>
<path fill-rule="evenodd" clip-rule="evenodd" d="M138.368 20.1777C140.358 20.6854 142.346 21.1929 144.336 21.7006C166.954 25.1325 189.58 29.0665 212.215 33.5026C235.585 38.825 258.958 43.6473 282.331 47.9696C289.626 53.7082 295.344 60.8148 299.487 69.2894C299.088 71.5703 298.591 73.7276 297.995 75.7615C297.132 77.8729 296.635 80.1572 296.504 82.6143C292.165 102.7 287.69 122.751 283.077 142.767C281.703 145.995 280.709 149.295 280.093 152.665C279.628 152.348 279.38 151.84 279.347 151.142C280.359 147.894 280.732 144.595 280.466 141.244C278.619 147.484 277.004 153.828 275.618 160.279C275.023 159.931 274.774 159.423 274.872 158.756C274.872 157.741 274.872 156.726 274.872 155.711C276.244 154.071 276.99 152.041 277.11 149.619C281.279 132.146 285.257 114.634 289.044 97.0813C290.51 90.0678 292.002 82.9615 293.52 75.7615C293.98 75.6772 294.353 75.4234 294.639 75C295.136 72.9696 295.136 70.9392 294.639 68.9087C291.711 64.7098 288.603 60.6489 285.315 56.7259C282.71 68.6292 280.224 80.5584 277.856 92.5127C277.181 93.0526 276.933 93.814 277.11 94.797C271.153 120.463 265.434 146.224 259.954 172.081C262.16 174.847 264.398 177.639 266.667 180.457C267.374 180.825 268.12 180.951 268.905 180.838C269.231 180.788 269.48 180.915 269.65 181.218C269.184 181.789 268.811 182.424 268.532 183.122C266.177 181.479 264.064 179.576 262.191 177.411C261.484 177.043 260.738 176.917 259.954 177.031C259.411 173.086 258.167 172.578 256.224 175.508C256.697 167.539 257.816 159.671 259.581 151.904C265.719 124.116 272.059 96.4516 278.602 68.9087C278.446 68.4625 278.197 68.0818 277.856 67.7665C275.836 67.4657 273.848 67.085 271.888 66.6244C258.635 64.6922 245.457 62.408 232.354 59.7716C214.692 56.282 197.038 52.8556 179.394 49.4924C175.667 49.0274 171.938 48.6467 168.205 48.3503C167.676 47.662 166.93 47.4082 165.968 47.5889C153.867 45.2012 141.684 43.1708 129.417 41.4975C129.417 42.2589 129.417 43.0204 129.417 43.7818C121.739 74.3343 114.528 105.045 107.786 135.914C107.32 135.596 107.072 135.088 107.04 134.391C108.572 128.072 109.691 121.726 110.396 115.355C109.055 119.058 108.059 122.865 107.413 126.777C107.044 125.274 106.919 123.752 107.04 122.208C111.603 100.914 116.203 79.5945 120.839 58.2488C122.388 52.4857 124.004 46.775 125.688 41.1168C125.386 40.397 124.888 39.8893 124.196 39.594C118.851 39.2624 113.63 38.374 108.532 36.929C106.236 49.2549 103.377 61.4377 99.9535 73.4772C99.4746 76.516 99.1017 79.5617 98.8346 82.6143C97.7411 83.2592 97.119 84.2742 96.9698 85.6599C96.943 80.815 97.8127 76.1199 99.5806 71.5737C98.631 69.6578 98.631 67.7542 99.5806 65.863C99.2397 65.2558 98.7421 65.0019 98.0887 65.1016C100.07 56.249 102.183 47.3657 104.429 38.4518C104.556 34.3987 104.431 30.3377 104.056 26.2691C102.657 19.9631 105.02 16.6635 111.142 16.3706C120.28 17.3617 129.355 18.6308 138.368 20.1777Z" fill="#25175D"/>
<path fill-rule="evenodd" clip-rule="evenodd" d="M118.974 21.7004C121.043 22.5816 123.281 23.0892 125.688 23.2233C177.547 31.1811 229.016 40.8257 280.093 52.1573C279.44 52.0576 278.942 52.3115 278.601 52.9187C279.212 55.6734 279.212 58.4652 278.601 61.2944C237.9 54.7579 197.372 47.5244 157.016 39.5938C154.878 38.9842 152.888 39.111 151.049 39.9746C136.933 37.4463 122.761 35.162 108.532 33.1218C108.096 29.3152 107.971 25.5081 108.159 21.7004C111.74 20.7447 115.346 20.7447 118.974 21.7004Z" fill="#FAAD54"/>
<path fill-rule="evenodd" clip-rule="evenodd" d="M118.974 21.7005C121.457 21.4837 123.695 21.9913 125.687 23.2234C123.28 23.0893 121.043 22.5816 118.974 21.7005Z" fill="#8B705A"/>
<path fill-rule="evenodd" clip-rule="evenodd" d="M165.967 47.5888C166.93 47.4081 167.676 47.6619 168.205 48.3502C167.654 48.2505 167.156 48.3774 166.713 48.7309C173.817 50.6845 181.027 52.0804 188.345 52.9187C186.487 53.7112 186.487 54.3457 188.345 54.8223C191.329 55.3299 194.312 55.8375 197.296 56.3451C195.209 57.9185 195.457 59.0607 198.042 59.7715C198.543 58.6681 199.041 57.6529 199.534 56.7258C201.968 57.3534 204.455 57.6073 206.993 57.4873C206.882 58.2883 207.006 59.0497 207.366 59.7715C208.36 58.7563 209.355 58.7563 210.35 59.7715C211.085 62.2398 210.463 64.2702 208.485 65.8629C209.062 66.7851 209.683 66.7851 210.35 65.8629C211.952 67.5563 211.58 68.6984 209.231 69.2893C209.977 69.5431 210.722 69.7969 211.468 70.0507C210.027 70.6466 208.908 70.2659 208.112 68.9086C207.329 70.1319 206.21 70.6395 204.755 70.4314C204.882 71.4381 204.634 72.3264 204.009 73.0964C204.507 73.8578 205.003 74.6193 205.501 75.3807C203.117 75.8718 200.879 76.7604 198.788 78.0456C199.344 78.9868 199.593 80.0025 199.534 81.0913C201.934 80.9764 202.182 80.3421 200.28 79.1878C201.65 78.0609 203.142 78.0609 204.755 79.1878C203.917 79.3774 203.171 79.7581 202.517 80.3299C203.263 81.3449 204.009 82.3606 204.755 83.3756C203.631 84.319 202.761 84.0647 202.144 82.6142C202.24 84.8878 202.24 87.172 202.144 89.467C200.961 88.5327 199.966 88.7863 199.161 90.2284C198.844 88.618 197.974 87.9837 196.55 88.3248C196.55 89.5941 196.55 90.8627 196.55 92.1319C197.258 92.6017 197.879 92.4753 198.415 91.7512C199.975 95.2363 199.229 95.9977 196.177 94.0355C195.929 93.2741 195.679 92.5127 195.431 91.7512C194.752 94.1368 193.384 94.8982 191.329 94.0355C189.588 94.5434 187.847 95.0505 186.107 95.5583C185.177 94.4116 185.177 93.2695 186.107 92.1319C183.831 92.0185 182.09 91.0028 180.886 89.0863C181.134 88.7055 181.383 88.3248 181.632 87.9441C183.444 90.2421 185.682 91.0035 188.345 90.2284C187.145 87.7324 185.404 85.7025 183.123 84.137C182.066 85.7413 180.948 87.2642 179.767 88.7055C178.504 87.1035 176.888 85.9614 174.918 85.2792C175.902 84.0396 176.896 84.1667 177.902 85.6599C178.534 84.4713 178.285 83.3292 177.156 82.2335C177.863 81.8657 178.609 81.7393 179.394 81.8528C179.521 80.8462 179.272 79.9576 178.648 79.1878C181.066 78.9723 181.315 78.3373 179.394 77.2842C180.051 76.1642 181.045 75.5301 182.377 75.3807C181.368 74.3956 180.372 74.2687 179.394 75C179.369 73.8662 178.996 72.8509 178.275 71.9543C177.906 73.1985 177.783 74.4676 177.902 75.7614C176.568 75.9785 175.325 75.7248 174.172 75C173.072 73.2417 171.829 71.5919 170.443 70.0507C172.255 69.7072 172.379 69.0727 170.816 68.1472C169.271 70.3671 168.276 70.1133 167.832 67.3857C166.377 68.6323 166.501 69.7744 168.205 70.8121C167.707 71.3198 167.211 71.8273 166.713 72.335C167.707 72.335 168.703 72.335 169.697 72.335C169.199 73.604 168.703 74.873 168.205 76.1421C170.443 77.4114 172.681 78.6799 174.918 79.9492C173.741 80.8172 172.499 81.1979 171.189 81.0913C170.628 80.4243 170.256 79.6629 170.07 78.8071C168.807 78.2863 167.688 77.5248 166.713 76.5228C165.393 77.5279 165.144 78.67 165.967 79.9492C165.576 80.4761 165.078 80.8568 164.475 81.0913C162.643 79.905 161.152 78.3822 160 76.5228C159.417 77.4586 159.044 78.4736 158.881 79.5685C158.236 78.255 157.739 76.9857 157.389 75.7614C157.004 77.6908 156.134 79.3401 154.778 80.7106C156.623 81.7781 156.623 82.9203 154.778 84.137C155.335 85.0781 155.583 86.0939 155.524 87.1827C158.573 86.6984 161.307 85.5563 163.729 83.7563C161.818 83.1753 161.818 82.7946 163.729 82.6142C165.051 83.269 166.046 84.284 166.713 85.6599C168.112 85.436 169.604 85.0553 171.189 84.5177C171.437 84.7713 171.686 85.0256 171.935 85.2792C171.064 85.6599 170.443 86.2941 170.07 87.1827C168.87 86.6878 167.751 87.0685 166.713 88.3248C168.023 88.4786 169.266 88.8594 170.443 89.467C167.552 91.002 167.552 91.6363 170.443 91.3705C169.528 92.5789 169.776 93.5946 171.189 94.4162C168.662 95.033 166.797 94.1451 165.594 91.7512C165.065 92.8728 164.195 93.3807 162.984 93.2741C163.095 94.0751 162.971 94.8365 162.611 95.5583C161.865 94.5434 161.119 94.5434 160.373 95.5583C159.415 94.7421 159.167 93.7271 159.627 92.5127C158.875 92.8797 158.005 93.0061 157.016 92.8934C153.495 94.6682 153.246 96.9525 156.27 99.7462C155.773 100.254 155.276 100.254 154.778 99.7462C152.943 96.9319 152.819 94.0134 154.405 90.9898C156.096 89.8972 157.588 90.1507 158.881 91.7512C159.241 91.0294 159.365 90.268 159.254 89.467C157.574 88.8327 155.958 88.8327 154.405 89.467C153.46 87.6342 153.087 85.8578 153.287 84.137C152.744 85.4261 151.998 86.5682 151.049 87.5634C151.297 87.817 151.546 88.0713 151.795 88.3248C150.044 88.867 148.552 89.7555 147.319 90.9898C147.53 92.8835 147.53 94.9134 147.319 97.0812C146.108 97.1878 145.238 96.6799 144.708 95.5583C143.336 96.5733 142.963 96.4462 143.59 95.1776C141.889 95.0002 140.397 94.366 139.114 93.2741C136.209 94.7299 133.35 95.7449 130.536 96.3198C130.095 97.0682 130.344 97.5761 131.282 97.8426C132.461 96.0555 133.456 96.0555 134.266 97.8426C134.514 97.3347 134.763 96.8276 135.012 96.3198C135.377 97.3043 135.502 98.32 135.384 99.3654C134.019 98.9451 132.776 98.9451 131.655 99.3654C132.224 100.294 132.97 101.055 133.893 101.65C133.147 102.158 132.401 102.665 131.655 103.173C132.258 104.369 132.507 105.638 132.401 106.98C133.627 107.143 134.746 106.888 135.757 106.218C136.098 105.271 135.725 104.637 134.639 104.315C134.887 104.061 135.136 103.807 135.384 103.553C136.559 103.842 137.678 103.715 138.741 103.173C139.041 104.217 139.414 105.232 139.86 106.218C138.235 107.175 136.743 108.317 135.384 109.645C137.085 109.822 138.577 110.456 139.86 111.548C139.876 113.149 139.627 114.798 139.114 116.497C139.487 116.878 139.86 117.259 140.233 117.64C140.481 116.117 140.73 114.594 140.979 113.071C142.272 111.751 143.267 110.228 143.963 108.503C144.195 110.068 144.568 111.591 145.081 113.071C143.811 112.804 142.568 113.312 141.352 114.594C141.478 115.825 141.727 117.094 142.098 118.401C142.827 118.038 143.449 117.531 143.963 116.878C144.192 117.493 144.565 118.001 145.081 118.401C146.375 117.081 147.867 116.065 149.557 115.355C148.688 114.53 147.694 113.896 146.573 113.452C147.935 110.158 149.426 110.285 151.049 113.832C150.075 116.358 150.324 118.77 151.795 121.066C153.39 121.004 153.638 120.243 152.541 118.782C153.447 117.186 154.069 117.313 154.405 119.162C155.088 118.532 155.585 117.771 155.897 116.878C156.101 118.271 156.723 119.413 157.762 120.305C156.768 120.812 155.773 121.32 154.778 121.827C155.381 122.062 155.879 122.443 156.27 122.97C155.492 124.696 155.367 126.473 155.897 128.299C156.899 125.36 158.018 125.36 159.254 128.299C157.392 130.131 157.517 131.907 159.627 133.629C162.327 130.515 162.7 130.769 160.746 134.391C162.08 135.558 163.572 136.32 165.221 136.675C165.221 135.914 165.221 135.152 165.221 134.391C166.733 134.267 168.225 134.395 169.697 134.772C168.873 137.989 167.878 138.116 166.713 135.152C166.169 136.244 165.423 137.132 164.475 137.817C165.048 141.073 166.788 141.962 169.697 140.482C171.174 141.231 172.417 142.246 173.426 143.528C174.345 142.651 174.345 141.764 173.426 140.863C174.928 140.197 174.928 139.181 173.426 137.817C174.297 137.437 174.918 136.802 175.291 135.914C176.045 136.551 176.916 136.805 177.902 136.675C177.902 135.914 177.902 135.152 177.902 134.391C176.878 134.51 175.883 134.383 174.918 134.01C176.861 133.233 178.851 132.598 180.886 132.107C181.192 132.687 181.316 133.448 181.259 134.391C182.509 134.818 183.503 135.579 184.242 136.675C184.864 135.914 185.486 135.152 186.107 134.391C186.853 134.899 187.599 135.406 188.345 135.914C188.593 135.406 188.842 134.899 189.091 134.391C189.651 135.058 190.024 135.819 190.21 136.675C191.544 135.359 193.161 134.851 195.058 135.152C195.378 132.65 195.378 130.239 195.058 127.919C195.431 127.792 195.804 127.665 196.177 127.538C198.061 131.413 201.418 133.824 206.247 134.772C203.453 134.745 202.956 135.506 204.755 137.056C203.07 138.529 202.324 140.433 202.517 142.766C204.009 142.766 205.501 142.766 206.993 142.766C206.928 145.125 207.301 145.38 208.112 143.528C209.804 144.362 211.421 144.107 212.96 142.766C213.555 143.968 213.928 145.237 214.079 146.574C214.452 145.685 215.073 145.051 215.944 144.67C214.466 144.209 214.217 143.448 215.198 142.386C214.324 142.067 213.578 141.56 212.96 140.863C213.805 138.563 214.923 136.406 216.317 134.391C216.565 135.406 216.814 136.422 217.063 137.437C218.688 136.754 220.055 135.739 221.165 134.391C225.755 135.393 227.495 138.184 226.387 142.766C227.489 142.966 228.484 142.712 229.37 142.005C227.618 141.035 227.742 140.02 229.743 138.959C230.853 139.533 230.977 140.167 230.116 140.863C233.072 143.673 233.569 143.419 231.608 140.101C232.124 139.289 232.497 138.4 232.727 137.437C234.015 138.256 235.382 138.383 236.83 137.817C235.086 137.017 233.594 136.382 232.354 135.914C233.821 134.308 235.686 132.531 237.949 130.584C236.942 128.009 236.569 125.344 236.83 122.589C239.807 122.837 240.303 124.106 238.322 126.396C240.078 130.896 240.949 130.515 240.932 125.254C243.007 125.535 244.996 125.535 246.9 125.254C247.26 125.976 247.384 126.737 247.273 127.538C248.484 127.645 249.354 127.137 249.883 126.015C251.654 127.345 253.519 127.599 255.478 126.777C256.509 128.738 257.131 128.484 257.343 126.015C257.715 126.904 258.337 127.538 259.207 127.919C257.319 128.385 256.697 129.527 257.343 131.345C258.135 132.646 259.005 133.153 259.953 132.868C258.739 135.773 256.75 136.534 253.986 135.152C252.353 135.224 250.861 135.732 249.51 136.675C248.687 135.814 248.935 135.179 250.256 134.772C249.292 134.398 248.297 134.271 247.273 134.391C247.182 137.694 246.933 137.948 246.527 135.152C244.651 135.346 242.91 135.98 241.305 137.056C242.508 137.604 243.627 137.478 244.662 136.675C245.963 137.784 247.331 138.799 248.764 139.721C248.535 140.336 248.162 140.844 247.646 141.244C246.827 140.061 245.833 139.046 244.662 138.198C243.972 138.614 243.351 139.122 242.797 139.721C245.517 140.576 246.885 142.353 246.9 145.051C246.234 144.129 245.612 144.129 245.035 145.051C246.328 146.371 247.82 147.387 249.51 148.096C250.646 149.357 250.397 150.246 248.764 150.761C249.957 152.121 250.579 153.771 250.629 155.711C250.998 154.466 251.122 153.197 251.002 151.904C251.879 151.737 252.625 151.99 253.24 152.665C251.453 154.889 250.459 157.428 250.256 160.279C251.817 160.326 252.936 161.087 253.613 162.563C253.749 164.745 254.122 166.775 254.732 168.655C254.616 171.022 254.119 173.306 253.24 175.508C250.711 174.215 248.224 173.962 245.781 174.746C242.497 174.422 239.514 173.406 236.83 171.7C236.487 170.908 235.492 170.273 233.846 169.797C218.696 165.557 203.404 161.877 187.972 158.756C187.351 158.503 186.728 158.248 186.107 157.995C186.346 156.115 186.47 154.084 186.48 151.904C185.495 153.49 184.5 153.235 183.496 151.142C183.335 152.577 182.838 153.846 182.005 154.949C181.763 153.374 181.141 153.12 180.14 154.188C178.981 152.458 177.366 151.443 175.291 151.142C175.167 151.396 175.043 151.65 174.918 151.904C175.572 152.475 176.318 152.856 177.156 153.046C175.167 153.807 175.167 154.568 177.156 155.33C172.243 154.572 167.27 153.937 162.238 153.426C162.544 151.313 161.923 150.805 160.373 151.904C156.299 151.018 152.197 150.637 148.065 150.761C148.748 150.973 149.245 151.354 149.557 151.904C135.724 148.67 121.8 145.751 107.785 143.147C107.465 140.827 107.465 138.416 107.785 135.914C114.528 105.045 121.739 74.3342 129.417 43.7817C129.254 44.6764 129.502 45.4378 130.163 46.0659C130.661 45.0507 131.157 44.0355 131.655 43.0203C140.907 44.4236 150.107 46.0733 159.254 47.9695C161.638 48.5821 163.876 48.4551 165.967 47.5888Z" fill="#FDBF65"/>
<path fill-rule="evenodd" clip-rule="evenodd" d="M165.967 47.5888C163.876 48.4552 161.638 48.5821 159.254 47.9695C150.107 46.0733 140.907 44.4236 131.655 43.0203C131.157 44.0355 130.661 45.0508 130.163 46.066C129.502 45.4378 129.254 44.6764 129.417 43.7817C129.417 43.0203 129.417 42.2589 129.417 41.4974C141.684 43.1707 153.867 45.2011 165.967 47.5888Z" fill="#EACB69"/>
<path fill-rule="evenodd" clip-rule="evenodd" d="M180.886 45.3046C183.07 45.3541 185.059 45.8618 186.853 46.8274C184.619 46.9844 182.63 46.4768 180.886 45.3046Z" fill="#7D5F5C"/>
<path fill-rule="evenodd" clip-rule="evenodd" d="M151.049 39.9747C152.888 39.1111 154.878 38.9843 157.016 39.5939C197.372 47.5245 237.9 54.758 278.601 61.2945C279.212 58.4653 279.212 55.6735 278.601 52.9188C278.942 52.3116 279.44 52.0577 280.093 52.1574C280.685 55.833 280.685 59.6401 280.093 63.5787C249.093 57.7543 218.012 52.1706 186.853 46.8274C185.059 45.8618 183.07 45.3542 180.886 45.3046C170.777 44.2744 160.832 42.4977 151.049 39.9747Z" fill="#E9BA54"/>
<path fill-rule="evenodd" clip-rule="evenodd" d="M168.205 48.3503C171.938 48.6467 175.667 49.0274 179.394 49.4924C197.038 52.8556 214.692 56.282 232.354 59.7716C231.517 60.271 230.523 60.5248 229.371 60.533C219.997 59.3148 210.673 57.792 201.399 55.9645C200.601 55.9858 199.979 56.2397 199.534 56.7259C199.041 57.653 198.543 58.6682 198.042 59.7716C195.457 59.0608 195.209 57.9186 197.296 56.3452C194.312 55.8376 191.329 55.33 188.345 54.8224C186.487 54.3458 186.487 53.7112 188.345 52.9188C181.028 52.0805 173.817 50.6846 166.713 48.731C167.156 48.3775 167.654 48.2506 168.205 48.3503Z" fill="#F3C867"/>
<path fill-rule="evenodd" clip-rule="evenodd" d="M199.534 56.7259C199.979 56.2397 200.6 55.9858 201.398 55.9645C210.673 57.792 219.997 59.3148 229.37 60.533C230.523 60.5248 231.517 60.2709 232.354 59.7716C245.457 62.4079 258.635 64.6922 271.888 66.6244C273.282 67.789 274.774 68.9311 276.363 70.0508C269.099 102.886 261.889 135.755 254.732 168.655C254.122 166.775 253.749 164.745 253.613 162.563C252.936 161.087 251.817 160.326 250.256 160.279C250.459 157.428 251.453 154.889 253.24 152.665C252.625 151.99 251.879 151.737 251.002 151.904C251.122 153.197 250.998 154.467 250.629 155.711C250.579 153.771 249.957 152.121 248.764 150.761C250.397 150.246 250.646 149.357 249.51 148.096C247.82 147.387 246.328 146.371 245.035 145.051C245.612 144.129 246.234 144.129 246.9 145.051C246.885 142.353 245.517 140.576 242.797 139.721C243.351 139.122 243.972 138.614 244.662 138.198C245.833 139.046 246.827 140.061 247.646 141.244C248.162 140.844 248.535 140.336 248.764 139.721C247.331 138.799 245.964 137.784 244.662 136.675C243.627 137.478 242.508 137.604 241.305 137.056C242.91 135.98 244.651 135.346 246.527 135.152C246.933 137.948 247.182 137.694 247.273 134.391C248.297 134.271 249.292 134.398 250.256 134.772C248.935 135.179 248.687 135.814 249.51 136.675C250.861 135.732 252.353 135.224 253.986 135.152C256.75 136.534 258.739 135.773 259.953 132.868C259.005 133.153 258.135 132.646 257.343 131.345C256.697 129.527 257.319 128.385 259.207 127.919C258.337 127.538 257.715 126.904 257.343 126.015C257.131 128.484 256.509 128.738 255.478 126.777C253.519 127.599 251.654 127.345 249.883 126.015C249.354 127.137 248.484 127.645 247.273 127.538C247.384 126.737 247.26 125.976 246.9 125.254C244.996 125.535 243.007 125.535 240.932 125.254C240.949 130.515 240.078 130.896 238.322 126.396C240.303 124.106 239.807 122.837 236.83 122.589C236.569 125.344 236.942 128.009 237.949 130.584C235.686 132.531 233.821 134.308 232.354 135.914C233.594 136.382 235.086 137.017 236.83 137.817C235.382 138.383 234.015 138.256 232.727 137.437C232.497 138.401 232.124 139.289 231.608 140.102C233.569 143.419 233.072 143.673 230.116 140.863C230.977 140.167 230.853 139.533 229.743 138.959C227.742 140.02 227.618 141.035 229.37 142.005C228.484 142.712 227.489 142.966 226.387 142.767C227.495 138.184 225.755 135.393 221.165 134.391C220.055 135.739 218.688 136.754 217.063 137.437C216.814 136.422 216.565 135.406 216.317 134.391C214.924 136.406 213.805 138.563 212.96 140.863C213.578 141.56 214.324 142.067 215.198 142.386C214.217 143.448 214.466 144.209 215.944 144.67C215.073 145.051 214.452 145.685 214.079 146.574C213.928 145.237 213.555 143.968 212.96 142.767C211.421 144.107 209.804 144.362 208.112 143.528C207.301 145.38 206.928 145.125 206.993 142.767C205.501 142.767 204.009 142.767 202.517 142.767C202.324 140.433 203.07 138.529 204.755 137.056C202.956 135.506 203.453 134.745 206.247 134.772C201.418 133.824 198.061 131.413 196.177 127.538C195.804 127.665 195.431 127.792 195.058 127.919C195.378 130.239 195.378 132.65 195.058 135.152C193.161 134.851 191.544 135.359 190.21 136.675C190.024 135.819 189.651 135.058 189.091 134.391C188.842 134.899 188.593 135.406 188.345 135.914C187.599 135.406 186.853 134.899 186.107 134.391C185.486 135.152 184.864 135.914 184.242 136.675C183.503 135.579 182.509 134.818 181.259 134.391C181.316 133.448 181.192 132.687 180.886 132.107C178.851 132.598 176.861 133.233 174.918 134.01C175.883 134.383 176.878 134.51 177.902 134.391C177.902 135.152 177.902 135.914 177.902 136.675C176.916 136.805 176.045 136.551 175.291 135.914C174.918 136.802 174.297 137.437 173.426 137.817C174.928 139.181 174.928 140.197 173.426 140.863C174.345 141.764 174.345 142.652 173.426 143.528C172.417 142.246 171.174 141.231 169.697 140.482C166.788 141.962 165.048 141.073 164.475 137.817C165.423 137.132 166.169 136.244 166.713 135.152C167.878 138.117 168.873 137.989 169.697 134.772C168.225 134.395 166.733 134.268 165.221 134.391C165.221 135.152 165.221 135.914 165.221 136.675C163.572 136.32 162.08 135.558 160.746 134.391C162.7 130.769 162.327 130.515 159.627 133.629C157.517 131.907 157.392 130.131 159.254 128.3C158.018 125.36 156.899 125.36 155.897 128.3C155.367 126.473 155.492 124.696 156.27 122.97C155.879 122.443 155.381 122.062 154.778 121.827C155.773 121.32 156.768 120.812 157.762 120.305C156.723 119.413 156.101 118.271 155.897 116.878C155.585 117.771 155.088 118.532 154.405 119.162C154.069 117.313 153.447 117.186 152.541 118.782C153.638 120.243 153.39 121.004 151.795 121.066C150.324 118.77 150.075 116.358 151.049 113.833C149.426 110.285 147.935 110.158 146.573 113.452C147.694 113.896 148.688 114.53 149.557 115.355C147.867 116.065 146.375 117.081 145.081 118.401C144.565 118.001 144.192 117.493 143.963 116.878C143.449 117.531 142.827 118.038 142.098 118.401C141.727 117.094 141.478 115.825 141.352 114.594C142.568 113.312 143.811 112.804 145.081 113.071C144.568 111.591 144.195 110.068 143.963 108.503C143.267 110.228 142.272 111.751 140.979 113.071C140.73 114.594 140.481 116.117 140.233 117.64C139.86 117.259 139.487 116.878 139.114 116.497C139.627 114.798 139.876 113.149 139.86 111.548C138.577 110.456 137.085 109.822 135.384 109.645C136.743 108.318 138.235 107.175 139.86 106.218C139.414 105.232 139.041 104.217 138.741 103.173C137.678 103.715 136.559 103.842 135.384 103.553C135.136 103.807 134.887 104.061 134.639 104.315C135.725 104.637 136.098 105.271 135.757 106.218C134.746 106.888 133.627 107.143 132.401 106.98C132.507 105.638 132.258 104.369 131.655 103.173C132.401 102.665 133.147 102.158 133.893 101.65C132.97 101.055 132.224 100.294 131.655 99.3655C132.776 98.9452 134.019 98.9452 135.384 99.3655C135.502 98.3201 135.377 97.3043 135.012 96.3198C134.763 96.8277 134.514 97.3348 134.266 97.8427C133.456 96.0556 132.461 96.0556 131.282 97.8427C130.344 97.5762 130.095 97.0683 130.536 96.3198C133.35 95.7449 136.209 94.73 139.114 93.2741C140.397 94.366 141.889 95.0003 143.59 95.1777C142.963 96.4462 143.336 96.5734 144.708 95.5584C145.238 96.68 146.108 97.1878 147.319 97.0812C147.53 94.9135 147.53 92.8835 147.319 90.9899C148.552 89.7556 150.044 88.867 151.795 88.3249C151.546 88.0713 151.297 87.817 151.049 87.5635C151.998 86.5683 152.744 85.4262 153.287 84.1371C153.087 85.8579 153.46 87.6343 154.405 89.467C155.958 88.8328 157.574 88.8328 159.254 89.467C159.365 90.268 159.241 91.0295 158.881 91.7513C157.588 90.1508 156.096 89.8972 154.405 90.9899C152.819 94.0135 152.943 96.932 154.778 99.7462C155.276 100.254 155.773 100.254 156.27 99.7462C153.246 96.9526 153.495 94.6683 157.016 92.8934C158.005 93.0061 158.875 92.8797 159.627 92.5127C159.167 93.7272 159.415 94.7421 160.373 95.5584C161.119 94.5434 161.865 94.5434 162.611 95.5584C162.971 94.8366 163.095 94.0751 162.984 93.2741C164.195 93.3807 165.065 92.8729 165.594 91.7513C166.797 94.1452 168.662 95.033 171.189 94.4163C169.776 93.5947 169.528 92.5789 170.443 91.3706C167.552 91.6363 167.552 91.002 170.443 89.467C169.266 88.8594 168.023 88.4787 166.713 88.3249C167.751 87.0685 168.87 86.6878 170.07 87.1828C170.443 86.2942 171.064 85.6599 171.935 85.2792C171.686 85.0256 171.437 84.7713 171.189 84.5178C169.604 85.0553 168.112 85.4361 166.713 85.6599C166.046 84.284 165.051 83.269 163.729 82.6142C161.818 82.7947 161.818 83.1754 163.729 83.7564C161.307 85.5564 158.573 86.6985 155.524 87.1828C155.583 86.0939 155.335 85.0782 154.778 84.1371C156.623 82.9203 156.623 81.7782 154.778 80.7107C156.134 79.3401 157.004 77.6909 157.389 75.7614C157.739 76.9858 158.236 78.2551 158.881 79.5685C159.044 78.4736 159.417 77.4586 160 76.5229C161.152 78.3822 162.643 79.9051 164.475 81.0914C165.078 80.8569 165.576 80.4762 165.967 79.9493C165.144 78.6701 165.393 77.5279 166.713 76.5229C167.688 77.5249 168.807 78.2863 170.07 78.8071C170.256 79.663 170.628 80.4244 171.189 81.0914C172.499 81.198 173.741 80.8173 174.918 79.9493C172.681 78.68 170.443 77.4114 168.205 76.1421C168.703 74.8731 169.199 73.6041 169.697 72.335C168.703 72.335 167.707 72.335 166.713 72.335C167.211 71.8274 167.707 71.3198 168.205 70.8122C166.501 69.7745 166.377 68.6323 167.832 67.3858C168.276 70.1134 169.271 70.3671 170.816 68.1472C172.379 69.0727 172.255 69.7072 170.443 70.0508C171.829 71.592 173.072 73.2417 174.172 75C175.325 75.7248 176.568 75.9786 177.902 75.7614C177.783 74.4676 177.906 73.1986 178.275 71.9543C178.996 72.851 179.369 73.8663 179.394 75C180.372 74.2687 181.368 74.3957 182.377 75.3807C181.045 75.5301 180.051 76.1642 179.394 77.2843C181.315 78.3373 181.066 78.9723 178.648 79.1878C179.272 79.9576 179.521 80.8462 179.394 81.8528C178.609 81.7394 177.863 81.8657 177.156 82.2335C178.285 83.3292 178.534 84.4713 177.902 85.6599C176.896 84.1668 175.902 84.0396 174.918 85.2792C176.888 85.9614 178.504 87.1036 179.767 88.7056C180.948 87.2642 182.066 85.7414 183.123 84.1371C185.404 85.7026 187.145 87.7325 188.345 90.2284C185.682 91.0036 183.444 90.2421 181.632 87.9442C181.383 88.3249 181.134 88.7056 180.886 89.0863C182.09 91.0028 183.831 92.0185 186.107 92.132C185.177 93.2696 185.177 94.4117 186.107 95.5584C187.847 95.0505 189.588 94.5434 191.329 94.0355C193.384 94.8982 194.752 94.1368 195.431 91.7513C195.679 92.5127 195.929 93.2741 196.177 94.0355C199.229 95.9977 199.975 95.2363 198.415 91.7513C197.879 92.4754 197.258 92.6018 196.55 92.132C196.55 90.8627 196.55 89.5942 196.55 88.3249C197.974 87.9838 198.844 88.618 199.161 90.2284C199.966 88.7863 200.961 88.5328 202.144 89.467C202.24 87.1721 202.24 84.8878 202.144 82.6142C202.761 84.0647 203.631 84.319 204.755 83.3756C204.009 82.3607 203.263 81.3449 202.517 80.33C203.171 79.7581 203.917 79.3774 204.755 79.1878C203.142 78.0609 201.65 78.0609 200.28 79.1878C202.182 80.3421 201.934 80.9764 199.534 81.0914C199.593 80.0026 199.344 78.9868 198.788 78.0457C200.879 76.7604 203.117 75.8718 205.501 75.3807C205.004 74.6193 204.507 73.8579 204.009 73.0965C204.634 72.3264 204.882 71.4382 204.755 70.4315C206.21 70.6396 207.329 70.1319 208.112 68.9086C208.908 70.266 210.027 70.6467 211.468 70.0508C210.722 69.797 209.977 69.5431 209.231 69.2894C211.58 68.6985 211.952 67.5564 210.35 65.863C209.683 66.7852 209.062 66.7852 208.485 65.863C210.463 64.2703 211.085 62.2399 210.35 59.7716C209.355 58.7564 208.36 58.7564 207.366 59.7716C207.006 59.0498 206.882 58.2883 206.993 57.4873C204.455 57.6073 201.968 57.3535 199.534 56.7259Z" fill="#FEBC62"/>
<path fill-rule="evenodd" clip-rule="evenodd" d="M138.368 20.1776C129.355 18.6307 120.28 17.3616 111.142 16.3705C105.019 16.6634 102.657 19.963 104.056 26.269C104.431 30.3376 104.556 34.3986 104.429 38.4517C102.183 47.3656 100.07 56.2489 98.0884 65.1015C94.69 77.3702 91.9547 89.8065 89.8833 102.411C88.921 102.836 88.2997 103.597 88.0185 104.695C87.8939 104.061 87.7701 103.426 87.6455 102.792C91.8391 81.6319 96.6876 60.6928 102.191 39.9746C102.564 35.7791 102.439 31.5912 101.818 27.4111C101.988 24.4655 102.361 21.5467 102.937 18.6548C105.165 15.2863 108.272 14.0173 112.261 14.8477C120.819 16.4973 129.521 17.5125 138.368 17.8933C138.368 18.6548 138.368 19.4162 138.368 20.1776Z" fill="#E7D680"/>
<path fill-rule="evenodd" clip-rule="evenodd" d="M293.52 75.7614C292.907 73.3694 292.534 70.8313 292.401 68.1472C291.655 67.1319 290.909 66.1167 290.163 65.1015C289.915 65.6091 289.666 66.1167 289.417 66.6243C289.507 64.0193 288.513 61.9889 286.434 60.5329C284.264 70.7213 282.026 80.8735 279.72 90.9898C279.223 92.0048 278.726 93.0205 278.228 94.0355C277.882 93.5832 277.758 93.0753 277.855 92.5126C280.224 80.5583 282.71 68.6291 285.315 56.7258C288.603 60.6487 291.711 64.7097 294.639 68.9086C295.136 70.9391 295.136 72.9695 294.639 74.9999C294.353 75.4233 293.98 75.6771 293.52 75.7614Z" fill="#DFAF52"/>
<path fill-rule="evenodd" clip-rule="evenodd" d="M297.995 75.7615C298.317 78.3328 297.82 80.6171 296.503 82.6143C296.635 80.1572 297.132 77.8729 297.995 75.7615Z" fill="#7F6F6B"/>
<path fill-rule="evenodd" clip-rule="evenodd" d="M293.52 75.7614C292.002 82.9614 290.51 90.0677 289.044 97.0812C288.632 94.069 288.011 94.069 287.18 97.0812C285.588 101.979 284.593 107.054 284.196 112.31C283.948 111.802 283.698 111.295 283.45 110.787C282.572 112.063 281.453 113.078 280.093 113.832C279.719 114.758 279.47 115.647 279.347 116.497C277.647 116.675 276.155 117.309 274.872 118.401C274.624 117.386 274.374 116.37 274.126 115.355C275.011 110.23 276.13 105.155 277.483 100.127C278.076 98.1936 277.952 96.4172 277.11 94.7969C276.933 93.8139 277.181 93.0525 277.856 92.5127C277.758 93.0753 277.882 93.5832 278.229 94.0355C278.726 93.0205 279.223 92.0048 279.72 90.9898C282.026 80.8736 284.264 70.7213 286.434 60.533C288.513 61.9889 289.508 64.0193 289.417 66.6243C289.666 66.1167 289.915 65.6091 290.163 65.1015C290.909 66.1167 291.655 67.132 292.401 68.1472C292.535 70.8313 292.908 73.3695 293.52 75.7614Z" fill="#FDAA50"/>
<path fill-rule="evenodd" clip-rule="evenodd" d="M277.109 94.797C277.951 96.4173 278.076 98.1937 277.482 100.127C276.13 105.155 275.011 110.23 274.126 115.355C274.374 116.37 274.623 117.386 274.872 118.401C276.155 117.309 277.646 116.675 279.347 116.498C279.47 115.647 279.719 114.758 280.093 113.833C281.453 113.078 282.572 112.063 283.45 110.787C283.698 111.295 283.947 111.802 284.196 112.31C284.592 107.054 285.587 101.979 287.179 97.0813C288.01 94.0691 288.632 94.0691 289.044 97.0813C285.257 114.634 281.278 132.146 277.109 149.619C276.649 149.704 276.276 149.957 275.99 150.381C275.662 152.182 275.289 153.959 274.872 155.711C274.872 156.726 274.872 157.741 274.872 158.756C274.197 159.296 273.949 160.058 274.126 161.041C273.316 160.949 272.818 160.441 272.634 159.518C275.085 149.684 277.323 139.786 279.347 129.822C279.11 128.949 278.613 128.314 277.855 127.919C275.609 128.529 273.371 128.402 271.142 127.538C268.906 139.329 266.419 151.131 263.683 162.944C264.598 165 265.344 167.03 265.92 169.036C265.53 170.873 264.784 172.523 263.683 173.985C265.705 174.395 267.321 175.41 268.531 177.031C269.068 175.846 269.939 175.084 271.142 174.746C270.688 176.899 269.942 178.929 268.904 180.838C268.119 180.951 267.374 180.825 266.666 180.457C264.397 177.639 262.16 174.847 259.953 172.081C265.433 146.224 271.152 120.463 277.109 94.797Z" fill="#F3B154"/>
<path fill-rule="evenodd" clip-rule="evenodd" d="M271.888 66.6244C273.848 67.085 275.836 67.4657 277.855 67.7665C278.196 68.0818 278.445 68.4625 278.601 68.9087C272.059 96.4515 265.718 124.116 259.58 151.904C257.815 159.671 256.697 167.539 256.224 175.508C256.856 176.721 257.851 177.609 259.207 178.173C258.834 178.3 258.461 178.426 258.088 178.553C253.937 177.382 249.834 176.113 245.781 174.746C248.224 173.962 250.711 174.216 253.24 175.508C254.119 173.306 254.616 171.022 254.732 168.655C261.889 135.755 269.099 102.886 276.364 70.0508C274.774 68.9311 273.282 67.789 271.888 66.6244Z" fill="#E7C666"/>
<path fill-rule="evenodd" clip-rule="evenodd" d="M274.126 161.041C272.498 165.407 271.504 169.975 271.142 174.746C269.939 175.084 269.069 175.846 268.532 177.03C267.321 175.41 265.705 174.395 263.683 173.985C264.784 172.523 265.53 170.873 265.921 169.036C265.344 167.03 264.598 165 263.683 162.944C266.419 151.131 268.906 139.329 271.142 127.538C273.372 128.402 275.61 128.529 277.856 127.919C278.613 128.314 279.11 128.949 279.347 129.822C277.323 139.786 275.085 149.684 272.634 159.518C272.818 160.441 273.316 160.949 274.126 161.041Z" fill="#FDAA52"/>
<path fill-rule="evenodd" clip-rule="evenodd" d="M83.9163 125.254C83.6806 127.902 84.0535 130.441 85.0352 132.868C88.1807 136.837 91.5374 140.517 95.1051 143.909C74.7773 159.456 54.1405 174.557 33.1937 189.213C32.7886 189.167 32.5399 188.914 32.4478 188.452C33.8564 187.611 35.0997 186.596 36.1774 185.406C55.3829 172.02 74.2797 158.188 92.8673 143.909C89.686 140.567 86.5777 137.141 83.5433 133.629C82.6057 132.097 81.9836 130.447 81.6785 128.68C82.2074 126.828 82.9533 125.686 83.9163 125.254Z" fill="#EADA80"/>
<path fill-rule="evenodd" clip-rule="evenodd" d="M279.347 156.472C279.728 158.671 279.231 160.448 277.855 161.802C278.174 159.891 278.671 158.115 279.347 156.472Z" fill="#7F6C6B"/>
<path fill-rule="evenodd" clip-rule="evenodd" d="M95.8506 148.096C97.7012 148.305 98.9439 149.32 99.5802 151.142C99.3676 155.252 99.6168 159.312 100.326 163.325C99.7719 163.844 99.2751 164.352 98.8343 164.848C81.1306 167.686 66.3365 175.808 54.452 189.213C51.3141 194.251 48.4547 199.454 45.8739 204.822C40.6901 208.336 35.7173 212.143 30.9555 216.244C29.7366 216.62 28.4934 216.746 27.2259 216.624C27.1433 216.155 26.8947 215.774 26.48 215.482C21.9338 214.77 17.7069 213.247 13.7993 210.914C14.2966 210.152 14.7939 209.391 15.2912 208.629C42.4394 188.586 69.2925 168.408 95.8506 148.096Z" fill="#E09B44"/>
<path fill-rule="evenodd" clip-rule="evenodd" d="M105.548 146.574C107.691 146.804 109.679 147.311 111.515 148.096C112.342 148.698 113.337 149.079 114.499 149.239C112.215 149.803 109.977 149.676 107.786 148.858C106.814 152.577 106.814 156.257 107.786 159.898C117.223 159.548 126.671 159.041 136.13 158.376C137.849 157.694 139.59 157.059 141.352 156.472C132.547 154.529 123.844 152.372 115.245 150C115.688 149.647 116.185 149.52 116.737 149.619C132.941 152.804 149.103 156.104 165.221 159.518C166.861 160.962 168.85 161.724 171.189 161.802C183.151 164.133 195.086 166.544 206.993 169.036C212.723 170.791 218.442 172.44 224.149 173.985C223.704 174.471 223.082 174.725 222.284 174.746C213.242 172.148 204.167 170.245 195.058 169.036C205.976 173.711 215.424 180.436 223.403 189.213C229.891 191.038 236.355 192.815 242.797 194.543C244.604 195.289 245.846 196.05 246.527 196.827C242.732 196.636 239.002 196.002 235.338 194.924C230.956 193.875 226.73 192.353 222.657 190.355C215.649 183.19 207.693 177.099 198.788 172.081C190.862 169.131 182.905 166.339 174.918 163.706C170.734 162.759 166.507 162.125 162.238 161.802C161.41 161.201 160.416 160.82 159.254 160.66C155.283 160.28 151.306 160.153 147.319 160.279C140.737 159.398 134.024 159.271 127.179 159.898C123.371 159.812 119.89 160.447 116.737 161.802C112.767 162.168 108.789 162.421 104.802 162.563C104.638 157.201 104.887 151.871 105.548 146.574Z" fill="#E8B850"/>
<path fill-rule="evenodd" clip-rule="evenodd" d="M105.548 146.574C104.887 151.871 104.638 157.201 104.802 162.563C108.789 162.421 112.767 162.167 116.737 161.802C126.894 160.678 137.088 160.17 147.319 160.279C152.169 160.951 157.142 161.459 162.238 161.802C166.507 162.125 170.734 162.759 174.918 163.706C182.905 166.339 190.862 169.131 198.788 172.081C207.693 177.099 215.649 183.19 222.657 190.355C226.73 192.353 230.956 193.875 235.338 194.924C239.002 196.002 242.732 196.636 246.527 196.827C248.328 199.04 250.566 199.548 253.24 198.35C256.021 195.026 259.253 192.234 262.937 189.975C264.069 189.966 264.939 189.459 265.548 188.452C265.352 189.557 265.476 190.572 265.921 191.497C266.93 190.595 267.8 189.579 268.531 188.452C268.829 188.625 268.953 188.88 268.904 189.213C269.134 197.143 268.886 205.012 268.158 212.817C266.824 209.081 266.203 205.02 266.294 200.634C266.045 204.188 265.796 207.741 265.548 211.294C265.176 207.241 265.051 203.181 265.175 199.112C265.405 197.266 265.155 195.49 264.429 193.782C245.522 211.101 226.626 228.36 207.739 245.558C207.334 245.513 207.085 245.259 206.993 244.797C207.599 243.796 208.345 242.908 209.231 242.132C206.313 243.041 203.702 244.691 201.399 247.081C201.052 246.629 200.928 246.121 201.026 245.558C210.015 238.032 218.096 229.657 225.268 220.431C227.524 212.017 226.405 204.149 221.911 196.827C218.574 192.278 214.845 188.09 210.723 184.264C195.275 174.097 178.368 167.879 160 165.609C145.076 163.646 130.158 163.646 115.245 165.609C109.729 166.383 104.258 167.398 98.8345 168.655C96.9622 168.98 95.222 169.487 93.613 170.178C82.9284 172.999 73.2315 177.949 64.5221 185.025C60.9013 188.268 57.9176 191.948 55.5711 196.066C54.2694 197.233 53.5234 198.756 53.3333 200.634C52.6755 201.841 52.0539 203.11 51.4685 204.442C50.9712 209.772 50.9712 215.101 51.4685 220.431C52.4009 222.465 53.7684 224.114 55.5711 225.381C59.1109 226.589 62.5918 227.224 66.014 227.284C57.3862 214.285 58.2565 202.103 68.6247 190.736C80.9398 180.535 94.9885 174.317 110.769 172.081C127.911 169.687 145.067 169.56 162.238 171.7C163.982 172.873 165.971 173.38 168.205 173.223C170.559 173.934 173.045 174.442 175.664 174.746C177.209 175.846 178.949 176.608 180.886 177.03C194.07 179.762 204.886 186.362 213.333 196.827C218.778 206.143 218.778 215.535 213.333 225C206.438 232.561 198.357 238.272 189.091 242.132C174.924 247.237 160.254 249.649 145.082 249.365C141.072 249.116 137.094 249.369 133.147 250.127C133.488 250.734 133.985 250.988 134.639 250.888C135.697 251.612 136.94 251.866 138.368 251.65C138.391 252.409 138.018 252.917 137.249 253.173C135.213 252.136 133.1 251.756 130.909 252.03C133.896 253.875 137.129 255.144 140.606 255.838C139.899 256.205 139.153 256.332 138.368 256.218C110.596 247.362 82.7479 238.479 54.8251 229.568C49.2215 227.508 43.5028 225.731 37.669 224.239C36.6571 222.716 37.1544 221.829 39.1608 221.574C37.4538 220.948 35.7133 220.44 33.9394 220.051C33.0432 219.363 32.4216 218.475 32.0746 217.386C31.4088 217.828 30.6628 218.082 29.8368 218.147C28.1107 218.145 27.2405 217.638 27.2261 216.624C28.4935 216.746 29.7368 216.62 30.9557 216.244C35.7175 212.143 40.6903 208.336 45.8741 204.822C48.4549 199.454 51.3143 194.251 54.4522 189.213C66.3367 175.808 81.1308 167.685 98.8345 164.848C99.8586 164.967 100.854 164.84 101.818 164.467C101.478 159.875 100.732 155.433 99.5804 151.142C98.9441 149.32 97.7014 148.305 95.8508 148.096C94.9273 147.86 94.9273 147.48 95.8508 146.954C97.2509 146.516 98.6189 146.643 99.9533 147.335C102.049 147.143 103.54 146.128 104.429 144.289C105.204 144.856 105.577 145.617 105.548 146.574Z" fill="#23175D"/>
<path fill-rule="evenodd" clip-rule="evenodd" d="M115.245 165.609C113.771 166.76 112.031 167.394 110.023 167.513C111.267 167.64 112.51 167.766 113.753 167.893C121.437 166.882 129.144 166.121 136.877 165.609C142.911 165.538 148.878 166.045 154.779 167.132C156.844 167.11 158.585 166.603 160 165.609C178.368 167.879 195.275 174.097 210.723 184.264C214.845 188.09 218.574 192.278 221.912 196.827C226.405 204.149 227.524 212.017 225.268 220.432C218.096 229.657 210.016 238.033 201.026 245.558C197.639 248.459 194.159 251.378 190.583 254.315C183.022 256.901 175.315 259.058 167.459 260.787C157.44 258.497 147.743 255.452 138.368 251.65C136.94 251.866 135.697 251.612 134.639 250.888C138.12 250.38 141.601 249.873 145.082 249.366C160.255 249.649 174.925 247.237 189.091 242.132C198.358 238.272 206.438 232.561 213.333 225C218.778 215.535 218.778 206.143 213.333 196.827C204.886 186.362 194.07 179.762 180.886 177.03C179.7 175.263 177.96 174.502 175.664 174.746C173.046 174.442 170.559 173.935 168.205 173.223C166.411 172.258 164.422 171.75 162.238 171.701C145.068 169.56 127.911 169.687 110.769 172.081C94.9887 174.318 80.94 180.535 68.6249 190.736C58.2566 202.103 57.3864 214.285 66.0141 227.284C62.592 227.224 59.1111 226.589 55.5712 225.381C53.7686 224.114 52.4011 222.465 51.4687 220.432C50.9714 215.102 50.9714 209.772 51.4687 204.442C52.0541 203.11 52.6757 201.841 53.3335 200.635C53.7989 200.952 54.0476 201.46 54.0794 202.157C52.3683 208.484 52.2439 214.83 53.7064 221.193C54.328 222.335 55.1983 223.224 56.3172 223.858C58.1004 224.076 59.841 224.457 61.5386 225C61.7872 224.746 62.0359 224.492 62.2845 224.239C61.2092 222.297 60.3389 220.267 59.6738 218.147C57.4306 208.058 59.544 199.175 66.0141 191.497C65.3607 190.926 64.6148 190.545 63.7764 190.355C64.6798 189.675 64.6798 189.041 63.7764 188.452C60.2279 191.697 57.3685 195.504 55.1983 199.873C54.9115 198.581 55.0358 197.312 55.5712 196.066C57.9178 191.948 60.9014 188.268 64.5223 185.025C73.2317 177.949 82.9286 173 93.6132 170.178C95.1252 170.301 96.617 170.174 98.0887 169.797C98.5035 169.505 98.7519 169.125 98.8346 168.655C104.258 167.398 109.729 166.383 115.245 165.609Z" fill="#F2CC57"/>
<path fill-rule="evenodd" clip-rule="evenodd" d="M224.149 173.985C238.424 177.09 252.348 181.278 265.921 186.548C264.771 187.592 263.776 188.734 262.937 189.975C259.253 192.234 256.021 195.026 253.24 198.35C250.566 199.548 248.328 199.04 246.527 196.827C245.846 196.05 244.604 195.289 242.797 194.543C236.355 192.815 229.891 191.038 223.403 189.213C215.424 180.436 205.975 173.711 195.058 169.036C204.167 170.245 213.242 172.148 222.284 174.746C223.082 174.725 223.704 174.471 224.149 173.985Z" fill="#FBAC52"/>
<path fill-rule="evenodd" clip-rule="evenodd" d="M156.271 174.746C157.971 176.058 159.961 176.565 162.238 176.269C165.814 177.206 169.544 177.84 173.427 178.173C176.463 179.85 179.696 180.865 183.124 181.218C184.379 182.197 185.622 183.086 186.853 183.883C179.904 182.031 172.942 180.128 165.968 178.173C163.481 177.665 160.995 177.665 158.508 178.173C159.412 179.015 159.164 179.396 157.762 179.315C157.514 179.315 157.265 179.315 157.017 179.315C155.933 178.704 154.691 178.323 153.287 178.173C154.779 177.919 156.271 177.665 157.762 177.411C141.851 175.9 125.939 176.026 110.024 177.792C110.024 178.553 110.024 179.315 110.024 180.076C112.127 179.884 114.116 180.265 115.991 181.218C115.548 181.572 115.05 181.699 114.499 181.599C110.916 181.566 109.425 183.215 110.024 186.548C111.747 186.927 113.487 187.053 115.245 186.929C114.762 188.517 113.643 189.279 111.888 189.213C109.186 188.028 106.824 186.378 104.802 184.264C103.808 183.756 102.813 183.756 101.818 184.264C101.818 185.279 101.818 186.295 101.818 187.31C109.137 193.547 108.639 199.131 100.327 204.061C95.6534 205.191 90.9295 205.445 86.1541 204.822C86.8612 204.455 87.6071 204.328 88.3919 204.442C90.8907 204.567 93.3768 204.44 95.8511 204.061C96.2658 203.769 96.5142 203.389 96.597 202.919C102.318 202.036 105.178 198.737 105.175 193.02C103.548 190.715 101.435 189.192 98.8347 188.452C98.0888 187.944 97.3429 187.437 96.597 186.929C95.3781 186.426 94.0109 186.172 92.4944 186.167C89.331 186.506 86.2235 186.886 83.1704 187.31C91.3793 183.817 99.8335 181.026 108.532 178.934C105.256 178.814 102.024 179.194 98.8347 180.076C99.0518 179.201 99.6732 178.693 100.7 178.553C104.287 177.867 107.892 177.359 111.515 177.03C114.248 176.686 116.983 176.306 119.721 175.888C120.135 175.597 120.384 175.216 120.466 174.746C132.398 173.804 144.333 173.804 156.271 174.746Z" fill="#F3AC2D"/>
<path fill-rule="evenodd" clip-rule="evenodd" d="M86.8999 188.452C90.8779 188.452 94.8567 188.452 98.8347 188.452C101.435 189.192 103.548 190.715 105.175 193.02C105.178 198.737 102.318 202.036 96.5969 202.919C93.9123 203.561 91.177 203.815 88.3918 203.68C86.4024 203.172 84.4138 202.665 82.4244 202.157C81.3562 200.766 80.1128 199.497 78.6948 198.35C77.9601 197.134 77.8362 195.864 78.3218 194.543C80.3895 191.274 83.2486 189.243 86.8999 188.452Z" fill="#281761"/>
<path fill-rule="evenodd" clip-rule="evenodd" d="M265.175 199.112C264.677 203.31 264.181 207.625 263.683 212.056C261.207 213.679 258.97 215.456 256.97 217.386C258.562 214.87 260.303 212.459 262.191 210.152C262.964 206.239 263.089 202.306 262.564 198.35C241.984 216.687 221.471 235.215 201.026 253.934C200.342 254.411 199.596 254.666 198.788 254.695C201.274 251.142 204.258 248.096 207.739 245.558C226.626 228.36 245.522 211.101 264.429 193.782C265.156 195.49 265.405 197.266 265.175 199.112Z" fill="#E5B651"/>
<path fill-rule="evenodd" clip-rule="evenodd" d="M157.016 179.315C154.262 178.891 152.272 179.907 151.049 182.36C153.717 186.321 156.452 186.321 159.254 182.36C159.066 181.163 158.569 180.148 157.762 179.315C159.164 179.396 159.412 179.015 158.508 178.173C160.994 177.665 163.481 177.665 165.968 178.173C172.942 180.128 179.904 182.031 186.853 183.883C187.877 183.764 188.873 183.891 189.837 184.264C193.685 186.101 197.415 188.131 201.026 190.355C218.669 205.722 217.675 219.935 198.042 232.995C190.003 237.889 181.3 241.061 171.935 242.513C169.203 242.857 166.467 243.238 163.73 243.655C163.047 243.867 162.55 244.247 162.238 244.797C157.279 245.284 152.307 245.538 147.32 245.558C139.358 246.554 131.402 246.554 123.45 245.558C121.541 245.788 119.8 245.534 118.229 244.797C119.105 244.964 119.851 244.71 120.466 244.036C119.969 243.782 119.472 243.528 118.975 243.274C113.552 241.647 108.083 240.251 102.564 239.086C98.4938 237.667 94.5158 236.017 90.6295 234.137C91.283 233.565 92.0289 233.185 92.8673 232.995C92.1579 232.448 92.0341 231.814 92.4943 231.091C96.1911 232.073 99.9207 232.073 103.683 231.091C104.388 231.4 104.886 231.908 105.175 232.614C107.651 230.094 110.387 227.81 113.38 225.761C115.506 220.613 114.636 216.171 110.769 212.437C108.78 211.422 106.791 210.406 104.802 209.391C97.1989 207.733 90.361 209.129 84.2892 213.579C83.2046 214.907 83.0801 216.176 83.9163 217.386C82.9428 221.274 83.9371 224.574 86.8999 227.284C87.0305 229.069 87.901 230.338 89.5107 231.091C90.0932 232.191 89.9687 233.206 89.1377 234.137C85.0083 232.42 80.7812 231.024 76.4571 229.949C69.817 224.108 66.336 216.621 66.0142 207.487C68.3112 200.959 72.1652 195.629 77.5759 191.497C76.5876 195.23 77.2089 198.656 79.4407 201.777C80.5193 202.765 81.5136 202.892 82.4244 202.157C84.4138 202.665 86.4024 203.172 88.3918 203.68C88.3918 203.934 88.3918 204.188 88.3918 204.442C87.6071 204.328 86.8612 204.455 86.154 204.822C90.9294 205.445 95.6533 205.191 100.327 204.061C108.639 199.131 109.137 193.547 101.818 187.31C101.818 186.295 101.818 185.279 101.818 184.264C102.813 183.756 103.808 183.756 104.802 184.264C106.823 186.378 109.186 188.028 111.888 189.213C113.643 189.279 114.762 188.517 115.245 186.929C115.991 186.929 116.737 186.929 117.483 186.929C117.6 185.884 117.475 184.868 117.11 183.883C115.977 183.378 115.107 182.617 114.499 181.599C115.05 181.699 115.548 181.572 115.991 181.218C114.116 180.265 112.127 179.884 110.023 180.076C110.023 179.315 110.023 178.553 110.023 177.792C125.938 176.026 141.851 175.9 157.762 177.411C156.271 177.665 154.779 177.919 153.287 178.173C154.691 178.323 155.933 178.704 157.016 179.315Z" fill="#FBA52D"/>
<path fill-rule="evenodd" clip-rule="evenodd" d="M120.466 193.782C125.319 198.912 131.286 200.816 138.368 199.492C141.379 198.381 144.362 197.111 147.319 195.685C151.023 192.056 151.147 188.375 147.692 184.645C145.881 183.784 144.265 182.642 142.844 181.218C138.12 180.71 133.395 180.71 128.671 181.218C123.847 182.267 120.864 185.186 119.72 189.975C119.812 191.06 120.061 192.075 120.466 193.02C119.72 193.02 118.974 193.02 118.228 193.02C118.078 190.562 118.327 188.151 118.974 185.787C126.922 178.096 135.873 176.573 145.827 181.218C152.769 187.163 152.769 193 145.827 198.731C139.787 201.554 133.447 202.189 126.806 200.635C125.289 200.523 124.046 201.03 123.077 202.157C122.178 201.723 121.307 201.215 120.466 200.635C124.228 199.503 124.352 197.98 120.839 196.066C120.479 195.344 120.355 194.583 120.466 193.782Z" fill="#EDB42E"/>
<path fill-rule="evenodd" clip-rule="evenodd" d="M174.173 196.827C168.186 197.609 164.208 200.909 162.238 206.726C164.567 214.015 169.54 217.569 177.156 217.386C181.078 217.299 184.807 216.41 188.345 214.721C192.58 211.952 193.947 208.018 192.448 202.919C189.847 199.975 186.739 197.944 183.124 196.827C185.039 195.957 187.029 196.084 189.091 197.208C191.418 198.927 193.283 201.085 194.685 203.68C195.335 211.304 191.979 215.999 184.616 217.767C176.741 220.101 169.53 218.959 162.984 214.34C162.471 211.89 161.725 209.479 160.746 207.107C164.399 197.37 171.361 193.562 181.632 195.685C179.003 195.822 176.516 196.202 174.173 196.827Z" fill="#EDB92D"/>
<path fill-rule="evenodd" clip-rule="evenodd" d="M152.541 198.35C156.592 197.28 158.333 198.803 157.762 202.919C155.511 203.044 153.273 202.917 151.049 202.538C149.99 200.578 150.487 199.182 152.541 198.35Z" fill="#FA4233"/>
<path fill-rule="evenodd" clip-rule="evenodd" d="M110.023 194.543C113.89 193.92 115.382 195.443 114.499 199.112C111.798 200.521 109.809 199.886 108.531 197.208C108.888 196.216 109.385 195.328 110.023 194.543Z" fill="#FD7132"/>
<path fill-rule="evenodd" clip-rule="evenodd" d="M89.8833 191.498C92.9281 191.379 95.9118 191.759 98.8343 192.64C100.836 194.911 100.463 196.815 97.7155 198.35C93.4048 200.154 89.0531 200.281 84.6618 198.731C82.9559 197.172 82.8314 195.522 84.2889 193.782C86.2037 192.954 88.0685 192.193 89.8833 191.498Z" fill="#F4353F"/>
<path fill-rule="evenodd" clip-rule="evenodd" d="M120.466 193.782C120.466 193.528 120.466 193.274 120.466 193.02C120.061 192.075 119.812 191.06 119.72 189.975C120.864 185.186 123.847 182.267 128.671 181.218C133.395 180.71 138.12 180.71 142.844 181.218C144.265 182.642 145.881 183.784 147.692 184.645C151.147 188.375 151.023 192.056 147.319 195.685C144.362 197.111 141.379 198.381 138.368 199.492C131.286 200.816 125.319 198.912 120.466 193.782Z" fill="#271761"/>
<path fill-rule="evenodd" clip-rule="evenodd" d="M129.417 184.645C134.914 183.887 140.011 184.903 144.708 187.69C145.206 188.96 145.206 190.228 144.708 191.497C143.22 192.774 141.605 193.916 139.86 194.924C136.13 195.432 132.401 195.432 128.671 194.924C125.527 193.811 124.16 191.653 124.569 188.452C126.113 186.977 127.73 185.708 129.417 184.645Z" fill="#F7373D"/>
<path fill-rule="evenodd" clip-rule="evenodd" d="M227.879 197.589C234.469 198.629 240.934 200.152 247.273 202.157C241.913 208.26 236.071 214.098 229.744 219.67C230.679 212.17 230.058 204.809 227.879 197.589Z" fill="#D59240"/>
<path fill-rule="evenodd" clip-rule="evenodd" d="M53.3333 200.635C53.5234 198.756 54.2694 197.233 55.5711 196.066C55.0356 197.312 54.9113 198.581 55.1981 199.873C57.3684 195.504 60.2277 191.697 63.7762 188.452C64.6797 189.041 64.6797 189.675 63.7762 190.355C64.6146 190.545 65.3605 190.926 66.014 191.497C59.5438 199.175 57.4304 208.058 59.6736 218.147C60.3388 220.267 61.209 222.297 62.2844 224.239C62.0357 224.492 61.787 224.746 61.5384 225C59.8408 224.457 58.1003 224.076 56.317 223.858C55.1981 223.224 54.3278 222.335 53.7063 221.193C52.2437 214.83 52.3681 208.484 54.0792 202.157C54.0474 201.46 53.7987 200.952 53.3333 200.635Z" fill="#FCC857"/>
<path fill-rule="evenodd" clip-rule="evenodd" d="M174.173 196.827C177.156 196.827 180.14 196.827 183.124 196.827C186.739 197.944 189.847 199.975 192.448 202.919C193.947 208.018 192.58 211.952 188.345 214.721C184.807 216.41 181.078 217.299 177.156 217.386C169.54 217.569 164.567 214.015 162.238 206.726C164.208 200.909 168.186 197.609 174.173 196.827Z" fill="#251662"/>
<path fill-rule="evenodd" clip-rule="evenodd" d="M96.5966 186.929C93.149 186.667 89.9169 187.175 86.8996 188.452C83.2484 189.243 80.3892 191.274 78.3215 194.543C77.836 195.864 77.9598 197.134 78.6945 198.35C80.1125 199.497 81.356 200.766 82.4241 202.157C81.5133 202.892 80.519 202.765 79.4404 201.777C77.2086 198.656 76.5873 195.23 77.5756 191.497C72.1649 195.629 68.3109 200.959 66.0139 207.487C66.3357 216.621 69.8167 224.108 76.4567 229.949C80.7808 231.024 85.008 232.42 89.1374 234.137C89.9684 233.206 90.0929 232.191 89.5104 231.091C87.9007 230.338 87.0302 229.069 86.8996 227.284C94.6781 230.588 102.386 230.207 110.023 226.142C114.37 222.768 114.743 219.087 111.142 215.102C104.666 210.558 97.5797 209.416 89.8833 211.675C87.2413 212.979 85.2519 214.883 83.916 217.386C83.0798 216.176 83.2043 214.907 84.2889 213.579C90.3607 209.129 97.1986 207.733 104.802 209.391C106.791 210.406 108.78 211.422 110.769 212.437C114.636 216.171 115.506 220.613 113.38 225.761C110.386 227.81 107.651 230.094 105.175 232.614C104.885 231.908 104.388 231.4 103.683 231.091C99.9204 232.073 96.1908 232.073 92.494 231.091C92.0338 231.814 92.1576 232.448 92.867 232.995C92.0286 233.185 91.2827 233.565 90.6292 234.137C94.5155 236.017 98.4935 237.667 102.564 239.086C108.082 240.251 113.552 241.647 118.974 243.274C119.472 243.528 119.969 243.782 120.466 244.036C119.851 244.71 119.105 244.964 118.228 244.797C103.802 241.266 89.6297 236.824 75.7108 231.472C60.8503 217.543 60.8503 203.838 75.7108 190.355C82.6031 185.089 90.3107 181.662 98.8344 180.076C102.024 179.194 105.256 178.814 108.531 178.934C99.8332 181.026 91.3789 183.817 83.17 187.31C86.2231 186.886 89.3306 186.506 92.494 186.168C94.0105 186.172 95.3778 186.426 96.5966 186.929Z" fill="#E8B032"/>
<path fill-rule="evenodd" clip-rule="evenodd" d="M283.077 142.766C283.553 143.221 283.802 143.855 283.823 144.67C281.343 155.161 278.98 165.694 276.736 176.269C275.085 181.236 273.096 186.058 270.769 190.736C270.521 198.097 270.272 205.457 270.023 212.817C269.277 214.087 268.531 215.355 267.785 216.624C258.978 224.852 250.151 233.1 241.305 241.371C240.318 241.992 239.822 242.88 239.813 244.036C238.542 245.324 237.05 246.339 235.338 247.081C236.401 245.998 237.147 244.729 237.576 243.274C248.113 233.277 258.306 223.125 268.158 212.817C268.886 205.012 269.134 197.143 268.904 189.213C271.053 186.228 272.794 182.928 274.126 179.315C275.378 173.456 276.622 167.619 277.855 161.802C279.231 160.447 279.728 158.671 279.347 156.472C280.057 155.392 280.305 154.123 280.093 152.665C280.709 149.295 281.703 145.995 283.077 142.766Z" fill="#E7D580"/>
<path fill-rule="evenodd" clip-rule="evenodd" d="M256.97 217.386C248.793 226.744 239.842 235.374 230.117 243.274C223.949 247.089 218.48 251.784 213.706 257.36C212.613 257.844 211.618 258.479 210.723 259.264C210.286 259.105 209.913 258.85 209.604 258.502C209.356 259.517 209.106 260.533 208.858 261.548C204.491 265.246 200.389 269.18 196.55 273.35C196.72 273.654 196.97 273.78 197.296 273.731C197.048 274.492 196.55 275 195.804 275.254C195.508 274.473 195.011 274.346 194.313 274.873C191.33 278.157 188.098 281.076 184.616 283.629C183.747 278.827 183.623 274.004 184.243 269.162C188.606 264.965 193.206 261.03 198.042 257.36C198.666 256.591 198.915 255.702 198.788 254.695C199.596 254.666 200.342 254.411 201.026 253.934C221.471 235.215 241.984 216.687 262.564 198.35C263.089 202.306 262.964 206.239 262.191 210.152C260.303 212.459 258.562 214.87 256.97 217.386Z" fill="#FDA84F"/>
<path fill-rule="evenodd" clip-rule="evenodd" d="M237.576 243.274C237.147 244.729 236.401 245.999 235.338 247.081C230.592 251.926 225.62 256.495 220.419 260.787C221.1 259.192 221.97 257.669 223.03 256.218C227.3 251.226 232.148 246.911 237.576 243.274Z" fill="#C8A675"/>
<path fill-rule="evenodd" clip-rule="evenodd" d="M220.419 260.787C215.246 267.212 209.279 272.67 202.517 277.157C195.767 284.446 188.556 290.918 180.886 296.574C177.751 296.815 174.768 296.561 171.935 295.812C175.02 296.082 178.004 295.701 180.886 294.67C184.46 291.445 188.19 288.399 192.074 285.533C196.129 280.387 201.102 276.326 206.993 273.35C211.163 268.708 215.639 264.52 220.419 260.787Z" fill="#C2A682"/>
<path fill-rule="evenodd" clip-rule="evenodd" d="M98.0885 65.1015C98.742 65.0018 99.2395 65.2557 99.5804 65.8629C98.6308 67.7542 98.6308 69.6577 99.5804 71.5736C97.8126 76.1199 96.9428 80.815 96.9697 85.6599C97.1189 84.2741 97.7409 83.2591 98.8345 82.6142C96.945 91.6728 94.5835 100.556 91.7482 109.264C90.331 116.347 89.3359 123.453 88.7645 130.584C93.2617 135.754 97.7372 140.829 102.191 145.812C102.439 143.02 102.689 140.229 102.937 137.437C104.408 132.349 105.775 127.274 107.04 122.208C106.919 123.752 107.043 125.274 107.413 126.777C108.059 122.865 109.054 119.058 110.396 115.355C109.691 121.726 108.572 128.072 107.04 134.391C107.072 135.088 107.32 135.596 107.786 135.914C107.466 138.416 107.466 140.827 107.786 143.147C121.8 145.751 135.724 148.67 149.557 151.904C165.603 155.028 181.64 158.58 197.669 162.563C207.602 165.59 217.672 168.255 227.879 170.558C230.818 171.331 233.801 171.712 236.83 171.701C239.514 173.406 242.497 174.422 245.781 174.746C249.834 176.113 253.937 177.382 258.089 178.553C258.462 178.426 258.834 178.3 259.207 178.173C257.851 177.609 256.856 176.721 256.224 175.508C258.167 172.578 259.41 173.086 259.953 177.03C260.738 176.917 261.484 177.043 262.191 177.411C264.064 179.576 266.177 181.479 268.531 183.122C268.81 182.424 269.183 181.789 269.65 181.218C269.48 180.914 269.231 180.788 268.904 180.838C269.943 178.929 270.689 176.899 271.142 174.746C271.504 169.975 272.498 165.407 274.126 161.041C273.949 160.058 274.197 159.296 274.872 158.756C274.774 159.423 275.022 159.931 275.618 160.279C277.004 153.828 278.619 147.483 280.466 141.244C280.732 144.595 280.359 147.894 279.347 151.142C279.379 151.84 279.628 152.347 280.093 152.665C280.305 154.123 280.057 155.392 279.347 156.472C278.671 158.114 278.174 159.891 277.855 161.802C276.622 167.619 275.378 173.456 274.126 179.315C272.794 182.928 271.053 186.228 268.904 189.213C268.953 188.88 268.829 188.625 268.531 188.452C267.8 189.579 266.93 190.595 265.921 191.497C265.476 190.572 265.352 189.557 265.548 188.452C264.939 189.459 264.069 189.966 262.937 189.975C263.776 188.734 264.771 187.592 265.921 186.548C252.348 181.278 238.424 177.09 224.149 173.985C218.442 172.44 212.723 170.791 206.993 169.036C195.086 166.544 183.151 164.133 171.189 161.802C171.106 161.332 170.858 160.952 170.443 160.66C168.678 160.325 166.938 159.944 165.221 159.518C149.103 156.104 132.941 152.804 116.737 149.619C115.291 148.353 113.55 147.846 111.515 148.096C109.679 147.311 107.691 146.804 105.548 146.574C105.577 145.617 105.204 144.856 104.429 144.289C103.54 146.128 102.049 147.143 99.9533 147.335C98.6189 146.643 97.2509 146.516 95.8508 146.954C94.9273 147.48 94.9273 147.86 95.8508 148.096C69.2927 168.408 42.4396 188.586 15.2913 208.629C14.794 209.391 14.2968 210.152 13.7995 210.914C17.7071 213.247 21.934 214.77 26.4802 215.482C26.8949 215.774 27.1435 216.155 27.2261 216.624C27.2405 217.638 28.1107 218.145 29.8368 218.147C30.6628 218.082 31.4087 217.828 32.0746 217.386C32.4216 218.475 33.0432 219.363 33.9394 220.051C35.7133 220.44 37.4538 220.948 39.1608 221.574C37.1544 221.829 36.6571 222.716 37.669 224.239C29.2707 221.37 20.817 218.578 12.3077 215.863C11.4384 222.956 11.314 230.063 11.9347 237.183C14.4556 238.747 17.0663 240.143 19.7669 241.371C32.4719 245.566 45.1526 249.88 57.8088 254.315C59.0277 254.691 60.271 254.817 61.5384 254.695C61.7933 255.333 62.2906 255.588 63.0303 255.457C72.9315 259.003 82.877 262.556 92.8671 266.117C113.205 272.654 133.594 278.999 154.033 285.152C161.052 287.774 168.263 290.058 175.664 292.005C176.407 291.94 177.029 292.194 177.529 292.766C177.654 288.832 177.778 284.899 177.902 280.964C177.898 276.742 177.401 272.808 176.41 269.162C173.829 267.659 171.094 266.262 168.205 264.975C164.945 264.487 161.713 263.852 158.508 263.071C151.594 261.123 144.881 258.839 138.368 256.218C139.153 256.332 139.899 256.205 140.606 255.838C137.129 255.144 133.896 253.875 130.909 252.03C133.1 251.756 135.213 252.136 137.249 253.173C138.018 252.917 138.391 252.409 138.368 251.65C147.743 255.452 157.44 258.497 167.459 260.787C175.314 259.058 183.022 256.901 190.583 254.315C194.159 251.378 197.639 248.459 201.026 245.558C200.928 246.121 201.052 246.629 201.399 247.081C203.702 244.691 206.313 243.041 209.231 242.132C208.345 242.908 207.599 243.796 206.993 244.797C207.085 245.259 207.334 245.513 207.739 245.558C204.258 248.096 201.274 251.142 198.788 254.695C193.173 258.717 187.952 263.286 183.124 268.401C182.138 274.626 182.138 280.971 183.124 287.437C183.576 287.342 183.825 287.089 183.869 286.675C188.015 283.017 191.993 279.21 195.804 275.254C196.55 275 197.048 274.492 197.296 273.731C204.6 267.082 212.059 260.61 219.674 254.315C223.002 250.464 226.482 246.783 230.117 243.274C239.842 235.374 248.793 226.744 256.97 217.386C258.969 215.456 261.207 213.679 263.683 212.056C264.18 207.625 264.677 203.31 265.175 199.112C265.051 203.181 265.176 207.241 265.548 211.294C265.796 207.741 266.045 204.188 266.294 200.635C266.203 205.02 266.824 209.081 268.158 212.817C258.306 223.125 248.113 233.277 237.576 243.274C232.148 246.911 227.3 251.226 223.03 256.218C221.97 257.669 221.1 259.192 220.42 260.787C215.639 264.52 211.163 268.708 206.993 273.35C201.102 276.326 196.129 280.387 192.075 285.533C188.19 288.399 184.46 291.445 180.886 294.67C178.004 295.701 175.021 296.082 171.935 295.812C170.795 295.196 169.552 294.688 168.205 294.289C117.512 278.622 67.038 262.124 16.7832 244.797C13.8142 243.547 11.0791 242.025 8.57805 240.228C7.59508 229.546 7.59508 218.886 8.57805 208.249C17.0167 202.166 25.2218 195.822 33.1934 189.213C54.1402 174.557 74.777 159.456 95.1049 143.909C91.5371 140.517 88.1805 136.837 85.0349 132.868C84.0533 130.441 83.6803 127.902 83.916 125.254C86.0583 117.758 88.0477 110.144 89.8834 102.411C91.9548 89.8066 94.6901 77.3703 98.0885 65.1015Z" fill="#26195A"/>
<path fill-rule="evenodd" clip-rule="evenodd" d="M183.124 268.401C182.881 274.632 183.13 280.724 183.87 286.675C183.825 287.089 183.577 287.342 183.124 287.437C182.138 280.971 182.138 274.626 183.124 268.401Z" fill="#886759"/>
<path fill-rule="evenodd" clip-rule="evenodd" d="M176.41 269.162C177.401 272.808 177.898 276.742 177.902 280.964C177.778 284.899 177.654 288.832 177.529 292.766C177.029 292.194 176.407 291.94 175.664 292.005C177.106 284.844 177.604 277.483 177.156 269.924C174.906 269.881 174.657 269.627 176.41 269.162Z" fill="#FCE254"/>
<path fill-rule="evenodd" clip-rule="evenodd" d="M198.788 254.695C198.915 255.702 198.667 256.591 198.042 257.36C193.206 261.03 188.606 264.965 184.243 269.162C183.623 274.004 183.747 278.827 184.616 283.629C188.098 281.076 191.33 278.157 194.313 274.873C195.012 274.346 195.508 274.473 195.804 275.254C191.994 279.21 188.015 283.017 183.87 286.675C183.13 280.724 182.881 274.632 183.124 268.401C187.952 263.286 193.174 258.717 198.788 254.695Z" fill="#ECC352"/>
<path fill-rule="evenodd" clip-rule="evenodd" d="M63.0303 255.457C63.3412 254.982 63.8386 254.728 64.5221 254.695C91.6744 263.912 119.024 272.669 146.573 280.964C149.41 281.777 151.897 283.173 154.033 285.152C133.594 278.999 113.205 272.654 92.8671 266.117C82.877 262.556 72.9316 259.003 63.0303 255.457Z" fill="#E4BF5C"/>
<path fill-rule="evenodd" clip-rule="evenodd" d="M181.632 260.787C184.36 261.819 184.112 262.961 180.886 264.213C179.043 264.751 177.302 264.497 175.665 263.452C177.925 263.012 179.914 262.123 181.632 260.787Z" fill="#DBCC69"/>
<path fill-rule="evenodd" clip-rule="evenodd" d="M230.117 243.274C226.483 246.784 223.002 250.464 219.674 254.315C212.059 260.61 204.6 267.082 197.296 273.731C196.97 273.781 196.72 273.654 196.55 273.35C200.389 269.18 204.491 265.246 208.858 261.548C209.106 260.533 209.356 259.518 209.604 258.503C209.913 258.851 210.286 259.105 210.723 259.264C211.618 258.479 212.613 257.844 213.706 257.36C218.48 251.785 223.949 247.089 230.117 243.274Z" fill="#E5B34F"/>
<path fill-rule="evenodd" clip-rule="evenodd" d="M145.082 249.366C141.6 249.873 138.12 250.38 134.639 250.888C133.985 250.988 133.488 250.735 133.147 250.127C137.094 249.369 141.072 249.116 145.082 249.366Z" fill="#6C5152"/>
<path fill-rule="evenodd" clip-rule="evenodd" d="M123.45 245.558C131.401 246.554 139.358 246.554 147.319 245.558C143.622 246.57 139.644 247.077 135.384 247.081C131.124 247.077 127.146 246.57 123.45 245.558Z" fill="#4F345A"/>
<path fill-rule="evenodd" clip-rule="evenodd" d="M171.935 242.513C168.92 243.835 165.687 244.597 162.238 244.797C162.55 244.247 163.046 243.867 163.73 243.655C166.467 243.238 169.202 242.857 171.935 242.513Z" fill="#714C51"/>
<path fill-rule="evenodd" clip-rule="evenodd" d="M37.669 224.239C43.5028 225.731 49.2215 227.508 54.8251 229.568C54.9228 230.236 54.6741 230.743 54.0792 231.091C45.3766 227.967 36.5499 225.175 27.599 222.716C25.8393 224.645 24.9691 224.137 24.9883 221.193C21.0651 220.111 17.0868 219.349 13.0536 218.909C12.8186 224.939 13.0672 230.903 13.7995 236.802C29.9969 242.642 46.1586 248.479 62.2843 254.315C62.114 254.618 61.8653 254.745 61.5384 254.695C60.271 254.817 59.0277 254.691 57.8088 254.315C45.1526 249.88 32.4719 245.566 19.7669 241.371C17.0663 240.143 14.4556 238.747 11.9347 237.183C11.314 230.063 11.4384 222.956 12.3077 215.863C20.817 218.578 29.2707 221.37 37.669 224.239Z" fill="#EBC258"/>
<path fill-rule="evenodd" clip-rule="evenodd" d="M137.623 215.101C146.426 213.26 153.885 215.545 160 221.954C161.77 227.264 160.278 231.578 155.525 234.898C147.165 239.818 138.712 239.945 130.163 235.279C127.545 232.339 126.426 228.912 126.807 225C129.306 220.374 132.911 217.074 137.623 215.101Z" fill="#E8B52F"/>
<path fill-rule="evenodd" clip-rule="evenodd" d="M116.737 232.614C119.349 232.361 121.09 233.503 121.958 236.041C121.382 236.97 120.636 237.732 119.72 238.325C117.747 238.703 115.757 238.83 113.753 238.706C113.587 235.998 114.582 233.967 116.737 232.614Z" fill="#261662"/>
<path fill-rule="evenodd" clip-rule="evenodd" d="M183.869 225.761C183.769 227.126 184.018 228.394 184.615 229.568C184.775 230.82 184.526 231.962 183.869 232.995C179.188 235.348 174.215 236.109 168.951 235.279C166.031 232.862 166.031 230.452 168.951 228.046C173.45 223.914 178.423 223.153 183.869 225.761Z" fill="#FB3939"/>
<path fill-rule="evenodd" clip-rule="evenodd" d="M183.87 225.761C186.985 225.252 187.979 226.394 186.853 229.188C186.146 229.556 185.4 229.682 184.616 229.568C184.018 228.394 183.77 227.126 183.87 225.761Z" fill="#32195B"/>
<path fill-rule="evenodd" clip-rule="evenodd" d="M139.86 216.624C146.093 215.995 151.812 217.39 157.017 220.812C160.295 225.31 159.797 229.371 155.525 232.995C153.521 234.037 151.532 235.052 149.557 236.041C144.027 236.718 138.557 236.465 133.147 235.279C127.193 230.018 127.193 224.688 133.147 219.289C135.354 218.068 137.592 217.179 139.86 216.624Z" fill="#221661"/>
<path fill-rule="evenodd" clip-rule="evenodd" d="M139.86 220.431C145.464 219.472 150.436 220.741 154.779 224.239C156.036 227.052 155.29 229.21 152.541 230.711C147.313 233.596 141.843 234.103 136.131 232.233C135.247 231.203 134.252 230.315 133.147 229.569C132.412 228.352 132.288 227.082 132.774 225.761C134.853 223.505 137.214 221.728 139.86 220.431Z" fill="#F73C3D"/>
<path fill-rule="evenodd" clip-rule="evenodd" d="M54.825 229.569C82.7477 238.479 110.596 247.362 138.368 256.218C144.881 258.839 151.594 261.123 158.508 263.071C161.712 263.852 164.944 264.487 168.205 264.975C171.094 266.262 173.829 267.659 176.41 269.163C174.657 269.627 174.906 269.881 177.156 269.924C177.604 277.483 177.106 284.844 175.664 292.005C168.263 290.058 161.052 287.774 154.032 285.152C151.897 283.173 149.41 281.777 146.573 280.965C119.024 272.669 91.6742 263.913 64.5219 254.695C63.8384 254.728 63.3411 254.982 63.0301 255.457C62.2904 255.588 61.7931 255.334 61.5382 254.695C61.8651 254.745 62.1138 254.619 62.2842 254.315C46.1584 248.479 29.9968 242.642 13.7993 236.802C13.067 230.903 12.8184 224.939 13.0534 218.909C17.0867 219.35 21.0649 220.111 24.9881 221.193C24.9689 224.137 25.8392 224.645 27.5989 222.716C36.5497 225.175 45.3764 227.967 54.079 231.091C54.6739 230.743 54.9226 230.236 54.825 229.569Z" fill="#FCB459"/>
<path fill-rule="evenodd" clip-rule="evenodd" d="M86.9 227.284C83.9372 224.574 82.9429 221.274 83.9163 217.386C85.2523 214.883 87.2416 212.98 89.8837 211.675C97.5801 209.416 104.666 210.558 111.142 215.102C114.744 219.087 114.371 222.768 110.024 226.142C102.386 230.207 94.6785 230.588 86.9 227.284Z" fill="#271661"/>
<path fill-rule="evenodd" clip-rule="evenodd" d="M45.1281 209.772C46.5858 213.496 47.3317 217.558 47.3659 221.954C44.3926 221.323 41.409 220.688 38.4148 220.051C37.0825 219.902 36.0879 219.267 35.4312 218.147C38.8251 215.53 42.0574 212.738 45.1281 209.772Z" fill="#E1C86F"/>
<path fill-rule="evenodd" clip-rule="evenodd" d="M74.2189 215.102C76.2374 215.159 78.2268 215.412 80.1863 215.863C80.0237 221.721 77.2884 223.371 71.9812 220.812C70.7524 218.125 71.4983 216.222 74.2189 215.102Z" fill="#FC4B32"/>
<path fill-rule="evenodd" clip-rule="evenodd" d="M93.6132 214.34C99.2911 213.47 104.388 214.739 108.905 218.147C109.417 219.99 109.044 221.64 107.786 223.096C102.268 225.926 96.5499 226.434 90.6295 224.619C89.2488 223.337 88.0054 221.941 86.8999 220.431C88.5103 217.509 90.7481 215.478 93.6132 214.34Z" fill="#F6363E"/>
<path fill-rule="evenodd" clip-rule="evenodd" d="M121.212 205.203C124.502 204.535 126.988 205.677 128.671 208.629C126.416 211.065 123.68 211.826 120.466 210.914C118.85 208.926 119.098 207.022 121.212 205.203Z" fill="#221564"/>
<path fill-rule="evenodd" clip-rule="evenodd" d="M73.4733 207.487C75.4552 207.23 77.1954 207.738 78.6947 209.01C79.689 210.025 79.689 211.041 78.6947 212.056C76.7531 212.864 74.7637 212.991 72.7273 212.437C71.6763 210.56 71.9249 208.91 73.4733 207.487Z" fill="#F94F34"/>
<path fill-rule="evenodd" clip-rule="evenodd" d="M201.771 202.157C203.533 202.29 205.273 202.543 206.993 202.919C207.412 205.659 206.293 207.182 203.636 207.487C201.945 206.899 200.577 205.884 199.534 204.442C200.16 203.501 200.906 202.74 201.771 202.157Z" fill="#FA4F32"/>
<path fill-rule="evenodd" clip-rule="evenodd" d="M96.5967 202.919C96.5139 203.389 96.2655 203.769 95.8508 204.061C93.3766 204.44 90.8904 204.567 88.3916 204.442C88.3916 204.188 88.3916 203.934 88.3916 203.68C91.1769 203.815 93.9122 203.561 96.5967 202.919Z" fill="#796248"/>
<path fill-rule="evenodd" clip-rule="evenodd" d="M174.173 199.873C179.873 198.809 184.721 200.332 188.718 204.442C189.174 208.43 187.558 211.222 183.869 212.817C178.515 215.209 173.542 214.575 168.951 210.914C166.852 207.917 167.1 205.125 169.697 202.538C171.675 202.269 173.167 201.381 174.173 199.873Z" fill="#F5373E"/>
<path fill-rule="evenodd" clip-rule="evenodd" d="M96.5969 186.929C97.3428 187.437 98.0887 187.944 98.8346 188.452C94.8566 188.452 90.8779 188.452 86.8999 188.452C89.9172 187.175 93.1492 186.667 96.5969 186.929Z" fill="#67415B"/>
<path fill-rule="evenodd" clip-rule="evenodd" d="M167.459 183.122C170.003 183.089 172.489 183.47 174.919 184.264C176.301 187.101 175.556 189.131 172.681 190.355C170.149 190.928 167.663 190.801 165.222 189.975C164.366 188.25 164.241 186.474 164.849 184.645C165.82 184.199 166.69 183.692 167.459 183.122Z" fill="#2A1562"/>
<path fill-rule="evenodd" clip-rule="evenodd" d="M114.499 181.599C115.107 182.617 115.977 183.378 117.109 183.883C117.475 184.868 117.6 185.884 117.482 186.929C116.737 186.929 115.991 186.929 115.245 186.929C113.487 187.053 111.746 186.927 110.023 186.548C109.424 183.215 110.916 181.566 114.499 181.599Z" fill="#F94C32"/>
<path fill-rule="evenodd" clip-rule="evenodd" d="M157.016 179.315C157.265 179.315 157.514 179.315 157.762 179.315C158.569 180.148 159.066 181.163 159.254 182.36C156.452 186.321 153.716 186.321 151.049 182.36C152.272 179.907 154.262 178.891 157.016 179.315Z" fill="#FB4F35"/>
<path fill-rule="evenodd" clip-rule="evenodd" d="M175.665 174.746C177.96 174.502 179.7 175.263 180.886 177.03C178.95 176.608 177.209 175.846 175.665 174.746Z" fill="#867153"/>
<path fill-rule="evenodd" clip-rule="evenodd" d="M156.271 174.746C158.455 174.796 160.444 175.304 162.238 176.269C159.961 176.565 157.971 176.058 156.271 174.746Z" fill="#875D4A"/>
<path fill-rule="evenodd" clip-rule="evenodd" d="M120.466 174.746C120.383 175.216 120.135 175.597 119.72 175.888C116.983 176.306 114.247 176.686 111.515 177.03C111.598 176.561 111.846 176.18 112.261 175.888C114.999 175.471 117.734 175.09 120.466 174.746Z" fill="#9F7E45"/>
<path fill-rule="evenodd" clip-rule="evenodd" d="M162.238 171.701C164.422 171.75 166.411 172.258 168.205 173.223C165.971 173.38 163.982 172.873 162.238 171.701Z" fill="#7B6657"/>
<path fill-rule="evenodd" clip-rule="evenodd" d="M98.8347 168.655C98.7519 169.125 98.5035 169.505 98.0888 169.797C96.6171 170.174 95.1253 170.301 93.6133 170.178C95.2222 169.487 96.9625 168.98 98.8347 168.655Z" fill="#927F5B"/>
<path fill-rule="evenodd" clip-rule="evenodd" d="M160 165.609C158.585 166.603 156.844 167.11 154.779 167.132C148.878 166.045 142.911 165.538 136.877 165.609C129.144 166.121 121.437 166.882 113.753 167.893C112.51 167.766 111.267 167.64 110.023 167.513C112.031 167.394 113.771 166.76 115.245 165.609C130.158 163.646 145.076 163.646 160 165.609Z" fill="#E9D55A"/>
<path fill-rule="evenodd" clip-rule="evenodd" d="M99.5804 151.142C100.732 155.433 101.478 159.875 101.818 164.467C100.854 164.84 99.8586 164.967 98.8345 164.848C99.2753 164.352 99.7721 163.844 100.326 163.325C99.6169 159.312 99.3678 155.251 99.5804 151.142Z" fill="#573957"/>
<path fill-rule="evenodd" clip-rule="evenodd" d="M147.319 160.279C151.306 160.153 155.284 160.28 159.254 160.66C160.416 160.82 161.411 161.201 162.238 161.802C157.142 161.459 152.169 160.952 147.319 160.279Z" fill="#8E6358"/>
<path fill-rule="evenodd" clip-rule="evenodd" d="M165.222 159.518C166.938 159.944 168.678 160.325 170.443 160.66C170.858 160.952 171.106 161.332 171.189 161.802C168.85 161.724 166.861 160.962 165.222 159.518Z" fill="#876951"/>
<path fill-rule="evenodd" clip-rule="evenodd" d="M147.32 160.279C137.088 160.17 126.894 160.678 116.737 161.802C119.89 160.447 123.371 159.812 127.18 159.899C134.024 159.271 140.738 159.398 147.32 160.279Z" fill="#644557"/>
<path fill-rule="evenodd" clip-rule="evenodd" d="M277.11 149.619C276.99 152.041 276.244 154.071 274.872 155.711C275.29 153.959 275.663 152.182 275.991 150.381C276.277 149.957 276.65 149.704 277.11 149.619Z" fill="#76555B"/>
<path fill-rule="evenodd" clip-rule="evenodd" d="M236.83 171.7C233.802 171.712 230.818 171.331 227.879 170.558C217.672 168.255 207.602 165.59 197.669 162.563C181.64 158.58 165.603 155.028 149.557 151.904C149.245 151.354 148.749 150.973 148.065 150.761C152.197 150.637 156.3 151.018 160.373 151.904C161.923 150.805 162.544 151.313 162.238 153.426C167.27 153.937 172.243 154.572 177.156 155.33C175.167 154.569 175.167 153.807 177.156 153.046C176.318 152.856 175.572 152.475 174.919 151.904C175.043 151.65 175.167 151.396 175.292 151.142C177.366 151.443 178.982 152.458 180.14 154.188C181.141 153.12 181.763 153.374 182.005 154.949C182.838 153.846 183.336 152.577 183.497 151.142C184.501 153.235 185.496 153.49 186.48 151.904C186.47 154.084 186.346 156.115 186.107 157.995C186.729 158.248 187.351 158.503 187.972 158.756C203.405 161.877 218.696 165.557 233.846 169.797C235.493 170.273 236.487 170.908 236.83 171.7Z" fill="#EDC46B"/>
<path fill-rule="evenodd" clip-rule="evenodd" d="M111.515 148.096C113.55 147.846 115.291 148.353 116.737 149.619C116.185 149.52 115.688 149.647 115.245 150C123.844 152.372 132.547 154.529 141.352 156.472C139.59 157.059 137.849 157.694 136.131 158.376C126.671 159.041 117.223 159.548 107.786 159.898C106.814 156.257 106.814 152.577 107.786 148.858C109.977 149.676 112.215 149.803 114.499 149.239C113.337 149.079 112.342 148.698 111.515 148.096Z" fill="#FCA850"/>
</svg>
