<svg width="309" height="239" viewBox="0 0 309 239" fill="none" xmlns="http://www.w3.org/2000/svg">
<ellipse cx="154.5" cy="128" rx="154.5" ry="111" fill="#A2F5D0"/>
<g clip-path="url(#clip0_42_3923)">
<path fill-rule="evenodd" clip-rule="evenodd" d="M104.058 8.59199C94.2383 7.56172 84.8602 8.95839 75.9243 12.7818C79.3876 9.57282 83.5555 7.65253 88.4282 7.02082C93.908 6.17479 99.118 6.69852 104.058 8.59199Z" fill="#232342"/>
<path fill-rule="evenodd" clip-rule="evenodd" d="M104.059 8.59194C109.649 9.83065 114.512 12.4493 118.646 16.4478C122.204 21.3484 125.33 26.4111 128.024 31.6358C128.764 41.3184 127.722 50.7454 124.898 59.9169C124.203 60.2657 123.509 60.6156 122.814 60.9644C121.03 62.1532 120.335 63.8993 120.73 66.2016C122.78 65.9513 124.691 66.3001 126.461 67.249C133.328 64.5571 140.448 63.6846 147.822 64.6304C147.475 64.9792 147.127 65.3291 146.78 65.6779C149.081 65.8779 151.165 66.4017 153.032 67.249C139.611 67.9341 126.412 69.3314 113.437 71.4388C104.635 75.747 95.2569 77.667 85.3028 77.1998C83.5486 78.4662 82.1593 80.0373 81.1348 81.9133C80.4402 89.7796 79.7456 97.8104 79.0509 106.005C78.2615 97.2647 77.567 88.5353 76.9669 79.8184C78.4562 77.5371 79.3246 75.0934 79.5719 72.4863C75.8616 71.0219 72.562 68.9271 69.6729 66.2016C59.3073 50.7088 58.7863 34.9971 68.11 19.0664C70.2841 16.3494 72.889 14.2546 75.9249 12.7817C84.8608 8.95834 94.2389 7.56167 104.059 8.59194Z" fill="#28185E"/>
<path fill-rule="evenodd" clip-rule="evenodd" d="M88.4285 23.2563C92.2651 23.0832 96.085 23.2578 99.8904 23.78C107.378 28.805 108.072 34.7405 101.974 41.5866C108.054 46.4877 108.748 52.0737 104.058 58.3458C96.1663 62.6006 89.0464 61.728 82.6975 55.7272C82.1869 54.3728 82.0132 52.9756 82.1765 51.5374C83.6671 51.6202 85.0564 51.2714 86.3445 50.49C89.9894 56.4845 94.3313 57.1832 99.3694 52.5849C100.223 45.9524 97.2708 43.5087 90.5124 45.2527C90.5124 43.1578 90.5124 41.0629 90.5124 38.968C97.7939 39.8607 100.226 36.8929 97.8064 30.0647C93.1862 28.621 89.5392 29.843 86.8655 33.7308C85.1619 33.3352 83.5989 32.6368 82.1765 31.6359C83.2819 27.9789 85.3659 25.1857 88.4285 23.2563Z" fill="#EBECEB"/>
<path fill-rule="evenodd" clip-rule="evenodd" d="M192.627 56.7744C169.577 59.9042 146.307 62.3479 122.814 64.1066C122.814 63.0591 122.814 62.0117 122.814 60.9642C123.509 60.6154 124.203 60.2656 124.898 59.9168C124.898 60.9642 124.898 62.0117 124.898 63.0591C147.425 60.4803 170.001 58.3854 192.627 56.7744Z" fill="#C0ECE4"/>
<path fill-rule="evenodd" clip-rule="evenodd" d="M266.609 54.6795C268.6 55.2818 270.337 56.3293 271.819 57.8219C275.353 65.3876 277.09 73.4184 277.029 81.9132C276.165 89.0578 275.644 96.39 275.466 103.91C274.37 98.9457 273.501 94.0573 272.861 89.2453C271.534 81.6283 270.666 73.9473 270.256 66.2015C268.123 62.4851 265.171 59.6916 261.399 57.8219C255.683 56.6152 249.78 56.4413 243.685 57.2981C230.297 58.5708 217.099 60.142 204.089 62.0117C197.502 62.5501 190.903 62.8989 184.291 63.0591C173.886 64.027 163.466 64.2008 153.032 63.5828C153.727 63.234 154.421 62.8842 155.116 62.5354C161.021 62.1866 166.925 61.8367 172.83 61.4879C182.949 59.9147 193.022 58.3435 203.047 56.7744C207.705 55.7416 212.568 55.3928 217.635 55.727C228.917 54.9864 240.206 54.2878 251.5 53.6321C256.587 53.6886 261.623 54.0385 266.609 54.6795Z" fill="#251659"/>
<path fill-rule="evenodd" clip-rule="evenodd" d="M261.399 57.822C265.171 59.6917 268.123 62.4853 270.256 66.2016C270.666 73.9475 271.534 81.6284 272.861 89.2455C273.039 100.454 273.734 111.627 274.945 122.764C274.716 127.582 275.409 132.121 277.029 136.381C276.701 140.435 277.047 144.276 278.071 147.903C278.283 151.064 278.63 154.206 279.113 157.33C279.113 165.36 279.113 173.39 279.113 181.421C278.766 182.12 278.418 182.817 278.071 183.516C275.329 186.662 271.856 188.582 267.651 189.277C252.137 190.138 236.854 191.709 221.803 193.99C218.677 193.99 215.551 193.99 212.425 193.99C207.264 193.595 202.402 194.293 197.837 196.085C186.145 196.23 174.683 197.277 163.452 199.228C157.542 199.5 151.637 199.849 145.738 200.275C130.807 201.729 115.872 203.126 100.932 204.465C97.9533 203.846 95.5213 202.449 93.6384 200.275C93.8176 199.236 93.4696 198.538 92.5964 198.18C91.6555 191.227 90.9605 184.245 90.5124 177.231C92.8413 177.54 94.9253 177.19 96.7644 176.184C97.1114 176.184 97.4594 176.184 97.8064 176.184C110.547 175.594 123.051 174.197 135.318 171.994C138.463 172.167 141.589 171.992 144.696 171.47C146.876 170.472 147.223 169.076 145.738 167.28C139.811 166.7 133.906 166.875 128.024 167.804C114.782 167.836 101.584 168.534 88.4285 169.899C88.7077 168.224 88.3597 166.828 87.3865 165.709C87.3844 159.4 87.037 153.116 86.3445 146.855C105.782 145.254 125.233 143.857 144.696 142.665C150.816 142.565 156.721 141.866 162.41 140.57C162.41 138.824 162.41 137.079 162.41 135.333C154.084 135.881 145.748 136.23 137.402 136.381C134.257 136.594 131.131 136.943 128.024 137.428C121.069 137.254 114.122 137.428 107.184 137.952C106.23 138.243 105.536 138.767 105.1 139.523C98.517 140.271 91.9181 140.968 85.3025 141.618C85.6218 138.596 85.2745 135.802 84.2605 133.238C83.8366 127.309 83.4893 121.373 83.2185 115.432C90.0665 115.705 96.6664 115.006 103.016 113.337C103.711 113.337 104.405 113.337 105.1 113.337C115.172 113.985 124.897 112.938 134.276 110.194C138.548 110.47 142.716 110.121 146.78 109.147C148.136 107.697 148.136 106.126 146.78 104.433C144.522 104.259 142.265 104.085 140.007 103.91C120.603 105.456 101.326 107.202 82.1765 109.147C81.3917 100.091 81.0444 91.0136 81.1345 81.9133C82.159 80.0373 83.5483 78.4662 85.3025 77.1998C95.2566 77.667 104.635 75.747 113.436 71.4388C123.505 70.934 133.578 70.4103 143.654 69.8677C164.058 67.6387 184.203 65.0201 204.089 62.0118C223.197 60.8292 242.301 59.433 261.399 57.822Z" fill="#29B874"/>
<path fill-rule="evenodd" clip-rule="evenodd" d="M261.399 57.8219C242.302 59.4329 223.198 60.8292 204.09 62.0117C217.099 60.142 230.298 58.5709 243.685 57.2982C249.78 56.4414 255.684 56.6153 261.399 57.8219Z" fill="#3B9A7C"/>
<path fill-rule="evenodd" clip-rule="evenodd" d="M260.356 51.5372C245.864 51.8347 231.624 53.231 217.635 55.727C212.568 55.3929 207.705 55.7417 203.047 56.7745C199.574 56.7745 196.1 56.7745 192.627 56.7745C209.447 54.4586 226.467 52.5386 243.684 51.0135C249.432 50.1577 254.99 50.3316 260.356 51.5372Z" fill="#C0E3E7"/>
<path fill-rule="evenodd" clip-rule="evenodd" d="M260.357 51.5371C262.845 51.9687 264.929 53.0161 266.609 54.6795C261.623 54.0384 256.587 53.6886 251.5 53.632C240.206 54.2877 228.917 54.9864 217.636 55.7269C231.626 53.2308 245.865 51.8346 260.357 51.5371Z" fill="#1E2543"/>
<path fill-rule="evenodd" clip-rule="evenodd" d="M192.627 56.7744C196.1 56.7744 199.574 56.7744 203.047 56.7744C193.022 58.3435 182.949 59.9147 172.829 61.4879C166.924 61.8367 161.021 62.1866 155.116 62.5354C154.421 62.8842 153.727 63.234 153.032 63.5828C163.466 64.2008 173.886 64.0269 184.291 63.0591C174.022 64.6523 163.603 66.0485 153.032 67.2489C151.164 66.4015 149.08 65.8778 146.78 65.6777C147.127 65.3289 147.475 64.9791 147.822 64.6303C140.447 63.6844 133.328 64.557 126.461 67.2489C124.69 66.2999 122.779 65.9511 120.73 66.2014C120.334 63.8992 121.029 62.1531 122.814 60.9642C122.814 62.0117 122.814 63.0591 122.814 64.1066C146.307 62.3479 169.577 59.9042 192.627 56.7744Z" fill="#282756"/>
<path fill-rule="evenodd" clip-rule="evenodd" d="M204.089 62.0117C184.203 65.02 164.058 67.6386 143.654 69.8676C133.578 70.4102 123.505 70.9339 113.436 71.4388C126.412 69.3313 139.611 67.934 153.032 67.249C163.603 66.0486 174.023 64.6523 184.291 63.0592C190.903 62.8989 197.502 62.5501 204.089 62.0117Z" fill="#379478"/>
<path fill-rule="evenodd" clip-rule="evenodd" d="M271.818 57.822C273.458 58.2798 274.674 59.3272 275.465 60.9644C277.785 76.9442 279.348 93.0048 280.154 109.147C278.482 100.29 277.44 91.2126 277.028 81.9133C277.09 73.4185 275.353 65.3877 271.818 57.822Z" fill="#ABC6CF"/>
<path fill-rule="evenodd" clip-rule="evenodd" d="M230.139 85.0557C250.75 83.5935 257.869 92.6717 251.5 112.289C249.548 114.603 247.29 116.523 244.727 118.05C239.517 118.749 234.307 118.749 229.097 118.05C219.495 111.622 217.237 103.069 222.324 92.3878C224.821 89.699 227.426 87.2553 230.139 85.0557Z" fill="#FABB56"/>
<path fill-rule="evenodd" clip-rule="evenodd" d="M146.78 109.147C142.716 110.121 138.548 110.47 134.276 110.194C124.589 111.385 114.865 112.084 105.1 112.289C101.279 112.289 97.4592 112.289 93.6382 112.289C93.6382 111.242 93.6382 110.194 93.6382 109.147C109.265 108.344 124.895 107.471 140.528 106.528C140.181 106.179 139.833 105.83 139.486 105.481C141.57 104.782 143.654 104.782 145.738 105.481C146.61 106.54 146.957 107.762 146.78 109.147Z" fill="#28125E"/>
<path fill-rule="evenodd" clip-rule="evenodd" d="M76.9663 79.8184C77.5664 88.5352 78.2609 97.2647 79.0502 106.005C79.7449 97.8104 80.4396 89.7796 81.1342 81.9133C81.0441 91.0135 81.3914 100.091 82.1762 109.147C101.326 107.202 120.603 105.456 140.007 103.91C142.265 104.085 144.522 104.258 146.78 104.433C148.135 106.126 148.135 107.697 146.78 109.147C146.957 107.762 146.61 106.54 145.738 105.481C143.654 104.782 141.57 104.782 139.486 105.481C139.833 105.83 140.181 106.179 140.528 106.528C124.895 107.471 109.265 108.345 93.6381 109.147C93.6381 110.194 93.6381 111.242 93.6381 112.289C97.4591 112.289 101.279 112.289 105.1 112.289C105.1 112.638 105.1 112.988 105.1 113.337C104.405 113.337 103.711 113.337 103.016 113.337C96.216 113.543 89.6171 114.242 83.2182 115.432C83.489 121.373 83.8363 127.309 84.2602 133.238C83.0171 127.484 81.9751 121.548 81.1342 115.432C80.7869 117.875 80.4395 120.32 80.0922 122.764C80.5452 130.243 81.4135 137.575 82.6972 144.76C81.2382 144.115 79.6752 143.766 78.0083 143.713C69.3375 144.625 60.6543 145.324 51.9585 145.808C61.0588 143.6 70.4367 142.552 80.0922 142.665C79.7449 137.079 79.3975 131.492 79.0502 125.906C79.0502 122.415 79.0502 118.923 79.0502 115.432C75.577 115.432 72.1036 115.432 68.6303 115.432C67.2748 113.982 67.2748 112.411 68.6303 110.718C71.3875 110.197 74.1661 110.023 76.9663 110.194C75.9246 99.8979 75.9246 89.7723 76.9663 79.8184Z" fill="#1E1B4F"/>
<path fill-rule="evenodd" clip-rule="evenodd" d="M134.276 110.194C124.897 112.938 115.172 113.985 105.1 113.337C105.1 112.988 105.1 112.638 105.1 112.289C114.865 112.084 124.589 111.385 134.276 110.194Z" fill="#358577"/>
<path fill-rule="evenodd" clip-rule="evenodd" d="M103.017 113.337C96.6667 115.006 90.0667 115.705 83.2188 115.432C89.6176 114.242 96.2165 113.543 103.017 113.337Z" fill="#326E72"/>
<path fill-rule="evenodd" clip-rule="evenodd" d="M68.6304 115.432C72.1036 115.432 75.577 115.432 79.0503 115.432C79.0503 118.923 79.0503 122.415 79.0503 125.906C78.0326 122.987 77.6853 119.845 78.0083 116.479C75.2296 116.479 72.451 116.479 69.6724 116.479C68.9777 116.479 68.6304 116.13 68.6304 115.432Z" fill="#4F6375"/>
<path fill-rule="evenodd" clip-rule="evenodd" d="M275.986 124.859C275.986 124.16 275.986 123.462 275.986 122.764C275.559 116.352 276.08 110.068 277.549 103.91C277.723 107.401 277.896 110.893 278.07 114.384C278.056 118.301 277.362 121.792 275.986 124.859Z" fill="#31116B"/>
<path fill-rule="evenodd" clip-rule="evenodd" d="M277.028 81.9133C277.44 91.2126 278.482 100.29 280.154 109.147C280.154 109.496 280.154 109.846 280.154 110.194C280.701 121.727 281.395 133.249 282.238 144.76C280.787 140.103 279.745 135.216 279.112 130.096C278.076 135.991 277.727 141.926 278.07 147.903C277.047 144.276 276.7 140.435 277.028 136.381C277.213 132.469 276.866 128.628 275.986 124.859C277.362 121.792 278.056 118.301 278.07 114.384C277.896 110.893 277.723 107.401 277.549 103.91C276.08 110.068 275.559 116.352 275.986 122.764C275.639 122.764 275.291 122.764 274.944 122.764C273.734 111.627 273.039 100.454 272.86 89.2455C273.501 94.0574 274.37 98.9459 275.465 103.91C275.644 96.3901 276.165 89.058 277.028 81.9133Z" fill="#1D204C"/>
<path fill-rule="evenodd" clip-rule="evenodd" d="M274.945 122.764C275.292 122.764 275.64 122.764 275.987 122.764C275.987 123.462 275.987 124.16 275.987 124.859C276.866 128.628 277.213 132.469 277.029 136.38C275.41 132.121 274.716 127.582 274.945 122.764Z" fill="#2B6C66"/>
<path fill-rule="evenodd" clip-rule="evenodd" d="M162.41 140.57C156.482 140.604 150.578 140.954 144.696 141.618C135.926 142.043 127.242 141.519 118.646 140.047C127.35 139.871 136.034 139.347 144.696 138.476C142.124 137.776 139.693 137.077 137.402 136.381C145.749 136.23 154.085 135.881 162.41 135.333C162.41 137.079 162.41 138.824 162.41 140.57Z" fill="#2C1260"/>
<path fill-rule="evenodd" clip-rule="evenodd" d="M280.154 110.194C282.127 122.174 283.169 134.395 283.28 146.855C282.407 146.497 282.059 145.799 282.238 144.76C281.395 133.249 280.701 121.727 280.154 110.194Z" fill="#8DA3AF"/>
<path fill-rule="evenodd" clip-rule="evenodd" d="M69.6728 116.479C72.4515 116.479 75.2301 116.479 78.0087 116.479C77.6857 119.845 78.033 122.987 79.0507 125.906C79.398 131.492 79.7454 137.079 80.0927 142.665C70.4372 142.552 61.0593 143.6 51.959 145.808C51.6117 145.808 51.2643 145.808 50.917 145.808C51.3137 144.309 52.3557 143.436 54.043 143.189C62.0014 142.157 69.99 141.634 78.0087 141.618C77.9085 133.575 77.5612 125.544 76.9668 117.527C74.3 117.843 71.8687 117.493 69.6728 116.479Z" fill="#CDEEF0"/>
<path fill-rule="evenodd" clip-rule="evenodd" d="M162.41 140.571C156.72 141.866 150.815 142.565 144.696 142.665C144.696 142.317 144.696 141.967 144.696 141.618C150.578 140.954 156.482 140.604 162.41 140.571Z" fill="#429483"/>
<path fill-rule="evenodd" clip-rule="evenodd" d="M84.2606 133.238C85.2746 135.802 85.6219 138.596 85.3026 141.618C91.9182 140.968 98.5171 140.271 105.1 139.523C112.936 139.296 120.578 138.597 128.024 137.428C131.131 136.943 134.257 136.594 137.402 136.381C139.692 137.077 142.123 137.776 144.696 138.476C136.034 139.347 127.35 139.871 118.646 140.047C127.242 141.519 135.926 142.043 144.696 141.618C144.696 141.967 144.696 142.317 144.696 142.665C125.233 143.857 105.782 145.254 86.3446 146.855C87.0371 153.116 87.3845 159.4 87.3866 165.709C87.3866 167.455 87.3866 169.2 87.3866 170.946C89.1236 170.946 90.8595 170.946 92.5965 170.946C93.8657 171.639 95.2546 172.337 96.7645 173.041C93.3582 174.141 90.0582 173.791 86.8656 171.994C86.1466 163.273 85.6256 154.544 85.3026 145.808C88.0816 145.808 90.8595 145.808 93.6385 145.808C93.6385 144.76 93.6385 143.713 93.6385 142.665C99.3632 143.035 105.094 143.384 110.831 143.713C114.327 143.844 117.627 143.32 120.73 142.142C108.538 140.974 96.5551 141.847 84.7816 144.76C84.2621 140.935 84.0884 137.095 84.2606 133.238Z" fill="#1A1A4F"/>
<path fill-rule="evenodd" clip-rule="evenodd" d="M128.024 137.428C120.578 138.597 112.936 139.296 105.1 139.523C105.536 138.767 106.23 138.243 107.184 137.952C114.122 137.428 121.069 137.254 128.024 137.428Z" fill="#4EAC91"/>
<path fill-rule="evenodd" clip-rule="evenodd" d="M84.2602 133.238C84.088 137.095 84.2617 140.935 84.7812 144.76C96.5546 141.847 108.538 140.974 120.73 142.142C117.627 143.32 114.327 143.844 110.831 143.713C105.094 143.384 99.3628 143.035 93.6381 142.665C93.6381 143.713 93.6381 144.76 93.6381 145.808C90.8591 145.808 88.0812 145.808 85.3022 145.808C85.6252 154.544 86.1462 163.273 86.8652 171.994C90.0578 173.791 93.3578 174.141 96.7641 173.041C95.2542 172.337 93.8653 171.639 92.5961 170.946C97.1111 170.946 101.627 170.946 106.142 170.946C110.319 171.321 114.487 171.845 118.646 172.518C111.513 173.446 104.567 174.668 97.8061 176.184C97.4591 176.184 97.1111 176.184 96.7641 176.184C94.3331 176.184 91.9011 176.184 89.4701 176.184C88.3115 173.833 86.7489 173.833 84.7812 176.184C84.3498 175.705 83.8288 175.355 83.2182 175.136C79.7894 176.06 76.3161 176.758 72.7983 177.231C71.409 176.184 71.409 175.136 72.7983 174.089C76.1618 173.131 79.6351 172.783 83.2182 173.041C82.8709 166.757 82.5235 160.472 82.1762 154.187C82.1762 151.744 82.1762 149.299 82.1762 146.855C75.2267 147.077 68.28 147.427 61.3364 147.903C57.7797 147.885 54.6537 147.186 51.9585 145.808C60.6543 145.324 69.3375 144.625 78.0083 143.713C79.6752 143.766 81.2382 144.115 82.6972 144.76C81.4135 137.575 80.5452 130.243 80.0922 122.764C80.4395 120.32 80.7869 117.875 81.1342 115.432C81.9751 121.548 83.0171 127.484 84.2602 133.238Z" fill="#2C1363"/>
<path fill-rule="evenodd" clip-rule="evenodd" d="M50.9172 145.808C51.2645 145.808 51.6119 145.808 51.9592 145.808C54.6544 147.186 57.7804 147.885 61.3371 147.903C68.2807 147.427 75.2273 147.077 82.1769 146.855C82.1769 149.299 82.1769 151.744 82.1769 154.187C81.1751 152.338 80.8278 150.244 81.1349 147.903C75.0151 148.003 69.1104 148.702 63.4211 149.997C59.2387 150.171 55.0708 149.996 50.9172 149.474C49.5719 148.12 49.5719 146.899 50.9172 145.808Z" fill="#101637"/>
<path fill-rule="evenodd" clip-rule="evenodd" d="M82.1762 154.187C82.5235 160.472 82.8709 166.757 83.2182 173.041C79.6351 172.783 76.1619 173.131 72.7983 174.089C74.9834 172.013 77.7621 170.965 81.1342 170.946C80.6614 163.971 80.3141 156.988 80.0923 149.997C74.535 149.997 68.9777 149.997 63.4204 149.997C69.1098 148.702 75.0144 148.003 81.1342 147.903C80.8272 150.244 81.1745 152.339 82.1762 154.187Z" fill="#AECFD5"/>
<path fill-rule="evenodd" clip-rule="evenodd" d="M236.392 158.377C237.979 160.562 237.632 162.307 235.35 163.614C226.3 163.576 217.27 163.925 208.258 164.662C208.258 163.265 208.258 161.868 208.258 160.472C217.721 160.755 227.099 160.056 236.392 158.377Z" fill="#28115E"/>
<path fill-rule="evenodd" clip-rule="evenodd" d="M191.585 162.567C180.187 164.144 168.725 164.842 157.2 164.662C166.449 163.833 175.827 162.786 185.333 161.519C187.622 161.525 189.706 161.873 191.585 162.567Z" fill="#244C5D"/>
<path fill-rule="evenodd" clip-rule="evenodd" d="M236.391 158.377C227.099 160.056 217.721 160.755 208.258 160.472C208.258 161.868 208.258 163.265 208.258 164.662C217.27 163.925 226.3 163.577 235.349 163.614C226.16 164.954 216.782 165.478 207.216 165.185C205.916 163.658 205.916 162.087 207.216 160.472C215.576 159.622 223.912 158.575 232.224 157.33C233.833 157.341 235.222 157.69 236.391 158.377Z" fill="#24455C"/>
<path fill-rule="evenodd" clip-rule="evenodd" d="M191.586 162.567C192.941 164.017 192.941 165.588 191.586 167.28C188.129 167.802 184.656 167.977 181.166 167.804C174.904 167.63 168.652 167.805 162.41 168.328C161.83 168.729 161.483 169.253 161.368 169.899C156.747 170.504 155.358 168.758 157.2 164.662C168.725 164.842 180.187 164.144 191.586 162.567Z" fill="#27145D"/>
<path fill-rule="evenodd" clip-rule="evenodd" d="M282.238 144.76C282.059 145.799 282.407 146.497 283.28 146.855C283.006 151.15 283.353 155.339 284.322 159.424C284.544 166.415 284.891 173.399 285.364 180.373C284.307 183.878 282.223 186.672 279.112 188.753C277.804 188.794 276.762 188.27 275.986 187.182C277.365 186.327 278.059 185.105 278.07 183.516C278.417 182.817 278.765 182.12 279.112 181.421C280.71 179.186 281.405 176.567 281.196 173.565C280.868 167.953 280.173 162.541 279.112 157.33C278.63 154.206 278.283 151.064 278.07 147.903C277.727 141.926 278.076 135.991 279.112 130.096C279.745 135.216 280.787 140.103 282.238 144.76Z" fill="#28125C"/>
<path fill-rule="evenodd" clip-rule="evenodd" d="M87.3862 165.709C88.3594 166.828 88.7075 168.224 88.4282 169.899C101.583 168.534 114.782 167.835 128.024 167.804C125.12 168.827 121.994 169.176 118.646 168.851C114.264 169.079 110.096 169.776 106.142 170.946C101.627 170.946 97.1111 170.946 92.5962 170.946C90.8592 170.946 89.1232 170.946 87.3862 170.946C87.3862 169.2 87.3862 167.455 87.3862 165.709Z" fill="#318D74"/>
<path fill-rule="evenodd" clip-rule="evenodd" d="M181.165 167.804C174.778 169.11 168.179 169.809 161.367 169.899C161.483 169.252 161.83 168.729 162.409 168.328C168.652 167.805 174.904 167.63 181.165 167.804Z" fill="#1B314D"/>
<path fill-rule="evenodd" clip-rule="evenodd" d="M135.318 171.994C128.998 172.244 122.746 171.72 116.562 170.423C117.516 170.131 118.21 169.608 118.646 168.851C121.994 169.176 125.12 168.827 128.024 167.804C133.906 166.875 139.811 166.7 145.738 167.28C147.223 169.076 146.876 170.472 144.696 171.47C141.589 171.992 138.463 172.167 135.318 171.994Z" fill="#29155E"/>
<path fill-rule="evenodd" clip-rule="evenodd" d="M118.646 168.852C118.211 169.608 117.517 170.132 116.562 170.423C122.747 171.721 128.999 172.244 135.318 171.994C123.051 174.197 110.547 175.594 97.8066 176.184C104.567 174.668 111.514 173.446 118.646 172.518C114.488 171.845 110.32 171.321 106.143 170.946C110.097 169.776 114.265 169.079 118.646 168.852Z" fill="#1D2851"/>
<path fill-rule="evenodd" clip-rule="evenodd" d="M284.323 159.425C286.288 166.356 286.635 173.338 285.365 180.374C284.892 173.399 284.545 166.415 284.323 159.425Z" fill="#829CA9"/>
<path fill-rule="evenodd" clip-rule="evenodd" d="M279.113 157.33C280.174 162.541 280.869 167.953 281.197 173.565C281.406 176.567 280.711 179.186 279.113 181.421C279.113 173.39 279.113 165.36 279.113 157.33Z" fill="#31706D"/>
<path fill-rule="evenodd" clip-rule="evenodd" d="M89.4703 176.184C91.9013 176.184 94.3333 176.184 96.7642 176.184C94.9251 177.19 92.8411 177.54 90.5123 177.231C90.9603 184.245 91.6553 191.227 92.5963 198.18C89.9173 191.227 88.8753 183.895 89.4703 176.184Z" fill="#338374"/>
<path fill-rule="evenodd" clip-rule="evenodd" d="M88.4285 200.275C86.7885 198.597 86.0938 196.502 86.3445 193.99C86.0025 188.36 86.3499 182.774 87.3865 177.231C88.0857 184.099 89.1277 190.908 90.5125 197.656C90.3208 199.098 89.6258 199.97 88.4285 200.275Z" fill="#321368"/>
<path fill-rule="evenodd" clip-rule="evenodd" d="M278.071 183.516C278.06 185.105 277.366 186.327 275.987 187.182C276.762 188.27 277.804 188.794 279.113 188.753C278.235 190.505 276.846 191.728 274.945 192.419C271.348 193.346 267.874 194.218 264.525 195.038C248.909 196.275 233.279 197.322 217.636 198.18C235.229 196.101 252.943 194.18 270.777 192.419C268.736 191.271 266.479 190.747 264.004 190.848C249.996 192.573 235.929 193.62 221.804 193.99C236.854 191.709 252.137 190.138 267.651 189.277C271.857 188.582 275.33 186.662 278.071 183.516Z" fill="#1A194C"/>
<path fill-rule="evenodd" clip-rule="evenodd" d="M212.425 193.99C207.82 195.532 202.957 196.23 197.837 196.085C202.402 194.293 207.264 193.595 212.425 193.99Z" fill="#1B3B50"/>
<path fill-rule="evenodd" clip-rule="evenodd" d="M217.635 198.18C206.527 198.982 195.412 199.157 184.291 198.704C188.996 198.061 193.511 197.187 197.837 196.085C202.957 196.23 207.82 195.532 212.425 193.99C215.551 193.99 218.677 193.99 221.803 193.99C235.928 193.62 249.995 192.573 264.003 190.848C266.478 190.747 268.735 191.271 270.776 192.419C252.942 194.18 235.228 196.101 217.635 198.18Z" fill="#2E1267"/>
<path fill-rule="evenodd" clip-rule="evenodd" d="M197.838 196.085C193.511 197.187 188.997 198.061 184.292 198.704C195.413 199.157 206.528 198.982 217.636 198.18C200.806 200.355 183.787 202.101 166.578 203.417C165.147 203.582 163.757 203.407 162.41 202.894C168.678 202.333 174.93 201.636 181.166 200.799C175.455 199.281 169.55 198.757 163.452 199.228C174.684 197.277 186.146 196.23 197.838 196.085Z" fill="#1C1E4A"/>
<path fill-rule="evenodd" clip-rule="evenodd" d="M163.452 199.227C169.55 198.757 175.455 199.281 181.166 200.799C174.93 201.636 168.678 202.333 162.41 202.894C163.757 203.407 165.147 203.582 166.578 203.417C153.91 204.827 141.059 205.875 128.024 206.56C124.743 206.862 121.617 206.339 118.646 204.988C127.881 203.884 136.91 202.313 145.738 200.275C151.637 199.849 157.542 199.5 163.452 199.227Z" fill="#27155C"/>
<path fill-rule="evenodd" clip-rule="evenodd" d="M264.525 195.038C263.37 195.865 261.981 196.389 260.357 196.609C218.311 200.571 176.284 204.761 134.276 209.178C122.655 210.6 111.193 210.773 99.8906 209.702C109.588 210.176 118.966 209.129 128.024 206.56C141.059 205.874 153.909 204.827 166.578 203.417C183.786 202.101 200.806 200.354 217.636 198.18C233.279 197.322 248.909 196.275 264.525 195.038Z" fill="#A7CCCE"/>
<path fill-rule="evenodd" clip-rule="evenodd" d="M89.4702 176.184C88.8752 183.895 89.9172 191.227 92.5962 198.18C93.4693 198.538 93.8174 199.236 93.6381 200.275C91.9866 200.801 91.4656 201.848 92.0752 203.417C93.7205 205.032 95.6315 206.254 97.8061 207.083C103.741 207.953 109.646 207.778 115.52 206.56C110.501 205.861 105.639 205.162 100.932 204.465C115.872 203.126 130.807 201.729 145.738 200.275C136.91 202.313 127.88 203.885 118.646 204.989C121.617 206.339 124.743 206.862 128.024 206.56C118.966 209.129 109.588 210.177 99.8901 209.702C94.5103 208.485 90.6904 205.343 88.4282 200.275C89.6254 199.97 90.3204 199.098 90.5122 197.656C89.1274 190.908 88.0854 184.099 87.3862 177.231C86.3496 182.774 86.0022 188.36 86.3442 193.99C85.2057 188.956 84.511 183.719 84.2602 178.279C80.2263 178.609 76.4056 178.26 72.7983 177.231C76.3161 176.758 79.7895 176.06 83.2182 175.136C83.8288 175.355 84.3498 175.705 84.7812 176.184C86.7489 173.833 88.3115 173.833 89.4702 176.184Z" fill="#242352"/>
<path fill-rule="evenodd" clip-rule="evenodd" d="M93.6386 200.275C95.5215 202.449 97.9535 203.846 100.933 204.465C105.639 205.162 110.501 205.861 115.52 206.56C109.647 207.778 103.742 207.953 97.8065 207.083C95.6319 206.254 93.7209 205.031 92.0756 203.417C91.466 201.848 91.987 200.801 93.6386 200.275Z" fill="#2A1465"/>
</g>
<defs>
<clipPath id="clip0_42_3923">
<rect width="245" height="213" fill="white" transform="translate(47)"/>
</clipPath>
</defs>
</svg>
