<svg width="340" height="317" viewBox="0 0 340 317" fill="none" xmlns="http://www.w3.org/2000/svg">
<ellipse cx="158.499" cy="260.5" rx="157.553" ry="56.5" fill="#A3F5D2"/>
<ellipse cx="158.499" cy="239.5" rx="157.553" ry="56.5" fill="#A3F5D2"/>
<ellipse cx="158.499" cy="243.5" rx="157.553" ry="67.5" fill="#A3F5D2"/>
<ellipse cx="159.522" cy="235.5" rx="157.553" ry="67.5" fill="#A3F5D2"/>
<ellipse cx="277.175" cy="218.5" rx="48.0844" ry="77.5" fill="#A3F5D2"/>
<g clip-path="url(#clip0_42_3930)">
<path fill-rule="evenodd" clip-rule="evenodd" d="M49.1326 6.40634C41.7034 5.3837 34.3781 4.47882 27.1567 3.69161C34.8348 2.40681 42.1601 3.31171 49.1326 6.40634Z" fill="#1E1F3B"/>
<path fill-rule="evenodd" clip-rule="evenodd" d="M27.1565 3.69165C34.3779 4.47886 41.7032 5.38374 49.1324 6.40637C52.5127 8.07475 55.5648 10.1863 58.289 12.7407C60.7526 15.0379 62.7366 17.7527 64.2408 20.8849C66.626 25.0923 67.9995 29.6168 68.3613 34.4585C124.285 35.8243 180.445 36.8801 236.843 37.6257C180.733 37.1837 124.572 37.0328 68.3613 37.1732C68.3613 38.0782 68.3613 38.9831 68.3613 39.888C67.9224 45.1072 66.3964 49.9334 63.783 54.3665C61.0282 58.0145 57.9761 61.4833 54.6264 64.7729C53.1816 65.7634 51.6554 66.5174 50.0481 67.0352C47.4466 67.6901 45.0048 68.7458 42.7228 70.2024C40.6078 70.6518 38.4712 70.8026 36.3131 70.6548C35.0924 102.623 34.4819 134.898 34.4818 167.48C34.4819 200.062 35.0924 232.337 36.3131 264.305C36.8396 266.034 37.7553 267.543 39.0601 268.83C38.7549 269.433 38.4496 270.036 38.1445 270.639C37.8393 270.639 37.534 270.639 37.2288 270.639C35.0902 269.279 33.4114 267.469 32.1926 265.21C32.0396 200.207 31.5818 135.355 30.8192 70.6548C18.6 69.1428 9.44337 63.1102 3.34927 52.5567C2.60814 51.1352 2.30295 49.6269 2.43361 48.0321C1.04739 39.5152 1.35258 31.0695 3.34927 22.6947C4.17703 22.0531 4.48222 21.1482 4.26494 19.98C9.75461 11.6804 17.3852 6.251 27.1565 3.69165Z" fill="#26185C"/>
<path fill-rule="evenodd" clip-rule="evenodd" d="M26.241 29.0291C25.6305 29.0291 25.0201 29.0291 24.4097 29.0291C24.4097 27.2193 24.4097 25.4094 24.4097 23.5996C27.2753 23.4189 30.0223 22.8156 32.6506 21.7898C34.5352 20.493 36.6718 19.8898 39.0603 19.98C39.0603 31.7438 39.0603 43.5076 39.0603 55.2714C37.2289 55.2714 35.3976 55.2714 33.5663 55.2714C33.5663 46.2223 33.5663 37.1732 33.5663 28.1242C30.9242 27.8469 28.4824 28.1485 26.241 29.0291Z" fill="#F6FAF3"/>
<path fill-rule="evenodd" clip-rule="evenodd" d="M32.6504 55.2716C32.6504 46.5241 32.6504 37.7767 32.6504 29.0293C30.5138 29.0293 28.3772 29.0293 26.2407 29.0293C28.4822 28.1487 30.924 27.8471 33.566 28.1243C33.566 37.1734 33.566 46.2225 33.566 55.2716C35.3973 55.2716 37.2287 55.2716 39.06 55.2716C39.06 43.5078 39.06 31.744 39.06 19.9802C36.6715 19.89 34.535 20.4932 32.6504 21.79C34.3822 19.3723 36.824 18.4674 39.9757 19.0753C39.9757 31.4424 39.9757 43.8094 39.9757 56.1765C37.3336 56.4538 34.8918 56.1521 32.6504 55.2716Z" fill="#B5AFC6"/>
<path fill-rule="evenodd" clip-rule="evenodd" d="M58.2891 12.7407C59.8185 12.968 61.192 13.5712 62.4095 14.5505C65.3532 20.4209 67.6424 26.4537 69.277 32.6487C124.523 32.4979 179.768 32.6487 235.012 33.1012C239.111 33.6854 241.553 35.9476 242.337 39.888C240.635 37.761 238.499 36.102 235.928 34.911C180.073 34.4585 124.218 34.3077 68.3614 34.4585C67.9995 29.6168 66.626 25.0923 64.2409 20.8849C62.7366 17.7526 60.7527 15.0379 58.2891 12.7407Z" fill="#DAE8EF"/>
<path fill-rule="evenodd" clip-rule="evenodd" d="M3.34955 22.6948C1.35286 31.0696 1.04767 39.5153 2.43389 48.0322C1.77315 47.6544 1.31531 47.0511 1.06039 46.2224C0.449921 40.1897 0.449921 34.157 1.06039 28.1243C1.57884 26.113 2.34186 24.3032 3.34955 22.6948Z" fill="#17182B"/>
<path fill-rule="evenodd" clip-rule="evenodd" d="M68.3615 39.8879C123.912 39.8879 179.462 39.8879 235.012 39.8879C179.922 40.792 124.677 41.0936 69.2772 40.7928C69.2706 43.0894 68.9654 45.3517 68.3615 47.5797C68.6768 48.8149 69.2872 49.8707 70.1928 50.7468C69.4947 51.1184 68.5791 51.2692 67.4459 51.1993C66.8938 53.0737 65.6729 54.1295 63.7832 54.3665C66.3966 49.9334 67.9226 45.1072 68.3615 39.8879Z" fill="#FCFCFB"/>
<path fill-rule="evenodd" clip-rule="evenodd" d="M235.012 39.8879C235.928 40.4912 236.843 41.0945 237.759 41.6978C238.654 77.5708 238.959 113.465 238.675 149.382C236.778 152.176 235.252 155.192 234.096 158.431C229.301 165.79 224.723 173.33 220.362 181.054C217.384 185.165 214.484 189.387 211.663 193.722C210.675 196.042 210.217 198.454 210.289 200.962C209.462 201.603 209.157 202.508 209.374 203.676C207.346 208.861 206.126 214.29 205.711 219.965C205.711 220.266 205.711 220.568 205.711 220.87C203.807 226.661 203.045 232.693 203.422 238.968C204.977 239.788 206.657 240.089 208.458 239.873C211.205 237.459 213.952 235.047 216.699 232.633C224.292 226.793 231.77 220.76 239.133 214.535C239.743 230.522 239.743 246.508 239.133 262.495C238.281 264.352 236.908 265.71 235.012 266.567C169.695 267.171 104.377 267.171 39.0603 266.567C38.2541 265.927 37.6436 265.172 37.229 264.305C37.229 200.057 37.229 135.808 37.229 71.5597C40.66 71.6571 44.0175 71.2046 47.3013 70.2024C48.7258 69.5506 49.6415 68.495 50.0483 67.0352C51.6556 66.5174 53.1818 65.7633 54.6266 64.7729C57.9763 61.4833 61.0285 58.0145 63.7832 54.3665C65.673 54.1295 66.8938 53.0737 67.4459 51.1993C68.5791 51.2692 69.4948 51.1184 70.1929 50.7468C69.2872 49.8707 68.6768 48.8149 68.3615 47.5797C68.9654 45.3517 69.2706 43.0894 69.2772 40.7928C124.677 41.0936 179.922 40.792 235.012 39.8879Z" fill="#FDF8E8"/>
<path fill-rule="evenodd" clip-rule="evenodd" d="M312.843 42.6027C314.307 42.3604 315.528 42.662 316.506 43.5076C312.049 43.1618 307.776 43.7651 303.687 45.3174C304.035 44.0224 304.951 43.2683 306.434 43.0552C308.549 42.6058 310.685 42.4549 312.843 42.6027Z" fill="#80848F"/>
<path fill-rule="evenodd" clip-rule="evenodd" d="M24.4097 29.0291C25.0201 29.0291 25.6305 29.0291 26.241 29.0291C28.3775 29.0291 30.5141 29.0291 32.6506 29.0291C32.6506 37.7765 32.6506 46.5239 32.6506 55.2714C31.7408 46.9899 31.4356 38.5442 31.735 29.934C29.0929 30.2112 26.6511 29.9096 24.4097 29.0291Z" fill="#080717"/>
<path fill-rule="evenodd" clip-rule="evenodd" d="M237.759 41.6978C238.37 42.3011 238.979 42.9043 239.59 43.5076C239.894 78.953 239.589 114.244 238.674 149.382C238.958 113.465 238.653 77.5708 237.759 41.6978Z" fill="#DDDCE3"/>
<path fill-rule="evenodd" clip-rule="evenodd" d="M68.3613 34.4587C124.218 34.3078 180.073 34.4587 235.928 34.9111C238.499 36.1022 240.635 37.7611 242.337 39.8881C242.696 41.4074 243.154 42.9155 243.711 44.4127C243.864 76.2375 244.321 107.909 245.084 139.428C246.523 137.496 247.743 135.385 248.747 133.094C259.428 116.98 269.347 100.39 278.506 83.3237C281.558 79.1008 284.611 74.8779 287.663 70.655C289.011 66.783 290.843 63.1633 293.157 59.7961C296.499 54.7622 300.008 49.9359 303.687 45.3176C307.776 43.7653 312.049 43.162 316.506 43.5077C326.486 46.4676 330.453 53.1036 328.41 63.4157C330.984 66.4134 333.731 69.279 336.651 72.0124C337.78 75.4813 337.78 78.9501 336.651 82.4188C325.433 100.666 314.445 119.066 303.687 137.618C302.248 139.55 301.028 141.661 300.024 143.953C295.947 146.845 294.422 145.94 295.446 141.238C307.594 120.536 319.955 100.025 332.53 79.7041C333.057 78.0052 332.905 76.3461 332.072 74.7271C330.413 73.0877 328.735 71.4288 327.036 69.7501C313.221 92.2859 299.639 114.909 286.289 137.618C283.327 141.956 280.58 146.481 278.048 151.192C274.39 155.395 271.643 160.221 269.807 165.67C269.005 165.552 268.394 165.853 267.976 166.575C265.438 171.895 262.692 177.022 259.735 181.959C254.795 189.536 249.912 197.078 245.084 204.581C243.263 223.863 242.652 243.469 243.253 263.4C243.253 264.004 243.253 264.607 243.253 265.21C242.642 265.21 242.032 265.21 241.422 265.21C242.02 256.681 242.326 248.085 242.337 239.42C242.335 230.801 241.726 222.506 240.506 214.535C237.4 213.208 236.179 210.794 236.843 207.296C235.623 207.296 234.401 207.296 233.181 207.296C233.181 206.391 233.181 205.486 233.181 204.581C229.403 204.516 225.74 203.913 222.193 202.772C219.899 202.337 217.763 201.432 215.783 200.057C215.227 200.169 214.922 200.47 214.867 200.962C213.952 200.962 213.036 200.962 212.12 200.962C212.725 195.538 214.861 190.712 218.53 186.483C219.328 184.719 219.939 182.909 220.361 181.054C224.723 173.33 229.301 165.79 234.096 158.431C235.341 157.972 236.256 157.067 236.843 155.716C238.318 156.458 238.929 157.666 238.675 159.336C235.23 164.55 232.177 169.98 229.518 175.624C227.857 177.673 226.179 179.784 224.482 181.959C222.373 185.976 220.389 190.048 218.53 194.175C218.745 194.965 219.051 195.72 219.446 196.437C222.517 197.655 225.569 198.861 228.602 200.057C230.337 201.632 232.474 202.537 235.012 202.772C236.667 204.224 238.499 204.526 240.506 203.676C265.675 161.005 291.008 118.474 316.506 76.0844C316.069 75.1998 315.459 74.4457 314.675 73.8222C308.121 71.7228 302.016 68.8572 296.361 65.2255C280.122 92.1909 263.64 119.037 246.916 145.762C246.05 143.894 245.44 142.234 245.084 140.785C243.945 140.373 243.182 140.825 242.795 142.143C242.49 108.962 242.184 75.7828 241.879 42.6028C241.542 41.3269 240.78 40.422 239.59 39.8881C239.218 40.8451 239.218 42.0516 239.59 43.5077C238.98 42.9044 238.37 42.3012 237.759 41.6979C236.843 41.0946 235.928 40.4914 235.012 39.8881C179.461 39.8881 123.912 39.8881 68.3613 39.8881C68.3613 38.9832 68.3613 38.0783 68.3613 37.1734C124.572 37.033 180.733 37.1838 236.843 37.6258C180.445 36.8802 124.285 35.8244 68.3613 34.4587Z" fill="#271A53"/>
<path fill-rule="evenodd" clip-rule="evenodd" d="M315.59 48.9372C308.945 47.9579 304.672 50.6726 302.771 57.0814C305.051 58.5137 307.493 59.4186 310.096 59.7961C310.096 60.701 310.096 61.6059 310.096 62.5108C309.02 62.3127 308.105 62.6143 307.349 63.4157C309.782 64.1027 312.223 64.706 314.675 65.2256C315.525 66.3013 315.83 67.5079 315.59 68.8452C317.117 68.8452 318.642 68.8452 320.169 68.8452C320.828 65.7159 321.439 62.5487 322 59.3437C322.126 56.5345 321.515 53.9707 320.169 51.6519C323.213 53.2902 324.739 55.8541 324.747 59.3437C324.01 63.2983 322.484 66.9179 320.169 70.2025C318.289 70.4964 316.457 70.1947 314.675 69.2976C310.657 66.7091 306.384 64.5976 301.855 62.9633C300.661 62.2357 300.05 61.18 300.024 59.7961C301.529 55.4408 303.971 51.6704 307.349 48.4848C310.276 47.7568 313.023 47.9076 315.59 48.9372Z" fill="#E17857"/>
<path fill-rule="evenodd" clip-rule="evenodd" d="M315.59 48.9371C317.361 49.4894 318.888 50.3943 320.169 51.6519C321.516 53.9706 322.126 56.5345 322 59.3436C321.439 62.5487 320.828 65.7159 320.169 68.8451C318.642 68.8451 317.117 68.8451 315.59 68.8451C315.83 67.5078 315.525 66.3012 314.675 65.2255C312.223 64.7059 309.782 64.1027 307.349 63.4157C308.105 62.6142 309.02 62.3126 310.096 62.5108C310.096 61.6059 310.096 60.7009 310.096 59.796C307.493 59.4185 305.051 58.5136 302.771 57.0813C304.672 50.6726 308.945 47.9578 315.59 48.9371Z" fill="#FB7944"/>
<path fill-rule="evenodd" clip-rule="evenodd" d="M246.916 145.762C246.371 148.311 245.15 150.422 243.253 152.097C242.337 152.097 241.422 152.097 240.506 152.097C240.764 155.796 240.154 156.248 238.675 153.454C239.006 152.345 239.464 151.29 240.048 150.287C240.809 114.541 240.657 78.9478 239.59 43.5076C239.219 42.0514 239.219 40.8449 239.59 39.8879C240.78 40.4218 241.543 41.3267 241.88 42.6027C242.185 75.7827 242.49 108.962 242.795 142.143C243.183 140.825 243.945 140.373 245.084 140.785C245.44 142.234 246.05 143.894 246.916 145.762Z" fill="#281669"/>
<path fill-rule="evenodd" clip-rule="evenodd" d="M235.012 202.771C233.277 201.196 231.141 200.291 228.603 200.057C225.569 198.861 222.517 197.655 219.446 196.437C219.051 195.719 218.745 194.965 218.53 194.175C220.389 190.047 222.373 185.975 224.482 181.958C226.179 179.784 227.857 177.673 229.518 175.624C233.531 170.719 236.887 165.289 239.591 159.336C240.811 156.922 242.033 154.51 243.253 152.097C245.15 150.422 246.371 148.311 246.916 145.762C263.64 119.037 280.122 92.1907 296.362 65.2253C302.017 68.857 308.121 71.7226 314.675 73.822C315.46 74.4455 316.069 75.1996 316.506 76.0842C291.009 118.474 265.675 161.004 240.506 203.676C238.499 204.526 236.668 204.224 235.012 202.771Z" fill="#F97948"/>
<path fill-rule="evenodd" clip-rule="evenodd" d="M242.337 39.8879C243.58 40.8746 244.496 42.0811 245.084 43.5076C245.084 75.481 245.084 107.455 245.084 139.428C244.322 107.909 243.864 76.2373 243.711 44.4125C243.154 42.9153 242.696 41.4072 242.337 39.8879Z" fill="#484E62"/>
<path fill-rule="evenodd" clip-rule="evenodd" d="M213.036 76.9893C163.895 76.9893 114.755 76.9893 65.6143 76.9893C107.187 76.3838 148.85 75.7805 190.602 75.1794C198.17 75.7703 205.648 76.3737 213.036 76.9893Z" fill="#FDF7FE"/>
<path fill-rule="evenodd" clip-rule="evenodd" d="M65.6143 76.9893C114.755 76.9893 163.895 76.9893 213.036 76.9893C214.896 78.5721 215.202 80.3819 213.952 82.4187C164.543 83.4666 115.098 83.6173 65.6143 82.8712C64.0648 81.6037 63.4545 79.9446 63.783 77.8942C64.691 78.0494 65.3014 77.7478 65.6143 76.9893Z" fill="#2B2940"/>
<path fill-rule="evenodd" clip-rule="evenodd" d="M66.5301 77.8942C115.061 77.7434 163.591 77.8942 212.12 78.3467C212.887 79.2618 213.192 80.3175 213.036 81.5138C163.59 81.5138 114.145 81.5138 64.6987 81.5138C64.7235 79.9761 65.334 78.7696 66.5301 77.8942Z" fill="#271562"/>
<path fill-rule="evenodd" clip-rule="evenodd" d="M63.7829 77.8943C63.4544 79.9447 64.0648 81.6038 65.6143 82.8713C115.098 83.6175 164.543 83.4667 213.952 82.4188C189.389 83.6253 164.513 84.2285 139.325 84.2286C114.449 84.0778 89.5744 83.927 64.6986 83.7762C62.7131 81.9931 62.4079 80.0325 63.7829 77.8943Z" fill="#EBE9ED"/>
<path fill-rule="evenodd" clip-rule="evenodd" d="M239.59 43.5076C240.657 78.9478 240.809 114.541 240.048 150.287C239.464 151.29 239.006 152.345 238.675 153.454C240.153 156.248 240.764 155.796 240.506 152.097C241.421 152.097 242.337 152.097 243.253 152.097C242.032 154.51 240.811 156.922 239.59 159.336C239.285 159.336 238.979 159.336 238.675 159.336C238.929 157.665 238.318 156.458 236.843 155.716C236.256 157.067 235.341 157.972 234.096 158.431C235.252 155.192 236.778 152.176 238.675 149.382C239.589 114.244 239.894 78.953 239.59 43.5076Z" fill="#0F0C36"/>
<path fill-rule="evenodd" clip-rule="evenodd" d="M245.084 43.5076C245.998 73.2149 246.304 103.077 246 133.093C246.916 133.093 247.831 133.093 248.747 133.093C247.744 135.385 246.523 137.496 245.084 139.428C245.084 107.455 245.084 75.481 245.084 43.5076Z" fill="#F9F9FD"/>
<path fill-rule="evenodd" clip-rule="evenodd" d="M213.952 109.566C164.201 109.566 114.449 109.566 64.6986 109.566C64.4534 111.013 64.7586 112.219 65.6143 113.186C65.6143 113.487 65.6143 113.789 65.6143 114.091C65.3091 114.091 65.0038 114.091 64.6986 114.091C63.8183 112.493 63.5131 110.684 63.783 108.661C113.994 108.361 164.051 108.662 213.952 109.566Z" fill="#504D5B"/>
<path fill-rule="evenodd" clip-rule="evenodd" d="M213.952 109.566C215.172 110.772 215.172 111.979 213.952 113.186C164.572 114.086 115.126 114.388 65.6143 114.09C65.6143 113.789 65.6143 113.487 65.6143 113.186C64.7586 112.219 64.4534 111.013 64.6986 109.566C114.449 109.566 164.201 109.566 213.952 109.566Z" fill="#140E2E"/>
<path fill-rule="evenodd" clip-rule="evenodd" d="M65.6143 113.186C65.6143 112.281 65.6143 111.376 65.6143 110.471C114.449 110.471 163.285 110.471 212.12 110.471C212.12 111.376 212.12 112.281 212.12 113.186C163.285 113.186 114.449 113.186 65.6143 113.186Z" fill="#2C1B6C"/>
<path fill-rule="evenodd" clip-rule="evenodd" d="M213.952 113.186C189.389 114.392 164.513 114.995 139.325 114.995C114.296 114.995 89.4198 114.694 64.6987 114.09C65.0039 114.09 65.3092 114.09 65.6144 114.09C115.126 114.388 164.572 114.086 213.952 113.186Z" fill="#8C8794"/>
<path fill-rule="evenodd" clip-rule="evenodd" d="M36.3133 70.6548C36.3133 135.205 36.3133 199.755 36.3133 264.305C35.0925 232.337 34.482 200.062 34.4819 167.48C34.482 134.898 35.0925 102.622 36.3133 70.6548Z" fill="#231B3D"/>
<path fill-rule="evenodd" clip-rule="evenodd" d="M213.036 141.238C163.22 140.94 113.469 141.242 63.7832 142.143C63.7832 141.238 63.7832 140.333 63.7832 139.428C113.849 138.829 163.6 139.432 213.036 141.238Z" fill="#BCBAC5"/>
<path fill-rule="evenodd" clip-rule="evenodd" d="M213.036 141.238C215.439 142.774 215.439 144.433 213.036 146.215C163.895 146.818 114.755 146.818 65.6145 146.215C64.2073 145.21 63.5968 143.853 63.7832 142.143C113.469 141.242 163.22 140.94 213.036 141.238Z" fill="#201E3A"/>
<path fill-rule="evenodd" clip-rule="evenodd" d="M65.6143 142.143C114.755 142.143 163.895 142.143 213.036 142.143C213.036 143.047 213.036 143.952 213.036 144.857C163.895 144.857 114.755 144.857 65.6143 144.857C65.6143 143.952 65.6143 143.047 65.6143 142.143Z" fill="#2B1969"/>
<path fill-rule="evenodd" clip-rule="evenodd" d="M238.675 159.336C238.98 159.336 239.285 159.336 239.59 159.336C236.887 165.289 233.53 170.719 229.518 175.624C232.177 169.979 235.23 164.55 238.675 159.336Z" fill="#C67262"/>
<path fill-rule="evenodd" clip-rule="evenodd" d="M179.156 172.909C141.309 172.909 103.461 172.909 65.6143 172.909C84.2224 171.703 103.146 171.1 122.385 171.1C141.624 171.1 160.548 171.703 179.156 172.909Z" fill="#C0BBC8"/>
<path fill-rule="evenodd" clip-rule="evenodd" d="M65.6145 172.909C103.462 172.909 141.31 172.909 179.157 172.909C181.149 174.007 181.454 175.516 180.072 177.434C141.923 178.49 103.771 178.64 65.6145 177.886C63.2118 176.105 63.2118 174.446 65.6145 172.909Z" fill="#1C163B"/>
<path fill-rule="evenodd" clip-rule="evenodd" d="M66.5299 173.814C104.51 173.367 142.357 173.82 180.072 175.172C160.977 176.223 141.748 176.676 122.385 176.529C103.461 176.228 84.5383 175.925 65.6143 175.624C65.9464 175.006 66.2517 174.403 66.5299 173.814Z" fill="#2C196C"/>
<path fill-rule="evenodd" clip-rule="evenodd" d="M269.807 165.67C267.749 169.724 265.765 173.947 263.855 178.339C262.511 179.686 261.138 180.893 259.735 181.958C262.692 177.022 265.439 171.895 267.976 166.575C268.394 165.853 269.005 165.552 269.807 165.67Z" fill="#AAD6D1"/>
<path fill-rule="evenodd" clip-rule="evenodd" d="M50.0484 67.0352C49.6416 68.495 48.7259 69.5506 47.3014 70.2023C44.0176 71.2046 40.6601 71.6571 37.2291 71.5597C37.2291 135.808 37.2291 200.057 37.2291 264.305C36.9239 264.305 36.6187 264.305 36.3135 264.305C36.3135 199.755 36.3135 135.205 36.3135 70.6548C38.4715 70.8026 40.6081 70.6517 42.7231 70.2023C45.0051 68.7458 47.4469 67.69 50.0484 67.0352Z" fill="#EBE7F6"/>
<path fill-rule="evenodd" clip-rule="evenodd" d="M220.361 181.054C219.939 182.909 219.329 184.719 218.53 186.483C214.861 190.712 212.725 195.538 212.12 200.962C213.036 200.962 213.952 200.962 214.867 200.962C214.4 204.113 213.79 207.13 213.036 210.011C213.187 207.28 213.034 204.565 212.578 201.867C211.241 203.118 210.478 202.816 210.289 200.962C210.217 198.454 210.675 196.042 211.663 193.722C214.484 189.387 217.384 185.165 220.361 181.054Z" fill="#2C2047"/>
<path fill-rule="evenodd" clip-rule="evenodd" d="M228.603 200.057C231.141 200.291 233.277 201.196 235.012 202.771C232.474 202.537 230.338 201.632 228.603 200.057Z" fill="#8D535D"/>
<path fill-rule="evenodd" clip-rule="evenodd" d="M154.434 205.486C153.711 205.23 153.101 204.778 152.602 204.129C123.912 203.525 95.2206 203.525 66.5302 204.129C65.5902 204.593 64.6745 205.046 63.7832 205.486C63.8541 204.355 64.4645 203.601 65.6145 203.224C94.9157 202.62 124.217 202.62 153.518 203.224C154.207 203.831 154.513 204.585 154.434 205.486Z" fill="#EBEAED"/>
<path fill-rule="evenodd" clip-rule="evenodd" d="M154.434 205.486C154.729 207.497 154.118 209.157 152.602 210.463C123.756 211.215 95.0659 211.064 66.5302 210.011C95.1813 209.12 123.872 208.818 152.602 209.106C152.602 207.9 152.602 206.693 152.602 205.486C123.91 205.335 95.2197 205.486 66.5302 205.939C65.7242 207.166 65.419 208.523 65.6145 210.011C64.0458 208.984 63.4353 207.475 63.7832 205.486C64.6745 205.046 65.5901 204.593 66.5302 204.129C95.2206 203.525 123.912 203.525 152.602 204.129C153.101 204.778 153.711 205.23 154.434 205.486Z" fill="#30294F"/>
<path fill-rule="evenodd" clip-rule="evenodd" d="M66.53 210.011C66.2248 210.011 65.9196 210.011 65.6144 210.011C65.4189 208.523 65.7241 207.166 66.53 205.939C95.2196 205.486 123.91 205.335 152.602 205.486C152.602 206.692 152.602 207.9 152.602 209.106C123.872 208.818 95.1811 209.119 66.53 210.011Z" fill="#2A1B63"/>
<path fill-rule="evenodd" clip-rule="evenodd" d="M222.193 202.771C226.984 204.602 231.562 206.864 235.928 209.558C233.908 211.401 232.077 213.362 230.434 215.44C223.753 220.525 217.039 225.652 210.289 230.824C210.094 223.818 211.01 216.88 213.036 210.011C213.79 207.129 214.401 204.113 214.868 200.962C214.923 200.47 215.228 200.169 215.783 200.057C217.763 201.432 219.899 202.337 222.193 202.771Z" fill="#F39E64"/>
<path fill-rule="evenodd" clip-rule="evenodd" d="M209.374 203.676C210.465 209.517 209.244 214.947 205.711 219.965C206.126 214.29 207.346 208.86 209.374 203.676Z" fill="#36304F"/>
<path fill-rule="evenodd" clip-rule="evenodd" d="M30.8193 70.6548C31.582 135.355 32.0398 200.207 32.1928 265.21C33.4116 267.469 35.0904 269.278 37.229 270.639C37.8394 271.243 38.4498 271.846 39.0603 272.449C38.7551 272.449 38.4498 272.449 38.1446 272.449C33.8877 270.93 31.4459 267.914 30.8193 263.4C30.8193 231.125 30.8193 198.85 30.8193 166.575C30.8193 134.602 30.8193 102.628 30.8193 70.6548Z" fill="#A2C3CB"/>
<path fill-rule="evenodd" clip-rule="evenodd" d="M205.711 220.87C204.946 226.601 204.488 232.332 204.337 238.063C205.823 238.605 207.196 239.208 208.458 239.873C206.657 240.089 204.977 239.788 203.422 238.968C203.044 232.693 203.807 226.661 205.711 220.87Z" fill="#242138"/>
<path fill-rule="evenodd" clip-rule="evenodd" d="M210.289 200.962C210.478 202.816 211.241 203.118 212.578 201.867C213.034 204.565 213.187 207.28 213.036 210.011C211.01 216.88 210.094 223.818 210.289 230.824C217.039 225.652 223.753 220.525 230.434 215.44C231.893 215.06 233.267 214.457 234.554 213.63C235.012 213.932 235.47 214.234 235.928 214.535C232.485 216.302 229.738 218.866 227.687 222.227C226.29 223.14 224.764 223.593 223.108 223.584C223.108 224.489 223.108 225.394 223.108 226.299C222.145 226.164 221.23 226.314 220.361 226.752C221.056 227.986 220.598 229.042 218.988 229.919C218.706 229.188 218.248 228.584 217.615 228.109C216.743 229.507 216.438 231.015 216.699 232.633C213.952 235.047 211.205 237.459 208.458 239.873C207.196 239.209 205.823 238.605 204.337 238.063C204.488 232.332 204.946 226.601 205.711 220.87C205.711 220.568 205.711 220.266 205.711 219.965C209.244 214.947 210.465 209.518 209.374 203.676C209.157 202.508 209.461 201.603 210.289 200.962Z" fill="#22165A"/>
<path fill-rule="evenodd" clip-rule="evenodd" d="M245.085 204.581C245.388 224.344 245.082 243.95 244.169 263.4C243.864 263.4 243.558 263.4 243.253 263.4C242.653 243.469 243.263 223.863 245.085 204.581Z" fill="#1F2B44"/>
<path fill-rule="evenodd" clip-rule="evenodd" d="M240.506 214.535C241.725 222.506 242.335 230.801 242.337 239.42C242.326 248.085 242.02 256.681 241.421 265.21C240.669 267.226 239.448 267.83 237.759 267.02C238.703 265.934 239.466 264.727 240.048 263.4C240.506 247.115 240.659 230.826 240.506 214.535Z" fill="#26136A"/>
<path fill-rule="evenodd" clip-rule="evenodd" d="M222.193 202.771C225.74 203.913 229.403 204.516 233.181 204.581C233.181 205.486 233.181 206.391 233.181 207.296C234.402 207.296 235.623 207.296 236.844 207.296C236.18 210.794 237.4 213.208 240.506 214.535C240.659 230.826 240.506 247.115 240.048 263.4C239.467 264.727 238.703 265.934 237.759 267.02C239.449 267.83 240.669 267.226 241.422 265.21C242.033 265.21 242.642 265.21 243.253 265.21C241.045 268.021 238.298 270.283 235.012 271.997C169.695 272.449 104.378 272.601 39.0605 272.449C38.45 271.846 37.8396 271.243 37.2291 270.64C37.5343 270.64 37.8396 270.64 38.1448 270.64C104.075 270.941 170.003 270.64 235.928 269.735C170.308 268.83 104.686 268.528 39.0605 268.83C37.7556 267.543 36.84 266.035 36.3135 264.305C36.6187 264.305 36.9239 264.305 37.2291 264.305C37.6438 265.172 38.2542 265.927 39.0605 266.568C104.377 267.171 169.695 267.171 235.012 266.568C236.908 265.71 238.281 264.352 239.133 262.495C239.743 246.508 239.743 230.522 239.133 214.535C231.77 220.76 224.293 226.793 216.699 232.633C216.438 231.015 216.743 229.507 217.615 228.109C218.248 228.584 218.706 229.188 218.988 229.919C220.598 229.042 221.056 227.986 220.362 226.752C221.23 226.314 222.145 226.164 223.109 226.299C223.109 225.394 223.109 224.489 223.109 223.584C224.764 223.593 226.291 223.14 227.687 222.227C229.738 218.866 232.485 216.302 235.928 214.535C235.47 214.234 235.012 213.932 234.554 213.63C233.267 214.457 231.894 215.06 230.434 215.44C232.077 213.362 233.908 211.402 235.928 209.558C231.562 206.864 226.984 204.602 222.193 202.771Z" fill="#252549"/>
<path fill-rule="evenodd" clip-rule="evenodd" d="M39.0602 268.83C104.686 268.528 170.308 268.83 235.928 269.735C170.003 270.64 104.075 270.941 38.1445 270.64C38.4497 270.036 38.755 269.433 39.0602 268.83Z" fill="#351675"/>
</g>
<defs>
<clipPath id="clip0_42_3930">
<rect width="339" height="277" fill="white" transform="translate(1)"/>
</clipPath>
</defs>
</svg>
