<svg width="304" height="275" viewBox="0 0 304 275" fill="none" xmlns="http://www.w3.org/2000/svg">
<ellipse cx="95.9172" cy="95" rx="95.9172" ry="95" fill="#A4F5D2"/>
<ellipse cx="98.9172" cy="114" rx="95.9172" ry="95" fill="#A4F5D2"/>
<ellipse cx="117.931" cy="95" rx="95.9172" ry="95" fill="#A4F5D2"/>
<ellipse cx="137.848" cy="160" rx="95.9172" ry="95" fill="#A4F5D2"/>
<ellipse cx="208.083" cy="174" rx="95.9172" ry="95" fill="#A4F5D2"/>
<ellipse cx="163.007" cy="177.5" rx="95.9172" ry="97.5" fill="#A4F5D2"/>
<g clip-path="url(#clip0_42_3921)">
<path fill-rule="evenodd" clip-rule="evenodd" d="M58.3076 2.88395C60.1555 2.26419 62.1851 1.95248 64.3967 1.9488C67.9398 1.83578 71.2185 2.45921 74.2329 3.81911C68.9516 3.14611 63.6432 2.8344 58.3076 2.88395Z" fill="#4B5A76"/>
<path fill-rule="evenodd" clip-rule="evenodd" d="M94.8418 20.6519C97.2286 23.9212 98.4777 27.6619 98.5889 31.8737C96.9956 28.3414 95.7466 24.6008 94.8418 20.6519Z" fill="#0F1832"/>
<path fill-rule="evenodd" clip-rule="evenodd" d="M234.422 31.8736C235.162 32.1381 235.786 32.6057 236.296 33.2764C235.085 33.7346 233.835 33.8905 232.549 33.744C193.049 32.9653 153.393 32.4977 113.578 32.3412C153.858 31.8736 194.14 31.7178 234.422 31.8736Z" fill="#2F1B70"/>
<path fill-rule="evenodd" clip-rule="evenodd" d="M233.485 30.0034C238.199 30.553 242.883 31.3323 247.537 32.3413C276.881 42.455 293.119 62.8726 296.25 93.5939C296.56 115.264 296.248 136.773 295.313 158.119C295.678 133.782 295.21 109.468 293.908 85.1775C293.287 81.2931 292.195 77.5525 290.629 73.9556C290.317 74.7349 290.004 75.5143 289.692 76.2935C290.547 79.862 291.328 83.4467 292.034 87.0478C292.503 111.671 292.659 136.298 292.503 160.925C291.656 160.262 291.344 159.327 291.566 158.119C291.722 135.362 291.566 112.606 291.098 89.8533C290.971 84.6452 289.566 79.9694 286.882 75.8259C281.034 58.7688 269.792 46.9235 253.158 40.2901C249.841 38.6674 246.406 37.4205 242.853 36.5495C241.175 35.7929 239.301 35.3253 237.233 35.1468C195.703 34.6792 154.173 34.5233 112.641 34.6792C152.451 33.7452 192.42 33.4336 232.549 33.744C233.835 33.8906 235.085 33.7347 236.296 33.2765C235.786 32.6058 235.161 32.1382 234.422 31.8737C234.11 31.2503 233.797 30.6269 233.485 30.0034Z" fill="#1E1648"/>
<path fill-rule="evenodd" clip-rule="evenodd" d="M110.767 35.6142C111.087 34.8304 111.711 34.5186 112.641 34.6791C154.173 34.5232 195.703 34.6791 237.233 35.1466C239.301 35.3252 241.175 35.7927 242.853 36.5494C198.837 35.6518 154.808 35.3401 110.767 35.6142Z" fill="#5D5770"/>
<path fill-rule="evenodd" clip-rule="evenodd" d="M109.83 35.6143C110.142 35.6143 110.455 35.6143 110.767 35.6143C154.808 35.3402 198.837 35.6518 242.853 36.5494C246.407 37.4204 249.841 38.6673 253.158 40.29C246.976 38.9038 240.731 37.8129 234.422 37.017C193.829 36.3935 153.234 36.3935 112.641 37.017C108.466 37.2642 104.407 38.0436 100.463 39.3549C99.9468 41.3718 99.3224 43.2421 98.589 44.9658C98.3376 42.5162 98.6498 40.1784 99.5257 37.9521C103.13 37.3598 106.565 36.5805 109.83 35.6143Z" fill="#F8F5F8"/>
<path fill-rule="evenodd" clip-rule="evenodd" d="M109.83 35.6143C106.565 36.5806 103.13 37.3598 99.5257 37.9521C98.6498 40.1784 98.3375 42.5163 98.5889 44.9658C97.6403 49.6641 95.4544 53.7165 92.0314 57.1228C91.7514 55.1552 92.0636 53.2849 92.9682 51.5119C94.7782 50.9082 95.8711 49.6614 96.2469 47.7713C96.5871 43.6884 96.5871 39.636 96.2469 35.6143C100.577 35.7167 105.104 35.7167 109.83 35.6143Z" fill="#21194A"/>
<path fill-rule="evenodd" clip-rule="evenodd" d="M253.158 40.2902C269.793 46.9236 281.034 58.7689 286.882 75.826C287.291 81.9555 288.384 87.2547 290.161 91.7236C290.878 115.428 290.722 139.118 289.693 162.795C288.773 165.847 288.148 168.965 287.819 172.147C280.214 190.768 266.787 203.237 247.537 209.553C246.913 209.553 246.601 209.864 246.601 210.488C241.913 210.852 237.229 211.319 232.549 211.891C205.382 212.202 178.216 212.515 151.049 212.826C148.671 215.042 146.485 217.38 144.492 219.84C137.157 226.381 130.288 233.395 123.882 240.881C121.843 242.005 119.657 242.472 117.325 242.283C117.06 241.546 116.591 240.922 115.92 240.413C115.608 231.373 115.295 222.334 114.983 213.294C109.299 211.455 103.522 209.896 97.6524 208.618C84.3323 201.869 74.0278 191.894 66.7387 178.693C65.8464 175.043 64.4412 171.614 62.5231 168.406C62.0608 166.878 61.9047 165.319 62.0547 163.73C60.8776 142.541 60.8776 121.344 62.0547 100.14C62.7513 98.7457 63.3759 97.343 63.9283 95.9318C63.4599 95.4643 62.9915 94.9967 62.5231 94.5291C62.367 92.5026 62.2109 90.4771 62.0547 88.4506C63.3221 83.7871 63.9467 78.9554 63.9283 73.9557C64.7135 73.6362 65.0258 73.0127 64.8651 72.0854C68.2932 72.4045 71.4158 71.781 74.2329 70.2151C81.7614 67.9969 87.6945 63.6329 92.0318 57.123C95.4548 53.7167 97.6406 49.6643 98.5892 44.966C99.3226 43.2423 99.9471 41.372 100.463 39.355C104.408 38.0438 108.467 37.2644 112.641 37.0172C153.235 36.3937 193.829 36.3937 234.423 37.0172C240.731 37.8131 246.976 38.904 253.158 40.2902Z" fill="#FDF8E8"/>
<path fill-rule="evenodd" clip-rule="evenodd" d="M32.0775 46.8362C33.5519 48.3339 34.1765 50.2042 33.9511 52.4471C32.4767 50.9494 31.8522 49.0791 32.0775 46.8362Z" fill="#5C7981"/>
<path fill-rule="evenodd" clip-rule="evenodd" d="M58.3077 2.884C63.6432 2.83445 68.9516 3.14617 74.2329 3.81916C76.5149 5.10125 79.0131 6.03641 81.7272 6.62462C85.6936 9.08632 89.1285 12.2035 92.0318 15.9762C93.2042 17.3797 94.141 18.9383 94.8421 20.6519C95.747 24.6009 96.996 28.3415 98.5893 31.8738C103.159 32.9865 107.843 32.8306 112.641 31.4062C152.456 31.2497 192.113 30.7822 231.612 30.0035C232.237 30.0035 232.861 30.0035 233.486 30.0035C233.798 30.6269 234.111 31.2503 234.423 31.8738C194.14 31.7179 153.858 31.8738 113.578 32.3413C153.393 32.4978 193.05 32.9654 232.549 33.7441C192.42 33.4336 152.451 33.7453 112.641 34.6792C111.712 34.5188 111.088 34.8305 110.767 35.6144C110.455 35.6144 110.143 35.6144 109.831 35.6144C105.105 35.7168 100.577 35.7168 96.2473 35.6144C96.5875 39.6361 96.5875 43.6885 96.2473 47.7714C95.8715 49.6615 94.7785 50.9083 92.9686 51.512C92.064 53.285 91.7518 55.1553 92.0318 57.1229C87.6945 63.6329 81.7615 67.9969 74.2329 70.2151C70.9168 70.4513 67.7942 71.0747 64.8651 72.0854C63.9322 72.0051 63.1516 72.3169 62.5232 73.0205C60.8176 79.1563 59.5685 85.3906 58.776 91.7236C57.9991 111.833 58.1552 131.783 59.2444 151.573C59.2087 155.186 59.521 158.77 60.1812 162.328C59.795 166.408 58.8582 166.564 57.3709 162.795C56.331 138.809 56.1749 114.806 56.9025 90.7884C57.3992 85.0641 58.4921 79.4532 60.1812 73.9557C60.1412 73.0987 59.8289 72.4752 59.2444 72.0854C57.9162 70.3947 56.0426 69.7712 53.6237 70.2151C48.2005 68.2817 43.5166 65.1646 39.572 60.8635C37.4537 58.1844 35.5801 55.3789 33.9513 52.4471C34.1767 50.2043 33.5522 48.334 32.0778 46.8362C31.1856 41.6229 30.8733 36.3238 31.141 30.9386C32.2318 27.8908 33.1686 24.7736 33.9513 21.5871C39.0856 11.4737 47.2044 5.23928 58.3077 2.884Z" fill="#27175E"/>
<path fill-rule="evenodd" clip-rule="evenodd" d="M77.0433 50.5769C77.9503 52.5476 78.2626 54.7296 77.9801 57.123C69.3784 57.4284 60.9474 57.1167 52.687 56.1878C60.977 56.4931 69.0958 56.1813 77.0433 55.2527C77.0433 53.6941 77.0433 52.1355 77.0433 50.5769Z" fill="#373259"/>
<path fill-rule="evenodd" clip-rule="evenodd" d="M52.6868 51.512C52.6868 52.7588 52.6868 54.0057 52.6868 55.2526C60.8056 55.2526 68.9243 55.2526 77.0431 55.2526C69.0955 56.1812 60.9767 56.493 52.6868 56.1877C51.4377 54.6291 51.4377 53.0706 52.6868 51.512Z" fill="#9C97B0"/>
<path fill-rule="evenodd" clip-rule="evenodd" d="M62.9912 48.7065C67.6751 49.33 72.3591 49.9534 77.043 50.5769C71.6982 50.8843 66.3897 50.5726 61.1177 49.6417C61.5457 48.8959 62.1702 48.5841 62.9912 48.7065Z" fill="#434151"/>
<path fill-rule="evenodd" clip-rule="evenodd" d="M67.6755 18.7817C75.1053 20.5047 77.7595 25.1805 75.6381 32.809C70.8657 37.722 66.6502 43.0212 62.9916 48.7066C62.1706 48.5842 61.546 48.896 61.118 49.6418C66.39 50.5726 71.6985 50.8844 77.0433 50.5769C77.0433 52.1355 77.0433 53.694 77.0433 55.2527C68.9245 55.2527 60.8058 55.2527 52.687 55.2527C52.687 54.0058 52.687 52.7589 52.687 51.5121C58.3689 44.8531 63.8336 37.9953 69.0807 30.9387C70.3338 26.4231 68.6164 24.2411 63.9284 24.3926C59.8123 24.4294 57.9388 26.6115 58.3077 30.9387C56.1219 30.9387 53.936 30.9387 51.7502 30.9387C51.7223 25.0471 54.5326 21.3065 60.1812 19.7168C62.6132 19.0012 65.1113 18.6894 67.6755 18.7817Z" fill="#F4F4F3"/>
<path fill-rule="evenodd" clip-rule="evenodd" d="M231.612 30.0035C192.112 30.7822 152.456 31.2498 112.641 31.4063C107.842 32.8307 103.159 32.9866 98.5889 31.8738C102.074 31.8138 105.508 31.3462 108.893 30.4711C149.798 30.0035 190.704 29.8476 231.612 30.0035Z" fill="#04072B"/>
<path fill-rule="evenodd" clip-rule="evenodd" d="M67.6754 18.7815C65.1112 18.6892 62.6131 19.001 60.1812 19.7167C61.1103 18.2892 62.5155 17.6657 64.3967 17.8464C65.6938 17.8597 66.7868 18.1714 67.6754 18.7815Z" fill="#9993A6"/>
<path fill-rule="evenodd" clip-rule="evenodd" d="M74.2326 70.2151C71.4155 71.781 68.2929 72.4045 64.8647 72.0854C67.7938 71.0747 70.9164 70.4513 74.2326 70.2151Z" fill="#9491A3"/>
<path fill-rule="evenodd" clip-rule="evenodd" d="M295.313 158.119C295.546 161.821 294.921 165.249 293.44 168.406C292.322 167.967 291.697 167.031 291.566 165.601C291.78 164.004 292.092 162.445 292.503 160.925C292.659 136.298 292.503 111.671 292.034 87.0477C291.328 83.4466 290.547 79.8619 289.692 76.2935C290.004 75.5142 290.317 74.7348 290.629 73.9556C292.195 77.5524 293.287 81.2931 293.908 85.1774C295.21 109.468 295.678 133.782 295.313 158.119Z" fill="#23135F"/>
<path fill-rule="evenodd" clip-rule="evenodd" d="M63.9282 73.9556C63.9466 78.9553 63.322 83.7869 62.0546 88.4504C62.2108 90.4769 62.3669 92.5025 62.523 94.5289C62.9914 94.9965 63.4598 95.4641 63.9282 95.9317C63.3758 97.3428 62.7512 98.7456 62.0546 100.14C60.8775 121.344 60.8775 142.541 62.0546 163.73C61.2967 162.055 60.8283 160.184 60.6495 158.119C60.1811 136.613 60.025 115.104 60.1811 93.5938C60.3988 86.7357 61.6479 80.1896 63.9282 73.9556Z" fill="#E7E5E8"/>
<path fill-rule="evenodd" clip-rule="evenodd" d="M178.216 107.621C173.674 107.782 169.302 108.717 165.101 110.427C169.027 107.14 173.399 106.205 178.216 107.621Z" fill="#69627B"/>
<path fill-rule="evenodd" clip-rule="evenodd" d="M234.422 108.556C229.68 108.345 224.996 108.657 220.371 109.491C222.344 107.479 224.843 106.544 227.865 106.686C230.352 106.63 232.538 107.254 234.422 108.556Z" fill="#4D4365"/>
<path fill-rule="evenodd" clip-rule="evenodd" d="M126.693 107.621C122.275 107.945 117.903 108.569 113.578 109.492C117.724 106.871 122.095 106.247 126.693 107.621Z" fill="#655E7A"/>
<path fill-rule="evenodd" clip-rule="evenodd" d="M126.692 107.621C140.909 113.235 144.188 122.586 136.529 135.676C134.562 137.824 132.22 139.383 129.503 140.351C124.778 140.657 120.094 140.346 115.451 139.416C112.58 136.854 109.769 134.36 107.02 131.935C105.771 126.948 105.771 121.96 107.02 116.973C108.541 113.896 110.727 111.402 113.578 109.491C117.903 108.568 122.275 107.945 126.692 107.621Z" fill="#28185F"/>
<path fill-rule="evenodd" clip-rule="evenodd" d="M178.215 107.621C184.241 108.961 188.613 112.39 191.33 117.908C192.769 123.313 192.457 128.612 190.394 133.805C188.434 137.001 185.624 139.183 181.963 140.351C176.981 141.447 171.985 141.447 166.974 140.351C159.008 135.491 156.197 128.633 158.543 119.778C160.026 117.755 161.275 115.574 162.29 113.232C163.045 112.084 163.982 111.148 165.101 110.427C169.302 108.717 173.674 107.782 178.215 107.621Z" fill="#27175E"/>
<path fill-rule="evenodd" clip-rule="evenodd" d="M56.4341 82.3721C55.5475 107.603 55.2353 132.853 55.4973 158.12C54.5631 138.019 54.2507 117.758 54.5605 97.3345C54.238 92.0995 54.8625 87.1117 56.4341 82.3721Z" fill="#3C4F5F"/>
<path fill-rule="evenodd" clip-rule="evenodd" d="M234.422 108.556C236.36 109.375 238.233 110.465 240.043 111.829C241.283 112.593 241.906 113.684 241.917 115.102C241.568 117.461 242.349 119.331 244.259 120.713C244.725 123.502 244.882 126.308 244.727 129.13C243.311 134.284 240.188 138.025 235.359 140.352C230.363 141.598 225.367 141.598 220.371 140.352C217.56 139.416 215.687 137.546 214.75 134.741C215.232 132.859 215.387 130.989 215.218 129.13C214.906 128.818 214.594 128.506 214.282 128.195C213.993 128.95 213.525 129.574 212.876 130.065C211.79 128.526 211.165 126.812 211.003 124.922C211.738 121.202 212.675 117.617 213.813 114.167C215.734 112.253 217.919 110.694 220.371 109.492C224.997 108.657 229.68 108.345 234.422 108.556Z" fill="#27185F"/>
<path fill-rule="evenodd" clip-rule="evenodd" d="M286.882 75.8259C289.566 79.9694 290.971 84.6452 291.098 89.8532C291.566 112.606 291.723 135.362 291.566 158.119C290.675 159.446 290.363 161.004 290.629 162.795C290.318 162.795 290.005 162.795 289.693 162.795C290.722 139.118 290.878 115.428 290.161 91.7235C288.384 87.2546 287.291 81.9554 286.882 75.8259Z" fill="#DDD6E0"/>
<path fill-rule="evenodd" clip-rule="evenodd" d="M162.29 113.232C161.275 115.574 160.026 117.756 158.543 119.778C158.594 116.866 159.843 114.684 162.29 113.232Z" fill="#524D64"/>
<path fill-rule="evenodd" clip-rule="evenodd" d="M241.917 115.102C243.893 115.993 244.986 117.551 245.195 119.778C245.952 123.076 245.796 126.193 244.727 129.13C244.882 126.307 244.725 123.502 244.259 120.713C242.348 119.331 241.568 117.461 241.917 115.102Z" fill="#3E3757"/>
<path fill-rule="evenodd" clip-rule="evenodd" d="M59.244 72.0852C59.8285 72.4751 60.1408 73.0985 60.1808 73.9555C58.4917 79.453 57.3987 85.0639 56.9021 90.7883C56.1745 114.806 56.3306 138.808 57.3705 162.795C56.7459 161.236 56.1214 159.678 55.4969 158.119C55.2349 132.852 55.5471 107.603 56.4337 82.3719C57.7871 79.1582 58.7239 75.7293 59.244 72.0852Z" fill="#180E41"/>
<path fill-rule="evenodd" clip-rule="evenodd" d="M213.813 114.167C212.675 117.617 211.738 121.202 211.003 124.922C211.165 126.811 211.79 128.526 212.877 130.065C213.525 129.574 213.993 128.95 214.282 128.195C214.594 128.506 214.907 128.818 215.218 129.13C215.387 130.989 215.232 132.859 214.75 134.741C213.817 134.821 213.037 134.509 212.408 133.805C208.956 126.827 209.424 120.281 213.813 114.167Z" fill="#302453"/>
<path fill-rule="evenodd" clip-rule="evenodd" d="M64.8648 72.0853C65.0256 73.0126 64.7132 73.6361 63.928 73.9556C61.6477 80.1896 60.3986 86.7357 60.1809 93.5938C59.2468 112.758 58.9345 132.085 59.2441 151.573C58.1549 131.783 57.9988 111.833 58.7757 91.7235C59.5682 85.3906 60.8173 79.1563 62.5229 73.0205C63.1513 72.3169 63.9319 72.0051 64.8648 72.0853Z" fill="#080722"/>
<path fill-rule="evenodd" clip-rule="evenodd" d="M60.181 93.5938C60.0249 115.104 60.181 136.613 60.6493 158.119C60.8282 160.184 61.2966 162.054 62.0545 163.73C61.9044 165.319 62.0606 166.878 62.5229 168.406C64.441 171.614 65.8461 175.043 66.7384 178.693C66.7997 179.102 66.6436 179.415 66.27 179.628C63.9899 176.547 62.4286 173.117 61.5861 169.341C60.3972 170.655 59.9288 172.213 60.181 174.017C58.3862 170.591 57.4494 166.851 57.3706 162.795C58.8579 166.564 59.7947 166.408 60.181 162.328C59.5207 158.77 59.2085 155.186 59.2442 151.573C58.9346 132.085 59.2468 112.758 60.181 93.5938Z" fill="#332B50"/>
<path fill-rule="evenodd" clip-rule="evenodd" d="M97.6523 208.618C103.522 209.896 109.298 211.455 114.983 213.293C115.295 222.334 115.608 231.373 115.92 240.413C116.591 240.922 117.06 241.545 117.325 242.283C115.037 242.147 114.412 242.926 115.451 244.621C118.122 245.827 120.932 246.294 123.882 246.024C123.122 247.42 121.873 248.044 120.135 247.894C117.857 247.533 115.67 246.909 113.578 246.024C112.953 244.465 112.329 242.907 111.704 241.348C112.641 241.348 113.578 241.348 114.514 241.348C114.67 232.303 114.514 223.263 114.046 214.229C108.345 212.8 102.881 210.929 97.6523 208.618Z" fill="#1B1840"/>
<path fill-rule="evenodd" clip-rule="evenodd" d="M97.6523 208.618C102.881 210.929 108.345 212.8 114.046 214.229C114.514 223.263 114.67 232.303 114.514 241.348C113.578 241.348 112.641 241.348 111.704 241.348C111.86 232.926 111.704 224.51 111.236 216.099C109.005 215.225 106.663 214.913 104.21 215.164C100.095 211.836 95.4113 209.654 90.1581 208.618C90.018 207.634 90.1742 206.699 90.6265 205.812C92.7205 207.404 95.0625 208.339 97.6523 208.618Z" fill="#241160"/>
<path fill-rule="evenodd" clip-rule="evenodd" d="M104.21 215.164C106.663 214.913 109.005 215.225 111.236 216.099C111.704 224.51 111.86 232.926 111.704 241.348C110.927 233.409 110.458 225.304 110.299 217.034C108.166 216.457 106.136 215.833 104.21 215.164Z" fill="#0E1838"/>
<path fill-rule="evenodd" clip-rule="evenodd" d="M245.664 215.164C243.985 215.92 242.112 216.388 240.043 216.567C211.317 217.034 182.589 217.19 153.859 217.034C184.315 216.363 214.917 215.74 245.664 215.164Z" fill="#12133A"/>
<path fill-rule="evenodd" clip-rule="evenodd" d="M247.537 209.553C248.982 210.173 250.543 210.797 252.221 211.423C251.189 212.055 250.252 212.678 249.411 213.294C248.162 213.917 246.912 214.54 245.664 215.164C214.917 215.74 184.315 216.363 153.859 217.034C152.922 218.593 151.673 219.84 150.112 220.775C148.157 221.789 146.908 223.347 146.365 225.451C145.116 226.074 144.179 227.009 143.554 228.256C139.224 231.175 135.32 234.604 131.845 238.543C131.41 239.098 131.253 239.722 131.376 240.413C128.878 242.283 126.38 244.154 123.882 246.024C120.932 246.294 118.122 245.827 115.451 244.621C114.412 242.926 115.037 242.147 117.324 242.283C119.656 242.472 121.843 242.005 123.882 240.881C130.288 233.395 137.157 226.381 144.491 219.84C147.044 218.705 149.23 216.991 151.049 214.696C179.464 214.385 207.88 214.073 236.296 213.761C239.737 212.488 243.172 211.398 246.6 210.488C246.6 209.864 246.912 209.553 247.537 209.553Z" fill="#26175A"/>
<path fill-rule="evenodd" clip-rule="evenodd" d="M246.6 210.488C243.172 211.398 239.737 212.488 236.296 213.761C207.88 214.072 179.464 214.385 151.049 214.696C149.23 216.991 147.044 218.705 144.491 219.84C146.485 217.38 148.67 215.042 151.049 212.826C178.215 212.515 205.382 212.202 232.549 211.891C237.229 211.319 241.913 210.852 246.6 210.488Z" fill="#291F46"/>
<path fill-rule="evenodd" clip-rule="evenodd" d="M291.566 158.119C291.344 159.327 291.656 160.262 292.503 160.925C292.092 162.445 291.779 164.004 291.566 165.601C291.697 167.031 292.322 167.967 293.439 168.406C292.689 172.518 291.752 176.571 290.629 180.563C289.808 180.441 289.184 180.752 288.756 181.498C287.421 184.479 285.859 187.285 284.072 189.915C279.076 195.526 273.767 200.825 268.146 205.812C262.567 209.84 256.321 212.333 249.411 213.293C250.252 212.678 251.189 212.055 252.221 211.423C250.543 210.797 248.982 210.173 247.537 209.553C266.787 203.237 280.214 190.767 287.819 172.147C289.319 169.294 290.255 166.177 290.629 162.795C290.363 161.004 290.675 159.446 291.566 158.119Z" fill="#231953"/>
<path fill-rule="evenodd" clip-rule="evenodd" d="M284.072 189.915C283.536 191.556 282.755 193.115 281.73 194.591C277.848 199.257 273.32 202.998 268.146 205.812C273.767 200.825 279.076 195.526 284.072 189.915Z" fill="#9CC0C4"/>
<path fill-rule="evenodd" clip-rule="evenodd" d="M66.7384 178.693C74.0275 191.893 84.3321 201.869 97.6522 208.618C95.0624 208.339 92.7204 207.404 90.6263 205.812C90.1741 206.699 90.0179 207.634 90.158 208.618C95.4111 209.654 100.095 211.836 104.21 215.164C100.563 213.742 96.8155 212.496 92.9683 211.423C88.6498 209.261 84.5905 206.612 80.7901 203.474C76.8536 199.388 72.7942 195.491 68.612 191.785C66.7525 187.449 64.4105 183.396 61.5861 179.628C60.8245 177.818 60.3561 175.947 60.1809 174.017C59.9288 172.213 60.3971 170.655 61.5861 169.341C62.4286 173.117 63.9899 176.547 66.27 179.628C66.6436 179.415 66.7997 179.102 66.7384 178.693Z" fill="#241952"/>
<path fill-rule="evenodd" clip-rule="evenodd" d="M289.692 162.795C290.004 162.795 290.317 162.795 290.629 162.795C290.255 166.177 289.319 169.294 287.819 172.147C288.148 168.964 288.772 165.847 289.692 162.795Z" fill="#7F798B"/>
<path fill-rule="evenodd" clip-rule="evenodd" d="M220.371 140.352C225.366 141.598 230.363 141.598 235.359 140.352C230.363 142.846 225.366 142.846 220.371 140.352Z" fill="#332F46"/>
<path fill-rule="evenodd" clip-rule="evenodd" d="M166.974 140.352C171.985 141.447 176.981 141.447 181.963 140.352C179.964 141.785 177.622 142.409 174.937 142.222C171.986 142.353 169.332 141.729 166.974 140.352Z" fill="#38334A"/>
<path fill-rule="evenodd" clip-rule="evenodd" d="M107.02 131.935C109.769 134.36 112.58 136.854 115.451 139.416C120.094 140.346 124.778 140.657 129.503 140.351C119.47 144.391 111.976 141.586 107.02 131.935Z" fill="#2A2448"/>
<path fill-rule="evenodd" clip-rule="evenodd" d="M191.33 117.908C193.645 122.687 193.801 127.674 191.799 132.87C191.44 133.39 190.972 133.702 190.394 133.806C192.457 128.613 192.769 123.313 191.33 117.908Z" fill="#605B71"/>
<path fill-rule="evenodd" clip-rule="evenodd" d="M107.02 116.973C105.771 121.96 105.771 126.948 107.02 131.935C104.522 126.948 104.522 121.96 107.02 116.973Z" fill="#302D44"/>
</g>
<defs>
<clipPath id="clip0_42_3921">
<rect width="265" height="246" fill="white" transform="translate(31 2)"/>
</clipPath>
</defs>
</svg>
