<svg width="355" height="300" viewBox="0 0 355 300" fill="none" xmlns="http://www.w3.org/2000/svg">
<path fill-rule="evenodd" clip-rule="evenodd" d="M240.386 55.1283C256.727 59.0117 273.182 62.7154 289.748 66.2394C291.688 67.0093 293.603 67.864 295.495 68.8035C303.594 69.9733 311.37 72.5374 318.824 76.4958C319.553 78.2419 320.681 79.3815 322.205 79.9146C322.804 80.6197 323.029 81.4744 322.881 82.4787C318.067 78.0162 312.657 74.8823 306.652 73.077C294.232 70.3518 281.835 67.5028 269.462 64.53C269.144 63.5099 268.468 62.9401 267.433 62.8206C265.648 62.3119 263.845 62.027 262.024 61.9659C256.984 61.7332 252.024 60.8785 247.148 59.4018C244.751 57.8041 242.047 56.9494 239.033 56.8377C226.239 54.9915 213.505 52.4274 200.829 49.1453C197.125 48.5059 193.406 48.2211 189.672 48.2906C188.96 46.7898 187.833 46.22 186.291 46.5812C186.008 45.9645 185.558 45.5371 184.938 45.2992C182.227 44.8707 179.522 44.4434 176.824 44.0171C169.701 43.5089 162.601 42.6542 155.524 41.453C151.467 41.5605 147.523 42.4152 143.691 44.0171C135.361 50.0541 127.922 57.6039 121.376 66.6667C115.408 71.6944 109.998 77.5348 105.148 84.1881C104.59 84.9451 103.914 85.23 103.119 85.0428C103.119 84.473 103.119 83.9032 103.119 83.3334C107.038 79.3782 110.644 74.9622 113.938 70.0855C115.512 68.9539 117.09 67.8142 118.672 66.6667C122.171 63.2399 125.327 59.3937 128.138 55.1283C132.053 52.2095 135.66 48.7907 138.957 44.8718C142.649 43.2278 146.255 41.3759 149.776 39.3163C153.608 38.7465 157.44 38.7465 161.272 39.3163C174.57 42.2216 187.868 45.0706 201.167 47.8633C208.905 48.3336 216.568 49.3308 224.157 50.8547C225.191 50.8301 225.98 50.2603 226.524 49.1453C227.498 50.4664 228.737 51.1787 230.243 51.2821C229.792 51.567 229.342 51.8519 228.891 52.1368C232.68 53.4705 236.511 54.4676 240.386 55.1283Z" fill="#C9E7DF"/>
<path fill-rule="evenodd" clip-rule="evenodd" d="M239.033 56.8376C242.046 56.9494 244.751 57.8041 247.147 59.4017C244.229 59.1712 241.524 58.3164 239.033 56.8376Z" fill="#6B8090"/>
<path fill-rule="evenodd" clip-rule="evenodd" d="M183.586 46.5812C184.487 46.5812 185.389 46.5812 186.291 46.5812C187.833 46.2199 188.96 46.7897 189.672 48.2906C203.687 51.7812 217.887 54.7727 232.272 57.2649C234.3 58.1196 236.329 58.9743 238.357 59.829C236.902 59.9141 235.775 60.6263 234.976 61.9658C214.24 57.6924 193.504 53.4189 172.767 49.1453C172.251 48.4889 171.575 48.0616 170.738 47.8632C167.365 47.4365 163.984 47.2941 160.595 47.4359C159.033 46.8685 157.343 46.5836 155.524 46.5812C152.951 46.4134 150.584 46.9832 148.424 48.2906C146.278 48.7536 144.25 49.6083 142.338 50.8547C142.152 48.8531 141.589 48.8531 140.648 50.8547C140.197 50.2848 140.197 49.7151 140.648 49.1453C143.76 45.4153 147.479 43.421 151.805 43.1624C152.404 43.8675 152.629 44.7222 152.481 45.7265C160.138 45.369 167.689 46.2237 175.134 48.2906C177.845 46.8929 180.663 46.3231 183.586 46.5812Z" fill="#231757"/>
<path fill-rule="evenodd" clip-rule="evenodd" d="M176.824 44.0171C179.522 44.4433 182.226 44.8707 184.938 45.2991C185.557 45.5371 186.008 45.9644 186.29 46.5812C185.389 46.5812 184.487 46.5812 183.586 46.5812C181.139 46.2553 178.885 45.4006 176.824 44.0171Z" fill="#718A98"/>
<path fill-rule="evenodd" clip-rule="evenodd" d="M262.024 61.9658C263.845 62.0269 265.648 62.3119 267.433 62.8205C268.468 62.9401 269.144 63.5098 269.462 64.5299C267.266 63.8876 265.012 63.4603 262.7 63.2479C262.324 62.9209 262.099 62.4935 262.024 61.9658Z" fill="#62798A"/>
<path fill-rule="evenodd" clip-rule="evenodd" d="M176.824 44.0171C178.885 45.4006 181.139 46.2553 183.586 46.5812C180.663 46.3232 177.845 46.8929 175.133 48.2906C167.689 46.2238 160.138 45.3691 152.481 45.7265C152.629 44.7222 152.404 43.8675 151.805 43.1624C147.479 43.421 143.76 45.4154 140.648 49.1453C140.197 49.7151 140.197 50.2849 140.648 50.8547C141.589 48.8532 142.152 48.8532 142.338 50.8547C103.545 92.6077 64.7767 134.631 26.0334 176.923C21.7606 181.743 19.2813 187.726 18.5953 194.872C18.581 199.519 19.708 203.65 21.9763 207.265C24.6914 210.12 27.6216 212.541 30.7667 214.53C36.1958 216.512 41.6053 218.363 46.9953 220.085C48.1999 221.673 49.7777 222.527 51.7286 222.65C96.203 238.391 140.832 253.776 185.614 268.803C187.621 269.369 189.65 269.654 191.7 269.658C192.659 271.203 194.011 271.774 195.757 271.368C199.207 272.791 202.814 273.93 206.576 274.786C207.027 274.786 207.478 274.786 207.929 274.786C209.6 276.447 211.628 277.302 214.014 277.35C224.917 280.856 235.736 280.713 246.471 276.923C248.43 274.38 250.458 271.959 252.557 269.658C258.033 257.21 263.781 244.96 269.8 232.906C275.932 216.879 282.468 201.209 289.41 185.897C295.646 167.359 302.296 149.126 309.357 131.197C311.783 125.859 314.15 120.446 316.457 114.957C317.803 110.41 319.156 105.852 320.514 101.282C320.965 97.2932 320.965 93.3051 320.514 89.3162C317.561 84.1227 313.617 80.7039 308.681 79.0598C294.176 75.5557 279.751 72.1368 265.405 68.8034C263.504 67.9701 261.475 67.4003 259.319 67.094C257.967 67.094 256.614 67.094 255.262 67.094C254.303 65.5488 252.951 64.979 251.205 65.3846C245.795 64.2448 240.385 63.1052 234.976 61.9658C235.775 60.6263 236.901 59.9141 238.357 59.8291C236.329 58.9744 234.3 58.1197 232.271 57.265C217.887 54.7727 203.687 51.7813 189.671 48.2906C193.406 48.221 197.125 48.5059 200.829 49.1453C213.505 52.4274 226.239 54.9915 239.033 56.8376C241.524 58.3164 244.229 59.1711 247.148 59.4017C252.024 60.8785 256.984 61.7332 262.024 61.9658C262.099 62.4935 262.324 62.9209 262.7 63.2479C265.012 63.4603 267.266 63.8876 269.462 64.5299C281.835 67.5027 294.232 70.3517 306.652 73.0769C312.657 74.8822 318.067 78.0162 322.881 82.4786C322.911 84.8896 323.588 86.8838 324.91 88.4616C325.583 92.7034 325.696 96.9769 325.248 101.282C318.829 120.352 311.954 139.156 304.624 157.692C304.624 157.977 304.624 158.262 304.624 158.547C303.95 158.521 303.499 158.949 303.271 159.829C300.908 165.88 298.654 172.006 296.51 178.205C296.51 178.775 296.51 179.344 296.51 179.915C288.922 198.377 281.258 216.896 273.519 235.47C267.257 249.809 260.495 263.769 253.233 277.35C248.567 282.112 243.157 284.819 237.005 285.47C232.723 286.04 228.44 286.04 224.157 285.47C220.818 284.205 217.437 283.208 214.014 282.479C213.789 282.479 213.563 282.479 213.338 282.479C210.99 281.124 208.511 280.269 205.9 279.915C198.793 274.898 191.13 272.049 182.91 271.368C172.834 267.837 162.691 264.56 152.481 261.538C153.399 259.186 152.948 258.759 151.129 260.256C143.986 257.787 136.773 255.793 129.491 254.274C116.588 250.688 103.741 246.842 90.9477 242.735C86.4456 240.745 81.9374 238.751 77.4239 236.752C64.0155 232.672 50.7171 227.971 37.5286 222.65C36.6271 222.65 35.7254 222.65 34.8239 222.65C34.8441 221.797 34.506 221.227 33.8096 220.94C16.7206 215.846 10.973 202.741 16.5667 181.624C17.0176 181.624 17.2429 181.339 17.2429 180.769C21.1301 175.712 25.1873 170.727 29.4144 165.812C30.4113 164.687 31.5383 163.832 32.7953 163.248C34.6265 161.009 36.2043 158.588 37.5286 155.983C38.7515 155.991 39.8785 155.563 40.9096 154.701C43.407 151.589 45.661 148.312 47.6715 144.872C55.1479 138.137 62.1351 130.586 68.6334 122.222C72.3186 119.984 75.2486 116.707 77.4239 112.393C85.6971 103.778 94.0365 95.3727 102.443 87.1795C102.951 86.606 103.177 85.894 103.119 85.0427C103.914 85.2299 104.59 84.9451 105.148 84.188C109.998 77.5348 115.408 71.6944 121.376 66.6667C127.922 57.6039 135.361 50.054 143.691 44.0171C147.523 42.4151 151.467 41.5604 155.524 41.453C162.601 42.6541 169.701 43.5088 176.824 44.0171Z" fill="#201953"/>
<path fill-rule="evenodd" clip-rule="evenodd" d="M205.9 101.282C205.045 102.149 204.594 103.431 204.548 105.128C204.773 106.41 204.999 107.692 205.224 108.974C205.634 108.868 205.86 108.584 205.9 108.12C211.74 101.129 218.051 94.7188 224.834 88.8889C228.72 86.1616 232.777 84.0245 237.005 82.4786C243.757 81.4192 250.519 81.4192 257.291 82.4786C265.989 83.8547 274.554 85.8487 282.986 88.4616C286.107 89.8641 289.037 91.7163 291.776 94.0171C293.658 96.4855 295.236 99.1923 296.51 102.137C296.51 102.991 296.51 103.846 296.51 104.701C295.836 104.774 295.273 104.489 294.819 103.846C294.594 111.254 294.368 118.661 294.143 126.068C292.939 124.459 292.827 122.75 293.805 120.94C293.556 119.735 292.993 118.88 292.115 118.376C292.06 124 291.496 129.413 290.424 134.615C290.642 129.325 290.417 124.197 289.748 119.231C290.317 117.625 290.542 115.915 290.424 114.103C289.523 114.103 288.621 114.103 287.719 114.103C287.944 112.963 288.17 111.823 288.395 110.684C289.821 108.65 290.947 106.228 291.776 103.419C291.183 101.88 290.732 100.314 290.424 98.718C289.748 98.718 289.072 98.718 288.395 98.718C288.395 97.8633 288.395 97.0086 288.395 96.1539C284.937 94.2598 281.33 92.8351 277.576 91.8804C267.175 89.2325 256.694 87.2385 246.134 85.8974C241.805 85.9222 237.635 86.9188 233.624 88.8889C225.015 95.0932 217.127 102.358 209.957 110.684C209.957 110.968 209.957 111.254 209.957 111.538C209.458 111.427 209.007 111.569 208.605 111.966C206.774 114.204 205.196 116.626 203.872 119.231C203.195 119.231 202.519 119.231 201.843 119.231C201.604 116.734 202.28 114.74 203.872 113.248C202.74 111.892 201.388 111.322 199.814 111.538C200.581 107.832 200.581 104.129 199.814 100.427C193.886 106.856 188.251 113.694 182.91 120.94C180.786 121.321 178.983 122.461 177.5 124.359C177.581 134.891 177.356 145.432 176.824 155.983C178.176 155.698 179.529 155.413 180.881 155.128C180.079 156.012 179.515 157.151 179.191 158.547C178.982 157.856 178.644 157.286 178.176 156.838C177.352 157.49 176.676 158.344 176.148 159.402C175.923 158.832 175.697 158.262 175.472 157.692C177.16 148.327 177.272 138.926 175.81 129.487C175.696 138.049 175.358 146.596 174.795 155.128C174.805 148.657 174.692 142.104 174.457 135.47C174.338 139.05 174 142.468 173.443 145.727C173.218 139.459 172.992 133.191 172.767 126.923C165.331 127.779 157.893 127.637 150.453 126.496C148.187 126.447 146.158 125.734 144.367 124.359C144.867 124.471 145.318 124.328 145.719 123.932C144.44 123.1 143.088 122.53 141.662 122.222C142.471 121.663 142.471 121.236 141.662 120.94C139.675 121.859 137.647 122.001 135.576 121.368C136.336 121.155 137.013 120.727 137.605 120.085C131.767 118.42 126.02 116.425 120.362 114.103C119.772 114.303 119.208 114.589 118.672 114.957C117.863 114.662 117.863 114.234 118.672 113.675C117.024 113.499 115.898 112.502 115.291 110.684C127.986 116.313 141.06 120.017 154.51 121.795C155.026 122.451 155.702 122.879 156.538 123.077C158.905 123.22 161.272 123.362 163.638 123.504C166.277 123.494 168.643 122.924 170.738 121.795C175.415 120.627 179.472 117.921 182.91 113.675C189.112 105.835 195.085 97.7154 200.829 89.3163C201.757 87.4402 201.982 85.4455 201.505 83.3333C199.04 79.7363 195.997 77.1722 192.376 75.641C182.202 72.0068 171.834 70.0125 161.272 69.6581C159.871 68.5397 158.181 67.9699 156.2 67.9487C154.51 68.0912 152.819 68.2336 151.129 68.3761C150.753 68.7031 150.528 69.1304 150.453 69.6581C148.717 69.5251 147.027 69.81 145.381 70.5128C132.691 77.8507 121.76 88.1068 112.586 101.282C111.942 102.603 111.717 104.027 111.91 105.556C111.422 105.198 111.083 104.629 110.895 103.846C110.062 108.309 109.611 112.867 109.543 117.521C109.318 112.393 109.092 107.265 108.867 102.137C108.642 105.84 108.416 109.544 108.191 113.248C108.003 112.465 107.665 111.896 107.176 111.538C106.711 106.254 107.613 101.41 109.881 97.0086C117.31 86.841 125.649 78.0095 134.9 70.5128C139.533 67.1566 144.492 65.0198 149.776 64.1026C156.556 63.5788 163.318 63.8637 170.062 64.9573C174.46 66.5618 178.968 67.4165 183.586 67.5214C188.724 68.9638 193.795 70.8156 198.8 73.0769C201.562 75.5688 203.704 78.7027 205.224 82.4786C205.898 88.7205 206.124 94.9889 205.9 101.282Z" fill="#211A55"/>
<path fill-rule="evenodd" clip-rule="evenodd" d="M288.395 110.684C288.17 111.823 287.944 112.963 287.719 114.103C282.645 119.712 277.911 125.838 273.519 132.479C271.223 133.952 269.195 135.803 267.433 138.034C254.803 142.203 242.631 141.062 230.919 134.615C232.925 133.961 234.954 133.106 237.005 132.051C242.906 134.462 248.991 135.175 255.262 134.188C256.995 132.238 259.023 131.241 261.348 131.197C261.799 128.917 262.249 126.638 262.7 124.359C266.05 120.462 269.093 116.188 271.828 111.538C272.279 108.974 272.279 106.41 271.828 103.846C270.665 103.091 269.877 101.951 269.462 100.427C268.498 98.9291 267.372 97.5043 266.081 96.1539C266.631 95.0308 267.307 94.0333 268.109 93.1624C266.088 92.4385 265.186 93.4359 265.405 96.1539C256.15 95.2402 246.909 95.0974 237.681 95.7265C238.653 95.5393 239.555 95.112 240.386 94.4445C234.85 91.0291 235.3 89.0342 241.738 88.4615C249.7 89.7889 257.702 90.6436 265.743 91.0257C269.863 92.3393 274.033 93.3368 278.252 94.0171C281.45 95.5838 284.493 96.8658 287.381 97.8633C288.33 99.7701 289.119 101.764 289.748 103.846C288.96 106.04 288.51 108.32 288.395 110.684Z" fill="#FBF5E2"/>
<path fill-rule="evenodd" clip-rule="evenodd" d="M259.319 67.094C261.475 67.4002 263.504 67.9701 265.405 68.8034C263.588 68.9437 261.784 68.8012 259.995 68.376C259.619 68.049 259.394 67.6217 259.319 67.094Z" fill="#36897A"/>
<path fill-rule="evenodd" clip-rule="evenodd" d="M251.205 65.3846C252.951 64.9789 254.303 65.5488 255.262 67.094C253.716 67.0128 252.364 66.443 251.205 65.3846Z" fill="#306270"/>
<path fill-rule="evenodd" clip-rule="evenodd" d="M160.595 47.4359C163.984 47.2941 167.365 47.4365 170.738 47.8632C171.575 48.0616 172.251 48.4889 172.767 49.1453C168.589 48.8511 164.532 48.2813 160.595 47.4359Z" fill="#273E62"/>
<path fill-rule="evenodd" clip-rule="evenodd" d="M160.595 47.4359C156.523 47.4376 152.465 47.7226 148.424 48.2906C150.584 46.9833 152.951 46.4135 155.524 46.5812C157.343 46.5837 159.033 46.8686 160.595 47.4359Z" fill="#348A7E"/>
<path fill-rule="evenodd" clip-rule="evenodd" d="M324.91 88.4615C325.361 88.4615 325.811 88.4615 326.262 88.4615C327.575 92.4034 327.801 96.5342 326.938 100.855C324.547 109.914 321.617 118.603 318.148 126.923C317.21 128.955 316.646 131.233 316.457 133.761C315.082 137.375 313.392 140.794 311.386 144.017C309.774 148.652 308.196 153.21 306.653 157.692C305.976 157.692 305.3 157.692 304.624 157.692C311.954 139.156 318.829 120.352 325.248 101.282C325.696 96.9769 325.583 92.7034 324.91 88.4615Z" fill="#C7E1DD"/>
<path fill-rule="evenodd" clip-rule="evenodd" d="M199.814 111.538C199.814 112.393 199.814 113.248 199.814 114.103C199.295 114.755 198.957 115.609 198.8 116.667C198.205 124.344 197.867 132.036 197.786 139.744C197.898 143.174 197.785 146.593 197.448 150C194.716 150.475 192.125 151.33 189.671 152.564C186.702 153.289 183.772 154.144 180.881 155.128C179.528 155.413 178.176 155.698 176.824 155.983C177.356 145.432 177.581 134.891 177.5 124.359C178.983 122.461 180.786 121.321 182.909 120.94C188.251 113.694 193.885 106.856 199.814 100.427C200.581 104.129 200.581 107.832 199.814 111.538Z" fill="#01593E"/>
<path fill-rule="evenodd" clip-rule="evenodd" d="M288.395 110.684C288.51 108.32 288.96 106.04 289.748 103.846C289.119 101.764 288.33 99.7701 287.381 97.8633C284.493 96.8658 281.45 95.5838 278.252 94.0171C274.033 93.3368 269.863 92.3393 265.743 91.0257C257.702 90.6436 249.7 89.7889 241.738 88.4616C235.3 89.0342 234.85 91.0291 240.386 94.4445C239.555 95.112 238.653 95.5393 237.681 95.7265C246.909 95.0975 256.15 95.2402 265.405 96.1539C265.186 93.4359 266.088 92.4385 268.109 93.1624C267.307 94.0334 266.631 95.0308 266.081 96.1539C267.372 97.5043 268.498 98.9291 269.462 100.427C268.56 100.427 267.658 100.427 266.757 100.427C266.306 100.427 265.856 100.427 265.405 100.427C264.911 99.1069 264.01 98.3949 262.7 98.2906C260.684 97.865 258.655 97.7222 256.614 97.8633C254.519 96.7342 252.153 96.1641 249.514 96.1539C246.876 96.1641 244.509 96.7342 242.414 97.8633C239.652 97.7453 237.173 98.7419 234.976 100.855C232.722 103.974 230.242 106.68 227.538 108.974C221.936 117.804 223.288 124.357 231.595 128.633C238.647 131.333 245.859 132.472 253.233 132.051C253.909 132.051 254.586 132.051 255.262 132.051C258.169 130.067 260.649 127.503 262.7 124.359C262.249 126.638 261.799 128.917 261.348 131.197C259.023 131.241 256.995 132.238 255.262 134.188C248.992 135.175 242.906 134.462 237.005 132.051C234.954 133.106 232.925 133.961 230.919 134.615C242.631 141.062 254.803 142.203 267.433 138.034C267.433 138.604 267.433 139.174 267.433 139.744C262.958 140.444 258.562 141.583 254.248 143.162C241.386 141.065 228.651 138.215 216.043 134.615C211.932 132.871 208.101 130.307 204.548 126.923C203.004 124.569 202.779 122.005 203.871 119.231C205.196 116.626 206.774 114.204 208.605 111.966C209.006 111.569 209.457 111.427 209.957 111.538C209.165 114.669 207.699 117.233 205.562 119.231C205.111 121.225 205.111 123.22 205.562 125.214C207.497 126.556 209.413 127.98 211.309 129.487C214.831 129.991 218.212 131.131 221.452 132.906C223.534 131.627 225.563 130.203 227.538 128.633C225.108 126.509 223.304 123.661 222.129 120.085C222.767 117.522 223.105 114.958 223.143 112.393C221.463 114.751 220.675 114.467 220.776 111.538C221.452 111.538 222.129 111.538 222.805 111.538C222.957 108.499 222.394 108.214 221.114 110.684C220.776 110.399 220.438 110.114 220.1 109.829C221.299 106.966 220.623 105.542 218.071 105.556C217.981 108.458 217.305 108.743 216.043 106.41C215.224 107.072 215.224 107.784 216.043 108.547C213.911 108.885 211.883 109.597 209.957 110.684C217.127 102.358 225.015 95.0932 233.624 88.8889C237.634 86.9188 241.804 85.9222 246.133 85.8975C256.694 87.2385 267.175 89.2325 277.576 91.8804C281.33 92.8351 284.936 94.2599 288.395 96.1539C288.395 97.0086 288.395 97.8633 288.395 98.718C289.071 98.718 289.748 98.718 290.424 98.718C290.731 100.314 291.182 101.88 291.776 103.419C290.947 106.228 289.821 108.65 288.395 110.684Z" fill="#F2EFE6"/>
<path fill-rule="evenodd" clip-rule="evenodd" d="M144.367 124.359C146.158 125.734 148.186 126.447 150.452 126.496C157.893 127.637 165.331 127.779 172.766 126.923C172.992 133.191 173.218 139.459 173.443 145.726C173.161 149.432 172.823 153.135 172.428 156.838C171.347 158.15 170.107 158.578 168.709 158.12C169.062 157.64 169.287 157.07 169.386 156.41C168.26 152.25 166.456 148.688 163.976 145.726C158.182 139.856 151.646 135.726 144.367 133.333C143.239 132.479 142.113 131.624 140.986 130.769C136.371 130.185 131.864 129.044 127.462 127.35C122.283 126.923 117.098 126.781 111.909 126.923C111.349 122.69 111.123 118.416 111.233 114.103C116.956 115.897 122.591 118.319 128.138 121.367C133.453 123.171 138.862 124.168 144.367 124.359Z" fill="#04573F"/>
<path fill-rule="evenodd" clip-rule="evenodd" d="M199.814 114.103C199.358 121.493 199.02 128.901 198.8 136.325C198.658 137.656 198.32 138.796 197.786 139.744C197.867 132.036 198.205 124.344 198.8 116.667C198.957 115.609 199.295 114.755 199.814 114.103Z" fill="#202B58"/>
<path fill-rule="evenodd" clip-rule="evenodd" d="M296.509 104.701C296.509 109.544 296.509 114.387 296.509 119.231C295.189 123.995 294.738 129.123 295.157 134.615C294.935 143.475 293.92 152.307 292.114 161.111C287.464 170.455 281.942 178.859 275.548 186.325C272.904 188.914 270.199 191.336 267.433 193.59C260.955 196.937 254.193 198.646 247.148 198.718C249.499 198.015 251.978 197.587 254.586 197.436C251.704 197.683 249.675 196.258 248.5 193.162C248.547 192.509 248.772 192.081 249.176 191.88C261.893 194.292 267.303 187.169 265.405 170.513C265.573 162.663 264.897 154.971 263.376 147.436C246.457 147.29 229.778 144.44 213.338 138.889C209.795 137.242 206.415 135.248 203.195 132.906C202.733 133.216 202.282 133.501 201.843 133.761C201.693 131.541 201.355 131.541 200.829 133.761C200.714 140.048 200.376 146.315 199.814 152.564C196.48 152.957 193.099 152.957 189.671 152.564C192.125 151.33 194.716 150.475 197.448 150C197.785 146.593 197.898 143.174 197.786 139.744C198.32 138.796 198.658 137.656 198.8 136.325C199.02 128.901 199.358 121.493 199.814 114.103C199.814 113.248 199.814 112.393 199.814 111.538C201.388 111.322 202.74 111.892 203.871 113.248C202.28 114.74 201.603 116.734 201.843 119.231C202.519 119.231 203.195 119.231 203.871 119.231C202.779 122.005 203.005 124.569 204.548 126.923C208.101 130.307 211.932 132.871 216.043 134.615C221.998 137.583 228.197 139.862 234.638 141.453C241.679 142.339 248.666 143.478 255.6 144.872C258.963 144.234 262.231 143.237 265.405 141.88C266.38 141.558 267.056 140.846 267.433 139.744C267.433 139.174 267.433 138.604 267.433 138.034C269.195 135.803 271.223 133.952 273.519 132.479C277.912 125.838 282.645 119.712 287.719 114.103C288.62 114.103 289.522 114.103 290.424 114.103C290.542 115.915 290.316 117.625 289.748 119.231C288.551 120.48 287.424 121.905 286.367 123.504C285.809 124.262 285.133 124.546 284.338 124.359C280.282 132.312 274.985 138.864 268.448 144.017C269.156 151.459 269.494 159.009 269.462 166.667C269.456 172.431 269.231 178.129 268.786 183.761C269.462 184.331 270.138 184.331 270.814 183.761C278.037 176.915 283.784 168.51 288.057 158.547C289.306 150.639 290.094 142.662 290.424 134.615C291.496 129.413 292.06 124 292.114 118.376C292.993 118.88 293.556 119.735 293.805 120.94C292.826 122.75 292.939 124.459 294.143 126.068C294.368 118.661 294.594 111.254 294.819 103.846C295.273 104.489 295.836 104.774 296.509 104.701Z" fill="#271C5E"/>
<path fill-rule="evenodd" clip-rule="evenodd" d="M289.748 119.231C290.417 124.197 290.642 129.325 290.424 134.615C290.095 142.662 289.306 150.639 288.057 158.547C283.784 168.51 278.037 176.914 270.814 183.761C270.138 184.331 269.462 184.331 268.786 183.761C269.231 178.129 269.456 172.431 269.462 166.667C269.494 159.008 269.156 151.459 268.448 144.017C274.985 138.864 280.282 132.312 284.338 124.359C285.133 124.546 285.809 124.261 286.367 123.504C287.424 121.905 288.552 120.48 289.748 119.231Z" fill="#035940"/>
<path fill-rule="evenodd" clip-rule="evenodd" d="M216.043 134.615C228.651 138.215 241.386 141.065 254.248 143.162C258.563 141.583 262.958 140.444 267.433 139.744C267.056 140.846 266.38 141.558 265.405 141.88C262.232 143.237 258.963 144.234 255.6 144.872C248.666 143.478 241.679 142.338 234.638 141.453C228.197 139.862 221.998 137.583 216.043 134.615Z" fill="#161640"/>
<path fill-rule="evenodd" clip-rule="evenodd" d="M249.176 191.88C251.016 186.154 250.904 180.456 248.838 174.786C240.309 163.507 229.828 156.527 217.395 153.846C212.459 152.804 207.5 151.95 202.519 151.282C201.857 145.518 201.632 139.677 201.843 133.761C202.282 133.501 202.733 133.216 203.195 132.906C206.414 135.248 209.795 137.242 213.338 138.889C229.777 144.44 246.457 147.29 263.376 147.436C264.897 154.971 265.573 162.663 265.405 170.513C267.303 187.169 261.893 194.292 249.176 191.88Z" fill="#02573F"/>
<path fill-rule="evenodd" clip-rule="evenodd" d="M37.5284 155.983C36.204 158.588 34.6262 161.009 32.7951 163.248C31.538 163.833 30.411 164.687 29.4141 165.812C25.187 170.727 21.1299 175.712 17.2427 180.769C17.9867 177.96 19.1137 175.396 20.6236 173.077C25.8122 167.938 30.771 162.526 35.4998 156.838C36.0577 156.08 36.7339 155.796 37.5284 155.983Z" fill="#CDDEDE"/>
<path fill-rule="evenodd" clip-rule="evenodd" d="M160.595 47.4359C164.532 48.2813 168.589 48.8511 172.767 49.1453C193.504 53.419 214.24 57.6925 234.976 61.9658C240.385 63.1052 245.795 64.2448 251.205 65.3846C252.364 66.4431 253.716 67.0128 255.262 67.094C256.614 67.094 257.967 67.094 259.319 67.094C259.394 67.6217 259.619 68.0491 259.995 68.3761C261.785 68.8012 263.588 68.9437 265.405 68.8034C279.751 72.1369 294.176 75.5557 308.681 79.0598C313.617 80.7039 317.561 84.1227 320.514 89.3163C320.965 93.3051 320.965 97.2932 320.514 101.282C319.156 105.852 317.804 110.41 316.457 114.957C314.15 120.446 311.783 125.859 309.357 131.197C309.432 129.361 308.981 129.076 308.005 130.342C307.403 132.815 306.501 135.095 305.3 137.18C304.058 134.006 303.044 134.006 302.257 137.18C299.062 135.069 299.174 132.362 302.595 129.06C301.954 128.647 301.278 128.505 300.567 128.632C300.998 126.957 300.998 125.391 300.567 123.932C301.113 123.668 301.564 123.241 301.919 122.65C299.703 121.813 299.478 120.673 301.243 119.231C302.942 120.866 303.393 123.003 302.595 125.641C302.851 127.038 303.301 128.321 303.948 129.487C305.157 125.479 304.706 121.918 302.595 118.803C304.493 117.688 305.057 115.836 304.286 113.248C302.148 116.932 301.585 116.647 302.595 112.393C302.455 110.098 301.666 109.529 300.229 110.684C300.089 113.353 299.638 115.917 298.876 118.376C298.753 112.909 298.303 107.496 297.524 102.137C297.057 101.079 296.719 101.079 296.51 102.137C295.236 99.1923 293.657 96.4855 291.776 94.0171C289.037 91.7163 286.107 89.8641 282.986 88.4616C274.554 85.8487 265.988 83.8547 257.291 82.4786C256.775 81.8223 256.098 81.395 255.262 81.1966C249.401 80.6268 243.542 80.6268 237.681 81.1966C237.305 81.5236 237.08 81.951 237.005 82.4786C232.777 84.0245 228.72 86.1616 224.833 88.8889C218.051 94.7188 211.74 101.129 205.9 108.12C205.694 106.052 205.694 103.773 205.9 101.282C206.124 94.9889 205.898 88.7205 205.224 82.4786C203.704 78.7028 201.562 75.5688 198.8 73.0769C193.795 70.8156 188.724 68.9638 183.586 67.5214C178.967 67.4165 174.46 66.5618 170.062 64.9573C163.318 63.8637 156.556 63.5788 149.776 64.1026C144.492 65.0198 139.533 67.1566 134.9 70.5128C125.649 78.0095 117.31 86.841 109.881 97.0086C107.612 101.41 106.711 106.254 107.176 111.538C107.176 117.237 107.176 122.934 107.176 128.632C89.6947 129.896 74.7063 138.158 62.2096 153.419C59.1765 157.668 56.4718 162.227 54.0953 167.094C52.6385 172.017 52.7512 176.86 54.4334 181.624C56.4955 184.368 58.8622 186.647 61.5334 188.462C61.8671 189.858 61.9799 191.283 61.8715 192.735C62.453 198.242 64.2562 202.943 67.2811 206.838C71.1381 206.981 74.2932 208.833 76.7477 212.393C79.9346 214.163 83.0904 216.015 86.2144 217.949C88.1618 218.533 90.0775 218.391 91.962 217.521C93.6518 218.938 95.3423 220.362 97.0334 221.795C99.701 222.642 102.406 222.927 105.148 222.65C107.852 221.51 110.557 221.51 113.262 222.65C123.967 226.029 132.871 222.61 139.972 212.393C140.298 211.583 140.41 210.728 140.31 209.829C140.986 209.829 141.662 209.829 142.338 209.829C142.312 211.418 142.875 212.557 144.029 213.248C144.145 217.267 144.483 221.255 145.043 225.214C145.439 225.392 145.777 225.678 146.057 226.068C146.505 235.979 150.675 241.25 158.567 241.88C162.182 245.915 166.464 247.767 171.414 247.436C173.086 248.629 174.889 249.342 176.824 249.573C178.502 251.17 180.304 252.594 182.233 253.846C183.108 254.265 184.01 254.408 184.938 254.274C185.013 254.801 185.238 255.228 185.614 255.556C188.988 255.982 192.369 256.125 195.757 255.983C196.433 256.553 197.11 257.122 197.786 257.692C199.259 258.911 200.95 259.48 202.857 259.402C205.026 259.196 207.167 258.768 209.281 258.12C209.657 257.792 209.882 257.365 209.957 256.838C213.912 253.61 217.518 249.764 220.776 245.299C222.745 245.064 224.549 244.351 226.186 243.162C225.468 244.081 225.468 244.936 226.186 245.727C226.785 245.021 227.01 244.167 226.862 243.162C230.176 242.882 230.74 244.022 228.552 246.581C228.101 248.291 228.101 250 228.552 251.709C230.174 251.318 231.301 250.178 231.933 248.291C232.556 250.514 233.007 252.793 233.286 255.128C234.231 254.657 235.133 254.373 235.991 254.274C236.325 255.96 236.438 257.669 236.329 259.402C235.427 259.402 234.525 259.402 233.624 259.402C233.545 261.097 233.996 262.521 234.976 263.675C234.53 265.778 233.628 266.347 232.272 265.385C232.627 264.793 233.078 264.366 233.624 264.103C232.519 263.68 231.392 263.538 230.243 263.675C230.351 262.223 230.239 260.798 229.905 259.402C229.339 260.984 228.775 262.55 228.214 264.103C227.109 264.525 225.982 264.667 224.833 264.53C224.934 265.429 224.822 266.284 224.495 267.094C224.299 265.774 223.849 264.635 223.143 263.675C219.283 263.829 219.057 265.538 222.467 268.803C223.052 270.851 222.714 271.421 221.452 270.513C220.791 270.921 220.228 271.49 219.762 272.222C217.661 270.123 216.647 270.978 216.719 274.786C216.301 275.923 213.596 275.354 208.605 273.077C207.57 273.197 206.894 273.767 206.576 274.786C202.814 273.93 199.207 272.791 195.757 271.368C194.539 270.549 193.186 269.979 191.7 269.658C189.65 269.654 187.621 269.369 185.614 268.803C140.832 253.776 96.2031 238.391 51.7287 222.65C50.4747 221.168 48.8969 220.314 46.9953 220.085C41.6054 218.363 36.1958 216.512 30.7668 214.53C27.6217 212.541 24.6915 210.12 21.9763 207.265C19.7081 203.65 18.5811 199.519 18.5953 194.872C19.2813 187.726 21.7607 181.743 26.0334 176.923C64.7767 134.631 103.545 92.6077 142.338 50.8547C144.25 49.6083 146.278 48.7536 148.424 48.2906C152.465 47.7226 156.523 47.4376 160.595 47.4359Z" fill="#38C293"/>
<path fill-rule="evenodd" clip-rule="evenodd" d="M256.614 97.8632C258.655 97.7222 260.683 97.8649 262.7 98.2905C264.01 98.3948 264.911 99.1068 265.405 100.427C264.196 100.83 262.955 101.114 261.686 101.282C256.929 100.204 252.196 99.064 247.486 97.8632C245.36 98.382 243.219 98.6675 241.062 98.7179C241.062 99.5726 241.062 100.427 241.062 101.282C238.24 102.714 235.648 104.708 233.286 107.265C233.06 106.695 232.835 106.126 232.609 105.555C228.769 109.812 226.628 115.225 226.186 121.795C227.476 123.857 229.055 125.425 230.919 126.496C238.504 127.422 245.942 128.419 253.233 129.487C253.233 130.342 253.233 131.197 253.233 132.051C245.859 132.472 238.647 131.332 231.595 128.632C223.288 124.357 221.936 117.804 227.538 108.974C230.242 106.68 232.722 103.974 234.976 100.855C237.173 98.7418 239.652 97.7452 242.414 97.8632C247.11 96.8692 251.843 96.8692 256.614 97.8632Z" fill="#1E1A4C"/>
<path fill-rule="evenodd" clip-rule="evenodd" d="M296.51 119.231C296.277 124.511 295.826 129.639 295.157 134.615C294.738 129.123 295.189 123.995 296.51 119.231Z" fill="#326878"/>
<path fill-rule="evenodd" clip-rule="evenodd" d="M154.51 121.795C159.927 122.864 165.337 122.864 170.738 121.795C168.643 122.924 166.277 123.494 163.638 123.504C161.272 123.362 158.905 123.22 156.538 123.077C155.702 122.879 155.026 122.451 154.51 121.795Z" fill="#79778E"/>
<path fill-rule="evenodd" clip-rule="evenodd" d="M266.757 100.427C267.658 100.427 268.56 100.427 269.462 100.427C269.877 101.951 270.665 103.091 271.828 103.846C272.279 106.41 272.279 108.974 271.828 111.538C269.093 116.188 266.05 120.462 262.7 124.359C260.649 127.503 258.169 130.067 255.262 132.051C258.108 126.591 261.377 121.462 265.066 116.667C265.292 117.237 265.517 117.806 265.743 118.376C266.466 116.062 267.255 113.782 268.109 111.538C268.025 111.02 267.8 110.735 267.433 110.684C267.797 109.302 268.022 107.877 268.109 106.41C268.652 107.651 268.99 109.075 269.124 110.684C269.553 109.431 270.117 108.291 270.814 107.265C269.892 106.074 269.329 104.65 269.124 102.991C267.838 103.749 266.598 103.464 265.405 102.137C265.907 101.554 266.357 100.984 266.757 100.427Z" fill="#1D1849"/>
<path fill-rule="evenodd" clip-rule="evenodd" d="M209.957 111.538C209.957 111.254 209.957 110.968 209.957 110.684C211.883 109.597 213.911 108.885 216.043 108.547C215.224 107.784 215.224 107.072 216.043 106.41C217.305 108.743 217.981 108.458 218.071 105.556C220.623 105.542 221.3 106.966 220.1 109.829C220.438 110.114 220.776 110.399 221.114 110.684C222.394 108.214 222.957 108.499 222.805 111.538C222.129 111.538 221.452 111.538 220.776 111.538C220.675 114.467 221.463 114.751 223.143 112.393C223.105 114.958 222.767 117.522 222.129 120.085C223.304 123.661 225.108 126.509 227.538 128.632C225.563 130.203 223.534 131.627 221.452 132.906C218.212 131.131 214.831 129.991 211.31 129.487C209.413 127.98 207.497 126.556 205.562 125.214C205.111 123.22 205.111 121.225 205.562 119.231C207.699 117.233 209.165 114.669 209.957 111.538Z" fill="#FEF7E2"/>
<path fill-rule="evenodd" clip-rule="evenodd" d="M205.9 101.282C205.694 103.773 205.694 106.052 205.9 108.12C205.86 108.584 205.634 108.868 205.224 108.974C204.999 107.692 204.773 106.41 204.548 105.128C204.595 103.431 205.045 102.149 205.9 101.282Z" fill="#2E596D"/>
<path fill-rule="evenodd" clip-rule="evenodd" d="M265.405 100.427C265.856 100.427 266.306 100.427 266.757 100.427C266.357 100.984 265.907 101.554 265.405 102.137C266.598 103.464 267.838 103.749 269.124 102.991C269.329 104.65 269.892 106.074 270.814 107.265C270.117 108.291 269.553 109.431 269.124 110.684C268.99 109.075 268.652 107.651 268.109 106.41C264.853 104.005 261.246 102.866 257.29 102.991C255.081 101.862 252.601 101.291 249.852 101.282C247.103 101.291 244.624 101.862 242.414 102.991C240.713 103.209 239.135 103.922 237.681 105.128C234.73 107.844 232.025 110.835 229.566 114.103C228.665 116.382 228.665 118.661 229.566 120.94C230.93 121.516 232.057 122.514 232.947 123.932C240.25 126.581 247.688 127.436 255.262 126.496C259.474 121.315 263.532 116.044 267.433 110.684C267.8 110.735 268.026 111.02 268.109 111.538C267.255 113.782 266.466 116.062 265.743 118.376C265.518 117.806 265.292 117.237 265.066 116.667C261.377 121.462 258.108 126.591 255.262 132.051C254.586 132.051 253.909 132.051 253.233 132.051C253.233 131.197 253.233 130.342 253.233 129.487C245.942 128.419 238.504 127.422 230.919 126.496C229.055 125.425 227.476 123.857 226.186 121.795C226.628 115.225 228.769 109.812 232.609 105.556C232.835 106.126 233.06 106.695 233.286 107.265C235.648 104.708 238.24 102.714 241.062 101.282C241.062 100.427 241.062 99.5727 241.062 98.718C243.219 98.6676 245.36 98.3821 247.486 97.8633C252.196 99.0641 256.929 100.204 261.686 101.282C262.955 101.115 264.196 100.83 265.405 100.427Z" fill="#1C1360"/>
<path fill-rule="evenodd" clip-rule="evenodd" d="M257.29 102.991C261.246 102.866 264.853 104.005 268.109 106.41C268.022 107.877 267.797 109.302 267.433 110.684C263.532 116.044 259.475 121.314 255.262 126.496C247.688 127.436 240.25 126.581 232.948 123.932C232.057 122.514 230.931 121.516 229.567 120.94C228.665 118.661 228.665 116.382 229.567 114.103C232.025 110.835 234.73 107.844 237.681 105.128C239.135 103.922 240.713 103.209 242.414 102.991C247.344 101.911 252.302 101.911 257.29 102.991Z" fill="#F8733D"/>
<path fill-rule="evenodd" clip-rule="evenodd" d="M243.09 106.41C246.922 106.41 250.754 106.41 254.586 106.41C254.586 107.265 254.586 108.12 254.586 108.974C256.163 108.974 257.741 108.974 259.319 108.974C259.378 111.743 258.927 114.307 257.967 116.667C257.255 116.539 256.579 116.681 255.938 117.094C253.867 121.402 252.741 120.974 252.557 115.812C249.535 118.669 247.619 117.815 246.809 113.248C245.716 114.133 245.603 115.131 246.471 116.239C241.41 119.327 239.494 117.474 240.724 110.684C241.176 108.897 241.965 107.473 243.09 106.41Z" fill="#FE925C"/>
<path fill-rule="evenodd" clip-rule="evenodd" d="M257.29 102.992C252.302 101.911 247.343 101.911 242.414 102.992C244.624 101.862 247.103 101.292 249.852 101.282C252.601 101.292 255.08 101.862 257.29 102.992Z" fill="#AF5C40"/>
<path fill-rule="evenodd" clip-rule="evenodd" d="M256.614 97.8632C251.843 96.8692 247.11 96.8692 242.414 97.8632C244.509 96.7342 246.876 96.1641 249.514 96.1538C252.153 96.1641 254.519 96.7342 256.614 97.8632Z" fill="#5E5C76"/>
<path fill-rule="evenodd" clip-rule="evenodd" d="M257.291 82.4786C250.519 81.4192 243.757 81.4192 237.005 82.4786C237.08 81.9509 237.305 81.5235 237.681 81.1965C243.542 80.6267 249.401 80.6267 255.262 81.1965C256.098 81.3949 256.775 81.8223 257.291 82.4786Z" fill="#35757C"/>
<path fill-rule="evenodd" clip-rule="evenodd" d="M161.271 69.6581C171.833 70.0124 182.202 72.0068 192.376 75.641C195.996 77.1722 199.039 79.7363 201.505 83.3333C201.982 85.4454 201.757 87.4401 200.828 89.3162C195.085 97.7153 189.111 105.835 182.909 113.675C179.472 117.92 175.415 120.627 170.738 121.795C165.337 122.864 159.927 122.864 154.509 121.795C141.059 120.017 127.986 116.313 115.29 110.684C114.179 108.991 113.052 107.281 111.909 105.556C111.717 104.027 111.942 102.603 112.586 101.282C121.759 88.1068 132.691 77.8506 145.381 70.5128C147.027 69.81 148.717 69.5251 150.452 69.6581C154.053 68.5801 157.659 68.5801 161.271 69.6581Z" fill="#F9F4E2"/>
<path fill-rule="evenodd" clip-rule="evenodd" d="M152.481 111.538C156.998 112.642 161.505 112.642 166.005 111.538C165.93 112.066 165.705 112.493 165.329 112.821C163.187 112.963 161.046 113.105 158.905 113.248C156.487 113.235 154.346 112.665 152.481 111.538Z" fill="#78758D"/>
<path fill-rule="evenodd" clip-rule="evenodd" d="M152.481 79.0598C158.36 78.9118 164.221 79.1967 170.062 79.9145C175.141 79.6299 179.311 81.9091 182.571 86.7521C183.039 89.8171 182.588 92.6658 181.219 95.2991C177.269 101.147 172.873 106.418 168.033 111.111C167.392 111.524 166.716 111.666 166.005 111.538C161.505 112.642 156.998 112.642 152.481 111.538C145.381 112.391 139.52 109.543 134.9 102.991C133.444 98 134.345 93.8684 137.605 90.5983C140.756 87.494 143.912 84.3602 147.071 81.1966C148.971 80.5279 150.775 79.8157 152.481 79.0598Z" fill="#221856"/>
<path fill-rule="evenodd" clip-rule="evenodd" d="M152.481 106.41C156.514 107.1 160.571 107.385 164.652 107.265C163.09 107.833 161.4 108.117 159.581 108.12C157.008 108.287 154.641 107.718 152.481 106.41Z" fill="#9C5547"/>
<path fill-rule="evenodd" clip-rule="evenodd" d="M164.652 107.265C160.571 107.385 156.514 107.1 152.481 106.41C148.78 106.04 145.174 105.043 141.662 103.419C140.346 102.228 139.445 100.662 138.957 98.7179C143.971 88.1325 151.409 83.0046 161.271 83.3333C167.281 83.8736 173.141 85.2981 178.852 87.6068C175.827 96.0923 171.094 102.645 164.652 107.265Z" fill="#EC8135"/>
<path fill-rule="evenodd" clip-rule="evenodd" d="M148.424 90.171C149.37 88.9829 150.497 88.1282 151.805 87.6069C152.222 87.7017 152.56 87.9863 152.819 88.4616C154.716 87.618 156.631 86.7633 158.567 85.8975C161.841 87.3094 165.222 87.8787 168.71 87.6069C169.152 91.3154 168.476 94.5923 166.681 97.4359C163.041 96.8411 159.435 95.8436 155.862 94.4445C153.725 95.7496 151.471 96.3188 149.1 96.1539C149.304 93.9667 149.078 91.9718 148.424 90.171Z" fill="#FE8A55"/>
<path fill-rule="evenodd" clip-rule="evenodd" d="M148.424 90.1709C149.079 91.9718 149.304 93.9667 149.1 96.1539C151.472 96.3188 153.725 95.7496 155.862 94.4445C159.435 95.8436 163.041 96.841 166.681 97.4359C168.476 94.5923 169.152 91.3154 168.71 87.6068C165.222 87.8786 161.841 87.3094 158.567 85.8974C156.632 86.7633 154.716 87.618 152.819 88.4615C152.56 87.9863 152.222 87.7017 151.805 87.6068C152.378 86.3539 153.279 85.641 154.51 85.4701C161.919 84.3592 169.131 85.3563 176.148 88.4615C177.049 89.3162 177.049 90.1709 176.148 91.0256C173.91 95.5607 171.205 99.5496 168.034 102.991C166.025 103.985 164.109 105.125 162.286 106.41C156.262 105.812 150.288 104.815 144.367 103.419C143.184 102.315 141.945 101.318 140.648 100.427C140.197 99.5727 140.197 98.718 140.648 97.8633C142.802 94.4094 145.394 91.8453 148.424 90.1709Z" fill="#FD703C"/>
<path fill-rule="evenodd" clip-rule="evenodd" d="M152.481 79.0598C155.289 78.4908 158.22 78.2058 161.271 78.2051C164.464 78.2118 167.394 78.7816 170.062 79.9145C164.221 79.1967 158.36 78.9117 152.481 79.0598Z" fill="#6C6980"/>
<path fill-rule="evenodd" clip-rule="evenodd" d="M161.271 69.6581C157.659 68.5802 154.053 68.5802 150.452 69.6581C150.527 69.1304 150.752 68.7031 151.128 68.3761C152.819 68.2336 154.509 68.0912 156.2 67.9487C158.18 67.9699 159.871 68.5397 161.271 69.6581Z" fill="#686479"/>
<path fill-rule="evenodd" clip-rule="evenodd" d="M245.119 179.06C246.045 183.056 245.932 187.044 244.781 191.026C243.71 192.189 242.47 192.759 241.062 192.735C236.552 192.403 232.044 191.975 227.538 191.453C226.316 188.131 224.737 185.139 222.805 182.479C223.03 182.194 223.256 181.908 223.481 181.624C224.289 183.16 225.416 184.014 226.862 184.188C226.556 180.604 225.767 177.185 224.495 173.932C220.811 170.257 216.979 166.838 213 163.675C206.508 161.048 199.859 160.478 193.052 161.966C196.981 163.136 200.925 164.276 204.886 165.385C208.265 167.558 211.759 169.409 215.367 170.94C217.826 173.014 218.84 175.72 218.41 179.06C222.449 184.084 225.492 189.924 227.538 196.581C225.577 199.397 223.774 202.388 222.129 205.556C220.728 208.752 218.699 211.032 216.043 212.393C215.367 212.393 214.691 212.393 214.014 212.393C211.811 208.583 209.669 204.595 207.591 200.427C202.201 193.268 196.679 186.289 191.024 179.487C188.632 178.456 186.604 176.747 184.938 174.359C179.773 171.584 174.363 170.729 168.71 171.795C167.411 172.103 166.283 172.815 165.329 173.932C170.062 175.071 174.795 176.211 179.529 177.35C186.627 181.637 193.276 186.765 199.476 192.735C199.832 195.104 200.395 197.383 201.167 199.573C203.611 203.779 205.865 208.052 207.929 212.393C208.605 212.393 209.281 212.393 209.957 212.393C209.842 213.523 210.067 214.52 210.633 215.385C208.889 216.825 207.312 218.392 205.9 220.085C202.531 220.558 199.15 220.844 195.757 220.94C195.863 219.767 195.75 218.626 195.419 217.521C193.168 215.247 190.914 212.968 188.657 210.684C188.015 211.13 187.451 211.7 186.967 212.393C186.159 210.857 185.031 210.003 183.586 209.829C183.586 208.974 183.586 208.12 183.586 207.265C182.117 206.153 180.54 205.298 178.852 204.701C178.715 202.873 178.039 201.449 176.824 200.427C173.255 198.114 169.874 195.408 166.681 192.308C160.648 191.414 154.787 192.268 149.1 194.872C148.412 195.768 148.299 196.766 148.762 197.863C153.644 196.028 158.603 195.743 163.638 197.008C167.786 198.836 171.618 201.4 175.133 204.701C175.46 205.511 175.572 206.366 175.471 207.265C180.055 209.845 184.112 213.407 187.643 217.949C188.284 218.361 188.96 218.503 189.671 218.376C189.671 219.231 189.671 220.085 189.671 220.94C181.093 220.298 172.528 219.444 163.976 218.376C161.995 217.693 159.966 217.408 157.891 217.521C155.591 216.167 153.112 215.169 150.452 214.53C148.387 211.163 146.246 207.886 144.029 204.701C143.692 202.152 143.579 199.588 143.691 197.008C148.576 186.273 155.113 177.441 163.3 170.513C164.63 169.545 165.87 169.83 167.019 171.367C168.3 168.617 170.216 166.765 172.767 165.812C176.406 163.695 180.238 162.556 184.262 162.393C184.713 161.823 185.163 161.254 185.614 160.684C200.946 155.552 215.484 157.689 229.229 167.094C229.751 166.97 230.202 166.685 230.581 166.239C233.792 169.052 237.06 171.759 240.386 174.359C241.499 175.688 241.724 177.112 241.062 178.632C242.396 179.056 243.748 179.198 245.119 179.06Z" fill="#FD5F3F"/>
<path fill-rule="evenodd" clip-rule="evenodd" d="M241.062 192.735C237.966 194.489 234.698 196.198 231.257 197.863C228.111 200.28 225.069 202.845 222.128 205.556C223.774 202.388 225.576 199.397 227.538 196.581C225.492 189.924 222.449 184.084 218.409 179.06C218.84 175.721 217.826 173.014 215.367 170.94C211.759 169.409 208.265 167.558 204.886 165.385C200.925 164.276 196.981 163.136 193.052 161.966C199.859 160.478 206.508 161.048 213 163.675C216.979 166.839 220.811 170.257 224.495 173.932C225.767 177.186 226.555 180.604 226.862 184.188C225.416 184.015 224.289 183.16 223.481 181.624C223.256 181.909 223.03 182.194 222.805 182.479C224.737 185.139 226.315 188.131 227.538 191.453C232.044 191.975 236.552 192.403 241.062 192.735Z" fill="#FC7E5A"/>
<path fill-rule="evenodd" clip-rule="evenodd" d="M304.624 158.547C305.238 160.215 305.125 161.925 304.286 163.675C301.964 168.286 300.048 173.13 298.538 178.205C297.862 178.205 297.186 178.205 296.51 178.205C298.654 172.006 300.908 165.88 303.272 159.829C303.499 158.949 303.95 158.521 304.624 158.547Z" fill="#BCD7D5"/>
<path fill-rule="evenodd" clip-rule="evenodd" d="M216.043 212.393C213.367 216.327 209.986 218.891 205.9 220.086C207.312 218.392 208.889 216.825 210.633 215.385C210.067 214.521 209.842 213.523 209.957 212.393C209.281 212.393 208.605 212.393 207.929 212.393C205.865 208.052 203.611 203.779 201.167 199.573C200.395 197.383 199.832 195.104 199.476 192.735C193.276 186.765 186.627 181.637 179.529 177.35C174.795 176.211 170.062 175.071 165.329 173.932C166.283 172.815 167.411 172.103 168.71 171.795C174.363 170.729 179.773 171.584 184.938 174.359C186.604 176.747 188.632 178.456 191.024 179.487C196.679 186.289 202.201 193.268 207.591 200.427C209.669 204.595 211.811 208.583 214.014 212.393C214.691 212.393 215.367 212.393 216.043 212.393Z" fill="#FD825F"/>
<path fill-rule="evenodd" clip-rule="evenodd" d="M111.91 105.556C113.052 107.281 114.179 108.991 115.29 110.684C115.898 112.502 117.024 113.499 118.671 113.675C117.863 114.234 117.863 114.662 118.671 114.957C119.208 114.589 119.772 114.303 120.362 114.103C126.02 116.425 131.767 118.42 137.605 120.085C137.012 120.727 136.336 121.155 135.576 121.367C137.647 122.001 139.675 121.859 141.662 120.94C142.471 121.236 142.471 121.663 141.662 122.222C143.087 122.53 144.44 123.1 145.719 123.932C145.317 124.328 144.866 124.471 144.367 124.359C138.862 124.168 133.453 123.171 128.138 121.367C122.591 118.319 116.956 115.897 111.233 114.103C111.123 118.416 111.349 122.69 111.91 126.923C117.099 126.781 122.283 126.923 127.462 127.35C131.864 129.044 136.371 130.185 140.986 130.769C142.113 131.624 143.239 132.479 144.367 133.333C151.647 135.726 158.183 139.856 163.976 145.726C166.456 148.688 168.26 152.25 169.386 156.41C169.288 157.07 169.062 157.64 168.71 158.12C170.107 158.578 171.347 158.15 172.429 156.838C172.823 153.135 173.161 149.432 173.443 145.726C174 142.468 174.338 139.05 174.457 135.47C174.692 142.104 174.805 148.657 174.795 155.128C175.358 146.596 175.696 138.049 175.81 129.487C177.272 138.926 177.16 148.327 175.471 157.692C175.697 158.262 175.922 158.832 176.148 159.402C176.676 158.344 177.352 157.49 178.176 156.838C178.644 157.286 178.982 157.856 179.19 158.547C179.515 157.151 180.078 156.012 180.881 155.128C183.772 154.144 186.702 153.289 189.671 152.564C193.099 152.957 196.48 152.957 199.814 152.564C200.376 146.315 200.714 140.048 200.829 133.761C201.355 131.541 201.693 131.541 201.843 133.761C201.632 139.677 201.857 145.518 202.519 151.282C207.501 151.95 212.459 152.804 217.395 153.846C229.828 156.526 240.309 163.507 248.838 174.786C250.904 180.456 251.016 186.154 249.176 191.88C248.773 192.081 248.547 192.509 248.5 193.162C249.675 196.258 251.704 197.683 254.586 197.436C251.978 197.587 249.499 198.014 247.148 198.718C246.965 206.994 244.936 214.401 241.062 220.94C239.935 220.94 238.808 220.94 237.681 220.94C238.452 218.782 238.903 216.503 239.033 214.103C238.805 210.982 239.931 209.558 242.414 209.829C242.234 206.35 242.46 202.931 243.09 199.573C235.343 199.805 229.032 203.794 224.157 211.538C221.483 214.051 218.778 216.615 216.043 219.231C214.24 219.601 212.437 220.028 210.633 220.513C209.637 221.12 209.186 222.116 209.281 223.504C207.06 224.275 204.805 225.13 202.519 226.068C194.754 225.425 186.977 224.856 179.19 224.359C172.627 222.103 165.977 220.394 159.243 219.231C158.412 218.563 157.51 218.136 156.538 217.949C156.94 217.552 157.391 217.409 157.89 217.521C159.966 217.409 161.995 217.693 163.976 218.376C176.342 222.388 188.965 223.813 201.843 222.65C203.412 222.171 204.765 221.316 205.9 220.085C209.986 218.891 213.366 216.326 216.043 212.393C218.699 211.032 220.727 208.752 222.129 205.556C225.069 202.844 228.112 200.28 231.257 197.863C234.698 196.198 237.966 194.489 241.062 192.735C242.47 192.759 243.71 192.189 244.781 191.026C245.932 187.044 246.045 183.056 245.119 179.06C244.473 177.337 243.571 175.77 242.414 174.359C218.856 153.442 193.949 150.735 167.695 166.239C165.884 167.294 164.419 168.718 163.3 170.513C155.113 177.441 148.576 186.273 143.69 197.009C143.137 199.406 142.799 201.97 142.676 204.701C142.339 199.58 142.226 194.452 142.338 189.316C144.446 185.719 146.587 182.015 148.762 178.205C150.546 176.497 152.349 174.788 154.171 173.077C154.571 172.237 154.345 171.667 153.495 171.367C147.312 176.915 141.339 182.756 135.576 188.889C133.973 190.495 132.17 191.491 130.167 191.88C126.104 194.124 122.047 195.833 117.995 197.009C114.839 197.009 111.684 197.009 108.529 197.009C108.454 196.481 108.228 196.054 107.852 195.726C104.902 195.411 101.972 194.984 99.0619 194.444C95.2617 194.355 91.6556 193.5 88.2429 191.88C88.2429 191.026 88.2429 190.171 88.2429 189.316C84.488 188.115 80.656 187.261 76.7476 186.752C75.8571 187.335 74.9557 187.905 74.0429 188.462C73.8339 186.029 72.7074 184.747 70.6619 184.615C68.1451 184.412 65.6656 183.985 63.2238 183.333C62.6249 184.038 62.3995 184.893 62.5476 185.897C63.4763 185.763 64.3779 185.906 65.2524 186.325C64.9691 189.244 63.8421 191.38 61.8714 192.735C61.9797 191.283 61.867 189.858 61.5333 188.462C58.862 186.647 56.4954 184.368 54.4333 181.624C52.7511 176.86 52.6384 172.017 54.0952 167.094C56.4716 162.226 59.1764 157.668 62.2095 153.419C74.7062 138.158 89.6946 129.896 107.176 128.632C107.176 122.934 107.176 117.237 107.176 111.538C107.664 111.896 108.002 112.465 108.19 113.248C108.416 109.544 108.641 105.84 108.867 102.137C109.092 107.265 109.318 112.393 109.543 117.521C109.611 112.867 110.062 108.309 110.895 103.846C111.083 104.629 111.421 105.198 111.91 105.556Z" fill="#24175D"/>
<path fill-rule="evenodd" clip-rule="evenodd" d="M125.433 186.752C126.044 187.358 126.27 188.213 126.109 189.316C125.208 189.316 124.306 189.316 123.405 189.316C115.299 190.438 107.185 190.438 99.0617 189.316C96.2238 189.377 93.4068 189.091 90.6094 188.462C80.7539 185.49 70.8369 182.926 60.857 180.769C59.9339 180.475 59.145 179.905 58.4903 179.06C57.8316 177.143 57.6061 175.149 57.8141 173.077C58.6556 174.926 59.3318 176.921 59.8427 179.06C68.3728 180.704 76.9381 182.556 85.5379 184.615C85.3128 184.9 85.0869 185.185 84.8617 185.47C87.7944 186.113 90.725 186.398 93.6522 186.325C93.0862 185.461 92.8611 184.463 92.976 183.333C88.4719 180.325 84.1889 176.763 80.1284 172.65C74.8758 170.159 69.4662 168.307 63.8998 167.094C64.0414 166.593 64.2667 166.166 64.576 165.812C69.0842 165.242 73.5917 165.242 78.0998 165.812C80.4787 167.316 82.7331 168.883 84.8617 170.513C84.8617 171.368 84.8617 172.222 84.8617 173.077C87.7268 173.416 89.7553 175.268 90.9474 178.632C92.454 179.828 94.0316 180.826 95.6808 181.624C96.5199 181.165 97.3091 180.595 98.0475 179.915C99.3768 181.234 100.841 182.231 102.443 182.906C103.264 185.191 104.165 187.328 105.147 189.316C110.111 189.458 115.07 189.316 120.024 188.889C122.171 188.934 123.974 188.222 125.433 186.752Z" fill="#F7794F"/>
<path fill-rule="evenodd" clip-rule="evenodd" d="M245.119 179.06C243.748 179.198 242.396 179.056 241.062 178.633C241.724 177.112 241.499 175.688 240.386 174.359C237.059 171.759 233.791 169.052 230.581 166.239C230.201 166.686 229.75 166.97 229.228 167.094C215.483 157.689 200.945 155.552 185.614 160.684C185.163 161.254 184.713 161.823 184.262 162.393C180.238 162.556 176.406 163.695 172.766 165.812C170.216 166.765 168.3 168.617 167.019 171.368C165.869 169.83 164.63 169.545 163.3 170.513C164.419 168.718 165.884 167.294 167.695 166.239C193.949 150.735 218.856 153.442 242.414 174.359C243.57 175.77 244.472 177.337 245.119 179.06Z" fill="#E76B3D"/>
<path fill-rule="evenodd" clip-rule="evenodd" d="M144.366 173.077C142.844 175.466 141.041 177.46 138.957 179.06C137.2 173.253 135.734 167.27 134.562 161.111C130.384 154.638 125.989 148.513 121.376 142.735C109.674 136.526 109.899 135.101 122.052 138.462C124.569 139.525 126.823 141.092 128.814 143.162C133.528 153.097 138.036 163.068 142.338 173.077C143.014 173.077 143.69 173.077 144.366 173.077Z" fill="#FC825E"/>
<path fill-rule="evenodd" clip-rule="evenodd" d="M92.9763 142.308C99.6577 146.104 105.518 151.375 110.557 158.12C111.53 158.307 112.431 158.734 113.262 159.402C117.164 166.143 121.221 172.696 125.433 179.06C126.821 181.022 127.497 183.302 127.462 185.897C129.067 185.219 130.644 184.364 132.195 183.333C132.606 183.439 132.831 183.724 132.872 184.188C130.844 186.326 128.59 188.036 126.11 189.316C126.27 188.213 126.045 187.358 125.433 186.752C122.543 181.815 119.275 177.256 115.629 173.077C115.447 170.289 114.433 168.152 112.586 166.667C110.028 164.007 107.548 161.3 105.148 158.547C104.081 157.865 102.954 157.438 101.767 157.265C99.7794 154.041 97.2998 151.62 94.3287 150C93.5673 148.331 92.4407 147.049 90.9477 146.154C88.0178 145.869 85.0872 145.584 82.1572 145.299C84.5996 143.921 86.9663 142.354 89.2572 140.598C90.3168 141.757 91.5563 142.327 92.9763 142.308Z" fill="#FC8360"/>
<path fill-rule="evenodd" clip-rule="evenodd" d="M145.719 171.368C146.363 170.554 147.039 169.699 147.748 168.803C151.436 166.615 155.042 164.192 158.567 161.539C155.838 161.363 154.372 159.511 154.171 155.983C149.836 151.669 146.568 146.399 144.367 140.171C140.888 138.155 137.282 136.588 133.548 135.47C126.448 134.582 119.46 134.012 112.586 133.761C108.543 134.368 104.486 134.938 100.414 135.47C98.6703 136.774 96.8669 137.914 95.0047 138.889C97.0989 139.482 97.3247 140.337 95.6809 141.453C94.3583 140.557 93.0059 140.13 91.6238 140.171C92.2195 140.776 92.6698 141.489 92.9761 142.308C91.5561 142.327 90.3167 141.757 89.2571 140.598C86.9662 142.354 84.5995 143.921 82.1571 145.299C85.087 145.584 88.0176 145.869 90.9476 146.154C92.4406 147.049 93.5671 148.331 94.3285 150C92.1302 148.198 89.7636 147.058 87.2285 146.581C81.9536 146.833 77.1073 147.973 72.6904 150C92.4676 131.965 114.331 126.98 138.281 135.043C144.765 138.091 151.076 141.652 157.214 145.727C169.062 156.034 167.935 162.872 153.833 166.239C151.571 169.106 148.867 170.815 145.719 171.368Z" fill="#F46D42"/>
<path fill-rule="evenodd" clip-rule="evenodd" d="M94.3287 150C97.2999 151.62 99.7795 154.041 101.767 157.265C102.954 157.438 104.081 157.865 105.148 158.547C107.548 161.3 110.028 164.007 112.586 166.667C114.433 168.152 115.448 170.289 115.629 173.077C119.275 177.256 122.543 181.815 125.434 186.752C123.974 188.222 122.171 188.934 120.024 188.889C115.07 189.316 110.112 189.458 105.148 189.316C104.165 187.328 103.264 185.191 102.443 182.906C100.842 182.231 99.3772 181.234 98.0478 179.915C97.3094 180.595 96.5203 181.165 95.6811 181.624C94.0319 180.826 92.4543 179.828 90.9478 178.632C89.7557 175.268 87.7271 173.416 84.8621 173.077C84.8621 172.222 84.8621 171.368 84.8621 170.513C82.7334 168.883 80.479 167.316 78.1002 165.812C73.592 165.242 69.0845 165.242 64.5764 165.812C64.2671 166.166 64.0417 166.593 63.9002 167.094C69.4666 168.307 74.8761 170.159 80.1287 172.65C84.1893 176.763 88.4723 180.325 92.9764 183.333C92.8614 184.463 93.0866 185.461 93.6526 186.325C90.7253 186.398 87.7947 186.113 84.8621 185.47C85.0872 185.185 85.3131 184.9 85.5383 184.615C76.9385 182.556 68.3732 180.704 59.843 179.06C59.3322 176.92 58.656 174.926 57.8145 173.077C58.8676 168.867 60.3327 164.879 62.2097 161.111C65.3914 156.898 68.885 153.195 72.6906 150C77.1075 147.973 81.9538 146.832 87.2287 146.581C89.7638 147.058 92.1304 148.197 94.3287 150Z" fill="#FD5F3F"/>
<path fill-rule="evenodd" clip-rule="evenodd" d="M145.719 171.368C145.494 172.222 145.043 172.792 144.367 173.077C143.691 173.077 143.014 173.077 142.338 173.077C138.036 163.068 133.528 153.097 128.814 143.162C126.824 141.092 124.569 139.525 122.053 138.462C109.899 135.101 109.674 136.526 121.376 142.735C125.989 148.513 130.385 154.638 134.562 161.111C135.735 167.27 137.2 173.253 138.957 179.06C136.906 180.772 134.878 182.481 132.872 184.188C132.831 183.724 132.606 183.439 132.195 183.333C130.644 184.364 129.067 185.219 127.462 185.897C127.497 183.302 126.821 181.022 125.434 179.06C121.221 172.696 117.164 166.143 113.262 159.402C112.431 158.734 111.53 158.307 110.557 158.12C105.518 151.375 99.6578 146.104 92.9764 142.308C92.6701 141.489 92.2197 140.776 91.624 140.171C93.0062 140.13 94.3585 140.557 95.6812 141.453C97.325 140.337 97.0991 139.482 95.005 138.889C96.8672 137.914 98.6706 136.774 100.414 135.47C104.487 134.938 108.544 134.368 112.586 133.761C119.46 134.012 126.448 134.582 133.548 135.47C137.282 136.588 140.889 138.155 144.367 140.171C146.568 146.399 149.836 151.669 154.172 155.983C154.372 159.511 155.838 161.363 158.567 161.539C155.043 164.192 151.436 166.615 147.748 168.803C147.039 169.699 146.363 170.554 145.719 171.368Z" fill="#FE5E3F"/>
<path fill-rule="evenodd" clip-rule="evenodd" d="M205.9 220.085C204.765 221.316 203.412 222.171 201.843 222.65C188.965 223.813 176.342 222.388 163.976 218.376C172.528 219.444 181.093 220.298 189.671 220.94C189.671 220.085 189.671 219.231 189.671 218.376C188.96 218.503 188.284 218.361 187.643 217.949C184.112 213.407 180.055 209.845 175.471 207.265C175.572 206.366 175.46 205.511 175.133 204.701C171.618 201.4 167.786 198.836 163.638 197.008C158.602 195.743 153.644 196.028 148.762 197.863C148.299 196.766 148.412 195.768 149.1 194.872C154.787 192.268 160.648 191.414 166.681 192.308C169.874 195.408 173.255 198.114 176.824 200.427C178.039 201.449 178.715 202.873 178.852 204.701C180.539 205.298 182.117 206.153 183.586 207.265C183.586 208.12 183.586 208.974 183.586 209.829C185.031 210.003 186.158 210.857 186.967 212.393C187.451 211.7 188.015 211.13 188.657 210.684C190.914 212.968 193.168 215.247 195.419 217.521C195.75 218.626 195.863 219.767 195.757 220.94C199.15 220.844 202.531 220.558 205.9 220.085Z" fill="#F97C58"/>
<path fill-rule="evenodd" clip-rule="evenodd" d="M142.338 189.316C141.665 189.243 141.101 189.528 140.648 190.171C139.742 197.022 138.164 203.574 135.914 209.829C133.301 213.741 130.033 216.305 126.11 217.521C123.197 218.263 120.267 218.405 117.319 217.949C114.516 216.468 111.586 215.472 108.529 214.957C105.576 216.638 102.42 217.492 99.062 217.521C96.6007 215.69 94.4592 213.41 92.6382 210.684C90.2391 212.985 87.6466 213.555 84.862 212.393C85.2001 207.41 83.5097 205.986 79.7906 208.12C78.6046 206.992 77.5903 205.568 76.7478 203.846C74.2634 203.22 71.7838 202.65 69.3097 202.137C68.0418 197.615 66.9147 193.056 65.9287 188.462C73.3222 190.074 80.7603 191.214 88.243 191.88C91.6557 193.5 95.2619 194.355 99.062 194.444C99.7477 195.526 100.762 196.095 102.105 196.154C104.246 196.497 106.388 196.781 108.529 197.009C111.684 197.009 114.84 197.009 117.995 197.009C120.117 195.999 122.146 195.999 124.081 197.009C115.722 200.109 107.27 200.109 98.7239 197.009C97.2586 197.293 95.794 197.579 94.3287 197.863C95.2301 198.433 96.1321 199.003 97.0335 199.573C95.4505 200.609 93.9859 200.323 92.6382 198.718C92.1757 199.815 92.2886 200.813 92.9763 201.709C91.365 201.765 90.9139 202.477 91.6239 203.846C90.2864 204.96 90.2864 206.384 91.6239 208.12C92.6186 207.367 93.1819 206.227 93.3144 204.701C94.7493 205.316 95.0874 206.314 94.3287 207.692C94.9697 208.105 95.6459 208.247 96.3573 208.12C96.078 212.375 97.6556 214.655 101.091 214.957C106.134 211.411 111.092 211.554 115.967 215.385C119.34 215.811 122.721 215.954 126.11 215.812C126.11 214.673 126.11 213.533 126.11 212.393C123.243 212.945 120.313 212.661 117.319 211.538C118.123 210.744 119.025 210.46 120.024 210.684C119.997 207.794 120.222 204.945 120.7 202.137C121.827 202.137 122.954 202.137 124.081 202.137C124.532 198.718 124.982 198.718 125.433 202.137C126.228 202.324 126.904 202.039 127.462 201.282C129.466 198.074 129.015 196.65 126.11 197.009C126.906 195.727 128.033 194.873 129.491 194.444C129.915 193.661 130.14 192.806 130.167 191.88C132.17 191.491 133.973 190.495 135.576 188.889C141.339 182.756 147.312 176.915 153.495 171.368C154.345 171.667 154.571 172.237 154.172 173.077C152.349 174.788 150.546 176.497 148.762 178.205C146.587 182.015 144.446 185.719 142.338 189.316Z" fill="#F9F2DA"/>
<path fill-rule="evenodd" clip-rule="evenodd" d="M296.51 179.915C296.204 182.225 295.753 184.504 295.157 186.752C291.539 196.171 287.933 205.573 284.338 214.957C282.098 218.719 280.294 222.85 278.929 227.35C279.154 227.635 279.38 227.921 279.605 228.205C278.964 228.618 278.288 228.76 277.576 228.632C277.576 229.487 277.576 230.342 277.576 231.197C277.12 232.499 276.444 233.639 275.548 234.615C274.99 235.373 274.314 235.657 273.519 235.47C281.258 216.896 288.922 198.377 296.51 179.915Z" fill="#C4DFD9"/>
<path fill-rule="evenodd" clip-rule="evenodd" d="M16.5664 181.624C10.9727 202.741 16.7203 215.846 33.8093 220.94C34.5057 221.227 34.8438 221.797 34.8236 222.65C28.3991 222.03 22.9896 218.754 18.595 212.821C17.954 212.408 17.2778 212.266 16.5664 212.393C16.3379 210.381 15.9998 208.387 15.5522 206.41C14.115 205.569 13.3261 204.145 13.1855 202.137C12.6239 197.892 12.3985 193.619 12.5093 189.316C13.6962 187.348 14.485 185.068 14.876 182.479C15.3296 181.836 15.893 181.55 16.5664 181.624Z" fill="#D4E5E3"/>
<path fill-rule="evenodd" clip-rule="evenodd" d="M46.9951 220.085C48.8966 220.314 50.4745 221.168 51.7285 222.65C49.7775 222.527 48.1998 221.673 46.9951 220.085Z" fill="#2E5F75"/>
<path fill-rule="evenodd" clip-rule="evenodd" d="M239.033 214.103C238.125 216.797 236.66 219.076 234.638 220.94C235.122 226.647 233.205 230.066 228.891 231.197C228.891 230.342 228.891 229.487 228.891 228.632C229.858 228.7 230.76 228.415 231.595 227.778C231.962 222.962 233.541 218.973 236.329 215.812C236.399 212.45 237.526 209.885 239.71 208.12C240.474 206.774 240.587 205.35 240.048 203.846C237.589 202.719 235.109 202.719 232.61 203.846C230.444 207.585 227.626 210.149 224.157 211.538C229.032 203.794 235.343 199.805 243.091 199.573C242.46 202.931 242.235 206.35 242.414 209.829C239.931 209.558 238.805 210.982 239.033 214.103Z" fill="#DEDCD8"/>
<path fill-rule="evenodd" clip-rule="evenodd" d="M228.891 231.197C225.32 232.291 223.065 235.141 222.129 239.744C220.565 240.404 218.987 240.974 217.395 241.453C216.783 243.065 216.107 244.632 215.367 246.154C214.014 246.438 212.662 246.724 211.31 247.009C210.478 249.236 209.351 251.088 207.929 252.564C205.38 252.783 202.901 252.498 200.491 251.709C199.879 251.103 199.654 250.249 199.814 249.145C198.941 248.943 198.265 249.227 197.786 250C193.689 250.21 189.632 249.926 185.614 249.145C184.56 249.129 183.545 248.844 182.572 248.291C180.765 246.291 178.962 244.297 177.162 242.308C175.39 243.606 173.924 243.179 172.767 241.026C170.28 240.933 167.802 240.933 165.329 241.026C163.943 240.67 163.04 239.673 162.624 238.034C161.777 236.462 161.777 234.896 162.624 233.333C160.691 232.861 158.775 233.003 156.876 233.761C155.719 233.813 154.818 233.243 154.172 232.051C153.646 229.548 153.759 227.126 154.51 224.786C157.9 224.766 161.281 225.193 164.653 226.068C176.909 230.201 189.419 231.625 202.181 230.342C203.855 229.791 205.095 228.651 205.9 226.923C209.543 224.828 212.924 222.264 216.043 219.231C218.778 216.615 221.483 214.051 224.157 211.538C227.626 210.149 230.444 207.585 232.61 203.846C235.11 202.719 237.589 202.719 240.048 203.846C240.587 205.35 240.474 206.774 239.71 208.12C237.526 209.885 236.399 212.45 236.329 215.812C233.541 218.973 231.963 222.962 231.595 227.778C230.76 228.415 229.858 228.7 228.891 228.632C228.891 229.487 228.891 230.342 228.891 231.197Z" fill="#FCF3D2"/>
<path fill-rule="evenodd" clip-rule="evenodd" d="M309.357 131.197C302.296 149.126 295.646 167.359 289.41 185.897C282.468 201.209 275.932 216.879 269.8 232.906C263.781 244.96 258.033 257.21 252.557 269.658C250.458 271.959 248.43 274.38 246.471 276.923C235.736 280.713 224.916 280.856 214.014 277.35C212.313 275.792 210.284 274.938 207.929 274.786C207.478 274.786 207.027 274.786 206.576 274.786C206.894 273.767 207.57 273.197 208.605 273.077C213.596 275.354 216.3 275.923 216.719 274.786C216.647 270.978 217.661 270.123 219.762 272.222C220.228 271.49 220.791 270.92 221.452 270.513C222.714 271.421 223.052 270.851 222.467 268.803C219.057 265.538 219.282 263.829 223.143 263.675C223.849 264.635 224.299 265.774 224.495 267.094C224.822 266.284 224.934 265.429 224.833 264.53C225.982 264.667 227.109 264.525 228.214 264.103C228.775 262.55 229.339 260.984 229.905 259.402C230.239 260.798 230.351 262.223 230.243 263.675C231.392 263.538 232.519 263.68 233.624 264.103C233.077 264.366 232.626 264.793 232.271 265.385C233.628 266.347 234.53 265.778 234.976 263.675C233.996 262.521 233.545 261.097 233.624 259.402C234.525 259.402 235.427 259.402 236.329 259.402C236.438 257.669 236.325 255.96 235.99 254.273C235.133 254.373 234.231 254.657 233.286 255.128C233.006 252.793 232.555 250.514 231.933 248.291C231.3 250.178 230.174 251.318 228.552 251.709C228.101 250 228.101 248.291 228.552 246.581C230.74 244.022 230.176 242.882 226.862 243.162C227.01 244.167 226.785 245.021 226.186 245.726C225.468 244.936 225.468 244.081 226.186 243.162C226.23 241.285 226.681 239.576 227.538 238.034C231.243 236.147 234.624 233.583 237.681 230.342C238.234 228.114 238.572 225.834 238.695 223.504C239.722 222.938 240.511 222.083 241.062 220.94C244.936 214.401 246.965 206.994 247.148 198.718C254.194 198.646 260.955 196.937 267.433 193.59C270.199 191.336 272.904 188.914 275.548 186.325C281.942 178.859 287.464 170.455 292.114 161.111C293.92 152.307 294.935 143.475 295.157 134.615C295.826 129.639 296.277 124.511 296.51 119.231C296.51 114.387 296.51 109.544 296.51 104.701C296.51 103.846 296.51 102.991 296.51 102.137C296.719 101.079 297.057 101.079 297.524 102.137C298.303 107.496 298.753 112.909 298.876 118.376C299.638 115.917 300.089 113.353 300.229 110.684C301.665 109.529 302.455 110.098 302.595 112.393C301.585 116.647 302.148 116.932 304.286 113.248C305.057 115.836 304.493 117.688 302.595 118.803C304.706 121.918 305.157 125.479 303.948 129.487C303.301 128.32 302.851 127.038 302.595 125.641C303.393 123.003 302.942 120.866 301.243 119.231C299.478 120.673 299.703 121.813 301.919 122.65C301.564 123.241 301.113 123.668 300.567 123.932C300.998 125.391 300.998 126.957 300.567 128.632C301.278 128.505 301.954 128.647 302.595 129.06C299.174 132.362 299.061 135.069 302.257 137.179C303.044 134.006 304.058 134.006 305.3 137.179C306.501 135.095 307.403 132.815 308.005 130.342C308.981 129.076 309.432 129.361 309.357 131.197Z" fill="#39C394"/>
<path fill-rule="evenodd" clip-rule="evenodd" d="M88.243 191.88C80.7603 191.214 73.3222 190.074 65.9287 188.462C66.9147 193.056 68.0418 197.615 69.3097 202.137C71.7839 202.65 74.2634 203.22 76.7478 203.846C77.5903 205.568 78.6046 206.992 79.7906 208.12C83.5097 205.986 85.2002 207.41 84.8621 212.393C87.6466 213.555 90.2391 212.985 92.6383 210.684C94.4592 213.41 96.6007 215.69 99.0621 217.521C102.539 218.835 105.92 218.265 109.205 215.812C114.281 219.496 119.691 220.636 125.433 219.231C125.679 218.647 125.904 218.077 126.11 217.521C130.033 216.305 133.301 213.741 135.914 209.829C138.164 203.574 139.742 197.022 140.648 190.171C141.102 189.528 141.665 189.243 142.338 189.316C142.226 194.452 142.339 199.58 142.676 204.701C142.799 201.97 143.137 199.406 143.691 197.009C143.579 199.588 143.692 202.152 144.029 204.701C146.246 207.886 148.387 211.163 150.453 214.53C153.112 215.169 155.592 216.167 157.891 217.521C157.391 217.409 156.94 217.552 156.538 217.949C157.511 218.136 158.412 218.563 159.243 219.231C165.977 220.394 172.627 222.103 179.191 224.359C186.978 224.856 194.754 225.425 202.519 226.068C204.805 225.13 207.06 224.275 209.281 223.504C209.186 222.116 209.637 221.12 210.633 220.513C212.438 220.028 214.24 219.601 216.043 219.231C212.924 222.264 209.543 224.828 205.9 226.923C198.994 228.538 192.007 228.965 184.938 228.205C175.461 226.522 165.995 224.67 156.538 222.65C156.097 221.603 155.308 221.033 154.172 220.94C152.482 220.584 150.792 220.298 149.1 220.086C148.779 222.292 149.23 224.002 150.453 225.214C152.345 226.836 152.796 228.973 151.805 231.624C153.158 236.11 155.638 237.392 159.243 235.47C160.499 236.126 161.626 236.98 162.624 238.034C163.04 239.673 163.943 240.67 165.329 241.026C167.802 240.933 170.28 240.933 172.767 241.026C173.924 243.179 175.39 243.606 177.162 242.308C178.962 244.297 180.765 246.291 182.572 248.291C183.545 248.844 184.56 249.129 185.614 249.145C187.364 250.27 189.392 250.84 191.7 250.855C193.855 250.853 195.883 250.568 197.786 250C198.265 249.227 198.941 248.943 199.814 249.145C199.654 250.249 199.879 251.103 200.491 251.709C200.838 253.367 201.74 254.221 203.195 254.274C204.905 253.907 206.483 253.337 207.929 252.564C209.351 251.088 210.478 249.236 211.31 247.009C212.662 246.724 214.014 246.439 215.367 246.154C216.107 244.633 216.783 243.065 217.395 241.453C218.987 240.974 220.565 240.404 222.129 239.744C223.065 235.141 225.32 232.291 228.891 231.197C233.205 230.066 235.122 226.647 234.638 220.94C236.66 219.076 238.125 216.797 239.033 214.103C238.903 216.503 238.452 218.782 237.681 220.94C238.808 220.94 239.935 220.94 241.062 220.94C240.511 222.083 239.722 222.938 238.695 223.504C238.572 225.834 238.234 228.114 237.681 230.342C234.624 233.583 231.243 236.147 227.538 238.034C226.681 239.576 226.23 241.286 226.186 243.162C224.549 244.351 222.745 245.064 220.776 245.299C217.518 249.764 213.912 253.61 209.957 256.838C205.94 257.618 201.883 257.903 197.786 257.692C197.11 257.122 196.433 256.553 195.757 255.983C192.242 255.334 188.636 254.765 184.938 254.274C184.01 254.408 183.108 254.265 182.233 253.846C180.304 252.594 178.502 251.17 176.824 249.573C174.889 249.342 173.086 248.629 171.414 247.436C166.464 247.767 162.182 245.915 158.567 241.88C150.675 241.25 146.505 235.979 146.057 226.068C145.777 225.678 145.439 225.392 145.043 225.214C144.483 221.255 144.145 217.267 144.029 213.248C142.875 212.557 142.312 211.418 142.338 209.829C141.662 209.829 140.986 209.829 140.31 209.829C140.41 210.728 140.298 211.583 139.972 212.393C132.871 222.61 123.968 226.029 113.262 222.65C112.096 221.229 110.631 220.374 108.867 220.086C107.212 220.256 105.972 221.11 105.148 222.65C102.406 222.927 99.7011 222.642 97.0335 221.795C95.3423 220.362 93.6519 218.938 91.9621 217.521C90.0775 218.391 88.1619 218.533 86.2144 217.949C83.0904 216.015 79.9347 214.163 76.7478 212.393C74.2932 208.833 71.1381 206.981 67.2811 206.838C64.2562 202.943 62.453 198.242 61.8716 192.735C63.8423 191.38 64.9693 189.244 65.2525 186.325C64.3781 185.906 63.4765 185.763 62.5478 185.897C62.3997 184.893 62.6251 184.039 63.224 183.333C65.6658 183.985 68.1453 184.412 70.6621 184.615C72.7075 184.747 73.8341 186.029 74.043 188.462C74.9559 187.905 75.8572 187.335 76.7478 186.752C80.6562 187.261 84.4881 188.115 88.243 189.316C88.243 190.171 88.243 191.026 88.243 191.88Z" fill="#211954"/>
<path fill-rule="evenodd" clip-rule="evenodd" d="M156.538 222.65C165.994 224.67 175.461 226.522 184.938 228.205C192.007 228.965 198.994 228.538 205.9 226.923C205.094 228.651 203.855 229.791 202.181 230.342C189.418 231.625 176.909 230.201 164.652 226.068C161.281 225.193 157.9 224.766 154.509 224.786C153.759 227.126 153.646 229.548 154.171 232.051C154.818 233.243 155.719 233.813 156.876 233.761C158.775 233.003 160.69 232.861 162.624 233.333C161.777 234.896 161.777 236.462 162.624 238.034C161.626 236.98 160.498 236.126 159.243 235.47C155.637 237.392 153.158 236.11 151.805 231.624C152.795 228.973 152.344 226.836 150.452 225.214C149.664 223.79 149.664 222.365 150.452 220.94C152.445 221.729 154.473 222.298 156.538 222.65Z" fill="#EDECE0"/>
<path fill-rule="evenodd" clip-rule="evenodd" d="M156.538 222.65C154.474 222.298 152.445 221.729 150.453 220.94C149.664 222.365 149.664 223.79 150.453 225.214C149.23 224.002 148.779 222.292 149.1 220.085C150.792 220.298 152.483 220.584 154.172 220.94C155.308 221.032 156.097 221.603 156.538 222.65Z" fill="#91899A"/>
<path fill-rule="evenodd" clip-rule="evenodd" d="M113.262 222.65C110.557 221.51 107.852 221.51 105.147 222.65C105.972 221.11 107.211 220.256 108.867 220.085C110.631 220.374 112.096 221.229 113.262 222.65Z" fill="#349383"/>
<path fill-rule="evenodd" clip-rule="evenodd" d="M126.11 217.521C125.904 218.077 125.679 218.647 125.433 219.231C119.691 220.636 114.281 219.496 109.205 215.812C105.92 218.265 102.539 218.835 99.062 217.521C102.42 217.492 105.576 216.638 108.529 214.957C111.586 215.472 114.516 216.468 117.319 217.949C120.267 218.405 123.197 218.263 126.11 217.521Z" fill="#1C1D3F"/>
<path fill-rule="evenodd" clip-rule="evenodd" d="M124.081 197.009C124.757 197.009 125.433 197.009 126.109 197.009C129.014 196.65 129.465 198.074 127.462 201.282C126.904 202.039 126.228 202.324 125.433 202.137C124.982 198.718 124.532 198.718 124.081 202.137C122.954 202.137 121.827 202.137 120.7 202.137C120.222 204.945 119.997 207.794 120.024 210.684C119.024 210.46 118.123 210.744 117.319 211.538C120.312 212.661 123.242 212.945 126.109 212.393C126.109 213.532 126.109 214.673 126.109 215.812C122.721 215.954 119.34 215.811 115.967 215.385C111.092 211.554 106.133 211.411 101.09 214.957C97.6554 214.655 96.0778 212.375 96.3571 208.12C95.6457 208.247 94.9695 208.105 94.3285 207.692C95.0872 206.314 94.7491 205.316 93.3142 204.701C93.1817 206.227 92.6184 207.367 91.6237 208.12C90.2862 206.384 90.2862 204.96 91.6237 203.846C90.9137 202.477 91.3648 201.765 92.9761 201.709C92.2884 200.813 92.1755 199.815 92.638 198.718C93.9857 200.323 95.4503 200.609 97.0333 199.573C96.1319 199.003 95.2299 198.433 94.3285 197.863C95.7938 197.579 97.2584 197.293 98.7237 197.009C107.269 200.109 115.722 200.109 124.081 197.009Z" fill="#FDF3CF"/>
<path fill-rule="evenodd" clip-rule="evenodd" d="M99.062 194.444C101.972 194.984 104.902 195.411 107.852 195.727C108.228 196.054 108.454 196.481 108.529 197.009C106.388 196.781 104.246 196.497 102.105 196.154C100.762 196.095 99.7477 195.526 99.062 194.444Z" fill="#66627B"/>
<path fill-rule="evenodd" clip-rule="evenodd" d="M130.167 191.88C130.14 192.806 129.914 193.661 129.49 194.444C128.033 194.873 126.906 195.727 126.109 197.009C125.433 197.009 124.757 197.009 124.081 197.009C122.146 195.999 120.117 195.999 117.995 197.009C122.047 195.833 126.104 194.124 130.167 191.88Z" fill="#B8B5BC"/>
<path fill-rule="evenodd" clip-rule="evenodd" d="M99.062 189.316C107.185 190.439 115.299 190.439 123.405 189.316C119.599 190.452 115.542 191.022 111.233 191.026C106.925 191.022 102.868 190.452 99.062 189.316Z" fill="#9C514B"/>
<path fill-rule="evenodd" clip-rule="evenodd" d="M185.614 249.145C189.632 249.926 193.689 250.21 197.786 250C195.883 250.568 193.854 250.853 191.7 250.855C189.392 250.84 187.364 250.27 185.614 249.145Z" fill="#7D7A81"/>
<path fill-rule="evenodd" clip-rule="evenodd" d="M200.49 251.709C202.9 252.498 205.38 252.783 207.928 252.564C206.483 253.337 204.905 253.907 203.195 254.273C201.739 254.221 200.838 253.367 200.49 251.709Z" fill="#8F95A4"/>
<path fill-rule="evenodd" clip-rule="evenodd" d="M184.938 254.273C188.636 254.765 192.242 255.334 195.757 255.983C192.369 256.125 188.988 255.982 185.614 255.555C185.238 255.228 185.013 254.801 184.938 254.273Z" fill="#295869"/>
<path fill-rule="evenodd" clip-rule="evenodd" d="M209.957 256.838C209.882 257.365 209.657 257.792 209.281 258.12C207.167 258.768 205.026 259.196 202.857 259.402C200.95 259.48 199.259 258.911 197.786 257.692C201.883 257.903 205.94 257.618 209.957 256.838Z" fill="#2B546C"/>
<path fill-rule="evenodd" clip-rule="evenodd" d="M129.49 254.273C136.773 255.793 143.986 257.787 151.128 260.256C152.948 258.759 153.399 259.186 152.481 261.538C162.691 264.56 172.834 267.837 182.909 271.367C191.13 272.049 198.793 274.898 205.9 279.914C188.044 274.962 170.238 269.55 152.481 263.675C145.445 260.386 138.232 257.822 130.843 255.983C130.022 255.772 129.571 255.202 129.49 254.273Z" fill="#171D44"/>
<path fill-rule="evenodd" clip-rule="evenodd" d="M191.7 269.658C193.186 269.979 194.539 270.549 195.757 271.367C194.011 271.773 192.659 271.203 191.7 269.658Z" fill="#306073"/>
<path fill-rule="evenodd" clip-rule="evenodd" d="M37.5288 222.65C50.7172 227.971 64.0157 232.672 77.424 236.752C81.9376 238.751 86.4458 240.745 90.9479 242.735C103.741 246.842 116.588 250.688 129.491 254.273C129.572 255.202 130.023 255.772 130.843 255.983C138.233 257.822 145.445 260.386 152.481 263.675C170.239 269.55 188.045 274.962 205.9 279.914C208.511 280.269 210.99 281.124 213.338 282.479C212.58 283.039 211.678 283.324 210.634 283.333C203.962 282.236 197.425 280.241 191.024 277.35C184.424 275.678 177.888 273.826 171.415 271.795C169.88 271.147 168.415 271.29 167.019 272.222C166.693 271.412 166.58 270.557 166.681 269.658C158.079 266.984 149.514 264.134 140.986 261.111C140.15 261.749 139.248 262.033 138.281 261.966C138.281 261.111 138.281 260.256 138.281 259.402C129.432 257.477 120.641 255.198 111.91 252.564C110.71 251.319 109.357 250.321 107.853 249.573C96.1464 245.82 84.426 241.974 72.6907 238.034C62.9033 233.354 52.8731 229.65 42.6002 226.923C41.9038 226.636 41.5657 226.066 41.586 225.214C40.001 224.838 38.6486 223.983 37.5288 222.65Z" fill="#C6E4DE"/>
<path fill-rule="evenodd" clip-rule="evenodd" d="M207.929 274.786C210.285 274.938 212.313 275.792 214.014 277.35C211.628 277.302 209.6 276.447 207.929 274.786Z" fill="#3C8485"/>
<path fill-rule="evenodd" clip-rule="evenodd" d="M253.233 277.35C253.207 278.276 252.981 279.131 252.557 279.915C250.237 283.703 247.307 285.127 243.767 284.188C242.958 284.484 242.958 284.911 243.767 285.47C242.865 286.04 241.963 286.609 241.062 287.18C231.918 288.213 222.903 287.501 214.014 285.043C214.014 284.188 214.014 283.333 214.014 282.479C217.437 283.208 220.818 284.205 224.157 285.47C228.439 286.04 232.722 286.04 237.005 285.47C243.157 284.819 248.567 282.112 253.233 277.35Z" fill="#CBE3DF"/>
</svg>
