<svg width="320" height="300" viewBox="0 0 320 300" fill="none" xmlns="http://www.w3.org/2000/svg">
<path fill-rule="evenodd" clip-rule="evenodd" d="M181.99 18.7913C183.533 18.7913 185.076 18.7913 186.619 18.7913C185.977 19.3121 185.206 19.6418 184.304 19.7803C178.506 19.9785 172.719 20.3082 166.944 20.7693C167.586 20.2484 168.357 19.9187 169.259 19.7803C173.507 19.4649 177.75 19.1352 181.99 18.7913Z" fill="#4D8495"/>
<path fill-rule="evenodd" clip-rule="evenodd" d="M181.989 18.7912C200.158 18.1513 218.386 18.1513 236.673 18.7912C243.698 20.3252 250.546 22.523 257.215 25.3847C258.234 26.3187 259.006 27.4176 259.53 28.6814C257.301 27.9481 255.179 26.8492 253.165 25.3847C240.59 22.0146 227.859 19.9266 214.973 19.1209C205.523 18.7913 196.072 18.6814 186.619 18.7912C185.075 18.7912 183.533 18.7912 181.989 18.7912Z" fill="#6ED0C8"/>
<path fill-rule="evenodd" clip-rule="evenodd" d="M186.619 18.7912C196.072 18.6813 205.524 18.7912 214.973 19.1209C227.86 19.9266 240.59 22.0145 253.165 25.3846C255.179 26.8492 257.301 27.948 259.53 28.6813C261.579 30.3481 263.508 32.3261 265.317 34.6154C268.276 39.7469 270.012 45.3513 270.525 51.4285C269.682 57.8796 269.297 64.3632 269.368 70.8791C268.596 70.8791 267.824 70.8791 267.053 70.8791C267.531 65.2929 267.916 59.6885 268.21 54.0659C268.43 46.3572 266.501 39.4341 262.424 33.2967C261.782 32.5783 261.203 32.5783 260.688 33.2967C262.139 35.6747 262.911 38.3121 263.002 41.2088C261.729 39.4307 260.571 37.4526 259.53 35.2747C257.546 33.7903 255.425 32.6915 253.165 31.978C244.421 28.348 235.356 26.37 225.968 26.0439C225.726 25.5681 225.341 25.2385 224.811 25.0549C208.029 24.6153 191.248 24.6153 174.467 25.0549C173.937 25.2385 173.552 25.5681 173.31 26.0439C165.238 26.3289 157.329 27.4278 149.585 29.3406C144.56 29.6619 139.738 30.7609 135.118 32.6373C126.465 34.958 118.171 38.2547 110.236 42.5274C106.628 44.0231 103.542 46.4407 100.977 49.7802C99.3862 55.9322 100.736 60.9871 105.028 64.945C107.361 65.8341 109.29 67.3727 110.814 69.5604C112.026 68.0538 113.377 66.7351 114.865 65.6044C122.078 61.6554 129.6 58.7983 137.433 57.0329C139.912 56.5659 142.42 56.2363 144.955 56.0439C147.396 55.489 149.711 54.7198 151.899 53.7362C152.478 53.7362 153.057 53.7362 153.635 53.7362C169.227 52.5347 184.851 52.0951 200.507 52.4176C209.471 53.3605 218.441 54.4594 227.415 55.7143C235.857 57.4941 244.055 60.1314 252.008 63.6263C252.715 65.507 253.873 65.9466 255.48 64.945C254.659 66.1371 253.502 66.5769 252.008 66.2637C252.134 67.0384 251.942 67.6978 251.429 68.2417C250.935 67.5679 250.356 67.0187 249.693 66.5934C250.718 66.2406 250.911 65.6909 250.272 64.945C249.724 65.2659 249.146 65.4857 248.536 65.6044C236.313 61.0937 223.775 58.2366 210.923 57.0329C208.381 57.0391 206.066 57.4787 203.979 58.3516C202.435 58.3516 200.893 58.3516 199.349 58.3516C199.349 57.912 199.349 57.4725 199.349 57.0329C200.567 57.23 201.724 57.0103 202.821 56.3736C186.804 55.7772 170.794 55.4476 154.792 55.3846C156.169 55.7216 157.519 56.1612 158.843 56.7033C156.107 56.8831 153.406 57.3226 150.742 58.0219C152.467 58.3503 154.203 58.4601 155.95 58.3516C154.107 59.6133 151.985 60.0529 149.585 59.6703C147.4 58.7968 144.988 58.3572 142.351 58.3516C138.559 58.6003 134.797 59.0398 131.067 59.6703C131.067 60.5494 131.067 61.4286 131.067 62.3077C127.091 63.5011 123.233 65.0396 119.494 66.923C119.108 66.7035 118.723 66.4833 118.337 66.2637C117.565 68.0222 116.408 69.3408 114.865 70.2197C115.342 70.8039 115.921 71.0235 116.601 70.8791C116.473 71.6934 116.087 72.3527 115.443 72.8571C121.832 76.7452 128.39 79.8224 135.118 82.0879C134.69 82.0015 134.304 82.1116 133.961 82.4175C134.689 83.0261 135.461 83.576 136.275 84.0659C142.737 86.1006 149.295 87.5294 155.95 88.3516C175.242 89.5971 194.532 89.487 213.816 88.0219C216.748 87.2156 219.641 86.2266 222.496 85.0549C221.354 84.7285 220.197 84.6184 219.024 84.7252C226.992 82.798 234.707 79.9411 242.17 76.1538C240.024 78.9356 240.602 79.3754 243.906 77.4725C244.548 78.1912 245.127 78.1912 245.642 77.4725C245.339 77.0162 244.953 76.6866 244.485 76.4835C245.814 76.4716 247.165 76.5817 248.536 76.8132C248.536 76.1538 248.536 75.4945 248.536 74.8351C249.693 74.8351 250.85 74.8351 252.008 74.8351C252.134 75.6099 251.942 76.2692 251.429 76.8132C244.302 81.5334 236.78 85.1597 228.861 87.6923C219.241 89.9235 209.597 91.3516 199.928 91.978C194.251 91.0997 188.368 90.66 182.279 90.6593C176.19 90.66 170.307 91.0997 164.63 91.978C146.06 92.0288 128.604 87.1938 112.261 77.4725C109.703 75.4107 107.099 73.4327 104.449 71.5384C103.647 70.8455 103.069 69.9666 102.713 68.9011C102.025 68.2885 101.254 68.069 100.398 68.2417C100.302 71.5457 100.399 74.8424 100.688 78.1318C101.228 81.0349 101.807 83.8918 102.424 86.7033C103.531 94.5428 104.303 102.455 104.738 110.44C106.496 115.726 107.172 121.221 106.764 126.923C124.93 128.358 141.905 134.072 157.686 144.066C162.181 147.539 166.425 151.385 170.416 155.604C173.19 159.537 176.084 163.383 179.096 167.143C188.287 183.266 191.566 200.848 188.934 219.89C189.098 211.735 188.809 203.603 188.066 195.494C187.584 206.929 187.68 218.358 188.355 229.78C191.99 229.038 195.655 228.928 199.349 229.451C195.008 229.546 190.764 230.315 186.619 231.758C186.883 232.284 187.269 232.504 187.776 232.418C184.525 241.145 180.668 249.496 176.203 257.472C168.65 267.769 159.68 276.121 149.295 282.527C136.805 289.033 123.785 292.989 110.236 294.396C102.893 294.533 95.563 294.312 88.2464 293.736C85.8455 294.119 83.7236 293.68 81.8811 292.418C92.08 291.111 102.303 290.891 112.55 291.758C114.186 292.702 115.922 293.142 117.758 293.077C118.144 291.758 118.529 290.44 118.915 289.121C123.23 288.638 127.473 287.759 131.646 286.483C132.712 286.667 133.774 286.888 134.829 287.143C138.058 285.372 141.434 284.054 144.955 283.187C145.304 281.031 146.462 279.712 148.427 279.231C147.739 278.618 146.968 278.399 146.113 278.571C147.68 277.013 149.416 275.695 151.321 274.615C153.621 272.88 155.936 271.122 158.264 269.341C158.908 268.836 159.294 268.177 159.422 267.363C161.091 266.573 162.634 265.474 164.051 264.066C173.888 253.296 180.254 240.328 183.147 225.165C183.879 224.496 184.264 223.507 184.304 222.198C184.444 219.163 183.673 218.614 181.99 220.549C170.3 222.665 162.777 230.137 159.422 242.967C158.106 245.358 156.756 247.776 155.371 250.22C153.057 251.978 151.128 254.176 149.585 256.813C147.378 258.293 145.063 259.392 142.641 260.11C142.705 259.703 142.898 259.373 143.219 259.121C133.189 258.901 123.159 258.681 113.129 258.462C110 257.073 106.914 257.292 103.87 259.121C109.078 259.029 114.093 259.799 118.915 261.429C115.13 260.678 111.272 260.238 107.342 260.11C104.584 260.291 101.883 260.73 99.241 261.429C99.9967 260.791 100.383 259.911 100.398 258.791C101.7 259.002 102.858 258.672 103.87 257.802C99.0812 257.248 94.452 258.016 89.9824 260.11C89.097 260.018 88.5184 259.578 88.2464 258.791C96.9946 255.032 106.06 253.822 115.443 255.165C117.679 256.058 119.994 256.387 122.387 256.154C128.178 256.263 133.964 256.154 139.747 255.824C143.933 254.234 147.598 251.707 150.742 248.242C154.174 241.959 157.164 235.365 159.711 228.462C163.015 222.783 167.548 218.937 173.31 216.923C177.275 216.194 180.747 214.326 183.726 211.319C185.738 193.218 181.398 177.394 170.706 163.846C157.353 148.271 141.247 138.491 122.387 134.505C102.741 130.791 83.2589 131.671 63.9426 137.143C53.739 141.207 44.2876 146.811 35.5882 153.956C31.2872 158.317 27.2366 162.932 23.4363 167.802C22.8989 168.586 22.706 169.465 22.8576 170.44C15.1626 179.509 11.4977 190.498 11.863 203.407C12.0559 206.923 12.2488 210.44 12.4417 213.956C13.6216 215.521 14.9718 216.84 16.4923 217.912C22.8556 220.391 29.2209 222.808 35.5882 225.165C35.029 226.191 34.2575 227.07 33.2735 227.802C32.7361 227.018 32.5432 226.139 32.6948 225.165C28.0209 224.455 23.3916 223.576 18.807 222.527C18.807 221.868 18.807 221.209 18.807 220.549C16.6275 219.313 14.3128 218.434 11.863 217.912C12.0146 216.938 11.8218 216.059 11.2844 215.275C10.6956 216.942 10.0205 216.942 9.25904 215.275C9.01629 222.967 10.0772 230.439 12.4417 237.692C12.8275 236.813 13.2132 235.934 13.599 235.055C15.4981 237.851 15.691 240.707 14.1777 243.626C13.4061 242.747 12.6346 241.868 11.863 240.989C10.5955 238.317 9.82399 235.46 9.54837 232.418C7.07697 219.807 6.30544 207.06 7.23373 194.176C8.80323 189.71 10.1534 185.095 11.2844 180.33C14.8455 171.709 19.6677 164.237 25.7509 157.912C26.1854 157.334 26.4747 156.675 26.6189 155.934C31.6028 151.288 36.7143 146.893 41.9534 142.747C47.8042 139.079 53.7837 136.003 59.892 133.516C61.4815 133.723 63.0248 133.503 64.5213 132.857C67.543 131.715 70.4363 130.616 73.2012 129.56C82.5703 127.952 92.0221 127.073 101.556 126.923C101.747 122.724 101.553 118.548 100.977 114.396C99.4076 104.953 98.0576 95.5028 96.9263 86.0439C96.8059 81.6956 96.2273 77.52 95.1903 73.5164C94.754 64.5861 95.3327 55.795 96.9263 47.1428C98.4621 45.0347 100.198 43.0566 102.134 41.2088C122.439 29.6139 144.042 22.8006 166.944 20.7692C172.719 20.3081 178.506 19.9785 184.304 19.7802C185.206 19.6417 185.977 19.3121 186.619 18.7912Z" fill="#1D1754"/>
<path fill-rule="evenodd" clip-rule="evenodd" d="M253.165 31.978C255.424 32.6915 257.546 33.7903 259.53 35.2747C260.571 37.4526 261.728 39.4306 263.002 41.2088C263.192 44.9706 262.999 48.7069 262.423 52.4175C260.533 56.0667 258.797 59.803 257.215 63.6263C256.797 64.3194 256.219 64.759 255.479 64.945C253.872 65.9466 252.715 65.507 252.007 63.6263C251.879 62.8122 251.493 62.1528 250.85 61.6483C246.84 59.5781 242.789 57.7099 238.698 56.0439C204.225 48.1565 169.699 47.8268 135.117 55.0549C126.387 57.3633 118.286 61.3193 110.814 66.923C107.293 64.9067 104.4 62.0495 102.134 58.3516C101.308 55.6101 101.501 52.9728 102.712 50.4395C104.239 49.3602 105.589 48.0415 106.763 46.4835C108.242 45.5311 109.784 44.7618 111.392 44.1758C110.666 43.9009 110.28 43.3515 110.235 42.5274C118.17 38.2547 126.464 34.958 135.117 32.6373C135.503 32.6373 135.889 32.6373 136.275 32.6373C137.482 33.3686 138.833 33.8081 140.325 33.956C159.751 28.4466 179.618 26.2488 199.928 27.3626C209.572 27.5824 219.216 27.8022 228.861 28.0219C237.166 28.5297 245.171 30.5077 252.875 33.956C255.4 33.6842 255.497 33.0248 253.165 31.978Z" fill="#FDE2CA"/>
<path fill-rule="evenodd" clip-rule="evenodd" d="M225.967 26.044C235.355 26.37 244.421 28.348 253.164 31.978C255.496 33.0249 255.399 33.6842 252.875 33.9561C245.171 30.5078 237.166 28.5297 228.86 28.022C219.216 27.8022 209.572 27.5824 199.927 27.3626C179.618 26.2489 159.75 28.4467 140.325 33.9561C138.832 33.8082 137.482 33.3686 136.274 32.6374C140.816 31.7556 145.253 30.6567 149.584 29.3407C157.328 27.4278 165.237 26.3289 173.309 26.044C190.861 25.1649 208.414 25.1649 225.967 26.044Z" fill="#F8F0DD"/>
<path fill-rule="evenodd" clip-rule="evenodd" d="M225.968 26.0439C208.415 25.1648 190.862 25.1648 173.31 26.0439C173.551 25.5681 173.937 25.2385 174.467 25.0549C191.248 24.6153 208.029 24.6153 224.81 25.0549C225.341 25.2385 225.726 25.5681 225.968 26.0439Z" fill="#B3ACB0"/>
<path fill-rule="evenodd" clip-rule="evenodd" d="M149.584 29.3407C145.253 30.6567 140.816 31.7556 136.275 32.6374C135.889 32.6374 135.503 32.6374 135.117 32.6374C139.737 30.7609 144.559 29.662 149.584 29.3407Z" fill="#776E88"/>
<path fill-rule="evenodd" clip-rule="evenodd" d="M96.9263 47.1428C95.3326 55.795 94.754 64.5861 95.1903 73.5164C94.4236 65.71 94.4236 57.7979 95.1903 49.7802C95.5126 48.5725 96.0913 47.6934 96.9263 47.1428Z" fill="#467B91"/>
<path fill-rule="evenodd" clip-rule="evenodd" d="M149.584 59.6704C143.239 61.1382 136.874 62.5668 130.488 63.9561C125.655 65.8727 121.025 68.1805 116.6 70.8792C115.92 71.0236 115.342 70.804 114.864 70.2198C116.408 69.3409 117.565 68.0222 118.336 66.2638C118.722 66.4833 119.108 66.7036 119.494 66.9231C123.232 65.0396 127.09 63.5011 131.067 62.3077C131.067 61.4286 131.067 60.5495 131.067 59.6704C134.797 59.0399 138.558 58.6003 142.351 58.3517C144.988 58.3573 147.399 58.7969 149.584 59.6704Z" fill="#251565"/>
<path fill-rule="evenodd" clip-rule="evenodd" d="M110.235 42.5275C110.28 43.3515 110.666 43.9009 111.392 44.1758C109.784 44.7618 108.242 45.5311 106.763 46.4835C105.589 48.0415 104.239 49.3602 102.712 50.4396C101.501 52.9728 101.308 55.6102 102.134 58.3516C104.4 62.0496 107.293 64.9067 110.814 66.9231C118.286 61.3193 126.387 57.3633 135.117 55.0549C169.699 47.8269 204.225 48.1565 238.698 56.0439C242.789 57.71 246.84 59.5781 250.85 61.6483C251.493 62.1529 251.879 62.8122 252.007 63.6264C244.055 60.1315 235.857 57.4941 227.414 55.7143C218.44 54.4594 209.471 53.3606 200.506 52.4176C186.91 51.6507 173.215 51.5408 159.421 52.0879C157.449 52.7445 155.52 53.294 153.635 53.7363C153.056 53.7363 152.477 53.7363 151.899 53.7363C146.817 54.1908 141.995 55.2897 137.432 57.033C129.6 58.7983 122.077 61.6554 114.864 65.6044C113.376 66.7352 112.026 68.0538 110.814 69.5604C109.289 67.3727 107.361 65.8342 105.027 64.945C100.736 60.9872 99.3857 55.9323 100.976 49.7802C103.541 46.4407 106.627 44.0231 110.235 42.5275Z" fill="#F0E7D6"/>
<path fill-rule="evenodd" clip-rule="evenodd" d="M209.187 58.3516C211.402 57.9764 213.331 58.416 214.973 59.6703C213.418 59.7785 211.875 59.6686 210.344 59.3406C209.814 59.1571 209.428 58.8274 209.187 58.3516Z" fill="#503A55"/>
<path fill-rule="evenodd" clip-rule="evenodd" d="M155.949 58.3516C159.229 58.3516 162.507 58.3516 165.787 58.3516C168.294 58.3516 170.802 58.3516 173.309 58.3516C176.228 58.1357 179.121 58.3555 181.989 59.011C172.615 59.3925 163.26 60.0519 153.924 60.989C152.229 60.9726 150.782 60.5331 149.584 59.6703C151.985 60.0529 154.107 59.6133 155.949 58.3516Z" fill="#E4841B"/>
<path fill-rule="evenodd" clip-rule="evenodd" d="M195.298 58.3517C196.648 58.3517 197.999 58.3517 199.349 58.3517C200.892 58.3517 202.435 58.3517 203.978 58.3517C205.714 58.3517 207.45 58.3517 209.186 58.3517C209.428 58.8275 209.813 59.1571 210.343 59.3407C211.875 59.6687 213.418 59.7786 214.973 59.6704C215.744 59.6704 216.516 59.6704 217.287 59.6704C215.691 60.5395 213.859 60.979 211.79 60.9891C202.642 60.1108 193.48 59.4514 184.304 59.011C187.948 58.3541 191.613 58.1343 195.298 58.3517Z" fill="#DF851B"/>
<path fill-rule="evenodd" clip-rule="evenodd" d="M199.349 57.033C199.349 57.4726 199.349 57.9121 199.349 58.3517C197.999 58.3517 196.649 58.3517 195.299 58.3517C187.969 57.4726 180.64 57.4726 173.31 58.3517C170.802 58.3517 168.294 58.3517 165.787 58.3517C166.824 57.8182 167.981 57.4885 169.259 57.3627C179.287 57.0331 189.317 56.9232 199.349 57.033Z" fill="#874F45"/>
<path fill-rule="evenodd" clip-rule="evenodd" d="M199.349 57.033C189.317 56.9231 179.287 57.0331 169.258 57.3627C167.981 57.4885 166.823 57.8182 165.786 58.3517C162.507 58.3517 159.228 58.3517 155.949 58.3517C154.203 58.4602 152.467 58.3504 150.741 58.022C153.405 57.3226 156.106 56.8831 158.842 56.7033C157.518 56.1613 156.168 55.7217 154.792 55.3846C170.794 55.4476 186.803 55.7773 202.821 56.3737C201.724 57.0103 200.566 57.2301 199.349 57.033Z" fill="#190F68"/>
<path fill-rule="evenodd" clip-rule="evenodd" d="M151.899 53.7362C149.711 54.7197 147.396 55.4889 144.955 56.0439C142.42 56.2362 139.912 56.5659 137.433 57.0329C141.995 55.2897 146.818 54.1908 151.899 53.7362Z" fill="#524870"/>
<path fill-rule="evenodd" clip-rule="evenodd" d="M200.506 52.4176C184.851 52.0952 169.227 52.5348 153.635 53.7363C155.52 53.294 157.449 52.7445 159.421 52.0879C173.215 51.5408 186.91 51.6507 200.506 52.4176Z" fill="#B5ADB1"/>
<path fill-rule="evenodd" clip-rule="evenodd" d="M173.31 58.3517C180.639 57.4726 187.969 57.4726 195.299 58.3517C191.614 58.1343 187.949 58.3541 184.304 59.011C193.48 59.4514 202.642 60.1108 211.791 60.9891C213.86 60.979 215.692 60.5395 217.288 59.6704C224.288 60.654 231.232 62.0826 238.12 63.9561C242.006 65.396 245.864 67.0445 249.693 68.9012C250.079 69.3409 250.464 69.7801 250.85 70.2198C247.999 72.3891 245.105 74.3671 242.17 76.1539C234.707 79.9412 226.991 82.7981 219.024 84.7253C217.674 84.7253 216.323 84.7253 214.973 84.7253C212.552 84.9568 210.237 85.3965 208.029 86.044C206.679 86.044 205.329 86.044 203.979 86.044C190.871 86.6447 177.755 86.8642 164.63 86.7034C163.213 86.0618 161.67 85.8423 160 86.044C154.763 84.6568 149.363 83.7772 143.798 83.4066C140.92 82.862 138.026 82.4223 135.118 82.088C128.39 79.8225 121.832 76.7453 115.443 72.8572C116.087 72.3528 116.473 71.6935 116.601 70.8792C121.026 68.1805 125.655 65.8727 130.489 63.9561C136.874 62.5668 143.239 61.1382 149.584 59.6704C150.783 60.5332 152.229 60.9727 153.924 60.9891C163.261 60.0519 172.616 59.3926 181.989 59.011C179.122 58.3556 176.228 58.1358 173.31 58.3517Z" fill="#C36D27"/>
<path fill-rule="evenodd" clip-rule="evenodd" d="M255.479 64.945C256.219 64.759 256.798 64.3194 257.215 63.6264C257.987 63.6264 258.759 63.6264 259.53 63.6264C258.652 65.8473 257.398 67.825 255.769 69.5604C255.102 68.2437 254.234 68.0242 253.165 68.9011C253.694 69.447 254.08 70.1064 254.322 70.8791C253.521 72.2215 252.749 73.5402 252.007 74.8352C250.85 74.8352 249.693 74.8352 248.535 74.8352C248.535 75.4945 248.535 76.1538 248.535 76.8132C247.165 76.5817 245.814 76.4716 244.485 76.4835C244.952 76.6866 245.338 77.0163 245.642 77.4725C245.127 78.1912 244.548 78.1912 243.906 77.4725C240.602 79.3754 240.023 78.9356 242.17 76.1538C245.105 74.367 247.998 72.389 250.85 70.2198C250.464 69.78 250.079 69.3409 249.693 68.9011C245.864 67.0444 242.006 65.3959 238.12 63.956C231.232 62.0825 224.288 60.6539 217.288 59.6703C216.516 59.6703 215.744 59.6703 214.973 59.6703C213.331 58.4161 211.402 57.9765 209.186 58.3516C207.45 58.3516 205.715 58.3516 203.979 58.3516C206.066 57.4787 208.38 57.0391 210.922 57.033C223.775 58.2366 236.313 61.0937 248.535 65.6044C249.145 65.4858 249.724 65.2659 250.271 64.945C250.91 65.691 250.718 66.2407 249.693 66.5934C250.356 67.0187 250.935 67.5679 251.429 68.2417C251.941 67.6978 252.134 67.0385 252.007 66.2637C253.502 66.5769 254.659 66.1371 255.479 64.945Z" fill="#211365"/>
<path fill-rule="evenodd" clip-rule="evenodd" d="M280.361 72.1978C278.239 72.1978 276.118 72.1978 273.996 72.1978C274.789 71.3493 275.851 70.9101 277.179 70.8792C278.507 70.9101 279.568 71.3493 280.361 72.1978Z" fill="#457889"/>
<path fill-rule="evenodd" clip-rule="evenodd" d="M269.367 70.8792C269.367 71.7581 269.367 72.6376 269.367 73.5165C270.91 73.0767 272.453 72.6376 273.996 72.1978C276.118 72.1978 278.239 72.1978 280.361 72.1978C281.244 73.2106 282.401 73.8699 283.833 74.1759C280.959 74.7225 278.066 75.0521 275.153 75.1649C277.002 75.2842 278.738 75.6139 280.361 76.1539C276.448 75.6192 272.976 76.7183 269.945 79.4506C269.553 82.2264 268.974 84.8638 268.209 87.3627C268.395 85.1222 268.202 82.924 267.631 80.7693C266.8 87.5763 266.029 94.3899 265.316 101.209C266.484 104.736 266.291 108.253 264.737 111.758C264.545 109.231 264.351 106.703 264.159 104.176C265.609 89.4567 266.091 74.6216 265.605 59.6704C265.69 66.517 265.208 73.1104 264.159 79.4506C264.123 72.8275 264.219 66.2341 264.448 59.6704C261.927 64.4729 258.937 68.8688 255.479 72.8572C254.618 74.2266 253.46 74.886 252.007 74.8352C252.749 73.5403 253.52 72.2216 254.321 70.8792C254.079 70.1064 253.694 69.4471 253.164 68.9011C254.233 68.0242 255.101 68.2438 255.768 69.5605C257.398 67.8251 258.652 65.8473 259.529 63.6264C258.758 63.6264 257.986 63.6264 257.215 63.6264C258.796 59.8031 260.532 56.0668 262.423 52.4176C262.999 48.707 263.192 44.9707 263.001 41.2088C262.911 38.3122 262.139 35.6748 260.687 33.2967C261.202 32.5783 261.781 32.5783 262.423 33.2967C266.501 39.4342 268.429 46.3573 268.209 54.066C267.915 59.6886 267.53 65.293 267.052 70.8792C267.823 70.8792 268.595 70.8792 269.367 70.8792Z" fill="#241B5E"/>
<path fill-rule="evenodd" clip-rule="evenodd" d="M164.63 91.978C165.667 92.5114 166.824 92.8411 168.102 92.967C176.393 93.2967 184.688 93.4068 192.984 93.2967C195.521 93.0817 198.028 93.302 200.507 93.956C194.527 94.1756 188.548 94.3958 182.568 94.6154C167.826 94.2435 153.166 93.2545 138.59 91.6483C141.701 92.6189 144.787 93.4978 147.848 94.2857C151.337 94.3978 154.809 94.7274 158.264 95.2747C156.837 96.4523 156.933 97.5507 158.554 98.5714C159.101 98.3044 159.487 97.8646 159.711 97.2527C161.278 98.8259 162.917 98.9354 164.63 97.5824C164.162 97.3793 163.776 97.0496 163.472 96.5934C165.958 95.8279 168.466 95.7178 170.995 96.2637C172.42 97.0655 173.963 97.5046 175.624 97.5824C173.829 98.3611 171.996 98.6907 170.127 98.5714C168.83 98.6901 168.541 99.2393 169.259 100.22C172.241 100.332 175.327 100.442 178.518 100.549C178.518 101.868 178.518 103.187 178.518 104.505C177.483 104.318 176.518 104.537 175.624 105.165C177.444 106.151 179.083 105.931 180.543 104.505C181.23 105.206 181.52 106.086 181.411 107.143C180.045 106.209 178.888 106.429 177.939 107.802C178.848 109.512 180.198 110.171 181.99 109.78C182.444 111.694 183.215 113.453 184.304 115.055C182.871 115.918 181.714 117.127 180.832 118.681C181.447 119.465 182.219 119.794 183.147 119.67C183.274 120.445 183.081 121.104 182.568 121.648C181.046 122.895 179.599 124.214 178.228 125.604C178.291 123.733 178.965 122.085 180.254 120.659C179.372 119.872 178.697 118.883 178.228 117.692C176.223 118.801 176.319 119.46 178.518 119.67C178.3 122.757 176.95 123.636 174.467 122.308C174.853 121.868 175.238 121.429 175.624 120.989C175.432 120.769 175.238 120.549 175.046 120.33C173.56 120.513 172.017 120.622 170.416 120.659C169.875 122.229 169.683 123.878 169.838 125.604C171.149 125.841 172.21 125.401 173.02 124.286C173.609 125.953 174.284 125.953 175.046 124.286C175.583 125.07 175.776 125.949 175.624 126.923C174.853 126.923 174.081 126.923 173.31 126.923C173.31 128.022 173.31 129.121 173.31 130.22C170.018 129.496 169.825 128.507 172.731 127.253C171.073 126.755 169.723 127.304 168.68 128.901C170.143 129.572 170.143 130.341 168.68 131.209C169.423 131.66 170.099 131.55 170.706 130.879C171.625 132.146 172.493 133.464 173.31 134.835C172.212 135.472 171.055 135.692 169.838 135.494C169.729 136.551 170.018 137.431 170.706 138.132C173.06 136.225 173.543 136.555 172.152 139.121C171.229 138.714 170.458 138.934 169.838 139.78C170.203 141.333 170.203 142.762 169.838 144.066C170.689 143.485 171.171 142.606 171.284 141.429C173.946 140.469 174.428 141.238 172.731 143.736C173.428 145.238 174.392 145.567 175.624 144.725C174.893 142.578 174.121 140.49 173.31 138.462C174.467 138.022 175.624 138.022 176.782 138.462C175.929 138.93 175.543 139.698 175.624 140.769C176.797 140.662 177.955 140.773 179.096 141.099C178.832 141.372 178.639 141.702 178.518 142.088C179.553 143.21 180.517 143.32 181.411 142.418C180.238 141.081 179.081 139.762 177.939 138.462C178.203 138.189 178.397 137.859 178.518 137.473C177.553 137.033 176.589 136.594 175.624 136.154C177.132 135.394 178.676 135.285 180.254 135.824C180.707 137.801 181.672 138.35 183.147 137.473C181.788 136.576 181.692 135.477 182.858 134.176C183.722 135.382 184.59 136.59 185.462 137.802C184.883 138.791 184.304 139.78 183.726 140.769C183.213 140.225 183.02 139.566 183.147 138.791C182.079 138.608 181.307 139.048 180.832 140.11C182.185 143.517 184.5 145.276 187.776 145.385C187.69 144.691 187.786 144.032 188.065 143.407C188.351 144.484 188.447 145.583 188.355 146.703C187.012 146.525 185.854 146.964 184.883 148.022C184.1 147.241 183.425 146.361 182.858 145.385C181.71 146.987 181.806 148.525 183.147 150C184.327 151.565 185.677 152.884 187.197 153.956C187.39 153.846 187.583 153.736 187.776 153.626C186.812 152.088 185.654 150.769 184.304 149.67C185.427 149.47 186.391 148.921 187.197 148.022C187.217 149.004 187.506 149.883 188.065 150.659C188.337 149.599 188.722 148.5 189.223 147.363C190.361 149.975 191.615 149.975 192.984 147.363C192.082 146.064 191.117 144.856 190.091 143.736C191.796 140.599 194.014 140.05 196.745 142.088C197.558 142.082 198.233 141.752 198.771 141.099C197.977 140.28 197.398 139.291 197.035 138.132C198.73 136.509 199.116 134.531 198.192 132.198C198.37 131.665 198.66 131.225 199.06 130.879C199.118 132.816 199.6 134.574 200.507 136.154C199.928 137.033 199.349 137.912 198.771 138.791C200.048 142.472 199.084 144.12 195.877 143.736C196.142 144.009 196.335 144.339 196.456 144.725C193.687 147.033 193.494 149.56 195.877 152.308C195.42 154.121 195.42 155.989 195.877 157.912C196.456 157.912 197.035 157.912 197.613 157.912C197.719 156.306 197.333 154.877 196.456 153.626C196.842 153.187 197.227 152.747 197.613 152.308C196.912 150.71 196.14 149.172 195.299 147.692C196.612 146.665 197.962 146.556 199.349 147.363C198.771 147.802 198.192 148.242 197.613 148.681C198.374 149.879 199.242 150.978 200.217 151.978C201.988 151.159 203.723 150.28 205.425 149.341C206.325 150.669 207.386 150.889 208.608 150C208.332 149.355 207.947 148.806 207.451 148.352C208.3 147.628 208.782 146.639 208.897 145.385C209.181 146.237 209.277 147.117 209.187 148.022C210.535 148.021 211.693 148.57 212.659 149.67C210.768 149.629 209.514 150.618 208.897 152.637C208.511 152.198 208.126 151.758 207.74 151.319C206.119 152.424 204.479 152.863 202.821 152.637C204.058 153.539 205.408 154.199 206.872 154.615C206.679 155.055 206.486 155.494 206.293 155.934C209.065 157.11 209.644 158.978 208.029 161.538C208.113 162.047 208.306 162.487 208.608 162.857C210.71 162.614 212.832 162.285 214.973 161.868C214.84 155.049 215.419 155.049 216.709 161.868C217.389 161.724 217.968 161.943 218.445 162.527C218.156 162.747 217.867 162.967 217.577 163.187C216.744 162.76 215.876 162.54 214.973 162.527C214.75 167.735 214.171 167.735 213.237 162.527C211.085 163.545 208.964 164.645 206.872 165.824C207.383 166.515 207.769 167.285 208.029 168.132C207.333 169.034 206.755 170.023 206.293 171.099C208.462 172.094 208.269 172.864 205.715 173.407C206.382 174.648 207.346 175.197 208.608 175.055C208.994 173.517 209.379 171.978 209.765 170.44C211.538 170.157 213.274 169.718 214.973 169.121C214.847 168.346 215.039 167.687 215.552 167.143C215.65 167.734 215.842 168.394 216.131 169.121C216.604 168.061 216.99 166.962 217.288 165.824C216.984 165.368 216.598 165.038 216.131 164.835C219.682 163.231 220.261 164 217.867 167.143C218.344 167.727 218.923 167.947 219.603 167.802C219.603 168.681 219.603 169.561 219.603 170.44C219.024 170.44 218.445 170.44 217.867 170.44C218.059 172.857 219.217 174.176 221.339 174.396C221.174 175.574 221.366 176.674 221.917 177.692C223.397 174.299 224.747 174.299 225.968 177.692C227.131 176.591 228.481 176.151 230.018 176.374C229.869 178.338 230.64 179.547 232.333 180C230.881 180.752 230.206 181.961 230.308 183.626C231.857 185.721 233.497 187.699 235.226 189.56C234.749 190.145 234.17 190.364 233.49 190.22C233.445 191.648 233.059 192.967 232.333 194.176C232.526 194.616 232.719 195.055 232.912 195.494C233.883 194.437 235.041 193.997 236.384 194.176C236.514 196.52 236.032 196.741 234.937 194.835C233.938 194.931 233.841 195.371 234.648 196.154C234.262 196.594 233.876 197.033 233.49 197.473C234.069 198.351 234.648 199.231 235.226 200.11C235.819 199.218 236.59 198.778 237.541 198.791C237.442 200.105 237.828 201.203 238.698 202.088C238.107 202.651 237.625 203.31 237.252 204.066C236.228 202.801 234.974 202.472 233.49 203.077C232.663 204.432 231.892 205.86 231.176 207.363C232.079 207.921 232.947 207.702 233.78 206.703C234.309 207.249 234.695 207.909 234.937 208.681C237.227 206.402 239.446 203.985 241.592 201.429C242.449 199.135 242.064 197.157 240.434 195.494C240.034 195.841 239.745 196.28 239.566 196.813C239.084 195.824 238.409 195.055 237.541 194.505C238.897 192.5 240.633 191.071 242.749 190.22C243.906 191.978 245.064 191.978 246.221 190.22C246.616 190.71 247.002 191.149 247.378 191.538C246.484 195.623 244.942 199.36 242.749 202.747C236.408 210.322 228.885 215.926 220.181 219.56C215.429 220.743 210.8 222.391 206.293 224.505C203.509 224.87 200.809 225.419 198.192 226.154C195.112 226.483 192.026 226.593 188.933 226.484C188.933 224.286 188.933 222.088 188.933 219.89C191.566 200.848 188.287 183.266 179.096 167.143C176.084 163.383 173.19 159.537 170.416 155.604C166.425 151.385 162.181 147.539 157.686 144.066C141.904 134.072 124.93 128.358 106.764 126.923C107.171 121.221 106.496 115.726 104.738 110.44C104.302 102.455 103.531 94.5428 102.424 86.7033C101.807 83.8918 101.228 81.0349 100.688 78.1318C100.399 74.8424 100.302 71.5457 100.398 68.2417C101.253 68.069 102.025 68.2885 102.713 68.9011C103.069 69.9666 103.647 70.8455 104.449 71.5384C107.099 73.4327 109.703 75.4107 112.261 77.4725C128.604 87.1938 146.06 92.0288 164.63 91.978Z" fill="#9855E1"/>
<path fill-rule="evenodd" clip-rule="evenodd" d="M143.798 83.4066C149.363 83.7772 154.763 84.6567 160 86.044C157.293 86.1534 154.593 86.0433 151.899 85.7143C149.002 85.2429 146.301 84.4734 143.798 83.4066Z" fill="#985840"/>
<path fill-rule="evenodd" clip-rule="evenodd" d="M135.117 82.0879C138.026 82.4222 140.919 82.862 143.797 83.4066C146.301 84.4734 149.001 85.2429 151.898 85.7143C154.592 86.0433 157.292 86.1534 160 86.044C161.669 85.8422 163.212 86.0618 164.629 86.7033C176.297 87.4701 188.063 87.5796 199.927 87.033C201.395 86.9104 202.745 86.5807 203.978 86.044C205.328 86.044 206.679 86.044 208.029 86.044C209.967 86.1528 211.896 86.0427 213.815 85.7143C214.345 85.531 214.731 85.2013 214.973 84.7253C216.323 84.7253 217.673 84.7253 219.023 84.7253C220.196 84.6185 221.354 84.7286 222.495 85.055C219.641 86.2266 216.747 87.2156 213.815 88.022C194.531 89.4871 175.242 89.5972 155.949 88.3517C149.295 87.5295 142.737 86.1007 136.275 84.066C135.46 83.5761 134.688 83.0262 133.96 82.4176C134.304 82.1117 134.69 82.0016 135.117 82.0879Z" fill="#15106C"/>
<path fill-rule="evenodd" clip-rule="evenodd" d="M203.978 86.0439C202.745 86.5806 201.395 86.9103 199.927 87.033C188.062 87.5795 176.296 87.4701 164.629 86.7033C177.754 86.8642 190.871 86.6446 203.978 86.0439Z" fill="#834D43"/>
<path fill-rule="evenodd" clip-rule="evenodd" d="M214.973 84.7252C214.731 85.2013 214.346 85.5309 213.816 85.7142C211.896 86.0426 209.968 86.1527 208.029 86.0439C210.237 85.3964 212.552 84.9566 214.973 84.7252Z" fill="#6A3C4E"/>
<path fill-rule="evenodd" clip-rule="evenodd" d="M280.361 76.1538C289.445 79.2475 295.811 85.8409 299.457 95.9341C303.013 110.336 302.241 124.402 297.143 138.132C293.286 147.365 288.078 155.496 281.519 162.527C275.868 167.058 270.081 171.235 264.159 175.055C261.559 175.63 259.052 176.509 256.636 177.692C256.444 177.253 256.25 176.813 256.058 176.374C256.971 169.664 258.129 163.071 259.53 156.593C265.277 155.407 270.099 152.329 273.996 147.363C279.986 140.433 284.134 132.301 286.437 122.967C286.823 116.374 286.823 109.78 286.437 103.187C283.305 96.3007 278.386 93.993 271.681 96.2637C270.558 96.4642 269.594 97.0134 268.788 97.9121C268.212 94.4229 268.02 90.9066 268.21 87.3626C268.975 84.8637 269.553 82.2264 269.946 79.4505C272.976 76.7182 276.448 75.6191 280.361 76.1538Z" fill="#8F4FDA"/>
<path fill-rule="evenodd" clip-rule="evenodd" d="M199.927 91.978C199.156 91.978 198.384 91.978 197.613 91.978C186.618 91.978 175.623 91.978 164.629 91.978C170.306 91.0997 176.189 90.66 182.278 90.6593C188.367 90.66 194.25 91.0997 199.927 91.978Z" fill="#040B32"/>
<path fill-rule="evenodd" clip-rule="evenodd" d="M264.159 79.4505C263.565 89.2958 262.697 99.1859 261.555 109.121C258.594 127.015 256.087 145.036 254.033 163.187C252.084 172.728 249.866 182.178 247.378 191.538C247.002 191.149 246.616 190.71 246.221 190.22C245.064 191.978 243.906 191.978 242.749 190.22C240.633 191.071 238.897 192.5 237.541 194.505C238.409 195.055 239.084 195.824 239.566 196.813C239.745 196.28 240.034 195.841 240.434 195.494C242.064 197.157 242.449 199.135 241.592 201.429C239.446 203.985 237.227 206.402 234.937 208.681C234.695 207.909 234.309 207.249 233.78 206.703C232.947 207.701 232.079 207.921 231.176 207.363C231.892 205.86 232.663 204.432 233.49 203.077C234.973 202.472 236.227 202.801 237.252 204.066C237.625 203.31 238.107 202.651 238.698 202.088C237.827 201.203 237.441 200.105 237.541 198.791C236.59 198.778 235.819 199.218 235.226 200.11C234.648 199.231 234.069 198.351 233.49 197.472C233.876 197.033 234.262 196.594 234.648 196.154C233.841 195.371 233.938 194.931 234.937 194.835C236.032 196.741 236.514 196.52 236.384 194.176C235.041 193.997 233.883 194.437 232.912 195.494C232.719 195.055 232.526 194.616 232.333 194.176C233.059 192.967 233.445 191.648 233.49 190.22C234.17 190.364 234.749 190.145 235.226 189.56C233.497 187.699 231.857 185.721 230.308 183.626C230.206 181.961 230.881 180.752 232.333 180C230.64 179.547 229.869 178.338 230.018 176.374C228.481 176.151 227.131 176.59 225.968 177.692C224.747 174.299 223.397 174.299 221.917 177.692C221.366 176.674 221.174 175.574 221.338 174.396C219.217 174.176 218.059 172.857 217.867 170.44C218.445 170.44 219.024 170.44 219.602 170.44C219.602 169.561 219.602 168.681 219.602 167.802C218.923 167.947 218.344 167.727 217.867 167.143C220.261 164 219.682 163.231 216.131 164.835C216.598 165.038 216.984 165.368 217.288 165.824C216.99 166.961 216.604 168.061 216.131 169.121C215.842 168.394 215.65 167.734 215.552 167.143C215.039 167.687 214.846 168.346 214.973 169.121C213.274 169.718 211.538 170.157 209.765 170.44C209.379 171.978 208.994 173.517 208.608 175.055C207.346 175.197 206.382 174.648 205.715 173.407C208.269 172.864 208.462 172.094 206.293 171.099C206.754 170.023 207.333 169.034 208.029 168.132C207.769 167.285 207.383 166.515 206.872 165.824C208.964 164.645 211.085 163.545 213.237 162.527C214.171 167.735 214.75 167.735 214.973 162.527C215.876 162.54 216.744 162.76 217.577 163.187C217.867 162.967 218.156 162.747 218.445 162.527C217.968 161.943 217.389 161.724 216.709 161.868C215.419 155.049 214.84 155.049 214.973 161.868C212.832 162.285 210.71 162.614 208.608 162.857C208.306 162.487 208.113 162.047 208.029 161.538C209.644 158.978 209.065 157.11 206.293 155.934C206.486 155.494 206.679 155.055 206.872 154.615C205.408 154.199 204.058 153.539 202.821 152.637C204.479 152.863 206.119 152.424 207.74 151.319C208.126 151.758 208.511 152.198 208.897 152.637C209.514 150.618 210.768 149.629 212.659 149.67C211.693 148.57 210.535 148.021 209.187 148.022C209.277 147.117 209.181 146.237 208.897 145.385C208.782 146.639 208.299 147.628 207.451 148.352C207.947 148.806 208.332 149.355 208.608 150C207.386 150.889 206.325 150.669 205.425 149.341C203.723 150.28 201.987 151.159 200.217 151.978C199.242 150.978 198.374 149.879 197.613 148.681C198.192 148.241 198.771 147.802 199.349 147.363C197.962 146.556 196.612 146.665 195.299 147.692C196.14 149.172 196.912 150.71 197.613 152.308C197.227 152.747 196.842 153.187 196.456 153.626C197.333 154.877 197.719 156.306 197.613 157.912C197.035 157.912 196.456 157.912 195.877 157.912C195.42 155.989 195.42 154.121 195.877 152.308C193.494 149.56 193.687 147.033 196.456 144.725C196.335 144.339 196.142 144.009 195.877 143.736C199.084 144.12 200.048 142.472 198.771 138.791C199.349 137.912 199.928 137.033 200.507 136.154C199.6 134.574 199.118 132.816 199.06 130.879C198.66 131.225 198.37 131.665 198.192 132.198C199.116 134.531 198.73 136.509 197.035 138.132C197.398 139.291 197.977 140.28 198.771 141.099C198.233 141.752 197.558 142.082 196.745 142.088C194.014 140.05 191.796 140.599 190.091 143.736C191.117 144.856 192.082 146.064 192.984 147.363C191.615 149.975 190.361 149.975 189.223 147.363C188.722 148.5 188.337 149.599 188.065 150.659C187.506 149.883 187.217 149.004 187.197 148.022C186.391 148.921 185.427 149.47 184.304 149.67C185.654 150.769 186.811 152.088 187.776 153.626C187.583 153.736 187.39 153.846 187.197 153.956C185.677 152.884 184.327 151.565 183.147 150C181.806 148.525 181.71 146.987 182.857 145.385C183.425 146.361 184.1 147.241 184.883 148.022C185.854 146.964 187.012 146.525 188.355 146.703C188.447 145.583 188.351 144.484 188.065 143.407C187.786 144.032 187.69 144.691 187.776 145.385C184.5 145.276 182.185 143.517 180.832 140.11C181.307 139.048 182.079 138.608 183.147 138.791C183.02 139.566 183.213 140.225 183.725 140.769C184.304 139.78 184.883 138.791 185.461 137.802C184.59 136.59 183.722 135.382 182.857 134.176C181.691 135.477 181.788 136.576 183.147 137.472C181.672 138.35 180.707 137.801 180.253 135.824C178.675 135.285 177.132 135.394 175.624 136.154C176.589 136.594 177.553 137.033 178.518 137.472C178.397 137.859 178.203 138.189 177.939 138.461C179.081 139.762 180.238 141.081 181.411 142.418C180.517 143.32 179.553 143.21 178.518 142.088C178.638 141.701 178.832 141.372 179.096 141.099C177.954 140.772 176.797 140.662 175.624 140.769C175.543 139.698 175.929 138.93 176.782 138.461C175.624 138.022 174.467 138.022 173.31 138.461C174.121 140.49 174.893 142.578 175.624 144.725C174.392 145.567 173.428 145.238 172.731 143.736C174.428 141.238 173.945 140.469 171.284 141.429C171.171 142.606 170.689 143.485 169.838 144.066C170.203 142.762 170.203 141.333 169.838 139.78C170.458 138.934 171.229 138.714 172.152 139.121C173.543 136.555 173.06 136.225 170.706 138.132C170.018 137.431 169.729 136.551 169.838 135.494C171.055 135.692 172.212 135.472 173.31 134.835C172.492 133.464 171.624 132.146 170.706 130.879C170.099 131.55 169.423 131.66 168.68 131.209C170.143 130.341 170.143 129.572 168.68 128.901C169.723 127.304 171.073 126.755 172.731 127.253C169.825 128.507 170.018 129.496 173.31 130.22C173.31 129.121 173.31 128.022 173.31 126.923C174.081 126.923 174.853 126.923 175.624 126.923C175.776 125.949 175.583 125.07 175.046 124.286C174.284 125.952 173.609 125.952 173.02 124.286C172.21 125.401 171.149 125.841 169.838 125.604C169.682 123.878 169.875 122.229 170.416 120.659C172.017 120.622 173.56 120.513 175.046 120.33C175.238 120.549 175.432 120.769 175.624 120.989C175.238 121.429 174.853 121.868 174.467 122.308C176.95 123.636 178.3 122.757 178.518 119.67C176.319 119.46 176.223 118.801 178.228 117.692C178.697 118.883 179.372 119.872 180.253 120.659C178.965 122.085 178.291 123.733 178.228 125.604C179.599 124.214 181.046 122.895 182.568 121.648C183.081 121.104 183.274 120.445 183.147 119.67C182.219 119.794 181.447 119.465 180.832 118.681C181.714 117.127 182.871 115.918 184.304 115.055C183.215 113.453 182.444 111.694 181.989 109.78C180.198 110.171 178.848 109.512 177.939 107.802C178.888 106.429 180.045 106.209 181.411 107.143C181.52 106.086 181.23 105.206 180.543 104.505C179.083 105.931 177.444 106.151 175.624 105.165C176.518 104.537 177.483 104.318 178.518 104.505C178.518 103.187 178.518 101.868 178.518 100.549C175.327 100.442 172.241 100.332 169.259 100.22C168.541 99.2393 168.83 98.6901 170.127 98.5714C171.996 98.6907 173.829 98.3611 175.624 97.5824C173.963 97.5046 172.42 97.0654 170.995 96.2637C168.466 95.7178 165.958 95.8279 163.472 96.5934C163.776 97.0496 164.162 97.3793 164.63 97.5824C162.917 98.9353 161.277 98.8259 159.711 97.2527C159.486 97.8646 159.101 98.3044 158.554 98.5714C156.933 97.5507 156.837 96.4523 158.264 95.2747C154.809 94.7274 151.337 94.3978 147.848 94.2857C144.787 93.4978 141.701 92.6189 138.59 91.6483C153.166 93.2545 167.826 94.2435 182.568 94.6153C188.547 94.3958 194.527 94.1756 200.507 93.956C198.028 93.3019 195.521 93.0817 192.984 93.2967C194.527 92.8569 196.07 92.4178 197.613 91.978C198.385 91.978 199.157 91.978 199.928 91.978C209.597 91.3516 219.241 89.9235 228.861 87.6923C236.779 85.1597 244.302 81.5334 251.429 76.8131C251.942 76.2692 252.134 75.6098 252.008 74.8351C253.461 74.8859 254.618 74.2266 255.48 72.8571C258.938 68.8687 261.928 64.4729 264.449 59.6703C264.22 66.234 264.124 72.8274 264.159 79.4505Z" fill="#9653DF"/>
<path fill-rule="evenodd" clip-rule="evenodd" d="M164.629 91.978C175.623 91.978 186.618 91.978 197.613 91.978C196.069 92.4178 194.527 92.8569 192.983 93.2967C184.687 93.4068 176.393 93.2967 168.101 92.967C166.823 92.8411 165.666 92.5114 164.629 91.978Z" fill="#663EAB"/>
<path fill-rule="evenodd" clip-rule="evenodd" d="M268.209 87.3626C268.02 90.9066 268.212 94.4228 268.788 97.912C269.594 97.0134 270.558 96.4641 271.681 96.2637C278.386 93.9929 283.305 96.3006 286.437 103.187C286.823 109.78 286.823 116.374 286.437 122.967C284.134 132.301 279.986 140.433 273.996 147.363C270.099 152.329 265.277 155.407 259.53 156.593C258.129 163.071 256.971 169.664 256.058 176.374C256.25 176.813 256.444 177.252 256.636 177.692C259.052 176.509 261.559 175.63 264.159 175.055C263.917 175.531 263.532 175.861 263.002 176.044C263.773 176.484 264.545 176.923 265.316 177.363C263.236 178.649 261.307 180.078 259.53 181.648C258.266 182.792 256.723 183.451 254.9 183.626C252.873 192.639 249.595 200.991 245.063 208.681C243.26 211.133 241.139 213.111 238.698 214.615C232.859 218.16 227.072 221.676 221.338 225.165C220.952 225.165 220.567 225.165 220.181 225.165C209.628 229.112 198.826 231.53 187.775 232.418C187.269 232.504 186.883 232.284 186.618 231.758C190.763 230.315 195.007 229.546 199.349 229.451C195.654 228.928 191.989 229.038 188.354 229.78C187.679 218.358 187.583 206.929 188.065 195.494C188.808 203.603 189.097 211.735 188.933 219.89C188.933 222.088 188.933 224.286 188.933 226.483C192.025 226.593 195.111 226.483 198.191 226.154C200.808 225.419 203.509 224.87 206.293 224.505C210.799 222.391 215.429 220.743 220.181 219.56C228.885 215.926 236.407 210.322 242.748 202.747C244.941 199.36 246.484 195.623 247.378 191.538C249.865 182.178 252.083 172.728 254.032 163.187C256.086 145.036 258.593 127.015 261.555 109.121C262.696 99.1859 263.564 89.2958 264.159 79.4505C265.208 73.1103 265.69 66.5169 265.606 59.6703C266.091 74.6215 265.609 89.4567 264.159 104.176C264.352 106.703 264.545 109.231 264.738 111.758C266.291 108.253 266.484 104.736 265.316 101.209C266.029 94.3899 266.8 87.5762 267.631 80.7692C268.202 82.9239 268.395 85.1222 268.209 87.3626Z" fill="#1C1853"/>
<path fill-rule="evenodd" clip-rule="evenodd" d="M265.317 118.352C264.334 125.38 263.466 132.413 262.713 139.451C262.552 140.055 262.263 140.494 261.845 140.769C262.003 132.997 263.16 125.525 265.317 118.352Z" fill="#335373"/>
<path fill-rule="evenodd" clip-rule="evenodd" d="M73.2008 129.56C70.436 130.616 67.5427 131.715 64.5209 132.857C63.0245 133.503 61.4812 133.723 59.8916 133.516C64.1459 131.656 68.5825 130.338 73.2008 129.56Z" fill="#427087"/>
<path fill-rule="evenodd" clip-rule="evenodd" d="M280.362 72.1978C282.14 71.9888 283.876 72.2083 285.57 72.8571C292.357 76.285 297.758 81.5598 301.773 88.6813C305.992 99.5677 307.439 110.996 306.113 122.967C305.355 127.615 304.487 132.23 303.509 136.813C302.93 136.813 302.351 136.813 301.773 136.813C301.683 138.863 301.297 140.841 300.615 142.747C299.21 146.173 297.666 149.47 295.986 152.637C294.223 153.175 293.259 154.494 293.093 156.593C289.963 160.159 286.877 163.676 283.834 167.143C279.551 170.581 275.115 173.877 270.525 177.033C267.01 179.15 263.345 180.688 259.53 181.648C261.308 180.078 263.237 178.649 265.317 177.363C264.546 176.923 263.774 176.484 263.002 176.044C263.532 175.861 263.918 175.531 264.16 175.055C270.082 171.235 275.869 167.058 281.519 162.527C288.079 155.496 293.287 147.365 297.143 138.132C302.241 124.402 303.013 110.336 299.458 95.934C295.811 85.8409 289.446 79.2474 280.362 76.1538C278.739 75.6138 277.003 75.2842 275.154 75.1648C278.067 75.0521 280.96 74.7224 283.834 74.1758C282.402 73.8699 281.245 73.2105 280.362 72.1978Z" fill="#1D1B51"/>
<path fill-rule="evenodd" clip-rule="evenodd" d="M122.387 256.154C126.799 255.067 131.428 254.408 136.274 254.176C134.705 253.696 133.162 253.147 131.645 252.527C132.165 251.082 132.744 249.654 133.381 248.242C132.811 247.188 132.715 246.089 133.092 244.945C133.284 245.385 133.478 245.824 133.67 246.264C134.044 245.508 134.526 244.849 135.117 244.286C132.875 243.636 132.875 242.866 135.117 241.978C134.092 240.585 133.224 240.694 132.513 242.308C130.473 238.966 129.219 235.23 128.752 231.099C128.072 231.243 127.493 231.024 127.016 230.44C127.714 229.11 127.714 227.792 127.016 226.483C126.385 227.292 125.613 227.842 124.701 228.132C125.18 228.735 125.759 229.174 126.437 229.451C121.639 229.828 117.01 231.037 112.549 233.077C113.443 233.705 114.408 233.924 115.443 233.736C114.321 234.833 112.971 235.272 111.392 235.055C111.392 236.374 111.392 237.692 111.392 239.011C109.925 237.08 109.925 235.102 111.392 233.077C111.006 232.637 110.621 232.198 110.235 231.758C111.981 230.362 113.91 229.483 116.021 229.121C116.738 228.127 116.545 227.358 115.443 226.813C115.91 226.61 116.296 226.28 116.6 225.824C114.511 224.366 114.897 223.706 117.757 223.846C118.163 225.434 118.742 226.973 119.493 228.462C120.761 227.24 122.112 227.02 123.544 227.802C125.087 226.044 126.63 224.286 128.173 222.527C129.341 223.393 130.016 222.954 130.198 221.209C131.115 222.75 131.019 224.289 129.909 225.824C130.393 227.366 130.875 228.905 131.356 230.44C132.302 229.55 133.17 229.66 133.96 230.769C132.944 230.902 131.98 231.232 131.066 231.758C131.452 232.198 131.838 232.637 132.224 233.077C130.666 235.17 130.763 237.148 132.513 239.011C133.08 238.034 133.755 237.155 134.538 236.374C134.859 238.963 136.016 239.842 138.01 239.011C138.772 240.678 139.447 240.678 140.036 239.011C140.962 239.912 142.022 240.571 143.218 240.989C142.447 241.648 142.447 242.308 143.218 242.967C142.64 243.846 142.061 243.846 141.482 242.967C141.603 242.581 141.797 242.251 142.061 241.978C140.057 240.773 138.514 241.103 137.432 242.967C139.651 243.953 139.651 244.613 137.432 244.945C137.332 246.258 137.718 247.357 138.589 248.242C138.01 248.901 137.432 249.56 136.853 250.22C136.082 249.341 135.31 249.341 134.538 250.22C133.767 250.66 133.767 251.099 134.538 251.538C135.696 251.758 136.853 251.978 138.01 252.198C138.782 249.56 139.554 249.56 140.325 252.198C140.462 251.705 140.655 251.156 140.904 250.549C143.268 249.796 145.389 248.148 147.269 245.604C146.37 244.985 145.598 244.216 144.954 243.297C145.147 242.967 145.34 242.637 145.533 242.308C146.943 243.676 148.486 243.896 150.162 242.967C149.642 240.011 148.87 239.791 147.848 242.308C147.278 240.377 147.086 238.399 147.269 236.374C148.04 236.374 148.812 236.374 149.584 236.374C149.584 235.495 149.584 234.615 149.584 233.736C148.728 233.909 147.957 233.689 147.269 233.077C147.573 232.621 147.959 232.291 148.426 232.088C147.032 230.962 145.49 230.413 143.797 230.44C143.797 231.099 143.797 231.758 143.797 232.418C143.218 232.418 142.64 232.418 142.061 232.418C142.147 233.111 142.051 233.771 141.772 234.396C140.792 234.847 139.924 235.506 139.168 236.374C138.63 235.59 138.437 234.711 138.589 233.736C137.391 233.703 136.331 234.142 135.406 235.055C135.117 234.835 134.828 234.615 134.538 234.396C135.637 231.233 137.373 230.573 139.746 232.418C140.84 231.684 141.997 231.134 143.218 230.769C142.856 230.275 142.567 229.725 142.35 229.121C140.6 230.86 138.961 230.641 137.432 228.462C137.818 228.022 138.203 227.583 138.589 227.143C138.469 225.233 138.373 223.255 138.3 221.209C138.01 220.879 137.721 220.549 137.432 220.22C139.053 219.581 140.21 218.372 140.904 216.593C140.757 214.423 140.95 212.226 141.482 210C139.766 209.743 138.223 210.183 136.853 211.319C136.453 209.563 135.874 207.914 135.117 206.374C135.31 206.044 135.503 205.714 135.696 205.385C136.634 206.329 137.406 207.428 138.01 208.681C138.425 208.147 138.907 207.707 139.457 207.363C140.172 208.098 140.847 208.098 141.482 207.363C142.427 207.888 143.295 208.547 144.086 209.341C145.01 208.427 146.071 207.988 147.269 208.022C146.38 210.147 145.223 212.125 143.797 213.956C143.94 214.756 144.326 215.196 144.954 215.275C144.427 216.38 144.041 217.59 143.797 218.901C143.86 220.009 144.245 220.779 144.954 221.209C145.993 222.802 147.15 222.802 148.426 221.209C149.568 220.348 150.532 219.249 151.32 217.912C152.385 217.317 153.156 216.438 153.634 215.275C154.797 213.715 155.761 211.957 156.528 210C157.078 208.981 157.271 207.882 157.106 206.703C155.853 206.651 154.696 206.211 153.634 205.385C152.843 205.863 152.072 206.302 151.32 206.703C152.101 205.945 152.005 205.505 151.03 205.385C149.943 206.382 148.689 206.821 147.269 206.703C147.169 205.39 147.555 204.291 148.426 203.407C148.04 202.967 147.655 202.528 147.269 202.088C148.451 200.962 149.416 199.643 150.162 198.132C151.354 197.428 152.414 196.549 153.345 195.494C153.952 196.554 154.82 196.993 155.949 196.813C155.784 195.634 155.977 194.535 156.528 193.516C158.43 194.201 158.623 193.762 157.106 192.198C158.65 191.758 160.192 191.319 161.736 190.879C161.35 190.439 160.964 190 160.578 189.56C161.069 188.302 161.262 186.983 161.157 185.604C161.981 186.933 162.366 188.471 162.314 190.22C164.165 190.573 165.708 190.133 166.943 188.901C167.652 188.471 168.038 187.702 168.101 186.593C168.038 185.485 167.652 184.716 166.943 184.286C166.91 182.2 166.525 180.221 165.786 178.352C165.323 175.522 163.876 173.764 161.446 173.077C160.473 173.148 159.798 173.588 159.421 174.396C158.622 174.7 158.236 175.36 158.264 176.374C158.464 177.263 158.656 178.143 158.842 179.011C157.86 177.821 157.378 176.282 157.396 174.396C157.609 178.606 157.994 182.782 158.553 186.923C157.109 189.634 155.662 192.271 154.213 194.835C153.7 194.291 153.508 193.632 153.634 192.857C152.651 192.752 151.686 192.861 150.741 193.187C151.005 193.46 151.199 193.789 151.32 194.176C150.728 194.739 150.246 195.398 149.873 196.154C149.758 194.9 149.275 193.911 148.426 193.187C149.889 192.516 149.889 191.747 148.426 190.879C146.606 189.893 144.967 190.113 143.508 191.538C143.131 190.394 143.227 189.295 143.797 188.242C142.97 188.37 142.102 188.37 141.193 188.242C140.76 187.493 140.856 186.834 141.482 186.264C141.821 186.401 142.111 186.622 142.35 186.923C142.605 185.884 143.087 185.004 143.797 184.286C143.676 183.899 143.483 183.57 143.218 183.297C145.153 182.921 145.346 182.152 143.797 180.989C144.183 180.549 144.568 180.11 144.954 179.67C144.23 178.681 143.651 177.581 143.218 176.374C142.766 177.184 142.477 178.063 142.35 179.011C141.872 177.755 141.197 177.535 140.325 178.352C141.096 180.327 140.518 181.426 138.589 181.648C138.716 182.423 138.523 183.082 138.01 183.626C136.791 184.578 135.633 185.018 134.538 184.945C136.02 186.114 137.37 187.433 138.589 188.901C137.863 190.11 137.477 191.429 137.432 192.857C134.777 192.996 134.391 192.007 136.274 189.89C135.831 186.905 134.674 186.355 132.802 188.242C133.574 188.681 134.346 189.121 135.117 189.56C134.078 189.983 133.21 190.642 132.513 191.538C132.335 191.006 132.046 190.566 131.645 190.22C131.259 193.077 130.874 195.934 130.488 198.791C130.27 195.664 129.691 192.807 128.752 190.22C126.962 185.314 124.069 181.358 120.072 178.352C116.294 175.578 112.243 173.49 107.92 172.088C100.205 171.648 92.4888 171.648 84.7735 172.088C82.0422 174.028 79.1489 175.676 76.0936 177.033C73.3999 180.543 70.6993 184.06 67.9923 187.582C66.85 193.447 67.6214 198.941 70.307 204.066C72.8716 207.213 75.5722 210.07 78.4082 212.637C79.1796 213.077 79.9515 213.516 80.7229 213.956C80.6534 214.672 80.2675 215.112 79.5655 215.275C77.1039 214.16 74.5966 213.281 72.0429 212.637C71.6813 214.925 72.2599 216.794 73.7789 218.242C72.1043 219.275 70.3683 219.384 68.571 218.571C68.924 221.298 68.4419 223.715 67.1243 225.824C65.5041 225.412 63.8641 224.972 62.2057 224.505C63.6448 224.34 64.9948 224.01 66.2563 223.516C65.4502 222.744 64.9676 221.755 64.8097 220.549C64.5302 221.174 64.4341 221.834 64.5203 222.527C63.9417 222.527 63.363 222.527 62.7844 222.527C62.7288 220.015 62.3434 220.015 61.627 222.527C61.4343 222.088 61.2411 221.649 61.0484 221.209C61.6959 219.361 62.4672 217.603 63.363 215.934C62.5448 215.193 61.6768 214.534 60.759 213.956C60.4755 213.103 60.3789 212.224 60.4697 211.319C61.1496 211.463 61.7283 211.243 62.2057 210.659C60.9407 210.184 59.6868 209.745 58.4444 209.341C58.2158 210.448 58.3125 211.546 58.7337 212.637C58.6365 213.739 58.2505 214.618 57.5764 215.275C57.8796 212.685 57.3011 210.487 55.8404 208.681C57.4951 208.956 58.7488 208.296 59.6017 206.703C60.7642 207.03 62.0182 207.03 63.363 206.703C63.3879 203.807 63.0986 203.587 62.495 206.044C62.1091 204.506 62.1091 202.967 62.495 201.429C63.51 202.582 64.764 203.022 66.2563 202.747C65.5423 197.784 64.9636 192.729 64.5203 187.582C63.6836 188.025 63.2982 188.794 63.363 189.89C63.7982 191.31 63.8948 192.738 63.6523 194.176C62.5737 193.211 61.3198 192.551 59.891 192.198C60.6624 191.758 61.4343 191.319 62.2057 190.879C60.6624 190 60.6624 189.121 62.2057 188.242C61.5177 187.629 60.7463 187.41 59.891 187.582C60.0427 188.557 59.85 189.436 59.3124 190.22C58.3408 189.162 57.1835 188.722 55.8404 188.901C55.4086 186.998 55.505 185.02 56.1297 182.967C57.2386 182.025 58.4924 181.366 59.891 180.989C58.541 180.549 57.1906 180.11 55.8404 179.67C56.3468 178.172 57.3113 177.512 58.7337 177.692C58.7204 176.092 58.4311 174.554 57.8657 173.077C57.2805 172.525 56.6055 172.305 55.8404 172.418C55.7322 173.778 55.4429 175.097 54.9724 176.374C54.0198 175.423 53.9234 174.324 54.6831 173.077C54.3882 172.03 53.8095 171.26 52.9471 170.769C54.5247 170.649 56.0678 170.32 57.5764 169.78C57.1906 169.34 56.8049 168.901 56.4191 168.461C57.566 167.989 58.5306 167.22 59.3124 166.154C59.0231 165.824 58.7337 165.494 58.4444 165.165C57.5807 166.523 56.5198 166.743 55.2617 165.824C55.7391 165.24 56.3178 165.02 56.9977 165.165C57.1628 163.986 56.9699 162.887 56.4191 161.868C54.2388 160.276 54.1423 158.518 56.1297 156.593C56.2262 156.813 56.3226 157.033 56.4191 157.253C55.9507 158.289 55.7578 159.388 55.8404 160.549C56.6119 160.549 57.3835 160.549 58.1551 160.549C58.6319 157.06 59.2105 153.763 59.891 150.659C61.9488 150.753 63.878 151.303 65.6777 152.308C64.0811 152.858 63.5025 153.847 63.9417 155.275C63.3266 159.293 64.7732 161.492 68.2816 161.868C71.3815 160.814 74.3715 159.495 77.2509 157.912C77.2509 155.934 77.2509 153.956 77.2509 151.978C75.5149 151.978 73.7789 151.978 72.0429 151.978C73.1245 151.54 74.2818 151.1 75.5149 150.659C72.4225 149.757 72.5192 149.317 75.8042 149.341C76.9506 149.426 77.9146 149.865 78.6976 150.659C78.8902 150.44 79.0835 150.22 79.2762 150C79.672 150.847 79.5754 151.616 78.9869 152.308C79.8989 152.598 80.6708 153.147 81.3015 153.956C82.0712 152.738 81.8785 151.749 80.7229 150.989C82.1938 149.822 83.7371 148.833 85.3522 148.022C86.1235 149.78 86.8955 151.538 87.6668 153.297C88.0528 152.857 88.4382 152.418 88.8241 151.978C89.3183 152.933 89.897 153.812 90.5601 154.615C89.7888 155.055 89.0168 155.494 88.2455 155.934C89.1169 156.756 89.9849 156.756 90.8494 155.934C91.0821 156.839 91.3714 157.718 91.7174 158.571C91.67 160.439 91.5739 162.417 91.4281 164.505C91.2354 164.725 91.0421 164.945 90.8494 165.165C90.7054 164.424 90.416 163.764 89.9815 163.187C89.4306 164.205 89.2379 165.305 89.4028 166.483C90.5555 166.37 91.5195 166.81 92.2961 167.802C92.7191 166.549 92.7191 165.23 92.2961 163.846C94.3787 164.003 94.572 163.344 92.8748 161.868C93.0675 161.649 93.2607 161.428 93.4534 161.209C94.9597 161.909 96.503 162.018 98.0827 161.538C97.1181 160.879 96.154 160.22 95.1894 159.56C96.2651 159.109 97.2298 158.45 98.0827 157.582C96.5394 156.703 96.5394 155.824 98.0827 154.945C100.753 155.024 102.103 156.453 102.133 159.231C102.972 158.341 103.358 157.242 103.291 155.934C104.997 155.65 106.54 154.88 107.92 153.626C107.172 153.303 106.4 153.193 105.605 153.297C107.884 151.776 110.198 150.237 112.549 148.681C116.916 143.954 116.144 141.316 110.235 140.769C110.676 140.263 111.255 139.933 111.971 139.78C109.445 138.845 107.516 139.614 106.184 142.088C103.892 142.612 102.445 144.151 101.844 146.703C101.544 146.033 101.061 145.594 100.397 145.385C97.7546 146.33 95.0546 146.989 92.2961 147.363C91.957 147.225 91.6677 147.005 91.4281 146.703C91.0549 144.686 90.5729 142.708 89.9815 140.769C89.0064 141.769 88.1384 142.869 87.3775 144.066C85.7295 143.451 85.6334 142.462 87.0882 141.099C86.1235 140.659 85.1595 140.659 84.1948 141.099C84.7833 141.791 84.88 142.56 84.4842 143.407C83.7967 142.706 83.5074 141.826 83.6162 140.769C82.2523 140.662 80.9023 140.771 79.5655 141.099C80.3138 141.422 81.0857 141.532 81.8802 141.429C81.9612 142.499 81.5752 143.268 80.7229 143.736C82.5827 143.966 83.354 144.955 83.0375 146.703C81.5006 145.605 79.9573 144.506 78.4082 143.407C78.712 142.95 79.098 142.621 79.5655 142.418C78.9024 141.992 78.3237 141.443 77.8296 140.769C77.4291 141.115 77.1398 141.555 76.9616 142.088C76.5883 141.332 76.1063 140.673 75.5149 140.11C76.9564 139.32 78.307 138.88 79.5655 138.791C77.3857 138.199 75.2638 137.54 73.2003 136.813C70.6177 137.279 68.3031 138.377 66.2563 140.11C62.646 140.522 59.1741 141.511 55.8404 143.077C55.5753 144.658 54.8037 145.756 53.5258 146.374C54.4714 146.699 55.4358 146.809 56.4191 146.703C56.4477 148.417 57.0263 149.846 58.1551 150.989C57.3422 151.826 56.3778 152.155 55.2617 151.978C55.2617 151.099 55.2617 150.22 55.2617 149.341C54.653 149.242 54.0743 149.352 53.5258 149.67C53.7186 149.89 53.9116 150.11 54.1044 150.33C52.724 150.517 52.3382 151.176 52.9471 152.308C51.7717 152.724 50.8072 153.494 50.0538 154.615C50.4396 155.055 50.8253 155.494 51.2111 155.934C48.6135 156.576 48.4206 157.455 50.6325 158.571C52.6258 165.537 50.8898 167.515 45.4245 164.505C43.7405 164.778 42.1974 165.438 40.7952 166.483C39.2957 165.244 37.8491 163.925 36.4552 162.527C34.6195 163.304 33.1728 162.645 32.1153 160.549C31.1508 161.428 30.1864 162.308 29.222 163.187C28.7094 163.731 28.5166 164.39 28.6433 165.165C27.9634 165.02 27.3847 165.24 26.9073 165.824C25.9182 167.831 24.5679 169.369 22.8567 170.44C22.7051 169.465 22.8979 168.586 23.4353 167.802C27.2356 162.932 31.2863 158.317 35.5872 153.956C44.2867 146.811 53.7381 141.207 63.9417 137.143C83.258 131.671 102.74 130.791 122.387 134.505C141.246 138.491 157.352 148.271 170.705 163.846C181.397 177.394 185.737 193.218 183.725 211.319C180.746 214.326 177.274 216.194 173.309 216.923C167.547 218.937 163.014 222.783 159.71 228.462C157.164 235.365 154.174 241.959 150.741 248.242C147.597 251.707 143.932 254.234 139.746 255.824C133.963 256.154 128.177 256.263 122.387 256.154Z" fill="#A25DE6"/>
<path fill-rule="evenodd" clip-rule="evenodd" d="M165.786 178.352C164.929 179.941 164.157 181.699 163.472 183.626C164.165 183.916 164.84 184.136 165.497 184.286C165.783 185.363 165.879 186.462 165.786 187.582C165.015 187.582 164.243 187.582 163.472 187.582C162.38 182.936 161.03 178.54 159.421 174.396C159.798 173.588 160.473 173.148 161.446 173.077C163.876 173.764 165.323 175.522 165.786 178.352Z" fill="#DEAC69"/>
<path fill-rule="evenodd" clip-rule="evenodd" d="M159.421 174.396C159.421 175.934 159.421 177.473 159.421 179.011C159.229 179.011 159.035 179.011 158.843 179.011C158.657 178.143 158.464 177.263 158.264 176.374C158.237 175.36 158.623 174.7 159.421 174.396Z" fill="#CA8D9C"/>
<path fill-rule="evenodd" clip-rule="evenodd" d="M130.488 155.275C135.017 155.104 139.067 156.643 142.64 159.89C143.841 161.497 144.034 163.255 143.219 165.165C142.239 166.338 141.082 166.668 139.747 166.154C137.393 164.217 134.886 162.569 132.224 161.209C130.733 159.613 130.154 157.635 130.488 155.275Z" fill="#E1B55E"/>
<path fill-rule="evenodd" clip-rule="evenodd" d="M103.869 145.385C103.709 147.328 103.902 149.196 104.448 150.989C103.236 151.88 101.886 152.21 100.397 151.978C100.84 150.377 101.804 149.498 103.291 149.341C103.12 147.867 103.313 146.548 103.869 145.385Z" fill="#D09C91"/>
<path fill-rule="evenodd" clip-rule="evenodd" d="M110.235 140.769C116.144 141.317 116.916 143.954 112.549 148.681C110.198 150.237 107.884 151.776 105.605 153.297C103.91 153.824 102.174 154.043 100.397 153.956C100.397 153.297 100.397 152.637 100.397 151.978C101.886 152.21 103.236 151.88 104.448 150.989C103.902 149.196 103.709 147.328 103.869 145.385C105.994 143.841 108.116 142.303 110.235 140.769Z" fill="#E0B360"/>
<path fill-rule="evenodd" clip-rule="evenodd" d="M159.421 174.396C161.03 178.54 162.38 182.936 163.472 187.582C164.243 187.582 165.015 187.582 165.786 187.582C165.879 186.462 165.783 185.363 165.497 184.286C164.84 184.136 164.165 183.917 163.472 183.626C164.157 181.699 164.929 179.941 165.786 178.352C166.525 180.222 166.91 182.2 166.944 184.286C166.944 185.824 166.944 187.363 166.944 188.901C165.708 190.133 164.165 190.573 162.314 190.22C162.366 188.471 161.981 186.933 161.157 185.604C160.92 183.26 160.342 181.062 159.421 179.011C159.421 177.473 159.421 175.934 159.421 174.396Z" fill="#E6BE52"/>
<path fill-rule="evenodd" clip-rule="evenodd" d="M110.235 140.769C108.116 142.303 105.995 143.841 103.87 145.385C103.314 146.548 103.121 147.867 103.291 149.341C101.805 149.498 100.841 150.377 100.398 151.978C100.398 152.637 100.398 153.297 100.398 153.956C102.174 154.043 103.91 153.824 105.606 153.297C106.4 153.193 107.172 153.303 107.921 153.626C106.541 154.88 104.998 155.65 103.291 155.934C103.359 157.242 102.973 158.341 102.134 159.231C102.104 156.453 100.753 155.024 98.0833 154.945C96.5401 155.824 96.5401 156.704 98.0833 157.582C97.2304 158.45 96.2658 159.109 95.19 159.56C96.1547 160.22 97.1187 160.879 98.0833 161.539C96.5036 162.019 94.9603 161.909 93.454 161.209C93.2614 161.428 93.0681 161.649 92.8754 161.868C94.5726 163.344 94.3793 164.003 92.2967 163.846C92.7197 165.23 92.7197 166.549 92.2967 167.802C91.5202 166.81 90.5561 166.37 89.4034 166.484C89.2385 165.305 89.4312 164.206 89.9821 163.187C90.4167 163.764 90.706 164.424 90.8501 165.165C91.0428 164.945 91.236 164.725 91.4287 164.506C91.5746 162.417 91.6706 160.439 91.7181 158.571C91.372 157.718 91.0827 156.839 90.8501 155.934C89.9855 156.756 89.1176 156.756 88.2461 155.934C89.0174 155.494 89.7894 155.055 90.5607 154.615C89.8976 153.812 89.3189 152.933 88.8248 151.978C88.4388 152.418 88.0534 152.857 87.6674 153.297C86.8961 151.538 86.1241 149.78 85.3528 148.022C83.7377 148.833 82.1945 149.822 80.7235 150.989C81.8791 151.749 82.0718 152.738 81.3022 153.956C80.6714 153.147 79.8995 152.598 78.9875 152.308C79.576 151.616 79.6726 150.847 79.2768 150C79.0841 150.22 78.8909 150.44 78.6982 150.659C77.9152 149.866 76.9512 149.426 75.8049 149.341C72.5198 149.317 72.4232 149.757 75.5155 150.659C74.2824 151.1 73.1251 151.54 72.0436 151.978C69.2602 152.879 66.5596 153.977 63.9423 155.275C63.5031 153.847 64.0818 152.858 65.6783 152.308C63.8786 151.303 61.9494 150.753 59.8917 150.659C59.2112 153.763 58.6325 157.06 58.1557 160.549C57.3842 160.549 56.6126 160.549 55.841 160.549C55.7585 159.388 55.9513 158.289 56.4197 157.253C56.3232 157.033 56.2268 156.813 56.1304 156.593C54.143 158.518 54.2394 160.276 56.4197 161.868C56.9705 162.887 57.1634 163.986 56.9984 165.165C56.3184 165.02 55.7398 165.24 55.2624 165.824C56.5204 166.743 57.5813 166.523 58.445 165.165C58.7343 165.495 59.0237 165.824 59.313 166.154C58.5312 167.22 57.5666 167.989 56.4197 168.462C56.8055 168.901 57.1912 169.34 57.577 169.78C56.0684 170.32 54.5253 170.649 52.9477 170.769C53.8102 171.26 54.3888 172.03 54.6837 173.077C53.924 174.324 54.0204 175.424 54.973 176.374C55.4435 175.097 55.7328 173.779 55.841 172.418C56.6061 172.306 57.2812 172.525 57.8664 173.077C58.4317 174.554 58.721 176.092 58.7343 177.692C57.3119 177.512 56.3474 178.172 55.841 179.67C57.1912 180.11 58.5416 180.549 59.8917 180.989C58.493 181.366 57.2392 182.026 56.1304 182.967C55.5056 185.02 55.4092 186.998 55.841 188.901C57.1842 188.722 58.3414 189.162 59.313 190.22C59.8506 189.436 60.0433 188.557 59.8917 187.582C60.7469 187.41 61.5183 187.629 62.2063 188.242C60.663 189.121 60.663 190 62.2063 190.879C61.435 191.319 60.663 191.758 59.8917 192.198C61.3204 192.551 62.5743 193.211 63.653 194.176C63.8954 192.739 63.7988 191.31 63.3636 189.89C63.2988 188.794 63.6842 188.025 64.521 187.582C64.9642 192.729 65.5429 197.784 66.2569 202.747C64.7646 203.022 63.5106 202.582 62.4956 201.429C62.1097 202.967 62.1097 204.506 62.4956 206.044C63.0992 203.587 63.3885 203.807 63.3636 206.703C62.0188 207.03 60.7649 207.03 59.6023 206.703C58.7494 208.296 57.4957 208.956 55.841 208.681C53.1647 206.521 50.4642 204.323 47.7398 202.088C45.1565 201.064 43.8063 202.162 43.6891 205.385C43.8237 206.888 44.306 208.207 45.1358 209.341C47.8623 211.46 50.6592 213.439 53.5264 215.275C53.6948 216.032 54.177 216.472 54.973 216.593C55.769 216.472 56.2512 216.032 56.4197 215.275C56.8055 215.275 57.1912 215.275 57.577 215.275C58.2512 214.618 58.6371 213.739 58.7343 212.637C58.3131 211.546 58.2164 210.448 58.445 209.341C59.6874 209.745 60.9414 210.184 62.2063 210.659C61.7289 211.244 61.1503 211.463 60.4703 211.319C60.3795 212.224 60.4761 213.104 60.7597 213.956C61.6774 214.534 62.5454 215.193 63.3636 215.934C62.4679 217.603 61.6965 219.361 61.049 221.209C61.2417 221.649 61.435 222.088 61.6277 222.528C62.344 220.015 62.7294 220.015 62.785 222.528C63.3636 222.528 63.9423 222.528 64.521 222.528C64.4347 221.834 64.5308 221.175 64.8103 220.549C64.9683 221.755 65.4509 222.744 66.2569 223.517C64.9955 224.01 63.6454 224.34 62.2063 224.506C63.8648 224.972 65.5047 225.412 67.1249 225.824C68.4426 223.715 68.9246 221.298 68.5716 218.571C70.3689 219.384 72.1049 219.275 73.7796 218.242C72.2606 216.794 71.6819 214.925 72.0436 212.637C74.5972 213.281 77.1045 214.16 79.5662 215.275C80.2681 215.112 80.6541 214.672 80.7235 213.956C82.4224 214.553 84.1584 214.993 85.9314 215.275C90.0608 216.152 94.4007 216.591 98.9513 216.593C106.531 217.776 113.572 216.237 120.072 211.978C123.187 208.869 125.888 205.352 128.174 201.429C129.349 197.738 129.542 194.002 128.752 190.22C129.692 192.807 130.27 195.664 130.488 198.791C130.874 195.934 131.26 193.077 131.646 190.22C132.046 190.566 132.335 191.006 132.514 191.539C133.21 190.642 134.078 189.983 135.118 189.56C134.346 189.121 133.574 188.682 132.803 188.242C134.674 186.355 135.832 186.905 136.275 189.89C134.392 192.007 134.778 192.996 137.432 192.857C137.478 191.429 137.864 190.11 138.59 188.901C137.37 187.433 136.02 186.114 134.539 184.945C135.634 185.018 136.791 184.579 138.011 183.626C138.524 183.082 138.716 182.423 138.59 181.648C140.518 181.426 141.097 180.327 140.326 178.352C141.198 177.535 141.873 177.755 142.351 179.011C142.478 178.063 142.767 177.184 143.219 176.374C143.652 177.582 144.23 178.681 144.955 179.67C144.569 180.11 144.184 180.549 143.798 180.989C145.347 182.152 145.154 182.921 143.219 183.297C143.483 183.57 143.677 183.899 143.798 184.286C143.088 185.004 142.606 185.884 142.351 186.923C142.111 186.622 141.822 186.402 141.483 186.264C140.856 186.834 140.76 187.493 141.194 188.242C142.102 188.37 142.97 188.37 143.798 188.242C143.228 189.295 143.132 190.395 143.508 191.539C144.968 190.113 146.607 189.893 148.427 190.879C149.89 191.747 149.89 192.516 148.427 193.187C149.276 193.911 149.758 194.9 149.874 196.154C150.247 195.398 150.729 194.739 151.32 194.176C151.199 193.789 151.006 193.46 150.742 193.187C151.687 192.861 152.652 192.752 153.635 192.857C153.508 193.632 153.701 194.291 154.214 194.835C155.663 192.271 157.11 189.634 158.554 186.923C157.995 182.782 157.609 178.606 157.396 174.396C157.379 176.282 157.861 177.821 158.843 179.011C159.036 179.011 159.229 179.011 159.422 179.011C160.342 181.062 160.921 183.26 161.158 185.604C161.263 186.983 161.07 188.302 160.579 189.56C160.965 190 161.35 190.439 161.736 190.879C160.193 191.319 158.65 191.758 157.107 192.198C158.624 193.762 158.431 194.201 156.528 193.517C155.977 194.535 155.785 195.634 155.95 196.813C154.821 196.993 153.953 196.554 153.346 195.495C152.415 196.549 151.354 197.428 150.163 198.132C149.416 199.643 148.452 200.962 147.27 202.088C147.656 202.528 148.041 202.967 148.427 203.407C147.556 204.291 147.17 205.39 147.27 206.703C148.69 206.821 149.944 206.382 151.031 205.385C152.005 205.505 152.101 205.945 151.32 206.703C149.195 209.563 147.074 212.42 144.955 215.275C144.327 215.196 143.941 214.756 143.798 213.956C145.223 212.125 146.381 210.147 147.27 208.022C146.072 207.988 145.011 208.428 144.087 209.341C143.295 208.548 142.427 207.888 141.483 207.363C140.848 208.098 140.172 208.098 139.458 207.363C138.908 207.707 138.425 208.147 138.011 208.681C137.406 207.428 136.635 206.329 135.696 205.385C135.504 205.714 135.31 206.044 135.118 206.374C135.875 207.915 136.453 209.563 136.854 211.319C138.224 210.183 139.767 209.743 141.483 210C140.951 212.226 140.758 214.424 140.904 216.593C140.211 218.372 139.054 219.581 137.432 220.22C137.722 220.549 138.011 220.879 138.3 221.209C138.374 223.255 138.47 225.233 138.59 227.143C138.204 227.583 137.818 228.022 137.432 228.462C138.962 230.641 140.601 230.86 142.351 229.121C142.567 229.725 142.857 230.275 143.219 230.769C141.998 231.135 140.841 231.684 139.747 232.418C137.373 230.573 135.637 231.233 134.539 234.396C134.828 234.615 135.118 234.835 135.407 235.055C136.331 234.142 137.392 233.703 138.59 233.736C138.438 234.711 138.631 235.59 139.168 236.374C139.925 235.506 140.793 234.847 141.772 234.396C142.052 233.771 142.148 233.111 142.062 232.418C142.64 232.418 143.219 232.418 143.798 232.418C143.798 231.758 143.798 231.099 143.798 230.44C145.49 230.413 147.033 230.962 148.427 232.088C147.959 232.291 147.573 232.621 147.27 233.077C147.958 233.689 148.729 233.909 149.584 233.736C149.584 234.615 149.584 235.495 149.584 236.374C148.813 236.374 148.041 236.374 147.27 236.374C147.086 238.399 147.279 240.377 147.848 242.308C148.871 239.791 149.642 240.011 150.163 242.967C148.487 243.896 146.944 243.677 145.534 242.308C145.341 242.637 145.148 242.967 144.955 243.297C145.599 244.216 146.371 244.985 147.27 245.604C145.39 248.148 143.268 249.797 140.904 250.549C140.656 251.156 140.462 251.705 140.326 252.198C139.554 249.56 138.782 249.56 138.011 252.198C136.854 251.978 135.696 251.758 134.539 251.539C133.768 251.099 133.768 250.66 134.539 250.22C135.31 249.341 136.082 249.341 136.854 250.22C137.432 249.56 138.011 248.901 138.59 248.242C137.719 247.357 137.333 246.259 137.432 244.945C139.652 244.613 139.652 243.953 137.432 242.967C138.515 241.103 140.058 240.773 142.062 241.978C141.797 242.251 141.604 242.581 141.483 242.967C142.062 243.846 142.64 243.846 143.219 242.967C142.448 242.308 142.448 241.648 143.219 240.989C142.023 240.571 140.962 239.912 140.036 239.011C139.448 240.678 138.773 240.678 138.011 239.011C136.017 239.842 134.86 238.964 134.539 236.374C133.756 237.155 133.081 238.035 132.514 239.011C130.763 237.148 130.667 235.17 132.224 233.077C131.838 232.637 131.453 232.198 131.067 231.758C131.98 231.232 132.944 230.902 133.96 230.769C133.171 229.66 132.303 229.55 131.356 230.44C130.876 228.905 130.394 227.366 129.91 225.824C131.02 224.289 131.116 222.75 130.199 221.209C130.017 222.954 129.341 223.393 128.174 222.528C126.63 224.286 125.088 226.044 123.544 227.802C122.112 227.02 120.762 227.24 119.494 228.462C118.742 226.973 118.163 225.434 117.758 223.846C114.898 223.706 114.512 224.366 116.601 225.824C116.297 226.28 115.911 226.61 115.443 226.813C116.546 227.358 116.739 228.127 116.022 229.121C113.911 229.483 111.982 230.362 110.235 231.758C110.621 232.198 111.007 232.637 111.393 233.077C109.926 235.102 109.926 237.08 111.393 239.011C111.928 240.583 112.989 241.242 114.575 240.989C118.452 239.751 122.406 238.872 126.438 238.352C127.456 236.564 127.842 234.586 127.595 232.418C123.465 232.196 119.415 232.636 115.443 233.736C114.409 233.924 113.444 233.705 112.55 233.077C117.01 231.037 121.64 229.828 126.438 229.451C125.76 229.174 125.181 228.735 124.702 228.132C125.614 227.842 126.386 227.293 127.016 226.484C127.714 227.792 127.714 229.11 127.016 230.44C127.494 231.024 128.072 231.243 128.752 231.099C129.219 235.23 130.473 238.966 132.514 242.308C133.225 240.694 134.093 240.585 135.118 241.978C132.875 242.866 132.875 243.636 135.118 244.286C134.526 244.849 134.044 245.508 133.671 246.264C133.478 245.824 133.285 245.385 133.092 244.945C132.716 246.089 132.812 247.188 133.382 248.242C132.745 249.654 132.166 251.082 131.646 252.528C133.162 253.147 134.706 253.696 136.275 254.176C131.429 254.408 126.799 255.067 122.387 256.154C119.993 256.387 117.679 256.058 115.443 255.165C106.06 253.822 96.9943 255.032 88.2461 258.791C82.1337 260.198 75.9611 260.418 69.7289 259.451C65.0447 257.194 60.994 253.898 57.577 249.56C54.9752 243.135 51.5033 237.421 47.1611 232.418C45.0229 230.323 42.7082 228.564 40.2172 227.143C38.7763 226.099 37.2332 225.44 35.5879 225.165C29.2206 222.808 22.8553 220.391 16.492 217.912C14.9715 216.84 13.6213 215.521 12.4414 213.956C12.2485 210.44 12.0556 206.923 11.8627 203.407C11.4974 190.498 15.1623 179.509 22.8573 170.44C24.5685 169.369 25.9188 167.831 26.9079 165.824C27.3853 165.24 27.964 165.02 28.6439 165.165C28.5172 164.39 28.7101 163.731 29.2226 163.187C30.187 162.308 31.1514 161.428 32.1159 160.549C33.1735 162.645 34.6201 163.304 36.4559 162.528C37.8497 163.925 39.2963 165.244 40.7958 166.484C42.198 165.438 43.7411 164.779 45.4251 164.506C50.8904 167.515 52.6264 165.537 50.6331 158.571C48.4213 157.455 48.6141 156.576 51.2117 155.934C50.8259 155.494 50.4402 155.055 50.0544 154.615C50.8078 153.494 51.7723 152.724 52.9477 152.308C52.3388 151.176 52.7246 150.517 54.105 150.33C53.9122 150.11 53.7193 149.89 53.5264 149.67C54.075 149.352 54.6536 149.242 55.2624 149.341C55.2624 150.22 55.2624 151.099 55.2624 151.978C56.3784 152.155 57.3428 151.826 58.1557 150.989C57.0269 149.846 56.4483 148.417 56.4197 146.703C55.4364 146.809 54.472 146.699 53.5264 146.374C54.8044 145.757 55.5759 144.658 55.841 143.077C59.1747 141.511 62.6467 140.522 66.2569 140.11C68.3037 138.377 70.6183 137.279 73.2009 136.813C75.2644 137.54 77.3864 138.199 79.5662 138.791C78.3076 138.88 76.957 139.32 75.5155 140.11C76.1069 140.673 76.589 141.332 76.9622 142.088C77.1404 141.555 77.4297 141.115 77.8302 140.769C78.3244 141.443 78.903 141.992 79.5662 142.418C79.0986 142.621 78.7126 142.95 78.4088 143.407C79.9579 144.506 81.5012 145.605 83.0381 146.703C83.3547 144.955 82.5833 143.966 80.7235 143.736C81.5759 143.268 81.9618 142.499 81.8808 141.429C81.0863 141.532 80.3144 141.422 79.5662 141.099C80.9029 140.771 82.2529 140.662 83.6168 140.769C83.508 141.826 83.7973 142.706 84.4848 143.407C84.8806 142.56 84.784 141.791 84.1955 141.099C85.1601 140.659 86.1241 140.659 87.0888 141.099C85.634 142.462 85.7301 143.451 87.3781 144.066C88.139 142.869 89.007 141.769 89.9821 140.769C90.5735 142.708 91.0555 144.686 91.4287 146.703C91.6683 147.005 91.9576 147.225 92.2967 147.363C95.0552 146.989 97.7552 146.33 100.398 145.385C101.062 145.594 101.544 146.033 101.845 146.703C102.446 144.151 103.893 142.612 106.185 142.088C107.517 139.614 109.445 138.845 111.971 139.78C111.255 139.933 110.677 140.263 110.235 140.769Z" fill="#A25CE7"/>
<path fill-rule="evenodd" clip-rule="evenodd" d="M46.5819 171.758C45.5617 174.222 44.4044 176.64 43.11 179.011C42.5512 180.261 42.3583 181.58 42.5313 182.967C40.6024 182.967 38.6735 182.967 36.7447 182.967C36.8273 181.805 36.6344 180.706 36.166 179.67C36.9778 176.465 38.1351 173.389 39.638 170.44C40.4577 169.278 41.4222 168.4 42.5313 167.802C43.8413 167.328 45.1915 167.109 46.5819 167.143C46.5819 168.681 46.5819 170.22 46.5819 171.758Z" fill="#E1B360"/>
<path fill-rule="evenodd" clip-rule="evenodd" d="M46.5819 171.758C46.5819 170.22 46.5819 168.681 46.5819 167.143C45.1914 167.109 43.8412 167.328 42.5312 167.802C43.7669 166.57 45.3099 166.13 47.1605 166.484C47.3378 168.386 47.145 170.144 46.5819 171.758Z" fill="#C389A4"/>
<path fill-rule="evenodd" clip-rule="evenodd" d="M72.0436 151.978C73.7796 151.978 75.5156 151.978 77.2515 151.978C77.2515 153.956 77.2515 155.934 77.2515 157.912C74.3721 159.495 71.3822 160.814 68.2823 161.868C64.7739 161.492 63.3272 159.293 63.9423 155.275C66.5596 153.977 69.2602 152.879 72.0436 151.978Z" fill="#E0B460"/>
<path fill-rule="evenodd" clip-rule="evenodd" d="M166.944 184.286C167.653 184.716 168.039 185.485 168.102 186.593C168.039 187.702 167.653 188.471 166.944 188.901C166.944 187.363 166.944 185.824 166.944 184.286Z" fill="#C789A1"/>
<path fill-rule="evenodd" clip-rule="evenodd" d="M128.752 190.22C129.542 194.002 129.349 197.738 128.174 201.429C125.888 205.352 123.187 208.869 120.072 211.978C113.572 216.237 106.531 217.776 98.9512 216.593C94.4006 216.591 90.0607 216.152 85.9313 215.275C93.2502 215.961 100.58 216.071 107.92 215.604C100.177 215.212 92.4615 214.443 84.774 213.297C89.1215 212.302 93.3648 212.523 97.5046 213.956C101.702 213.001 105.946 212.342 110.235 211.978C111.481 211.643 112.253 211.204 112.55 210.659C112.803 209.622 113.381 208.852 114.286 208.352C110.768 202.139 105.753 199.393 99.2406 200.11C98.6914 199.68 98.0167 199.46 97.2152 199.451C93.7612 199.733 90.3853 200.392 87.0887 201.429C85.3156 201.711 83.5796 202.15 81.8807 202.747C81.129 205.299 80.743 207.936 80.7234 210.659C82.0699 210.493 83.2272 210.932 84.1953 211.978C82.5762 212.762 81.0335 212.542 79.5661 211.319C78.8641 211.482 78.4782 211.921 78.4087 212.637C75.5727 210.07 72.8721 207.213 70.3075 204.066C67.6219 198.941 66.8505 193.447 67.9928 187.582C70.6998 184.06 73.4004 180.543 76.0941 177.033C79.1494 175.676 82.0427 174.028 84.774 172.088C92.4893 171.648 100.205 171.648 107.92 172.088C112.244 173.49 116.294 175.578 120.072 178.352C124.069 181.358 126.963 185.314 128.752 190.22Z" fill="#22185C"/>
<path fill-rule="evenodd" clip-rule="evenodd" d="M84.1951 179.011C84.5724 179.819 85.2477 180.258 86.2204 180.33C93.4502 178.586 100.683 178.586 107.92 180.33C108.692 180.22 109.463 180.11 110.235 180C109.705 179.817 109.319 179.487 109.078 179.011C109.849 179.011 110.621 179.011 111.392 179.011C112.357 179.89 113.321 180.769 114.285 181.648C113.971 181.688 113.779 181.907 113.707 182.308C115.291 183.893 117.027 185.212 118.915 186.264C121.102 188.352 122.452 190.989 122.965 194.176C122.102 197.134 121.137 199.992 120.072 202.747C119.301 202.747 118.529 202.747 117.757 202.747C117.757 201.868 117.757 200.989 117.757 200.11C116.902 200.283 116.131 200.063 115.443 199.451C107.42 191.628 98.3543 189.65 88.2457 193.516C84.7587 195.183 81.4794 197.271 78.4084 199.78C77.4629 200.106 76.4983 200.215 75.5151 200.11C74.4134 196.965 74.124 193.669 74.6471 190.22C75.9931 188.573 77.2471 186.815 78.4084 184.945C80.2966 183.893 82.0326 182.575 83.6164 180.989C83.5446 180.589 83.352 180.369 83.0377 180.33C83.0377 179.451 83.4237 179.011 84.1951 179.011Z" fill="#FDBB4D"/>
<path fill-rule="evenodd" clip-rule="evenodd" d="M103.291 177.692C105.365 177.516 107.293 177.955 109.078 179.011C109.32 179.487 109.705 179.817 110.235 180C109.464 180.11 108.692 180.22 107.92 180.33C100.684 178.586 93.4504 178.586 86.2206 180.33C85.2479 180.259 84.5726 179.819 84.1953 179.011C85.0789 179.059 85.6576 178.619 85.9313 177.692C86.7027 177.692 87.4746 177.692 88.2459 177.692C93.2467 176.881 98.262 176.881 103.291 177.692Z" fill="#F4DB4B"/>
<path fill-rule="evenodd" clip-rule="evenodd" d="M111.392 179.011C110.621 179.011 109.849 179.011 109.078 179.011C107.293 177.955 105.365 177.516 103.291 177.692C101.008 176.819 98.501 176.379 95.7685 176.374C93.0361 176.379 90.5288 176.819 88.2459 177.692C87.4746 177.692 86.7027 177.692 85.9313 177.692C85.2514 177.837 84.6727 177.617 84.1953 177.033C86.3474 176.365 88.4693 175.596 90.5606 174.725C92.631 174.744 94.6564 174.634 96.6365 174.396C101.546 175.334 106.465 176.213 111.392 177.033C112.826 177.943 112.826 178.602 111.392 179.011Z" fill="#1C0B65"/>
<path fill-rule="evenodd" clip-rule="evenodd" d="M103.291 177.692C98.2622 176.881 93.2469 176.881 88.2461 177.692C90.5289 176.819 93.0363 176.379 95.7687 176.374C98.5011 176.379 101.008 176.819 103.291 177.692Z" fill="#8D765E"/>
<path fill-rule="evenodd" clip-rule="evenodd" d="M83.0376 180.33C83.3518 180.369 83.5445 180.589 83.6163 180.989C82.0325 182.575 80.2965 183.893 78.4083 184.945C77.2469 186.815 75.993 188.573 74.647 190.22C74.1239 193.669 74.4132 196.966 75.515 200.11C76.4982 200.215 77.4628 200.106 78.4083 199.78C81.4793 197.271 84.7586 195.183 88.2456 193.517C98.3542 189.65 107.42 191.628 115.443 199.451C116.131 200.063 116.902 200.283 117.757 200.11C117.757 200.989 117.757 201.868 117.757 202.747C118.529 202.747 119.301 202.747 120.072 202.747C121.137 199.992 122.102 197.134 122.965 194.176C122.451 190.989 121.101 188.352 118.915 186.264C117.026 185.212 115.29 183.893 113.707 182.308C113.778 181.908 113.971 181.688 114.285 181.648C121.794 184.253 124.88 189.967 123.544 198.791C122.825 201.084 121.668 203.062 120.072 204.725C119.301 205.604 118.529 205.604 117.757 204.725C111.179 196.144 102.884 192.627 92.8749 194.176C91.3808 193.863 90.2234 194.302 89.4029 195.495C89.0169 195.495 88.6315 195.495 88.2456 195.495C86.7382 195.574 85.5808 196.234 84.7736 197.473C81.6824 199.017 78.9824 201.214 76.6723 204.066C70.1126 196.139 70.6913 188.887 78.4083 182.308C79.8492 181.264 81.3925 180.605 83.0376 180.33Z" fill="#EDD350"/>
<path fill-rule="evenodd" clip-rule="evenodd" d="M88.2464 195.495C87.3871 196.636 86.2297 197.295 84.7744 197.473C85.5816 196.234 86.739 195.574 88.2464 195.495Z" fill="#96795F"/>
<path fill-rule="evenodd" clip-rule="evenodd" d="M92.8753 194.176C92.0131 195.349 90.8558 195.789 89.4033 195.495C90.2239 194.302 91.3812 193.863 92.8753 194.176Z" fill="#8E6762"/>
<path fill-rule="evenodd" clip-rule="evenodd" d="M19.3848 201.429C22.9099 201.185 25.8996 202.503 28.354 205.385C28.6376 206.237 28.734 207.117 28.6434 208.022C27.5776 208.169 26.5168 208.389 25.4607 208.681C23.3927 208.102 21.3674 207.443 19.3848 206.703C19.3848 204.945 19.3848 203.187 19.3848 201.429Z" fill="#E1B268"/>
<path fill-rule="evenodd" clip-rule="evenodd" d="M7.23311 194.176C6.30482 207.06 7.07635 219.807 9.54776 232.418C8.65372 231.936 8.17147 231.057 8.1011 229.78C7.90823 230.659 7.71531 231.539 7.52244 232.418C6.79911 230.317 6.70265 228.119 7.23311 225.824C6.14899 215.745 5.85965 205.635 6.36512 195.494C6.52622 194.891 6.81555 194.451 7.23311 194.176Z" fill="#61B5B4"/>
<path fill-rule="evenodd" clip-rule="evenodd" d="M55.8414 208.681C57.302 210.487 57.8806 212.685 57.5773 215.275C57.1915 215.275 56.8058 215.275 56.42 215.275C55.4556 215.275 54.4912 215.275 53.5267 215.275C50.6595 213.438 47.8626 211.46 45.1361 209.341C44.3063 208.207 43.824 206.888 43.6895 205.385C43.8066 202.162 45.1568 201.064 47.7401 202.088C50.4645 204.323 53.165 206.521 55.8414 208.681Z" fill="#E4B65B"/>
<path fill-rule="evenodd" clip-rule="evenodd" d="M153.635 215.275C153.007 215.196 152.621 214.756 152.478 213.956C152.834 212.891 153.412 212.012 154.214 211.319C154.765 210.3 154.957 209.201 154.792 208.022C153.828 208.022 152.864 208.022 151.899 208.022C152.051 208.997 151.858 209.875 151.32 210.659C148.975 212.233 147.239 214.431 146.112 217.253C145.271 218.415 145.464 219.295 146.691 219.89C147.204 219.346 147.397 218.687 147.27 217.912C148.616 218.079 149.774 217.639 150.742 216.593C151.204 216.895 151.396 217.335 151.32 217.912C150.533 219.249 149.569 220.348 148.427 221.209C147.27 221.209 146.112 221.209 144.955 221.209C144.246 220.779 143.86 220.009 143.798 218.901C144.041 217.59 144.427 216.38 144.955 215.275C147.074 212.42 149.196 209.563 151.32 206.703C152.073 206.302 152.844 205.863 153.635 205.385C154.696 206.211 155.854 206.651 157.107 206.703C157.272 207.882 157.079 208.981 156.528 210C155.762 211.957 154.798 213.715 153.635 215.275Z" fill="#E4BC58"/>
<path fill-rule="evenodd" clip-rule="evenodd" d="M87.0881 201.429C85.9661 202.581 84.7121 203.68 83.3268 204.725C82.5092 206.144 82.0272 207.683 81.8802 209.341C85.7966 209.713 89.6539 210.373 93.4534 211.319C96.9254 211.319 100.397 211.319 103.869 211.319C106.773 211.244 109.666 211.024 112.549 210.659C112.252 211.204 111.48 211.643 110.235 211.978C105.946 212.342 101.702 213.001 97.504 213.956C93.3643 212.523 89.121 212.302 84.7735 213.297C92.461 214.443 100.176 215.212 107.92 215.604C100.58 216.071 93.2497 215.961 85.9308 215.275C84.1578 214.993 82.4218 214.553 80.7229 213.956C79.9515 213.516 79.1796 213.077 78.4082 212.637C78.4776 211.921 78.8636 211.482 79.5655 211.319C81.033 212.542 82.5757 212.762 84.1948 211.978C83.2267 210.932 82.0694 210.493 80.7229 210.659C80.7425 207.936 81.1285 205.299 81.8802 202.747C83.5791 202.15 85.3151 201.711 87.0881 201.429Z" fill="#17184C"/>
<path fill-rule="evenodd" clip-rule="evenodd" d="M153.634 215.275C153.156 216.438 152.385 217.317 151.32 217.912C151.396 217.334 151.203 216.895 150.741 216.593C149.773 217.639 148.616 218.079 147.269 217.912C147.396 218.687 147.203 219.346 146.691 219.89C145.464 219.295 145.27 218.415 146.112 217.253C147.239 214.431 148.975 212.233 151.32 210.659C151.857 209.875 152.05 208.996 151.898 208.022C152.863 208.022 153.827 208.022 154.792 208.022C154.957 209.201 154.764 210.3 154.213 211.319C153.412 212.012 152.833 212.891 152.477 213.956C152.62 214.756 153.006 215.196 153.634 215.275Z" fill="#DCAE6A"/>
<path fill-rule="evenodd" clip-rule="evenodd" d="M53.5264 215.275C54.4908 215.275 55.4552 215.275 56.4197 215.275C56.2512 216.032 55.769 216.472 54.973 216.593C54.177 216.472 53.6948 216.032 53.5264 215.275Z" fill="#BD85A3"/>
<path fill-rule="evenodd" clip-rule="evenodd" d="M183.147 225.165C183.442 223.261 183.056 221.722 181.989 220.549C183.673 218.614 184.444 219.163 184.304 222.198C184.264 223.507 183.879 224.496 183.147 225.165Z" fill="#C3A562"/>
<path fill-rule="evenodd" clip-rule="evenodd" d="M144.955 221.209C146.112 221.209 147.27 221.209 148.427 221.209C147.151 222.802 145.994 222.802 144.955 221.209Z" fill="#BF83A9"/>
<path fill-rule="evenodd" clip-rule="evenodd" d="M35.5876 225.165C37.2329 225.44 38.7761 226.099 40.2169 227.143C42.708 228.564 45.0226 230.323 47.1609 232.418C51.503 237.421 54.975 243.135 57.5768 249.56C60.9938 253.898 65.0444 257.194 69.7287 259.45C75.9609 260.418 82.1335 260.198 88.2459 258.791C88.5178 259.578 89.0965 260.018 89.9818 260.11C94.4514 258.016 99.0807 257.248 103.87 257.802C102.857 258.672 101.7 259.001 100.398 258.791C100.382 259.911 99.9962 260.791 99.2404 261.429C98.8545 261.429 98.4691 261.429 98.0831 261.429C95.0874 262.164 92.1941 263.043 89.4032 264.066C89.4032 264.285 89.4032 264.506 89.4032 264.725C85.8473 265.187 82.2787 265.626 78.6979 266.044C73.9014 265.543 69.1755 264.665 64.5207 263.407C58.8001 259.526 54.1709 254.252 50.6328 247.582C50.19 246.849 49.6114 246.409 48.8968 246.264C48.5918 244.463 48.1096 242.705 47.4502 240.989C45.3373 238.911 43.312 236.714 41.3742 234.396C38.919 232.75 36.4115 231.212 33.8516 229.78C28.5081 228.072 23.1072 226.534 17.6491 225.165C16.4759 223.617 14.9329 222.738 13.0198 222.527C12.8385 224.339 13.0314 226.097 13.5985 227.802C13.8522 229.645 14.4309 231.183 15.3345 232.418C18.9643 244.632 24.9438 255.182 33.273 264.066C37.5138 268.019 41.9502 271.645 46.5822 274.945C51.3297 277.656 56.1519 279.963 61.0487 281.868C63.1423 282.592 65.2643 283.472 67.414 284.505C68.9104 285.152 70.4537 285.371 72.0433 285.165C72.8147 285.384 73.5866 285.605 74.358 285.824C74.358 286.044 74.358 286.264 74.358 286.483C73.185 286.377 72.0277 286.487 70.886 286.813C76.1495 288.494 81.5502 289.702 87.0885 290.439C85.0985 290.707 83.3625 291.367 81.8806 292.418C73.49 292.044 65.3887 290.066 57.5768 286.483C54.1105 284.946 50.6385 283.408 47.1609 281.868C44.1483 279.604 41.0622 277.516 37.9023 275.604C31.6102 269.422 25.6307 262.939 19.9638 256.154C19.0992 253.405 17.749 250.987 15.9131 248.901C14.9972 247.259 14.4186 245.501 14.1771 243.626C15.6905 240.707 15.4976 237.85 13.5985 235.055C13.2127 235.934 12.8269 236.813 12.4412 237.692C10.0766 230.439 9.01576 222.967 9.25851 215.275C10.02 216.941 10.6951 216.941 11.2838 215.275C11.8212 216.059 12.0141 216.938 11.8625 217.912C14.3123 218.434 16.627 219.313 18.8064 220.549C18.8064 221.209 18.8064 221.868 18.8064 222.527C23.3911 223.576 28.0204 224.455 32.6943 225.165C32.5427 226.139 32.7356 227.018 33.273 227.802C34.2569 227.07 35.0285 226.191 35.5876 225.165Z" fill="#20175B"/>
<path fill-rule="evenodd" clip-rule="evenodd" d="M181.989 220.549C183.056 221.722 183.441 223.261 183.146 225.165C180.253 240.328 173.887 253.296 164.05 264.066C162.633 265.474 161.09 266.573 159.421 267.363C160.232 265.747 161.197 264.208 162.314 262.747C164.416 261.013 166.345 259.035 168.101 256.813C170.527 252.556 173.035 248.38 175.623 244.286C174.938 243.394 174.166 242.624 173.309 241.978C174.45 240.649 175.415 240.76 176.202 242.308C179.2 236.115 181.129 229.522 181.989 222.527C176.06 223.541 170.852 226.398 166.365 231.099C164.579 234.773 162.94 238.509 161.446 242.308C160.861 242.86 160.186 243.079 159.421 242.967C162.777 230.137 170.299 222.665 181.989 220.549Z" fill="#EDD052"/>
<path fill-rule="evenodd" clip-rule="evenodd" d="M17.6493 225.165C17.1422 225.078 16.7564 225.298 16.492 225.824C22.5573 228.503 28.7298 230.811 35.0092 232.747C36.4353 234.416 38.1713 235.405 40.2171 235.714C41.6524 237.8 43.3884 239.339 45.4251 240.33C45.7439 242.98 46.9012 244.958 48.897 246.264C49.4786 249.566 50.8288 252.423 52.9477 254.835C62.0859 266.438 73.4664 270.504 87.0887 267.033C89.5891 266.264 92.097 265.495 94.6113 264.725C92.917 264.076 91.181 263.857 89.4034 264.066C92.1943 263.043 95.0876 262.164 98.0833 261.429C97.6609 262.447 96.8895 262.996 95.7686 263.077C96.3473 263.187 96.926 263.296 97.5046 263.407C104.244 262.679 110.995 262.569 117.758 263.077C125.032 264.825 132.361 265.044 139.747 263.736C140.616 263.352 141.387 262.803 142.062 262.088C141.584 261.504 141.006 261.284 140.326 261.429C140.781 260.371 141.552 259.931 142.64 260.11C145.063 259.392 147.377 258.293 149.584 256.813C151.127 254.176 153.056 251.978 155.371 250.22C156.756 247.776 158.106 245.358 159.421 242.967C160.186 243.079 160.862 242.86 161.447 242.308C162.94 238.509 164.58 234.773 166.365 231.099C170.853 226.398 176.061 223.541 181.989 222.527C181.129 229.522 179.201 236.115 176.203 242.308C175.416 240.76 174.451 240.649 173.309 241.978C174.166 242.624 174.938 243.394 175.624 244.286C173.036 248.38 170.528 252.556 168.101 256.813C166.345 259.035 164.416 261.013 162.315 262.747C161.197 264.208 160.233 265.747 159.421 267.363C159.294 268.177 158.908 268.836 158.264 269.341C155.936 271.122 153.621 272.88 151.32 274.615C151.365 273.791 151.751 273.242 152.477 272.967C151.706 272.527 150.934 272.527 150.163 272.967C142.152 278.648 133.473 282.384 124.123 284.176C117.582 285.233 111.023 286.113 104.449 286.813C96.8253 286.857 89.3027 286.967 81.8808 287.143C80.7234 287.143 79.5661 287.143 78.4088 287.143C77.0987 286.669 75.7487 286.449 74.3582 286.484C74.3582 286.264 74.3582 286.044 74.3582 285.824C76.873 285.934 79.3804 285.824 81.8808 285.494C81.4948 285.275 81.1094 285.055 80.7234 284.835C75.67 284.131 70.6547 283.362 65.6782 282.527C65.7778 281.873 65.5845 281.434 65.0996 281.209C59.0537 279.025 53.0741 276.607 47.1611 273.956C47.1611 273.297 47.1611 272.637 47.1611 271.978C46.1412 272.072 45.1768 271.852 44.2677 271.319C40.9941 268.47 37.715 265.612 34.4305 262.747C32.6725 260.965 31.1295 258.987 29.8012 256.813C29.1133 256.201 28.3417 255.981 27.4866 256.154C26.5015 252.375 24.7655 249.078 22.2786 246.264C19.7141 241.24 17.5924 235.965 15.9133 230.44C15.4008 230.984 15.2079 231.643 15.3347 232.418C14.4311 231.183 13.8524 229.645 13.5987 227.802C13.0316 226.097 12.8387 224.339 13.02 222.527C14.9331 222.738 16.4761 223.617 17.6493 225.165Z" fill="#FDBB4D"/>
<path fill-rule="evenodd" clip-rule="evenodd" d="M142.64 260.11C141.553 259.931 140.781 260.371 140.326 261.429C139.361 261.429 138.397 261.429 137.433 261.429C131.657 262.272 125.87 262.272 120.073 261.429C119.687 261.429 119.301 261.429 118.915 261.429C114.093 259.799 109.078 259.029 103.87 259.121C106.914 257.293 110 257.073 113.129 258.462C123.159 258.681 133.189 258.901 143.219 259.121C142.897 259.373 142.705 259.703 142.64 260.11Z" fill="#1A0E66"/>
<path fill-rule="evenodd" clip-rule="evenodd" d="M48.8965 246.264C49.611 246.409 50.1897 246.849 50.6325 247.582C54.1706 254.252 58.7997 259.526 64.5204 263.407C68.7128 265.858 73.246 266.957 78.1189 266.703C82.1406 267.024 85.9019 266.364 89.4028 264.725C89.4028 264.506 89.4028 264.285 89.4028 264.066C91.1805 263.857 92.9165 264.076 94.6108 264.725C92.0965 265.495 89.5886 266.264 87.0882 267.033C73.4659 270.504 62.0853 266.438 52.9471 254.835C50.8282 252.423 49.478 249.566 48.8965 246.264Z" fill="#F2D94E"/>
<path fill-rule="evenodd" clip-rule="evenodd" d="M68.5713 239.011C70.1146 239.89 71.6573 239.89 73.2006 239.011C72.718 239.834 71.9466 240.274 70.8859 240.33C69.8252 240.274 69.0539 239.834 68.5713 239.011Z" fill="#B87CA2"/>
<path fill-rule="evenodd" clip-rule="evenodd" d="M81.8805 237.692C79.8384 238.96 77.5237 239.399 74.9365 239.011C77.169 238.487 79.4836 238.048 81.8805 237.692Z" fill="#C69193"/>
<path fill-rule="evenodd" clip-rule="evenodd" d="M79.5659 231.758C80.3372 231.978 81.1092 232.198 81.8805 232.418C82.4279 233.494 83.0066 234.593 83.6165 235.714C83.3972 236.844 82.8185 237.503 81.8805 237.692C79.4837 238.048 77.169 238.488 74.9366 239.011C74.3579 239.011 73.7792 239.011 73.2006 239.011C71.6573 239.89 70.1146 239.89 68.5713 239.011C68.5713 237.253 68.5713 235.495 68.5713 233.736C70.4687 233.082 72.3974 232.972 74.3579 233.407C71.5196 233.177 69.9769 234.605 69.7286 237.692C73.7532 236.949 77.8038 236.289 81.8805 235.714C80.6132 234.721 79.8413 233.402 79.5659 231.758Z" fill="#E9C246"/>
<path fill-rule="evenodd" clip-rule="evenodd" d="M111.393 239.011C111.393 237.692 111.393 236.374 111.393 235.055C112.971 235.272 114.322 234.833 115.443 233.736C119.415 232.636 123.465 232.196 127.595 232.418C127.842 234.586 127.456 236.564 126.438 238.352C122.406 238.872 118.452 239.751 114.575 240.989C112.989 241.242 111.928 240.583 111.393 239.011Z" fill="#E4B758"/>
<path fill-rule="evenodd" clip-rule="evenodd" d="M79.5659 231.758C79.8413 233.402 80.6132 234.721 81.8805 235.714C77.8038 236.289 73.7532 236.948 69.7286 237.692C69.9769 234.605 71.5196 233.177 74.3579 233.407C72.3974 232.972 70.4687 233.082 68.5713 233.736C69.3918 232.544 70.5492 232.104 72.0433 232.418C74.513 231.842 77.0209 231.622 79.5659 231.758Z" fill="#E1B15A"/>
<path fill-rule="evenodd" clip-rule="evenodd" d="M17.6495 225.165C23.1076 226.534 28.5085 228.072 33.852 229.78C36.4119 231.212 38.9194 232.75 41.3746 234.396C43.3124 236.714 45.3377 238.911 47.4506 240.989C48.11 242.705 48.5922 244.463 48.8973 246.264C46.9014 244.958 45.7441 242.979 45.4253 240.33C43.3886 239.339 41.6526 237.8 40.2173 235.714C38.1715 235.405 36.4355 234.416 35.0094 232.747C28.73 230.811 22.5575 228.503 16.4922 225.824C16.7566 225.298 17.1424 225.078 17.6495 225.165Z" fill="#EACD4E"/>
<path fill-rule="evenodd" clip-rule="evenodd" d="M81.8802 232.418C81.1089 232.198 80.3369 231.978 79.5656 231.758C77.0206 231.622 74.5127 231.842 72.043 232.418C73.4404 231.551 75.0798 231.111 76.9616 231.099C78.8434 231.111 80.4828 231.551 81.8802 232.418Z" fill="#BE83A4"/>
<path fill-rule="evenodd" clip-rule="evenodd" d="M118.915 261.429C119.301 261.429 119.686 261.429 120.072 261.429C122.745 262.304 125.638 262.743 128.752 262.747C131.866 262.743 134.759 262.304 137.432 261.429C138.397 261.429 139.361 261.429 140.326 261.429C141.005 261.284 141.584 261.504 142.062 262.088C141.387 262.803 140.616 263.352 139.747 263.736C132.361 265.044 125.031 264.825 117.758 263.077C110.995 262.569 104.244 262.679 97.5045 263.407C96.9259 263.296 96.3472 263.187 95.7686 263.077C96.8894 262.996 97.6608 262.447 98.0832 261.429C98.4692 261.429 98.8546 261.429 99.2405 261.429C101.883 260.73 104.583 260.291 107.342 260.11C111.272 260.238 115.13 260.678 118.915 261.429Z" fill="#FAD84A"/>
<path fill-rule="evenodd" clip-rule="evenodd" d="M120.072 261.429C125.87 262.272 131.656 262.272 137.432 261.429C134.759 262.304 131.866 262.743 128.752 262.747C125.638 262.743 122.745 262.304 120.072 261.429Z" fill="#766659"/>
<path fill-rule="evenodd" clip-rule="evenodd" d="M65.0995 281.209C63.8802 281.847 62.5296 282.067 61.0488 281.868C56.152 279.963 51.3298 277.656 46.5823 274.945C41.9503 271.645 37.5139 268.019 33.2731 264.066C24.9439 255.182 18.9644 244.633 15.3346 232.418C15.2078 231.643 15.4007 230.984 15.9132 230.44C17.5923 235.966 19.714 241.24 22.2785 246.264C24.7654 249.078 26.5014 252.375 27.4865 256.154C28.3416 255.981 29.1132 256.201 29.8011 256.813C31.1294 258.987 32.6724 260.965 34.4304 262.747C37.7149 265.612 40.994 268.47 44.2677 271.319C45.1767 271.852 46.1411 272.072 47.161 271.978C47.161 272.637 47.161 273.297 47.161 273.956C53.074 276.607 59.0536 279.025 65.0995 281.209Z" fill="#E8D050"/>
<path fill-rule="evenodd" clip-rule="evenodd" d="M64.5205 263.407C69.1753 264.665 73.9012 265.544 78.6977 266.044C82.2785 265.626 85.8471 265.187 89.403 264.725C85.9021 266.364 82.1408 267.024 78.1191 266.703C73.2462 266.957 68.7129 265.858 64.5205 263.407Z" fill="#BEAA59"/>
<path fill-rule="evenodd" clip-rule="evenodd" d="M65.0995 281.209C65.5844 281.434 65.7777 281.873 65.6781 282.527C67.899 283.063 70.021 283.942 72.0434 285.165C70.4538 285.371 68.9105 285.152 67.4141 284.505C65.2644 283.472 63.1424 282.592 61.0488 281.868C62.5296 282.067 63.8802 281.847 65.0995 281.209Z" fill="#B9A459"/>
<path fill-rule="evenodd" clip-rule="evenodd" d="M65.6777 282.527C70.6542 283.362 75.6695 284.131 80.7229 284.835C81.1089 285.055 81.4943 285.275 81.8803 285.494C79.3799 285.824 76.8725 285.934 74.3577 285.824C73.5863 285.605 72.8144 285.384 72.043 285.165C70.0206 283.942 67.8986 283.063 65.6777 282.527Z" fill="#FADC4C"/>
<path fill-rule="evenodd" clip-rule="evenodd" d="M127.595 285.824C125.557 286.356 123.435 286.796 121.229 287.143C123.072 285.881 125.194 285.442 127.595 285.824Z" fill="#806C59"/>
<path fill-rule="evenodd" clip-rule="evenodd" d="M151.32 274.615C149.415 275.695 147.679 277.013 146.112 278.571C139.889 281.028 133.717 283.445 127.595 285.824C125.194 285.442 123.072 285.881 121.23 287.143C118.268 286.745 115.568 287.185 113.129 288.462C104.063 288.462 94.9974 288.462 85.9315 288.462C84.9021 287.246 83.552 286.807 81.8809 287.143C89.3028 286.967 96.8254 286.857 104.449 286.813C111.023 286.113 117.582 285.233 124.123 284.176C133.473 282.384 142.153 278.648 150.163 272.967C150.934 272.527 151.706 272.527 152.478 272.967C151.751 273.242 151.365 273.791 151.32 274.615Z" fill="#F5D84D"/>
<path fill-rule="evenodd" clip-rule="evenodd" d="M146.112 278.571C146.967 278.399 147.738 278.618 148.426 279.231C146.461 279.712 145.303 281.031 144.954 283.187C141.433 284.054 138.057 285.373 134.828 287.143C133.773 286.888 132.712 286.667 131.645 286.484C127.473 287.759 123.229 288.638 118.915 289.121C118.529 290.44 118.143 291.758 117.757 293.077C115.921 293.142 114.185 292.702 112.549 291.758C102.302 290.891 92.0792 291.111 81.8803 292.418C83.3623 291.367 85.0983 290.707 87.0883 290.44C81.5499 289.702 76.1493 288.494 70.8857 286.813C72.0274 286.487 73.1848 286.377 74.3577 286.484C75.7482 286.449 77.0983 286.669 78.4083 287.143C80.8231 287.709 83.331 288.148 85.931 288.462C94.9968 288.462 104.062 288.462 113.128 288.462C115.909 288.092 118.609 287.653 121.229 287.143C123.435 286.796 125.557 286.356 127.595 285.824C133.716 283.445 139.888 281.028 146.112 278.571Z" fill="#23165D"/>
<path fill-rule="evenodd" clip-rule="evenodd" d="M121.229 287.143C118.608 287.652 115.908 288.092 113.128 288.461C115.567 287.185 118.267 286.745 121.229 287.143Z" fill="#6D595C"/>
<path fill-rule="evenodd" clip-rule="evenodd" d="M78.4082 287.143C79.5655 287.143 80.7229 287.143 81.8802 287.143C83.5513 286.807 84.9014 287.246 85.9308 288.461C83.3309 288.148 80.823 287.709 78.4082 287.143Z" fill="#81705C"/>
<path fill-rule="evenodd" clip-rule="evenodd" d="M88.2461 293.736C95.5627 294.313 102.893 294.533 110.235 294.396C103.392 295.161 96.448 295.27 89.4034 294.725C88.8734 294.542 88.488 294.212 88.2461 293.736Z" fill="#497D93"/>
</svg>
