<svg width="476" height="634" viewBox="0 0 476 634" fill="none" xmlns="http://www.w3.org/2000/svg">
<g clip-path="url(#clip0_42_3287)">
<path fill-rule="evenodd" clip-rule="evenodd" d="M339.354 149.017C337.879 150.696 336.371 152.502 334.829 154.436C329.808 150.729 324.681 150.127 319.445 152.63C312.962 156.376 307.232 161.192 302.251 167.08C300.854 166.818 299.647 166.216 298.631 165.273C286.322 145.438 284.21 124.666 292.297 102.957C289.779 97.7687 285.555 94.7582 279.628 93.9259C274.198 92.7217 268.768 92.7217 263.339 93.9259C249.954 97.7761 236.683 101.991 223.521 106.57C209.015 110.014 194.536 110.014 180.084 106.57C175.356 105.415 171.133 103.307 167.415 100.248C164.096 108.371 162.287 116.8 161.985 125.536C160.184 147.491 159.58 169.769 160.175 192.367C160.605 194.699 160.001 196.506 158.365 197.786C156.86 169.197 155.956 140.296 155.65 111.085C155.047 106.269 154.444 101.452 153.841 96.6353C150.75 93.8582 148.036 90.8478 145.696 87.604C143.945 82.284 143.643 76.8652 144.791 71.3475C155.288 46.4277 173.689 30.4724 199.993 23.4815C235.17 17.4303 265.938 26.1605 292.297 49.6723C310.531 51.5938 324.708 60.023 334.829 74.9601C348.796 98.7819 350.304 123.468 339.354 149.017Z" fill="#281861"/>
<path fill-rule="evenodd" clip-rule="evenodd" d="M319.445 152.63C326.551 151.811 332.281 154.219 336.639 159.855C342.899 188.186 331.74 203.238 303.156 205.011C300.762 223.99 300.762 243.257 303.156 262.812C305.069 265.527 306.276 268.538 306.776 271.843C301.764 287.383 291.508 297.919 276.008 303.453C261.679 310.725 247.2 311.326 232.57 305.259C227.912 301.072 224.895 295.955 223.521 289.906C223.521 282.681 223.521 275.456 223.521 268.231C229.932 268.796 235.964 268.193 241.62 266.424C254.633 265.606 265.492 260.489 274.198 251.071C273.595 250.168 272.991 249.265 272.388 248.362C225.566 275.235 190.273 264.398 166.51 215.849C165.596 212.204 164.691 208.591 163.795 205.011C162.254 178.551 161.651 152.059 161.985 125.536C162.286 116.8 164.096 108.371 167.415 100.248C171.133 103.307 175.356 105.415 180.084 106.57C194.536 110.014 209.015 110.014 223.521 106.57C236.683 101.991 249.954 97.7761 263.339 93.9259C268.768 92.7216 274.198 92.7216 279.627 93.9259C285.555 94.7582 289.779 97.7687 292.297 102.957C284.21 124.665 286.322 145.438 298.631 165.273C299.647 166.216 300.854 166.818 302.251 167.08C307.232 161.192 312.962 156.376 319.445 152.63Z" fill="#FABD87"/>
<path fill-rule="evenodd" clip-rule="evenodd" d="M176.464 121.923C182.527 121.625 188.559 121.926 194.562 122.826C197.99 124.776 198.593 127.184 196.372 130.051C189.133 130.653 181.893 131.255 174.654 131.857C173.703 133.108 172.496 134.011 171.034 134.567C169.018 132.358 168.716 129.949 170.129 127.342C172.201 125.289 174.313 123.483 176.464 121.923Z" fill="#35225B"/>
<path fill-rule="evenodd" clip-rule="evenodd" d="M241.62 125.536C251.278 125.086 260.327 127.193 268.768 131.858C273.566 136.072 273.264 139.384 267.863 141.792C259.905 135.066 250.554 132.055 239.81 132.761C239.689 130.126 240.292 127.717 241.62 125.536Z" fill="#261858"/>
<path fill-rule="evenodd" clip-rule="evenodd" d="M339.354 149.017C341.361 156.974 342.568 165.102 342.974 173.402C342.782 178.611 342.179 183.73 341.164 188.755C335.778 200.124 326.728 206.747 314.016 208.624C311.603 208.624 309.189 208.624 306.776 208.624C306.776 219.462 306.776 230.299 306.776 241.137C305.569 229.094 304.363 217.054 303.156 205.011C331.74 203.238 342.9 188.186 336.639 159.855C332.281 154.219 326.551 151.811 319.445 152.63C324.681 150.127 329.809 150.729 334.829 154.436C336.371 152.502 337.879 150.696 339.354 149.017Z" fill="#291F52"/>
<path fill-rule="evenodd" clip-rule="evenodd" d="M161.984 125.536C161.65 152.059 162.254 178.551 163.794 205.011C162.588 200.797 161.381 196.582 160.175 192.368C159.58 169.769 160.183 147.492 161.984 125.536Z" fill="#846E68"/>
<path fill-rule="evenodd" clip-rule="evenodd" d="M180.084 158.048C188.351 157.294 191.066 160.907 188.228 168.886C185.702 172.547 182.687 173.149 179.179 170.692C177.906 166.305 178.208 162.09 180.084 158.048Z" fill="#2C1C5A"/>
<path fill-rule="evenodd" clip-rule="evenodd" d="M247.05 158.048C249.442 157.741 251.554 158.344 253.384 159.855C254.591 164.069 254.591 168.284 253.384 172.499C250.972 174.907 248.557 174.907 246.145 172.499C244.838 167.512 245.14 162.696 247.05 158.048Z" fill="#291859"/>
<path fill-rule="evenodd" clip-rule="evenodd" d="M207.232 156.242C209.197 156.459 210.405 157.663 210.852 159.855C207.54 168.877 204.222 177.909 200.897 186.949C199.404 190.924 200.309 194.235 203.612 196.883C209.138 197.207 214.567 198.11 219.901 199.593C213.346 201.686 206.709 201.986 199.992 200.496C197.314 198.149 196.108 195.138 196.373 191.464C199.1 179.389 202.72 167.648 207.232 156.242Z" fill="#271856"/>
<path fill-rule="evenodd" clip-rule="evenodd" d="M319.445 168.886C321.572 168.49 323.382 169.092 324.875 170.692C317.595 174.487 313.976 180.508 314.015 188.755C310.606 186.6 309.701 183.591 311.301 179.724C313.711 175.822 316.426 172.209 319.445 168.886Z" fill="#312157"/>
<path fill-rule="evenodd" clip-rule="evenodd" d="M314.016 208.624C312.732 210.257 310.922 210.858 308.586 210.43C308.586 227.891 308.586 245.351 308.586 262.812C306.807 255.952 306.202 248.727 306.776 241.137C306.776 230.299 306.776 219.462 306.776 208.624C309.189 208.624 311.603 208.624 314.016 208.624Z" fill="#8EB3B9"/>
<path fill-rule="evenodd" clip-rule="evenodd" d="M276.008 531.946C271.834 531.055 267.612 530.454 263.338 530.14C254.432 472.301 242.365 415.102 227.141 358.544C196.66 351.617 165.892 346.198 134.837 342.288C128.979 342.255 124.153 340.449 120.357 336.869C143.762 302.353 176.34 282.484 218.091 277.262C217.8 307.884 232.883 319.624 263.338 312.484C287.54 307.943 304.432 294.396 314.015 271.843C340.358 278.499 365.697 287.832 390.03 299.84C412.717 316.454 428.101 338.431 436.183 365.769C443.098 385.551 449.735 405.42 456.091 425.376C458.402 431.873 459.005 438.497 457.901 445.245C431.368 454.833 403.918 458.445 375.551 456.083C370.446 429.688 363.809 403.797 355.643 378.413C354.106 384.392 354.408 390.414 356.548 396.476C361.375 416.955 366.201 437.427 371.027 457.889C372.837 459.094 374.646 460.297 376.456 461.501C377.87 467.523 378.473 473.544 378.266 479.564C350.696 498.039 322.643 515.801 294.106 532.849C287.909 534.198 281.877 533.897 276.008 531.946Z" fill="#874BE1"/>
<path fill-rule="evenodd" clip-rule="evenodd" d="M133.027 345.9C161.407 350.721 189.761 355.838 218.091 361.254C214.124 362.926 210.504 365.034 207.232 367.576C160.114 361.246 113.057 354.323 66.0609 346.803C65.4576 346.202 64.8542 345.599 64.251 344.997C69.2269 341.489 74.6566 339.382 80.5399 338.675C97.9116 342.067 115.407 344.475 133.027 345.9Z" fill="#F2A96A"/>
<path fill-rule="evenodd" clip-rule="evenodd" d="M199.992 372.994C201.795 372.839 203.302 373.442 204.517 374.801C214.739 416.782 223.789 458.928 231.665 501.239C190.945 492.385 150.223 483.054 109.498 473.242C108.136 472.03 107.533 470.526 107.688 468.727C98.9607 430.874 90.5147 392.943 82.3496 354.932C121.667 360.369 160.881 366.389 199.992 372.994Z" fill="#FCC278"/>
<path fill-rule="evenodd" clip-rule="evenodd" d="M104.068 468.727C103.542 470.802 102.033 472.007 99.5437 472.339C94.5093 470.583 89.3812 469.079 84.1597 467.823C83.0567 464.305 81.8503 460.992 80.5399 457.889C74.0113 424.303 66.7718 390.887 58.8213 357.641C59.4245 355.533 60.0279 353.427 60.6312 351.319C65.9182 352.957 71.3479 353.559 76.9201 353.125C85.3282 392.072 94.3776 430.607 104.068 468.727Z" fill="#F5A15F"/>
<path fill-rule="evenodd" clip-rule="evenodd" d="M160.175 192.367C161.382 196.581 162.588 200.797 163.795 205.011C164.691 208.591 165.596 212.204 166.51 215.849C190.273 264.398 225.566 275.235 272.388 248.362C272.991 249.265 273.595 250.168 274.198 251.071C265.492 260.489 254.633 265.606 241.62 266.424C234.983 266.424 228.348 266.424 221.711 266.424C221.135 274.61 221.738 282.439 223.521 289.906C224.895 295.955 227.912 301.072 232.57 305.259C247.2 311.326 261.679 310.725 276.008 303.453C291.507 297.919 301.764 287.383 306.776 271.843C306.276 268.538 305.069 265.527 303.156 262.812C300.761 243.257 300.761 223.99 303.156 205.011C304.363 217.054 305.568 229.094 306.776 241.137C306.202 248.727 306.806 255.952 308.586 262.812C309.595 265.142 311.405 266.647 314.015 267.328C326.9 270.259 339.569 273.872 352.023 278.165C377.216 285.596 398.935 298.542 417.179 317C438.049 353.878 453.433 393.015 463.331 434.407C464.538 438.621 464.538 442.837 463.331 447.051C462.084 448.599 460.576 449.802 458.806 450.664C457.003 461.435 456.401 472.272 456.996 483.177C455.789 483.177 454.584 483.177 453.376 483.177C453.376 473.544 453.376 463.909 453.376 454.276C429.58 459.84 405.449 462.247 380.981 461.501C382.398 468.087 382.7 474.709 381.886 481.37C353.954 502.383 324.695 521.348 294.106 538.268C288.011 539.249 281.978 538.947 276.008 537.365C273.595 535.558 273.595 533.752 276.008 531.946C281.877 533.897 287.909 534.198 294.106 532.849C322.643 515.801 350.696 498.039 378.266 479.564C378.473 473.544 377.87 467.523 376.456 461.501C374.646 460.297 372.837 459.094 371.027 457.889C366.201 437.427 361.375 416.955 356.548 396.476C354.408 390.414 354.106 384.392 355.643 378.413C363.809 403.797 370.446 429.688 375.551 456.083C403.918 458.445 431.368 454.833 457.901 445.245C459.005 438.497 458.402 431.873 456.091 425.376C449.735 405.42 443.098 385.551 436.183 365.769C428.101 338.431 412.717 316.454 390.03 299.84C365.697 287.832 340.358 278.499 314.015 271.843C304.432 294.396 287.54 307.943 263.338 312.484C232.883 319.624 217.8 307.884 218.091 277.262C176.34 282.484 143.762 302.353 120.357 336.869C120.59 333.769 121.194 330.758 122.167 327.838C144.983 296.569 175.751 278.205 214.471 272.746C215.416 271.733 216.019 270.528 216.281 269.134C206.521 264.065 196.869 258.647 187.323 252.877C170.25 238.366 160.597 220.002 158.365 197.786C160.001 196.506 160.604 194.699 160.175 192.367Z" fill="#2A1B5D"/>
<path fill-rule="evenodd" clip-rule="evenodd" d="M241.62 266.425C235.964 268.193 229.931 268.796 223.521 268.231C223.521 275.456 223.521 282.681 223.521 289.906C221.738 282.439 221.135 274.611 221.711 266.425C228.348 266.425 234.983 266.425 241.62 266.425Z" fill="#876F79"/>
<path fill-rule="evenodd" clip-rule="evenodd" d="M250.669 212.236C252.473 212.182 253.681 213.085 254.289 214.946C249.035 222.576 241.795 227.391 232.57 229.396C225.331 230.601 218.091 230.601 210.852 229.396C206.604 228.11 202.984 226.002 199.992 223.074C203.045 221.145 206.063 221.447 209.042 223.977C221.848 226.426 233.915 224.62 245.239 218.558C247.429 216.682 249.239 214.574 250.669 212.236Z" fill="#2E1D5B"/>
<path fill-rule="evenodd" clip-rule="evenodd" d="M122.168 327.838C121.194 330.758 120.591 333.769 120.358 336.869C124.153 340.449 128.979 342.255 134.837 342.288C134.234 343.493 133.63 344.696 133.027 345.9C115.407 344.475 97.9119 342.067 80.5402 338.675C74.6568 339.382 69.2272 341.489 64.2512 344.997C64.8545 345.599 65.4579 346.202 66.0611 346.803C113.057 354.323 160.114 361.246 207.232 367.576C204.82 369.382 202.405 371.188 199.993 372.994C160.882 366.389 121.668 360.369 82.3501 354.932C90.5152 392.943 98.9612 430.874 107.688 468.727C106.067 466.909 104.861 466.909 104.069 468.727C94.3779 430.607 85.3284 392.072 76.9204 353.125C71.3482 353.559 65.9185 352.957 60.6315 351.319C60.0282 353.427 59.4248 355.533 58.8216 357.641C66.772 390.887 74.0116 424.303 80.5402 457.889C79.1104 455.886 78.2055 453.478 77.8254 450.664C76.985 451.737 76.6833 452.942 76.9204 454.276C67.1262 419.289 58.68 383.767 51.582 347.707C60.2002 339.493 70.4561 334.676 82.3501 333.256C92.0008 335.415 101.955 337.221 112.213 338.675C115.915 335.289 119.233 331.676 122.168 327.838Z" fill="#2F1D57"/>
<path fill-rule="evenodd" clip-rule="evenodd" d="M453.377 483.177C453.869 505.368 445.422 523.129 428.038 536.462C415.213 544.064 401.941 550.688 388.221 556.33C360.383 563.563 333.235 572.594 306.776 583.425C292.456 601.251 274.055 611.788 251.574 615.034C248.859 614.433 246.145 613.829 243.43 613.228C253.902 609.968 262.951 604.549 270.578 596.972C269.975 596.37 269.371 595.767 268.768 595.165C261.322 599.945 253.478 603.859 245.24 606.906C239.207 608.111 233.173 608.111 227.141 606.906C225.678 606.35 224.471 605.447 223.521 604.197C236.147 600.759 247.308 594.737 257.004 586.134C258.249 584.631 257.947 583.428 256.099 582.521C246.436 588.86 236.181 593.977 225.331 597.875C219.299 599.079 213.264 599.079 207.232 597.875C205.77 597.318 204.562 596.415 203.612 595.165C205.871 591.627 208.888 588.917 212.662 587.037C228.455 580.905 242.329 571.873 254.289 559.943C245.24 559.342 236.19 558.738 227.141 558.137C224.728 555.729 224.728 553.319 227.141 550.912C235.902 545.636 244.952 540.818 254.289 536.462C261.626 535.208 268.866 535.51 276.008 537.365C281.979 538.947 288.011 539.249 294.107 538.268C324.695 521.349 353.954 502.383 381.886 481.37C382.701 474.709 382.398 468.087 380.981 461.501C405.449 462.247 429.58 459.84 453.377 454.276C453.377 463.909 453.377 473.544 453.377 483.177Z" fill="#FABD87"/>
<path fill-rule="evenodd" clip-rule="evenodd" d="M134.836 342.288C165.892 346.198 196.66 351.617 227.14 358.544C242.365 415.102 254.432 472.301 263.338 530.139C267.611 530.454 271.834 531.055 276.007 531.946C273.595 533.752 273.595 535.558 276.007 537.365C268.865 535.509 261.626 535.208 254.289 536.461C244.951 540.818 235.902 545.635 227.14 550.912C224.728 553.319 224.728 555.729 227.14 558.137C236.19 558.738 245.239 559.341 254.289 559.943C242.329 571.873 228.454 580.905 212.661 587.037C208.888 588.917 205.871 591.627 203.612 595.165C204.562 596.415 205.769 597.318 207.232 597.874C213.264 599.079 219.298 599.079 225.33 597.874C236.181 593.977 246.436 588.859 256.099 582.521C257.946 583.428 258.249 584.631 257.003 586.134C247.308 594.737 236.146 600.759 223.521 604.196C224.471 605.446 225.678 606.349 227.14 606.906C233.173 608.111 239.207 608.111 245.239 606.906C253.478 603.859 261.322 599.944 268.768 595.165C269.37 595.767 269.975 596.37 270.578 596.971C262.951 604.549 253.901 609.967 243.429 613.228C246.144 613.829 248.859 614.433 251.574 615.034C274.054 611.788 292.456 601.25 306.775 583.424C333.234 572.594 360.382 563.563 388.22 556.33C401.941 550.688 415.213 544.064 428.038 536.461C445.422 523.129 453.868 505.368 453.376 483.176C454.583 483.176 455.789 483.176 456.996 483.176C456.781 497.805 453.463 511.654 447.042 524.721C432.41 539.705 415.216 550.843 395.46 558.137C368.398 567.446 341.25 576.477 314.015 585.231C304.965 593.057 295.916 600.886 286.867 608.712C273.597 617.339 259.117 620.951 243.429 619.55C232.61 615.431 222.355 610.013 212.661 603.293C207.499 602.807 202.674 601.301 198.182 598.778C187.057 607.773 176.197 617.104 165.604 626.775C162.646 629.137 159.328 630.644 155.65 631.29C103.094 613.508 50.9087 594.842 -0.905273 575.296C-0.905273 562.051 -0.905273 548.804 -0.905273 535.558C33.52 517.172 67.3044 497.603 100.448 476.855C93.1835 475.343 85.9439 473.836 78.7297 472.339C78.1265 466.319 77.5231 460.296 76.9198 454.276C76.6827 452.941 76.9844 451.737 77.8248 450.664C78.2048 453.478 79.1098 455.886 80.5396 457.889C81.85 460.992 83.0564 464.305 84.1594 467.823C89.3809 469.079 94.509 470.583 99.5434 472.339C102.033 472.007 103.541 470.802 104.068 468.726C104.86 466.909 106.067 466.909 107.688 468.726C107.533 470.525 108.136 472.03 109.498 473.242C150.222 483.054 190.944 492.385 231.665 501.239C223.788 458.927 214.739 416.782 204.517 374.8C203.302 373.442 201.795 372.839 199.992 372.994C202.405 371.188 204.819 369.382 207.232 367.575C210.504 365.034 214.124 362.926 218.091 361.253C189.761 355.838 161.407 350.721 133.026 345.9C133.63 344.695 134.233 343.492 134.836 342.288Z" fill="#2B1B59"/>
<path fill-rule="evenodd" clip-rule="evenodd" d="M151.125 510.271C166.718 511.938 180.292 517.96 191.848 528.333C198.061 538.297 197.156 547.63 189.133 556.33C184.793 559.083 180.569 561.793 176.464 564.459C169.925 566.24 163.288 567.744 156.555 568.974C155.549 569.666 154.945 570.569 154.745 571.684C124.905 578.007 98.0582 571.985 74.205 553.621C66.7349 537.495 71.2596 525.754 87.7791 518.399C94.6697 515.001 101.909 512.895 109.498 512.077C123.311 510.527 137.187 509.926 151.125 510.271Z" fill="#F67D4B"/>
<path fill-rule="evenodd" clip-rule="evenodd" d="M111.308 479.564C158.9 490.046 206.56 500.582 254.289 511.174C248.352 516.811 241.715 521.327 234.38 524.721C216.906 521.583 201.221 514.658 187.323 503.949C165.068 493.673 141.842 490.362 117.642 494.014C115.242 493.554 113.432 492.349 112.213 490.402C111.316 486.838 111.014 483.225 111.308 479.564Z" fill="#F2A262"/>
<path fill-rule="evenodd" clip-rule="evenodd" d="M100.449 481.37C102.259 481.37 104.069 481.37 105.879 481.37C106.949 486.115 107.553 490.933 107.689 495.821C81.2847 499.615 60.7727 512.561 46.1525 534.655C40.4115 537.82 34.9818 541.432 29.8635 545.493C21.2962 545.655 13.4534 543.246 6.33496 538.268C38.4552 520.324 69.8265 501.359 100.449 481.37Z" fill="#F09E5E"/>
<path fill-rule="evenodd" clip-rule="evenodd" d="M219.901 363.963C221.704 363.808 223.212 364.411 224.426 365.769C235.546 411.882 245.5 458.243 254.289 504.852C248.892 504.016 243.462 503.414 238 503.046C230.381 459.518 220.728 416.469 209.042 373.898C213.078 370.991 216.698 367.679 219.901 363.963Z" fill="#F2A767"/>
<path fill-rule="evenodd" clip-rule="evenodd" d="M219.901 557.234C218.511 555.855 217.606 554.049 217.186 551.815C215.709 554.204 213.597 555.407 210.852 555.427C224.784 540.937 239.868 527.692 256.099 515.689C257.872 520.36 258.475 525.178 257.909 530.14C244.709 535.073 232.34 541.696 220.806 550.009C219.919 552.344 219.617 554.754 219.901 557.234Z" fill="#EDBB7C"/>
<path fill-rule="evenodd" clip-rule="evenodd" d="M190.943 562.652C207.335 544.044 204.923 528.09 183.703 514.786C146.43 497.576 110.233 499.382 75.1103 520.205C60.6542 533.913 60.6542 547.762 75.1103 561.749C59.4774 559.988 52.5394 551.258 54.2966 535.558C62.9292 519.719 75.9001 509.183 93.2092 503.949C129.19 493.514 163.578 497.126 196.373 514.786C207.659 521.769 213.391 531.704 213.567 544.59C206.218 551.038 198.677 557.06 190.943 562.652Z" fill="#EBB35F"/>
<path fill-rule="evenodd" clip-rule="evenodd" d="M151.125 517.496C157.807 516.54 163.538 518.346 168.319 522.915C170.289 534.195 165.463 539.012 153.84 537.365C143.422 539.01 139.199 534.796 141.171 524.721C143.886 521.164 147.204 518.757 151.125 517.496Z" fill="#321A59"/>
<path fill-rule="evenodd" clip-rule="evenodd" d="M149.316 524.721C153.582 524.426 157.805 524.726 161.985 525.624C164.321 529.399 163.115 531.808 158.365 532.849C152.793 534.818 148.57 533.313 145.696 528.333C147.04 527.101 148.247 525.897 149.316 524.721Z" fill="#EB7D50"/>
<path fill-rule="evenodd" clip-rule="evenodd" d="M113.118 515.689C118.818 515.167 124.247 516.07 129.407 518.399C132.52 523.973 131.314 528.187 125.787 531.043C117.417 533.846 111.384 531.438 107.688 523.818C109.163 520.85 110.973 518.14 113.118 515.689Z" fill="#331954"/>
<path fill-rule="evenodd" clip-rule="evenodd" d="M114.928 521.108C129.407 522.914 129.407 524.721 114.928 526.527C114.928 524.721 114.928 522.914 114.928 521.108Z" fill="#E2805A"/>
<path fill-rule="evenodd" clip-rule="evenodd" d="M151.125 510.271C137.187 509.926 123.311 510.527 109.498 512.077C110.878 510.69 112.688 509.787 114.928 509.367C127.319 507.885 139.385 508.186 151.125 510.271Z" fill="#AB6364"/>
<path fill-rule="evenodd" clip-rule="evenodd" d="M214.472 524.721C220.535 524.732 225.964 526.538 230.761 530.14C227.172 532.816 223.854 535.827 220.806 539.171C218.28 534.54 216.168 529.722 214.472 524.721Z" fill="#E8C37F"/>
<path fill-rule="evenodd" clip-rule="evenodd" d="M46.1516 539.171C48.0176 543.616 49.2243 548.432 49.7714 553.621C44.3805 552.145 38.9508 550.639 33.4824 549.105C37.8307 545.758 42.0539 542.447 46.1516 539.171Z" fill="#E8C483"/>
<path fill-rule="evenodd" clip-rule="evenodd" d="M160.175 546.396C165.151 545.988 169.977 546.589 174.654 548.202C176.67 550.411 176.972 552.819 175.559 555.427C171.214 557.418 166.689 557.719 161.985 556.33C158.121 553.52 157.518 550.209 160.175 546.396Z" fill="#2E195C"/>
<path fill-rule="evenodd" clip-rule="evenodd" d="M84.16 537.365C89.6229 537.067 95.0526 537.368 100.449 538.268C105.537 544.218 104.934 549.636 98.6391 554.524C83.1658 556.879 78.3394 551.161 84.16 537.365Z" fill="#2F1757"/>
<path fill-rule="evenodd" clip-rule="evenodd" d="M89.5893 540.977C96.6828 539.615 99.0961 542.025 96.8288 548.202C87.044 551.696 84.6309 549.288 89.5893 540.977Z" fill="#DA7352"/>
<path fill-rule="evenodd" clip-rule="evenodd" d="M4.52519 544.59C2.73853 553.269 2.13522 562.3 2.71531 571.684C0.335784 562.327 0.335784 552.693 2.71531 542.783C3.81331 543.007 4.41662 543.609 4.52519 544.59Z" fill="#A17F6C"/>
<path fill-rule="evenodd" clip-rule="evenodd" d="M4.5251 544.59C54.2181 561.323 103.688 578.782 152.936 596.972C155.04 606.548 155.342 616.183 153.841 625.872C103.623 607.598 53.2483 589.535 2.71522 571.684C2.13513 562.3 2.73844 553.269 4.5251 544.59Z" fill="#F9C279"/>
<path fill-rule="evenodd" clip-rule="evenodd" d="M125.787 550.009C133.346 549.409 139.681 551.818 144.791 557.234C146.661 562.141 145.153 565.454 140.266 567.168C134.233 568.373 128.2 568.373 122.168 567.168C114.831 559.891 116.038 554.17 125.787 550.009Z" fill="#331A56"/>
<path fill-rule="evenodd" clip-rule="evenodd" d="M123.977 557.234C128.242 556.939 132.466 557.239 136.646 558.137C137.474 558.885 138.077 559.788 138.456 560.846C133.739 562.927 128.913 563.227 123.977 561.749C121.989 560.358 121.989 558.854 123.977 557.234Z" fill="#F28654"/>
<path fill-rule="evenodd" clip-rule="evenodd" d="M176.464 564.459C176.263 565.573 175.66 566.476 174.654 567.168C168.079 569.063 161.443 570.568 154.745 571.684C154.945 570.569 155.549 569.666 156.555 568.974C163.289 567.744 169.925 566.24 176.464 564.459Z" fill="#542E4A"/>
<path fill-rule="evenodd" clip-rule="evenodd" d="M219.901 557.234C222.102 560.758 225.117 563.467 228.951 565.362C205.793 584.256 183.169 603.823 161.08 624.066C159.873 614.433 159.873 604.798 161.08 595.165C176.956 580.806 193.546 567.558 210.852 555.427C213.597 555.408 215.709 554.205 217.186 551.815C217.606 554.049 218.511 555.856 219.901 557.234Z" fill="#F8A25F"/>
<path fill-rule="evenodd" clip-rule="evenodd" d="M152.936 577.103C143.886 578.307 134.837 579.51 125.787 580.715C122.886 581.055 120.472 580.152 118.548 578.006C129.995 577.103 141.457 576.803 152.936 577.103Z" fill="#8F6E55"/>
<path fill-rule="evenodd" clip-rule="evenodd" d="M190.943 562.652C179.561 572.191 168.098 581.824 156.555 591.553C145.994 588.643 135.738 585.03 125.787 580.715C134.837 579.51 143.886 578.307 152.935 577.102C166.525 574.393 179.194 569.576 190.943 562.652Z" fill="#EAAF62"/>
</g>
<defs>
<clipPath id="clip0_42_3287">
<rect width="476" height="634" fill="white"/>
</clipPath>
</defs>
</svg>
